<?xml version="1.0" encoding="utf-8"?>
<!-- Generator: Adobe Illustrator 26.3.1, SVG Export Plug-In . SVG Version: 6.00 Build 0)  -->
<svg version="1.1" id="Calque_1" xmlns="http://www.w3.org/2000/svg" xmlns:xlink="http://www.w3.org/1999/xlink" x="0px" y="0px"
	 viewBox="0 0 400 400" style="enable-background:new 0 0 400 400;" xml:space="preserve">
<style type="text/css">
	.st0{fill:#FEE7F0;}
</style>
<g>
	<path class="st0" d="M139,166.8c0.6,0.7,1.2,1.4,1.8,2.2c2.6,3.5,5.1,7,7.7,10.4c5.2,6.8,12,10.9,20.3,12.6
		c4.8,0.9,9.7,1.6,14.5,2.6c2.9,0.6,5.6,0.7,8.4-1.7c1.3,8.3,2.1,16.4,5.3,24.6c0.3-1.3,0.5-1.8,0.5-2.4c0.5-4.6,1-9.2,1.4-13.8
		c0.1-0.6,0.3-1.4,0-1.8c-1.3-1.9-0.4-3.4,0.6-4.8c-0.1-0.3-0.1-0.6-0.2-0.6c-3.2-1.6-5-4.1-5.4-7.7c-0.1-1.1-1.3-2.2-2.3-3
		c-1.6-1.2-1.9-2.7-1.7-4.5c0.2-2.2,0.6-4.3,0.6-6.5c0-2.9,1-5.3,3.6-6.9c0.7-0.4,1.1-1.1,1.7-1.7c2.8-3,7-3.6,10.4-1.2
		c4,2.9,6.3,6.7,5.8,11.8c-0.1,1.1,0,2.2,0.3,3.2c0.9,2.8,0.5,4-1.8,6c-0.8,0.7-1.6,1.8-1.9,2.9c-1.4,5-1.4,5-5.8,7.7
		c0.4,0.6,0.8,1.3,1.1,1.9c0.3,0.6,0.6,1.6,0.4,1.9c-1.4,1.7-0.5,3.5-0.3,5.2c0.5,4.5,1,8.9,1.7,13.4c3-7.4,4-15.3,4.9-23.8
		c3.5,2.9,7.2,2.2,10.8,1.5c5.6-1.1,11.2-2.2,16.8-3.4c5.1-1.1,9.4-3.7,12.7-7.7c3.8-4.5,7.3-9.3,10.9-14c0.7-0.9,1.3-1.7,1.9-2.4
		c4,2.4,7.7,4.7,11.7,7.1c-1,1.7-2.1,3.6-3.3,5.4c-3.8,5.2-7.7,10.3-11.5,15.5c-2.5,3.3-5.5,5.8-9.1,7.8c-5.5,3.1-11,6.3-16.6,9.1
		c-4.9,2.4-7.7,6.2-8.9,11.4c-1,4.5-1,4.4-5.3,5c-1.1,0.2-2.5,1.1-3,2.1c-3.4,6.4-6.8,12.8-9.9,19.3c-1.6,3.4,0.2,6.2,4.2,6.3
		c3.9,0.2,7.8,0,11.8,0c3.2,0,3.3,0.1,3.9,3.2c0.6,3.3,1.2,6.5,1.8,9.8c0.3,1.7,0.4,3.3-1.7,4c-3,0.9-3.5,3.1-3.6,5.9
		c-0.2,11.4-0.5,22.7-0.8,34.1c-0.4,14.1-0.9,28.1-1.3,42.2c-0.1,3.2,0,3.3,3.2,3.6c0.9,0.1,1.8,0.3,3,0.5c-1.9,2.6-3.7,4.9-5.4,7.3
		c1,1.7,1.8,1.2,2.6,0.1c1.7-2.3,3.2-4.6,4.9-6.9c2-2.9,4.2-5.6,6.1-8.6c0.7-1.1,1.3-2.5,1.3-3.8c-0.1-22.2-0.4-44.4-0.6-66.6
		c0-0.8-0.1-1.6,0.1-2.4c0.3-1.6,1.5-2.4,3.3-2.4c1.6,0,2.5,0.9,2.6,2.4c0.2,1.8,0.2,3.6,0.2,5.4c-0.2,11.8-0.5,23.5-0.7,35.3
		c-0.1,9,0,18.1-0.1,27.1c0,2.2,0.5,4.1,2.1,5.7c3.6,3.9,7.1,7.9,10.7,11.9c2.1,2.3,2.1,3.6-0.9,4.7c-3.6,1.3-7.3,2.2-11.1,2.8
		c-11,1.9-22.2,2.3-33.4,2.5c-15.5,0.3-31,0.2-46.4-1.9c-4.6-0.6-9-1.9-13.5-2.8c-0.5-0.1-1-0.3-1.4-0.5c-1.2-0.5-2.2-1.1-2.2-2.5
		c0-1.4,1-2.1,2.2-2.5c1.8-0.6,3.6-1.3,5.5-1.6c7.8-1.2,15.7-2.2,23.6-3.2c3.2-0.4,3.5-0.5,3.4-3.9c-0.5-19.4-1.1-38.8-1.6-58.2
		c-0.2-6.4-0.4-12.9-0.5-19.3c0-2-0.8-3.1-2.5-4c-3.2-1.6-3.2-1.8-2.5-5.5c1.4-6.8,2.8-13.6,4.4-20.3c1.5-6.4,1-12.8-0.2-19.1
		c-0.4-2.4-1.1-4.7-1.6-7c-1-4.4-3.6-7.5-7.6-9.5c-4.6-2.4-9-4.9-13.5-7.3c-5.5-2.9-10.3-6.7-14.1-11.6c-4.1-5.3-7.9-10.9-11.8-16.4
		c-0.6-0.9-1-1.9-1.4-2.7C131.5,171.3,135.2,169.2,139,166.8z M201.5,286c-0.2,0-0.3-0.1-0.5-0.1c-0.1,0.3-0.2,0.5-0.3,0.8
		c-2.1,22.7-2.1,45.6-2.8,68.3c-0.1,2.5,0.3,2.7,3.2,2.7c2.8,0,3.1-0.2,3-2.8c-0.3-15.9-0.5-31.7-1-47.6
		C202.8,300.2,202,293.1,201.5,286z M242.5,356.4c-1,1.3-1,2.5-0.2,3.4c0.9,1,2.2,1.1,3.8,0.4C244.8,358.8,243.7,357.7,242.5,356.4z
		 M236.9,356.6c-0.7,0.9-1.2,1.6-1.8,2.4C237.6,359.4,237.6,359.4,236.9,356.6z"/>
	<path class="st0" d="M134.5,333.3c-2.7-0.5-2.9-0.4-2.9,1.7c-0.1,3.7,0,7.4,0,11.2c0,4.2-3,7.4-7.2,7.5c-2.4,0.1-3.9-1.5-3-3.6
		c1.8-4.3,0.5-8.5,0.4-12.5c-3.3,0.3-6.4,0.7-9.6,0.8c-3.2,0.2-3.2,0.1-3.2,3.2c0,0.9,0,1.8-0.2,2.7c-0.3,1.3-1.1,2.2-2.5,2
		c-1.4-0.1-1.9-1.1-1.9-2.3c-0.2-3.7-0.3-7.4-0.4-11.1c0-3.3,0.1-6.6,0.2-9.9c0-1-0.3-1.9-0.4-2.9c-0.3,0-0.6,0-0.9,0
		c-0.1,0.9-0.3,1.8-0.3,2.8c0,3.6,0,7.2-0.1,10.9c-0.1,3.6-2.8,6.6-6.2,7.1c-3.1,0.4-4.5-1.2-3.9-4.2c0.4-2.2,0.6-4.6,0.7-6.8
		c0-2.9-0.4-5.8-0.3-8.7c0.1-2-0.6-3-2.6-3.3c-1.2-0.2-2.3-0.6-3.6-0.9c-0.9,1.7-2.1,2.9-4.2,2.8c-1.3,0-1.9,0.9-1.9,2.2
		c0,1,0,2-0.1,3c-0.1,1.3-1,2-2.2,2c-1.2,0-1.9-0.8-2-2.1c-0.2-2.1-0.7-4.1-1-6.2c-0.2-1.5-0.4-3-0.4-4.5c0-3.2,0.2-6.4,0.2-9.6
		c0-0.6-0.6-1.7-1-1.8c-1.2-0.2-1.4,0.8-1.4,1.8c0.1,3.4,0.1,6.8,0.2,10.2c0.1,4.8-4.4,7.6-8.7,5.5c-1.2-0.6-1.2-1.6-1.2-2.8
		c0.1-4.6,0-9.2,0.1-13.8c0-1.5-0.9-2.1-2.2-2.4c-2-0.4-3.9-0.8-5.9-1.2c-2.5-0.6-2.9-1.1-2.7-3.5c0.4-3.9,0.8-7.8,1.2-11.7
		c0.3-3.1,0.4-3.1-2.7-3.8c-0.5-0.1-1-0.3-1.7-0.5c-0.1-0.8-0.2-1.6-0.2-2.5c0-3.1-0.2-3.3-3.3-3.8c-1.4-0.2-2.8-0.5-4.2-0.7
		c-1.8-0.3-2.2-1.4-2.1-3c0.3-3.4,0.6-6.8,0.9-10.2c0.7-8.5,1.5-17,2.2-25.5c0.3-3.4,0.3-3.4-2.9-4.9c-1.6-0.7-1.5-2-1.4-3.3
		c0.2-5.1,0.5-10.2,0.7-15.4c0.1-3,0.3-6,0.3-9c0.1-2.6-0.9-4.7-3.2-6.1c-2.8-1.7-3.7-4.4-3.2-7.5c0.6-3.8,1.2-7.5,1.7-11.3
		c0.3-2.5,1.6-4.3,3.5-5.7c2.9-2.1,3.8-2,6.4,0.6c2.3,2.3,4.7,4.6,7.2,7.1c2.4-2.4,4.8-4.7,7.1-7c2.4-2.3,2.4-2.4,5.4-1
		c0.9,0.4,1.8,0.9,2.5,1.3c-1.8,1.9-3.4,3.8-5.1,5.5c-0.4,0.4-1,0.6-1.6,0.8c-2.2,1-4.5,1.8-6.6,3c-1.5,0.9-2.6,0.7-4.1-0.2
		c-3.2-1.9-6.5-3.5-10.3-5.5c-0.5,3.4-1.1,6.2-1.3,9.1c-0.1,0.6,0.8,1.3,1.3,2c0.2-0.1,0.4-0.1,0.6-0.2c0.2-1.3,0.4-2.6,0.7-4.2
		c3.4,1.3,6.3,2.7,9,4.7c2,1.5,1.4,3.8,1.5,5.8c1.1,0.8,1.7,0.5,1.9-0.7c0.8-5.3,2.3-6.8,8.1-8.1c0.6,1.6,1.1,3.2,1.7,4.8
		c0.5,1.3,0.1,2.3-0.8,3.3c-1.1,1.2-1.9,2.6-3,3.7c-1.1,1.1-2.4,2.1-3.6,3.1c1.9,3.1,2.3,3,6.4-1.2c2.1,1.9,4.1,3.7,6.4,5.9
		c-3.4,1.7-6.6,3.3-10.1,5c-3.6-1.9-7.5-3.9-11.8-6.1c-0.5,3.3-1.1,6.2-1.4,9c-0.1,0.8,0.6,1.6,1,2.4c0.3,0,0.6-0.1,0.9-0.1
		c0.1-1.5,0.2-3,0.2-4.8c3.5,1.1,6.6,2.9,9.4,4.9c0.7,0.5,0.6,2.1,0.8,3.3c0.2,1-0.7,2.9,1.2,2.8c1.9,0,1.1-1.8,1-2.8
		c-0.2-2.4,0.8-4,3-5c3.2-1.4,6.3-3,9.9-4.8c0.2,2.7,0.4,5,0.5,7.5c2.2,0.3,3,2.1,3.8,3.9c1.1,2.6,2.3,5.2,3.5,7.9
		c0.2-0.1,0.5-0.2,0.7-0.2c-0.9-3-1.7-6.1-2.8-9.1c-0.6-1.7-0.5-2.9,1.9-3.6c2.4,3.3,4.9,6.7,7.6,10.5c-4.8,2.5-9.1,4.7-13.7,7
		c-3.7-2.1-7.4-4.3-11.9-5.9c-0.5,3.1-1,5.9-1.4,8.6c-0.2,1.3,0.3,2.1,1.9,2.3c0.2-1.4,0.4-2.8,0.6-4.6c3,1.5,5.8,2.8,8.5,4.4
		c0.7,0.4,1.2,1.5,1.3,2.4c0.3,1.4,0.3,2.9,0.4,4.3c1.7,0.4,2-0.5,1.9-1.4c-0.8-4.3,1.7-6.2,5.2-7.6c1.7-0.6,3.3-1.5,5.3-2.5
		c0.2,1.7,0.4,3.2,0.5,4.8c2,0,2.6-1.2,2.2-2.8c-1.6-6.1,0.6-11,4.8-15.3c1-1.1,2.1-2.2,3.1-3.3c1.1-1.2,2-1.1,3,0.2
		c-2.4,4.7-2.7,9.4-0.3,14.2c0.7,1.4-0.1,2.2-1.1,3c-2.2,1.9-2.3,2.6-0.3,4.6c2.6,2.8,5.3,5.4,8.3,8.5c2.6-2.3,5-4.5,7.4-6.7
		c0.6-0.5,1.1-1.3,1.7-1.6c0.6-0.4,1.6-0.7,2.2-0.5c1.7,0.6,3.4,1.6,5.5,2.6c-1.2,0.7-1.9,1.2-2.7,1.6c-3.7,2-7.5,3.9-11.2,5.9
		c-2.5,1.3-4.7,1.2-7.1-0.3c-2.9-1.8-6-3.5-9.5-5.5c-0.6,3.6-1.1,6.7-1.6,9.7c-0.2,1.4,0.8,1.9,2.2,2.2c0.1-1.6,0.3-3.1,0.5-5.1
		c3.4,1.9,6.8,3.6,9.8,5.7c0.8,0.5,0.7,2.3,0.9,3.6c0.2,1.1-0.4,2.5,1.8,3c0.2-0.9,0.5-1.7,0.4-2.5c-0.3-2.9,1-4.5,3.5-5.6
		c3-1.3,5.6-3,8-5.3c1.5-1.4,3.9-1.9,5.8-2.7c3.4,3.5,6.6,6.6,9.9,9.9c2.7-2.7,5.1-5.1,7.6-7.6c2.6-2.6,3.8-2.9,6.6-0.4
		c1.3,1.1,2.4,2.8,2.8,4.4c1.1,4.8,1.8,9.7,2.5,14.5c0.4,2.2-0.3,4.2-2.1,5.7c-1.9,1.6-2.5,3.6-2.3,5.9c0.7,7.3,1.3,14.6,2.1,21.9
		c1,9.4,2,18.8,3.1,28.2c0.2,1.8-0.3,2.9-2.1,3.4c-1.5,0.4-2.9,0.9-4.4,1.2c-2,0.4-2.6,1.5-2.7,3.4c-0.1,3.8-0.5,7.6-0.6,11.4
		c0,1.2,0.5,2.5,0.9,3.7c0.7,2.3-0.1,3.4-2.4,3.7c-4,0.5-7.4-2.3-7.5-6.4C134.4,342.3,134.5,337.9,134.5,333.3z M145.8,250.4
		c-3.6,1.9-6.9,3.4-9.9,5.3c-2.2,1.5-3.8,1.3-5.9-0.1c-2.9-1.9-6-3.3-9.4-5c-0.6,3.3-1.1,6.1-1.6,8.9c-0.2,1.4,0.4,2.3,2.1,2.5
		c0.1-1.5,0.3-2.9,0.4-4.7c2.9,1.5,5.6,2.7,8.2,4.2c1.9,1.1,2.8,2.8,2.7,5c0,0.9,0.1,1.8,0.3,3c2.2-0.9,1.5-2.4,1.7-3.5
		c0.3-1.2,0.2-3,1-3.6c2.9-2.3,6.1-4,9.6-5.5c0.2,1.6,0.3,2.9,0.5,4.3c1.6-0.5,2.2-1.4,2-2.8C147,256.1,146.4,253.6,145.8,250.4z"/>
	<path class="st0" d="M270.6,333.2c-1.9-0.7-2.4,0.2-2.4,1.7c0,3.9,0,7.8,0,11.8c0,4-4.4,7.3-8.3,6.3c-1.8-0.5-2.4-1.6-2-3.4
		c0.4-2,0.8-4.1,0.8-6.2c0-3.1-0.4-6.2-0.5-9.3c0-1.8-0.8-2.8-2.5-3.1c-1.4-0.3-2.7-0.7-4.1-1.1c-2-0.6-2.7-1.8-2.4-3.9
		c0.5-4.1,0.9-8.2,1.4-12.3c1.3-12.2,2.6-24.4,3.9-36.6c0.3-2.7-0.4-5.2-2.4-7.1c-1.7-1.6-2.2-3.5-1.8-5.7c0.7-4.1,1.5-8.1,2-12.2
		c0.6-4.5,3.1-7,7.5-8.1c3.3,3.2,6.6,6.5,10.1,10c3.3-3.5,6.3-6.7,9.6-10.1c2.3,1.2,4.6,2.3,6.8,3.6c2.4,1.3,4.5,3,7,4.1
		c2.8,1.2,4.7,2.7,4.1,6.1c-0.1,0.6,0.1,1.2,0.3,2.4c0.9-0.7,1.6-0.9,1.8-1.4c0.2-0.6,0-1.4,0-2.1c0-1.7,0.7-3.2,2.2-4
		c2.8-1.7,5.8-3.2,9-5c0.1,1.9,0.2,3.5,0.3,5.2c2.1-0.2,2.7-1.4,2.4-3.1c-0.5-2.8-1.1-5.7-1.7-8.9c-3.7,2.2-7.1,4-10.3,6.1
		c-2.1,1.4-3.8,1.4-6,0.2c-3.9-2.2-8.1-4.1-12.1-6.1c-0.9-0.4-1.7-0.9-3.1-1.7c1.9-1,3.2-1.8,4.6-2.4c1.7-0.7,3.1,0.2,4.4,1.3
		c2.8,2.4,5.7,4.7,8.8,7.2c3.2-3.7,6.7-6.8,9.3-10.6c-1.1-1.6-2.5-2.8-2.7-4.2c-0.2-1.4,0.8-3,1.2-4.6c0.9-3.4,0.4-6.6-1.3-9.6
		c-0.6-1-1.2-2,1-2.7c2.8,4.3,8,7.2,8.7,13.1c0.2,2.1-0.1,4.2-0.2,6.3c-0.1,1.5-0.1,2.8,2.1,3.6c0.1-1.6,0.3-3.1,0.4-5.2
		c3.4,1.7,6.7,3.2,9.5,5.3c0.7,0.6,0.5,2.4,0.7,3.7c0.2,1.1-0.5,2.5,1.7,3c0.1-0.7,0.4-1.5,0.3-2.1c-0.4-3.1,1-5,3.6-6.3
		c2.1-1.1,4.3-2,6.7-3.2c0.2,1.7,0.3,3.2,0.5,4.7c2.4-1.3,2.4-5.4,0.1-11c-3,1.5-6.2,2.8-9,4.6c-2,1.2-3.5,1.3-5.4-0.1
		c-2.1-1.5-4.6-2.5-6.9-3.7c-1-0.5-1.9-1-2.8-1.5c1.1-3.5,4.2-7.9,7.7-10.9c1.4,0.6,1.8,1.6,1.3,3.1c-0.8,2.4-1.5,4.8-2.2,7.2
		c-0.2,0.6-0.2,1.3-0.5,2.7c3.4-3.9,2.9-9.4,7.4-11.9c0.2-2.1,0.4-4.3,0.7-7c4.2,1.6,7.8,3.4,11.2,5.8c0.7,0.5,0.7,1.9,0.9,3
		c0.2,1.3-0.3,2.8,1.5,4.2c0.3-1.1,0.7-2,0.7-2.8c-0.2-3,1.4-4.7,3.9-5.8c2.1-0.9,4.2-1.9,6.4-2.9c0.1,1.7,0.2,3.1,0.3,4.7
		c2.1-0.1,2.5-1.3,2.2-2.9c-0.4-2.7-0.9-5.3-1.5-8.4c-3.4,1.7-6.5,3.2-9.6,4.9c-1.8,1-3.2,1.2-5,0c-2-1.3-4.2-2.2-6.7-3.5
		c2.4-2.1,4.5-4,6.6-5.8c1.5,1.1,2.8,2.2,4.2,2.9c0.4,0.2,1.4-1,2.1-1.6c-2.5-2.9-4.8-5.5-7-8.2c0.6-2.4,1.2-4.7,1.9-7.3
		c2.2,1.1,4.2,1.9,6.1,3c0.7,0.4,1.1,1.5,1.3,2.4c0.3,1.2,0.2,2.5,0.2,3.7c1.7,0.4,2-0.5,1.9-1.4c-0.4-3.2,1.4-4.8,3.9-6
		c2.2-1,4.3-2.1,6.7-3.4c0.3,1.5,0.6,2.8,0.9,4.2c1.4-0.3,2-1.1,1.8-2.3c-0.4-2.5-1-5.1-1.6-8.1c-3.7,1.9-7.1,3.4-10.2,5.3
		c-1.8,1.1-3.2,1.3-4.9,0c-0.5-0.4-1.2-0.8-1.9-1c-4.7-1-7.5-4.7-11.1-7.9c2.1-1,3.9-1.8,6.4-3c2.9,3.2,5.7,6.4,8.8,9.9
		c2.5-2.6,4.7-4.7,6.8-7c2.8-2.9,4.2-3,7.4-0.7c1.8,1.3,2.8,3.1,3.1,5.3c0.6,3.9,1.1,7.7,1.7,11.6c0.4,2.9-0.3,5.2-2.9,6.7
		c-3.1,1.8-4.1,4.5-3.9,7.9c0.4,7.3,0.7,14.7,1.1,22c0.2,3.5,0.3,3.5-2.8,5c-1.7,0.8-1.6,2.1-1.5,3.6c0.4,4.5,0.8,9,1.2,13.5
		c0.7,7.5,1.4,15,2,22.5c0.3,2.8-0.1,3.3-2.9,3.8c-2.1,0.4-4.1,0.7-6.4,1.1c0,1.9,0,3.6,0,5.6c-1.6,0.4-3,0.8-4.9,1.3
		c0,1-0.1,2.2,0,3.3c0.4,4,0.8,8,1.4,12c0.3,1.8-0.5,2.6-2.1,2.9c-2,0.4-3.9,0.9-5.9,1.2c-1.8,0.2-2.7,1.1-2.7,2.9
		c0.1,4.5-1.4,8.9,0.1,13.4c0.5,1.5-0.4,2.7-1.9,2.9c-1.7,0.2-3.4,0.2-5.1-0.1c-2.1-0.4-2.8-2.1-2.8-4.1c0-3.4,0.1-6.8,0.1-10.2
		c0-0.6,0.2-1.3,0-1.8c-0.2-0.5-0.8-0.9-1.2-1.4c-0.5,0.4-1.1,0.8-1.4,1.3c-0.2,0.5-0.1,1.2,0,1.8c0.1,2.8,0.2,5.6,0.3,8.4
		c0.1,1.9,0,3.7-0.9,5.6c-0.7,1.4-0.3,3.3-0.5,5c-0.3,2-2.2,2.9-3.4,1.7c-0.5-0.5-0.6-1.4-0.7-2.2c-0.3-3.7-0.5-3.9-3.8-5.1
		c-0.9-0.3-1.7-1.2-2.8-2.1c-1.4,0.4-3.1,0.9-4.9,1.5c-0.2,5.1-0.5,10-0.6,14.9c0,1,0.5,1.9,0.8,2.9c0.8,2.8-0.7,4.7-3.8,4.5
		c-3.5-0.3-6.4-3.3-6.5-7.1c-0.1-3.9,0-7.8,0-11.8c0-0.7-0.2-1.3-0.4-2c-0.2,0-0.5,0-0.7,0c-0.2,0.6-0.6,1.2-0.6,1.8
		c0,2.2,0.1,4.4,0.1,6.6c-0.1,5.2-0.3,10.4-0.4,15.6c0,1.4-0.7,2.4-2.2,2.4c-1.5,0-2.1-1-2.2-2.3c-0.1-0.9,0.1-1.8,0.1-2.7
		c0-2.3-0.5-2.9-2.8-2.9c-2-0.1-4,0-6-0.2c-3.2-0.3-3.5-0.8-3.3-4c0.1-0.6,0-1.2-0.5-1.8c-0.2,0.6-0.4,1.1-0.5,1.7
		c-0.2,3.9-0.4,7.8-0.5,11.7c0,1.2,0.6,2.5,1,3.7c0.8,2.6-0.7,4.4-3.4,4.1c-4.6-0.6-6.9-3.3-6.8-7.9c0-3.8,0-7.6,0-11.5
		C270.9,334,270.8,333.7,270.6,333.2z M269.9,269.7c0.2-0.1,0.5-0.2,0.7-0.3c0.1-0.4,0.4-0.8,0.3-1.1c-0.9-4.3,1.5-6.4,5.1-7.9
		c0.5-0.2,0.9-0.5,1.3-0.7c1.4-0.7,2.7-1.4,4.3-2.3c0.2,1.8,0.3,3.2,0.5,4.6c1.7-0.1,2.3-1,2.1-2.2c-0.4-2.9-1-5.8-1.6-9.1
		c-4.6,2.5-8.8,4.7-13,6.9c-3.9-2.5-7.9-4.9-12.7-6.7c-0.5,3.2-1,5.9-1.4,8.7c-0.2,1.5,0.6,2.1,2.2,2.2c0.1-1.5,0.3-2.8,0.4-4.5
		c3.2,1.7,6.2,3.2,9,4.9c0.8,0.5,1.2,1.7,1.5,2.7c0.3,1,0,2.2,0.2,3.3C269,268.8,269.5,269.2,269.9,269.7z"/>
	<path class="st0" d="M158,70.4c3.3-0.5,6.7-0.9,10-1.4c4.4-0.6,8.8-1,13.1-1.8c10.3-1.8,15-6.7,16.6-17.1
		c0.9-6.4,1.6-12.8,2.4-19.1c0.2-1.5,0.5-3,0.7-4.4c0.2,0,0.4-0.1,0.6-0.1c0.1,0.8,0.3,1.5,0.4,2.3c1,7.8,1.7,15.6,3,23.3
		c1.6,9.1,6.2,13.5,15.3,15.1c6.3,1.1,12.8,1.7,19.1,2.5c1.8,0.2,3.5,0.5,5.2,0.8c0,0.2,0,0.5,0.1,0.7c-1.6,0.3-3.2,0.7-4.8,0.8
		c-5.5,0.6-11,1.2-16.5,1.8c-2.3,0.3-4.6,0.7-6.8,1.3c-5.6,1.5-9.5,5-11,10.5c-1.1,4.2-1.7,8.6-2.4,13c-0.6,3.8-1,7.6-1.5,11.4
		c-0.1,0.7-0.3,1.3-0.9,2c-0.6-4.5-1.1-8.9-1.8-13.4c-0.5-3.6-1-7.2-1.7-10.7c-1.6-8-6.6-12.4-14.5-13.5c-6.6-0.9-13.2-1.6-19.8-2.3
		c-1.7-0.2-3.4-0.5-5-0.7C158,71,158,70.7,158,70.4z"/>
	<path class="st0" d="M211.4,251.6c0.5-1.3,0.7-2.2,1.1-3.1c2.5-4.9,5.1-9.8,7.7-14.7c0.7-1.3,1.4-2.1,3-2.1c10.2,0,20.3,0,30.5,0
		c0.2,0,0.4,0.1,0.9,0.3c-0.2,0.7-0.3,1.4-0.6,2.1c-2.8,5.2-5.5,10.5-8.4,15.6c-0.7,1.2-2,2.1-3.5,3.6c0,6.1,0,12.9,0,20.1
		c-1.5,0.1-2.8,0.2-4.6,0.3c0-1.6,0-2.7,0-3.9c0-4.8,0.1-9.6,0.1-14.5c0-3-0.4-3.4-3.5-3.4c-6.3,0-12.7,0.1-19,0.1
		C213.9,252.1,212.8,251.8,211.4,251.6z"/>
	<path class="st0" d="M246.8,153.9c0.1-1.3,0.3-2.6,0.3-3.8c0.1-15.3,0.1-30.5,0.1-45.8c0-1-0.2-2.1,0.2-3c0.3-0.7,1.1-1.4,1.9-1.6
		c1.1-0.3,1.9,0.5,2.1,1.6c0.1,0.6,0.1,1.2,0.1,1.8c0,18.7,0,37.3,0,56c0,5.1-2.2,8.1-6.4,9.4c-3,0.9-6.2,0-7.9-2.2
		c-1.6-2.1-1.6-5.4-0.1-8c1.7-2.8,4.4-4,7.5-4.3C245.3,154.1,245.9,154,246.8,153.9z"/>
	<path class="st0" d="M151.6,142.4c0.1-1.3,0.3-2.4,0.3-3.6c0-11.9,0.1-23.7,0.1-35.6c0-1,0-2.1,0.4-2.9c0.3-0.6,1.4-1.2,2.1-1.2
		c0.5,0,1.3,0.8,1.6,1.4c0.3,0.7,0.3,1.6,0.3,2.4c0,14.9,0.1,29.7,0.1,44.6c0,4.8-2,7.6-6.1,9c-3.1,1.1-6.1,0.2-7.9-2.1
		c-1.8-2.4-1.7-5.8,0.2-8.4c1.5-2,3.5-3,5.9-3.4C149.5,142.5,150.4,142.5,151.6,142.4z"/>
	<path class="st0" d="M178.5,126.6c0,12.5,0,24.9,0,37.4c0,0.9,0.2,1.9-0.1,2.7c-0.3,0.8-1,1.9-1.7,2.1c-1.3,0.3-1.9-0.8-2.1-2
		c-0.1-0.7-0.1-1.4-0.1-2.1c0-25.6,0-51.3,0-76.9c0-0.9,0-1.9,0.4-2.6c0.3-0.6,1.2-1.2,1.8-1.1c0.6,0,1.5,0.7,1.7,1.3
		c0.3,0.9,0.2,2,0.2,3C178.4,101,178.4,113.8,178.5,126.6C178.4,126.6,178.4,126.6,178.5,126.6z"/>
	<path class="st0" d="M227.4,125.6c0,12.7,0,25.5,0,38.2c0,0.9,0.1,1.9-0.2,2.7c-0.2,0.6-1.1,1.2-1.7,1.2c-0.6,0-1.5-0.6-1.8-1.2
		c-0.3-0.7-0.3-1.6-0.3-2.4c0-25.9,0.1-51.8,0.1-77.7c0-0.5-0.1-1.1,0.1-1.5c0.4-0.6,1.1-1.5,1.6-1.4c0.7,0.1,1.6,0.7,1.9,1.3
		c0.4,0.7,0.2,1.8,0.2,2.7C227.4,100.3,227.4,113,227.4,125.6z"/>
	<path class="st0" d="M275.9,243.5c-1.6,1.6-3.3,3.3-5.1,4.8c-0.5,0.4-1.8,0.3-2.3-0.1c-1.8-1.4-3.4-3-5.2-4.7
		c1.4-1.3,2.4-2.2,3.5-3.3c-0.6-1.1-1.2-2.2-1.8-3.2c-1.8-3.1-2.3-6.4-1.8-9.9c0.5-3.3,2.4-5.3,5.4-5.6c3.3-0.4,6.2,1.4,7.3,4.6
		c1.1,3,0.7,5.9-0.3,8.8c-0.2,0.7-0.6,1.3-0.9,1.9c-1.7,3.2-1.7,3.2,0.9,5.9C275.7,242.8,275.7,243.1,275.9,243.5z"/>
	<path class="st0" d="M139.4,243.3c-1.8,1.7-3.5,3.4-5.4,5c-0.4,0.3-1.7,0.3-2.1-0.1c-1.7-1.4-3.2-2.9-4.7-4.3
		c1-1.6,2.4-2.9,2.4-4.3c0.1-1.3-1.3-2.6-1.9-4c-1.4-3-1.7-6.2-0.7-9.4c1-3.3,3.7-5,7.1-4.7c3.1,0.2,5.1,2.1,5.7,5.6
		c0.6,3.6-0.2,7-1.9,10.1c-1.6,2.9-1.6,2.9,0.9,5.1C139,242.4,139.1,242.7,139.4,243.3z"/>
	<path class="st0" d="M303.5,235c-2,2-4,4-6.2,6.2c-2.5-2.1-4.7-4-6.9-5.9c1.2-1.5,2.8-2.6,2.9-3.9c0.2-1.2-1.3-2.6-1.9-3.9
		c-1.4-2.8-1.6-5.8-1-8.8c0.6-2.8,2.5-4.5,5.1-4.9c2.8-0.4,4.9,0.6,6.4,3c2,3.3,2,6.6,0.6,10.1c-0.2,0.6-0.5,1.1-0.7,1.6
		c-1.6,3.2-1.6,3.2,1.3,5.6C303.1,234.4,303.2,234.5,303.5,235z"/>
	<path class="st0" d="M112.1,235.3c-2,1.8-4.1,3.6-6.5,5.7c-2.3-2.1-4.3-4-6.7-6.3c0.6-0.4,0.9-0.5,1.1-0.7c3.1-2.4,3.1-2.4,1.1-5.7
		c-2-3.3-2.3-6.8-0.9-10.4c1-2.8,3.4-4.3,6.3-4.2c2.7,0.1,4.7,1.8,5.5,4.7c0.9,3,0.4,6-0.8,8.8c-0.6,1.4-1.8,2.8-1.7,4.1
		C109.6,232.6,111,233.8,112.1,235.3z"/>
	<path class="st0" d="M94.4,212.3c-2.3,2.2-4.3,4.1-6.5,6.2c-2.1-2.2-4-4.3-6-6.3c0.1-0.2,0.1-0.4,0.2-0.5c2.6-2.4,2.6-2.4,0.9-5.6
		c-1.8-3.5-2.3-7-0.6-10.7c1.2-2.4,3-3.5,5.8-3.3c2.6,0.1,4.6,1.2,5.5,3.8c1.2,3.3,0.8,6.6-0.8,9.6
		C91.6,208.1,90.7,210.5,94.4,212.3z"/>
	<path class="st0" d="M69.7,201.4c-2.6-2.3-4.6-4.1-6.6-5.8c2.8-3.7,2.9-3.7,1-8.2c-1.2-2.9-1.4-5.8,0.1-8.7c1.4-2.7,3.7-4,6.7-3.6
		c2.6,0.4,4.2,2,5,4.9c0.8,3.1,0.2,6-1.2,8.7c-0.6,1.2-1.2,2.3-2,3.7c1,0.9,2,1.8,3.3,3.1C74,197.5,71.9,199.4,69.7,201.4z"/>
	<path class="st0" d="M308.3,212.8c0.9-1.3,1.6-2.3,2.5-3.5c-0.6-1.1-1.2-2.2-1.8-3.4c-1.5-2.9-2.1-5.8-1.3-9c0.8-3.1,2.8-4.8,6-4.8
		c3.1-0.1,5.2,1.4,6.1,4.3c1,3.4,0.7,6.8-1.2,9.9c-1.7,2.9-1.7,2.9,0.8,5.3c0.1,0.1,0.2,0.4,0.4,0.8c-1.6,1.7-3.2,3.6-5,5.3
		c-0.4,0.4-1.7,0.3-2.1,0C311.2,216.2,309.8,214.5,308.3,212.8z"/>
	<path class="st0" d="M326.1,195.6c0.6-0.7,0.7-0.9,0.8-1c2.5-1.9,2.6-2,1-4.5c-1.8-2.8-2.4-5.9-2-9.2c0.4-3.4,2-5.3,4.8-5.7
		c3.1-0.4,6.1,1.3,7.2,4.2c1.3,3.4,0.9,6.7-0.7,9.9c-0.5,1-1.1,1.9-1.7,3c1.2,1.1,2.3,2.1,3.6,3.3c-2,1.8-3.9,3.4-5.8,5
		c-0.4,0.3-1.5,0.4-1.9,0.1C329.5,198.9,327.8,197.3,326.1,195.6z"/>
	<path class="st0" d="M356,168.7c-1.9,1.9-3.8,3.8-6,6c-1.9-1.8-3.9-3.6-5.9-5.5c3-3.2,3-3.2,1.2-7c-1.4-2.9-1.8-5.9-0.8-9.1
		c0.9-2.9,3.1-4.5,6-4.5c2.8,0,4.9,1.7,5.7,4.5c0.8,3,0.4,6-1,8.8C353.4,165.9,353.3,165.9,356,168.7z"/>
	<path class="st0" d="M45.1,169.1c1.1-1.2,2-2.1,3-3.2c-0.6-1.2-1.1-2.2-1.7-3.2c-1.6-2.8-2.1-5.8-1.3-9c0.6-2.9,2.6-4.7,5.4-4.9
		c2.8-0.3,5.3,1.3,6.4,4.1c1,2.6,0.9,5.3-0.1,7.9c-0.3,0.7-0.6,1.5-0.9,2.2c-1.5,3.3-1.5,3.3,1.7,5.9c-1.9,1.9-3.8,3.9-6,6
		c-1.3-1.1-2.3-2-3.3-2.9C47.2,171.1,46.3,170.2,45.1,169.1z"/>
	<path class="st0" d="M270.6,70.3c0.2,0.9,0.6,1.8,0.6,2.7c0.3,3.9,0.6,7.8,0.8,11.7c0.4,6.1,1.5,7.5,7.4,9.3
		c0.4,0.1,0.7,0.4,1.6,0.8c-1.3,0.5-2.2,1-3.2,1.3c-3.2,1-5,3.1-5.5,6.5c-0.5,3.4-1,6.8-1.5,10.1c-0.1,0.6-0.3,1.1-1.1,1.8
		c-0.2-0.6-0.6-1.2-0.6-1.9c-0.4-3.4-1-6.8-1.2-10.2c-0.2-3.4-1.9-5.3-5.2-6.1c-0.9-0.2-1.7-0.5-3.1-0.9c1.3-0.4,2-0.7,2.8-0.9
		c4.1-1.1,5.1-2.4,5.4-6.5c0.4-5,0.8-10,1.2-15c0.1-0.8,0.3-1.7,0.5-2.5C269.9,70.3,270.3,70.3,270.6,70.3z"/>
	<path class="st0" d="M209.4,131.2c0.1-1.3,0.3-2.5,0.3-3.7c0-6,0-12.1,0.1-18.1c0-0.5,0-1,0-1.5c0-1.3,0-2.8,1.9-2.8
		c1.7,0.1,1.6,1.5,1.6,2.7c0,9.1,0.1,18.3,0,27.4c0,3.8-2.1,6.5-5.4,7.5c-2.1,0.7-4,0.3-5.6-1.3c-1.6-1.6-1.8-3.5-1.1-5.6
		c0.9-2.5,2.7-3.9,5.3-4.4C207.3,131.3,208.1,131.3,209.4,131.2z"/>
	<path class="st0" d="M121.4,93.1c0.9-0.3,1.9-0.5,2.8-0.8c2.8-0.9,4.7-2.7,4.9-5.8c0.4-4.9,0.8-9.8,1.3-14.7c0.1-1,0.4-2,0.6-3
		c0.3,0,0.6,0,0.9-0.1c0.2,0.8,0.6,1.6,0.7,2.5c0.4,4.8,0.7,9.6,0.9,14.4c0.1,3.9,2.1,6.1,5.9,6.8c0.5,0.1,0.9,0.3,2,0.6
		c-1.1,0.5-1.7,1-2.3,1.1c-3.9,0.8-5.4,3.5-5.7,7.1c-0.2,2.3-0.4,4.6-0.7,6.9c-0.1,1-0.3,1.9-1.1,3c-0.2-0.7-0.6-1.5-0.7-2.2
		c-0.5-2.7-1-5.3-1.3-8c-0.4-3.5-2.3-5.7-5.6-6.6c-0.8-0.2-1.5-0.5-2.3-0.7C121.5,93.5,121.4,93.3,121.4,93.1z"/>
	<path class="st0" d="M273.5,149.8c3.2,1.8-0.3,4.6,1.4,6.7c2.4-0.5,3.8-2.2,5.2-4c1-1.3,1.9-2.9,3-4.2c0.5-0.6,1.4-0.8,2.2-1.2
		c0.4,0.8,1.2,1.7,1.2,2.5c0,1.3-0.5,2.5-1,3.7c-2.1,4.9-5.5,8.8-9.2,12.6c-1.1,1.1-2.3,2.2-3.4,3.3c-3.7-1.2-5.3-3.1-4.5-6.6
		c0.9-3.9,2.4-7.6,3.8-11.4C272.3,150.7,273,150.3,273.5,149.8z"/>
	<path class="st0" d="M127.8,156.4c1.7-2-1.5-5,1.8-6.7c0.5,0.6,1.1,1.2,1.3,1.9c1.3,3.9,2.7,7.8,3.8,11.7c0.6,1.9-2.2,5.6-4.2,5.6
		c-0.6,0-1.4-0.4-1.8-0.9c-4.6-4.3-8.8-8.9-11.4-14.7c-0.6-1.3-0.9-2.7-1-4c0-0.7,0.7-1.7,1.3-2c0.4-0.2,1.5,0.3,2,0.8
		c1,1.1,1.7,2.5,2.6,3.7C123.7,153.9,125.2,155.9,127.8,156.4z"/>
	<path class="st0" d="M62.4,147.1c-0.3-1.8-0.8-3.5-1-5.3c-0.5-4.3-2.8-6.9-7-7.9c-0.7-0.2-1.4-0.5-2.2-1.3c1-0.3,1.9-0.8,2.9-1
		c3.8-0.9,5.8-3.3,6.1-7.2c0.1-1.7,0.4-3.4,0.7-5.1c0.1-0.5,0.4-1,0.8-2c0.5,0.9,0.8,1.3,0.9,1.8c0.4,1.6,0.7,3.1,0.9,4.7
		c0.7,4,3.1,6.4,7.1,7.3c0.9,0.2,1.7,0.5,2.7,1.3c-0.6,0.3-1.2,0.8-1.8,0.9c-4.9,1.2-7.5,4.3-8.3,9.2c-0.3,1.5-0.7,3.1-1.1,4.6
		C62.9,147.2,62.7,147.2,62.4,147.1z"/>
	<path class="st0" d="M104.7,98.6c0,3.8,0,7.6,0,11.4c0,2.6-0.9,4.7-3.2,6.1c-2.8,1.7-5.7,1.2-7.1-1.2c-1.4-2.4-0.4-5.8,2.2-7.3
		c0.6-0.3,1.3-0.6,2-0.7c2.6-0.5,2.7-0.5,2.7-3.3c0-5.3,0-10.6,0.1-16c0-0.7,0-1.4,0-2.1c0.1-1,0.6-1.7,1.7-1.7
		c1.2,0,1.6,0.7,1.6,1.7c0,2.3,0,4.6,0,6.9C104.7,94.6,104.7,96.6,104.7,98.6C104.7,98.6,104.7,98.6,104.7,98.6z"/>
	<path class="st0" d="M281.9,184.4c0.9-0.3,1.8-0.6,2.7-0.9c3.9-1,6.1-3.6,6.7-7.6c0.3-1.9,0.8-3.9,1.1-5.8c0.2,0,0.5,0,0.7,0
		c0.4,1.7,0.8,3.4,1,5.1c0.5,4.8,3.1,7.7,7.9,8.5c0.6,0.1,1.1,0.4,2.3,0.9c-1.7,0.5-2.7,1-3.8,1.3c-3.6,0.8-5.8,2.9-6.3,6.7
		c-0.3,2.2-0.8,4.3-1.4,7.1c-0.5-1.1-0.8-1.7-1-2.2c-0.4-1.6-0.8-3.1-1.1-4.7c-0.7-3.5-2.5-5.8-6.1-6.6c-1-0.2-1.9-0.7-2.8-1
		C281.9,184.9,281.9,184.7,281.9,184.4z"/>
	<path class="st0" d="M348.5,133.7c-1.1,0.4-2.1,0.9-3.2,1.2c-3.1,0.9-4.9,3-5.6,6.1c-0.5,2.1-0.9,4.3-1.9,6.5
		c-0.3-1.1-0.7-2.1-0.8-3.2c-0.6-5.5-3-9.3-9-10c-0.3,0-0.6-0.4-1.5-0.9c1.5-0.5,2.6-0.9,3.8-1.2c3.3-0.8,5.2-2.8,5.8-6.2
		c0.4-2.6,1.1-5.2,2.3-7.8c0.2,0.5,0.5,0.9,0.6,1.4c0.3,2,0.6,4,0.9,6c0.4,3.9,2.5,6.2,6.4,6.9c0.7,0.1,1.5,0.4,2.2,0.6
		C348.5,133.4,348.5,133.6,348.5,133.7z"/>
	<path class="st0" d="M296.8,104.7c0-1,0.1-2.1,0.2-3.1c0-4.8,0-9.6,0-14.4c0-1,0.1-2,0.5-2.9c0.1-0.4,0.9-0.9,1.4-0.8
		c0.5,0,1,0.6,1.3,1c0.2,0.5,0.2,1.2,0.2,1.8c0,7.4,0,14.8,0.1,22.3c0,2.7-0.8,4.9-3.4,6.2c-2.5,1.3-5.2,0.8-6.4-1.1
		c-1.4-2.2-0.7-5.5,1.6-6.9C293.5,105.8,295,105.5,296.8,104.7z"/>
	<path class="st0" d="M239.5,104.4c0,5.1,0,10.2,0,15.3c0,0.7,0,1.4,0,2.1c-0.1,1.2-0.6,2.2-1.9,2.3c-1.4,0.1-1.8-1-2-2.2
		c-0.1-0.6-0.1-1.2-0.1-1.8c0-10.3-0.1-20.6-0.1-31c0-1,0-2.1,0.3-2.9c0.2-0.6,1.2-1.4,1.6-1.4c0.7,0.1,1.6,0.8,1.9,1.5
		c0.3,0.6,0.2,1.6,0.2,2.4C239.5,94,239.5,99.2,239.5,104.4C239.5,104.4,239.5,104.4,239.5,104.4z"/>
	<path class="st0" d="M100.1,184.5c1.6-0.5,2.7-0.9,3.9-1.3c3-1,4.9-3,5.4-6.2c0.4-2.3,0.7-4.5,1.6-6.9c0.2,0.5,0.6,1.1,0.7,1.6
		c0.3,1.1,0.6,2.1,0.7,3.2c0.5,4.9,2.8,8.1,7.9,8.8c0.4,0.1,0.7,0.4,1.4,0.7c-1.3,0.5-2.3,0.9-3.3,1.2c-3.3,0.9-5,3.1-5.7,6.3
		c-0.4,2.1-0.9,4.2-1.4,6.3c-0.2,0-0.4,0-0.6,0c-0.3-1.2-0.7-2.4-0.8-3.7c-0.5-5.4-2.9-8.9-8.6-9.5C101,185.3,100.8,185,100.1,184.5
		z"/>
	<path class="st0" d="M166.6,104.2c0,5.2,0,10.4,0,15.7c0,2.7-0.6,3.7-2,3.8c-1.4,0-1.9-0.8-1.9-3.7c0-10.3,0-20.7,0-31
		c0-0.8-0.1-1.7,0.2-2.4c0.4-0.7,1.2-1.4,1.9-1.5c0.5-0.1,1.3,0.8,1.6,1.4c0.3,0.7,0.2,1.6,0.2,2.4C166.5,94,166.5,99.1,166.6,104.2
		C166.5,104.2,166.6,104.2,166.6,104.2z"/>
	<path class="st0" d="M151.5,45.7c1.1,0.4,1.7,0.6,2.4,0.8c6.6,2.6,13.3,5.2,19.9,7.8c0.6,0.2,1.3,0.3,1.6,0.7
		c0.5,0.5,1.1,1.5,1,1.9c-0.3,0.7-1.2,1.3-2,1.5c-0.7,0.2-1.6-0.3-2.3-0.5c-6.5-2.2-12.9-4.4-19.4-6.6c-0.8-0.3-1.7-0.7-2.5-1.1
		c-1.1-0.7-1.4-1.8-0.7-2.9C150,46.6,150.9,46.2,151.5,45.7z"/>
	<path class="st0" d="M227.7,58.7c-0.5-0.5-1.5-1-1.8-1.7c-0.2-0.5,0.6-1.6,1.3-2c1.4-0.8,2.9-1.4,4.4-2c5.3-2.1,10.6-4.3,15.9-6.4
		c0.7-0.3,1.5-0.6,2.3-0.7c1.3-0.3,2.4,0,2.9,1.4c0.5,1.4-0.2,2.3-1.3,3c-0.5,0.3-1.1,0.5-1.6,0.7c-6.7,2.4-13.4,4.7-20.1,7.1
		C229.1,58.3,228.6,58.4,227.7,58.7z"/>
	<path class="st0" d="M96.3,161c-1-2.5-1.4-5.1-2.8-6.8c-1.4-1.7-3.8-2.6-5.8-3.9c0.2-0.1,0.7-0.4,1.2-0.6c3.5-0.9,5.3-3.2,5.9-6.8
		c0.3-1.9-0.1-4,1.6-6.2c0.4,1.8,0.8,3.1,0.9,4.4c0.5,4.7,2.6,7.9,7.5,8.9c0.2,0,0.4,0.3,0.4,0.3c-2,1.2-4.4,2-5.9,3.7
		C97.8,155.8,97.4,158.3,96.3,161z"/>
	<path class="st0" d="M309.2,137.8c1.5,5.5,1.5,11.8,9.2,12.2c-2.4,1.4-4.9,2.2-6.4,3.9c-1.5,1.7-1.9,4.3-2.9,6.5
		c-1-2.2-1.6-4.7-3.2-6.4c-1.5-1.6-4-2.4-6.1-3.6c2-1.4,5.5-1.2,6.7-4.1C307.6,143.7,308.2,141,309.2,137.8z"/>
	<path class="st0" d="M128.1,217.5c-1.2-2.8-1.8-5.4-3.3-7.1c-1.4-1.6-3.8-2.2-6-3.4c2.2-1.1,5.3-1.1,6.4-3.8c1-2.4,1.6-4.9,2.5-7.9
		c1,2.9,1.7,5.4,2.8,7.7c1.3,2.6,4.1,3.2,6.8,4.2C131.9,208.3,129.1,211.7,128.1,217.5z"/>
	<path class="st0" d="M288.2,206.8c-6.1,0.7-9.1,3.8-10.3,9.1c-1.5-4.6-3.4-8.5-9.1-8.7c2.5-1.7,5-2.8,6.4-4.7
		c1.5-2,1.8-4.7,2.8-7.5c0.9,2.7,1.6,5.2,2.7,7.5C282,205.3,285.1,205.5,288.2,206.8z"/>
	<path class="st0" d="M127.8,122.9c0.9,2.6,1.3,5.3,2.7,7.2c1.3,1.7,3.8,2.6,5.4,3.7c-1.6,1-4.1,1.9-5.5,3.7c-1.4,1.8-1.9,4.4-2.8,7
		c-0.9-2.5-1.3-5.2-2.8-6.9c-1.5-1.8-4.1-2.6-6.1-3.8C118.5,133.8,127.6,123.1,127.8,122.9z"/>
	<path class="st0" d="M268.6,133.3c2.4-0.9,5.1-1.2,6.3-3.7c0.9-2.1,1.5-4.4,2.7-6.6c0.7,2.3,1.3,4.7,2.3,6.9
		c1.2,2.5,3.9,2.7,6.2,3.4c-2.1,1.4-4.6,2.3-6,4.1c-1.4,1.7-1.7,4.3-2.7,6.9c-1-2.5-1.5-5-2.9-6.8
		C273.1,135.8,270.8,134.8,268.6,133.3z"/>
	<path class="st0" d="M326.7,96.5c1.4,5.2,0.3,11.6,8.1,12.8c-4.8,1-7.4,3.7-8.1,9c-1.2-2.4-1.7-4.5-3-5.9c-1.4-1.4-3.5-2.1-5.4-3.1
		c0,0,0-0.3,0.1-0.3c4.7-0.9,6.6-4.1,6.9-8.6C325.4,99.1,325.3,97.7,326.7,96.5z"/>
	<path class="st0" d="M119.1,67.8c-2.1,1.4-4.1,2.2-5.3,3.7c-1.2,1.5-1.6,3.6-2.6,5.9c-1.1-4.8-3-8.2-8.1-9.2c2.2-1.5,5.2-1.7,6-4.5
		c0.7-2.4,1.2-4.7,2.1-7.2C112.6,61.1,112.4,66.7,119.1,67.8z"/>
	<path class="st0" d="M82.6,108c-5.2,3.3-5.2,3.3-8.1,8.7c-1.2-4-2.7-7.7-8.2-8c3.1-1.3,5.6-2.3,6.4-5c0.7-2.4,1.1-4.9,1.7-7.4
		c0.2,0,0.4,0,0.6,0c0.5,2.4,0.8,4.8,1.5,7.1C77.4,105.9,79.6,107.2,82.6,108z"/>
	<path class="st0" d="M290.6,56.7c0.5,2.1,0.9,4.3,1.7,6.4c0.9,2.3,3,3.5,5.7,4.4c-4.3,1.5-6.5,4.3-7.5,8.5c-1.1-2-1.9-4-3.2-5.4
		c-1.3-1.3-3.3-2-4.7-2.8c1.5-1.2,3.9-2.4,5.2-4.3c1.3-1.9,1.6-4.6,2.3-6.9C290.2,56.7,290.4,56.7,290.6,56.7z"/>
	<path class="st0" d="M83.5,174.9c-1.1-4.5-2.8-8.2-8.1-9c5.1-1.3,7.2-4.7,7.8-9.6c1,2.1,1.6,4.3,2.8,5.8c1.2,1.5,3.2,2.5,5,3.8
		C86.4,166.8,84.5,170.4,83.5,174.9z"/>
	<path class="st0" d="M319.5,156.5c0.9,2.6,1.2,4.9,2.4,6.6c1.2,1.6,3.3,2.5,5,3.7c-5,2.8-5,2.8-7.6,8c-1.2-4.2-3.4-7.4-8.1-7.7
		c2.1-1.3,4.4-2.2,5.7-3.8C318.2,161.7,318.5,159.2,319.5,156.5z"/>
	<path class="st0" d="M255.1,74.7c0,2.9,0,5.8,0,8.7c0,0.6,0.2,1.3-0.1,1.8c-0.4,0.7-1.1,1.2-1.6,1.8c-0.6-0.6-1.2-1.2-1.6-1.9
		c-0.2-0.4-0.1-1-0.1-1.5c0-5.8,0-11.7,0-17.5c0-1.4-0.4-3.2,1.7-3.7c1.2-0.3,1.7,0.8,1.7,3.8C255.1,69,255.1,71.9,255.1,74.7z"/>
	<path class="st0" d="M190.6,116.5c0,2.9,0,5.8,0,8.7c0,0.7,0.1,1.5-0.2,2.1c-0.3,0.6-1.1,1.2-1.7,1.2c-0.4,0.1-1-0.7-1.3-1.3
		c-0.2-0.5-0.2-1.2-0.2-1.8c0-6,0-12,0-18c0-1.3-0.4-3.3,1.7-3.2c2,0,1.6,1.9,1.6,3.3C190.6,110.5,190.5,113.5,190.6,116.5
		C190.5,116.5,190.6,116.5,190.6,116.5z"/>
	<path class="st0" d="M314.5,92.1c-1.5-4.3-3.1-7.5-7.2-7.6c1.7-1.5,3.8-2.7,4.9-4.5c1.1-1.8,1.2-4.1,2.1-6.3
		c1.4,3.9,1.3,8.7,7.2,10.2C317.3,85.4,315.4,87.9,314.5,92.1z"/>
	<path class="st0" d="M175.6,30.7c0.4,0.3,1.2,0.7,1.7,1.4c2.6,4,5.1,8.1,7.7,12.2c0.7,1.2,0.8,2.3-0.5,3.1c-1.3,0.8-2.1,0-2.7-1
		c-2.7-4.1-5.5-8.1-8.1-12.3C172.6,32.4,173.4,30.7,175.6,30.7z"/>
	<path class="st0" d="M234.9,228c-0.4-3.4,0.4-4.5,3-4.6c3.5-0.1,7-0.1,10.5,0c0.8,0,1.9,0.7,2.4,1.4c1.2,1.7,0.4,3.2-1.7,3.3
		C244.4,228.1,239.7,228,234.9,228z"/>
	<path class="st0" d="M218.8,47.8c-1.8-0.1-2.6-1.5-1.9-2.9c0.9-1.8,2-3.5,3.1-5.2c1.5-2.5,3.1-4.9,4.7-7.3c0.8-1.1,1.6-2.7,3.3-1.5
		c1.4,1,0.9,2.5,0.1,3.7c-1.7,2.6-3.4,5.2-5,7.8c-0.9,1.3-1.7,2.7-2.7,4C219.9,47.1,219.2,47.5,218.8,47.8z"/>
	<path class="st0" d="M93.8,83.9c-4,1.5-5.7,4.3-6.8,7.9c-1.3-3.5-2.6-6.5-7.1-7.6c5.6-1.5,5.9-5.9,7-10.3
		C88.2,78.1,88.5,82.3,93.8,83.9z"/>
	<path class="st0" d="M147,74.7c0-3,0-6,0-9c0-0.6-0.1-1.3,0.1-1.8c0.3-0.6,1-1.2,1.6-1.4c0.3-0.1,1.3,0.8,1.3,1.3
		c0.1,7.1,0.1,14.2,0,21.3c0,0.5-1,0.9-1.5,1.4c-0.5-0.6-1.3-1.3-1.4-1.9C146.9,81.3,147,78,147,74.7C147,74.7,147,74.7,147,74.7z"
		/>
	<path class="st0" d="M78.2,197.4c0.8,3.5,1.5,6.7,2.2,9.8c0.1,0.6,0,1.5-0.4,1.9c-1.4,1.3-3,2.4-4.8,3.8c-1.4-3.1,0.2-6.8-3.4-8.8
		C74.1,201.7,76.2,199.5,78.2,197.4z"/>
	<path class="st0" d="M323.1,196.6c2.4,2.5,4.6,4.8,7.2,7.4c-4.5,1.6-2.7,5.6-4.2,8.9c-1.7-1.5-3.3-2.9-4.5-3.9
		C322,204.6,322.5,200.8,323.1,196.6z"/>
	<path class="st0" d="M261.8,119.2c0,2.1,0,4.2,0,6.3c0,1.2-0.3,2.3-1.7,2.3c-1.3,0-1.6-1.2-1.6-2.2c-0.1-4.3-0.1-8.6,0-13
		c0-1,0.3-2.1,1.6-2.1c1.6,0,1.7,1.1,1.7,2.3C261.8,115,261.8,117.1,261.8,119.2z"/>
	<path class="st0" d="M156.5,282c4.2-1.6,5.1-4.9,5.9-8.9c1.4,3.8,2.1,7.3,5.4,8.5c-1.9,2.2-3.7,4.4-5.5,6.5
		C161.6,285.4,160.1,283.1,156.5,282z"/>
	<path class="st0" d="M163.3,235.1c-1-2-1.9-4.7-5.2-5.5c1.3-1.1,2.6-1.9,3.4-3c0.8-1.2,1.2-2.7,1.9-4.5c1.3,2.8,2,5.9,4.7,6.7
		C166.4,231,164.8,233,163.3,235.1z"/>
	<path class="st0" d="M138.7,60.8c0-1.9-0.1-3.8,0.1-5.7c0.1-0.7,0.8-1.4,1.3-2c0.5,0.6,1.4,1.2,1.4,1.9c0.1,3.8,0.1,7.6,0,11.4
		c0,0.7-0.8,1.8-1.3,1.9c-1.4,0.2-1.5-1-1.5-2.1C138.6,64.4,138.7,62.6,138.7,60.8C138.7,60.8,138.7,60.8,138.7,60.8z"/>
	<path class="st0" d="M263.6,60c0,1.9,0,3.8,0,5.7c0,1-0.2,2.2-1.5,2c-0.6-0.1-1.3-1.2-1.4-1.9c-0.1-3.8-0.1-7.6,0-11.4
		c0-1,0.3-2,1.5-1.7c0.6,0.1,1.3,1.2,1.4,1.9C263.6,56.4,263.5,58.2,263.6,60C263.5,60,263.6,60,263.6,60z"/>
	<path class="st0" d="M192,143.9c1.2,1.6,2.7,3.4,3.9,5c-1.3,1.6-2.7,3.3-3.9,4.8c-1.2-1.4-2.6-3.2-3.8-4.6
		C189.5,147.3,190.8,145.4,192,143.9z"/>
	<path class="st0" d="M298,129.1c1.2,1.5,2.6,3,3.9,4.6c-1.2,1.2-2.5,2.6-3.9,4.1c0.3-0.2,0.7-0.4,1-0.6c-1.5-1.4-3-2.7-4.5-4.1
		C295.2,132.3,296.7,130.7,298,129.1z"/>
	<path class="st0" d="M92.6,126.7c-1.3,1.4-2.6,2.9-3.9,4.3c-1-1.2-2.2-2.7-3.3-4.1c1.1-1.5,2.3-3.1,3.4-4.4
		C90,123.8,91.4,125.4,92.6,126.7z"/>
	<path class="st0" d="M142.3,116.4c0,1.1,0,2.2,0,3.3c0,1-0.5,1.9-1.6,1.7c-0.6-0.1-1.4-1-1.4-1.5c-0.1-2.5-0.1-5,0.1-7.5
		c0-0.5,1-1.1,1.6-1.2c0.3-0.1,1.1,0.8,1.2,1.3C142.4,113.8,142.2,115.1,142.3,116.4C142.3,116.4,142.3,116.4,142.3,116.4z"/>
	<path class="st0" d="M55.2,113.2c-0.2,1.2-0.8,2.1-2.3,2.1c-1.3,0-2-0.8-2.1-2c-0.1-1.4,0.6-2.3,2-2.4
		C54,110.7,55.2,111.8,55.2,113.2z"/>
	<path class="st0" d="M348.5,111.2c1.3,0,2.2,0.5,2.3,1.8c0.1,1.4-0.6,2.3-2.1,2.4c-1.3,0.1-2.1-0.5-2.2-1.9
		C346.2,112.2,347.1,111.2,348.5,111.2z"/>
	<path class="st0" d="M254.1,217.4c-1.3-0.1-2-0.8-1.9-2.1c0.1-1.2,0.7-2,2-2.1c1.3-0.1,2.2,1,2.1,2.3
		C256.2,216.7,255.4,217.4,254.1,217.4z"/>
	<path class="st0" d="M145.1,215.4c0-1.4,0.5-2.3,1.9-2.3c1.3,0,2.1,0.7,2.2,2c0,1.2-0.5,2.1-1.9,2.2
		C145.9,217.3,145.2,216.6,145.1,215.4z"/>
	<path class="st0" d="M116.4,118.6c-0.9-1.4-1.8-2.2-1.7-2.9c0.1-0.7,1.2-1.8,1.9-1.8c0.7,0,1.9,1.2,1.8,1.8
		C118.4,116.5,117.4,117.2,116.4,118.6z"/>
	<path class="st0" d="M368.8,150.1c-0.1,1.2-0.6,2.1-1.9,2.1c-1.4,0-2-0.7-2-2c0-1.1,0.6-2,1.7-2
		C367.8,148.1,368.7,148.8,368.8,150.1z"/>
	<path class="st0" d="M39.8,151.5c-0.5,0.3-1.1,1.1-1.9,1.3c-1.3,0.2-2-0.6-2-1.9c0-1.2,0.6-1.9,1.8-1.9
		C39,148.9,39.7,149.7,39.8,151.5z"/>
	<path class="st0" d="M288.8,119.3c-1.1,0.8-1.9,1.7-2.4,1.6c-0.8-0.2-1.8-1-1.9-1.8c-0.2-1,0.6-2.1,1.8-1.8
		C287,117.6,287.7,118.4,288.8,119.3z"/>
	<path class="st0" d="M317.5,126c-1.2,1-1.8,1.8-2.5,2c-1.3,0.3-2-0.6-2-1.9c0-1.2,0.7-2,1.8-1.8C315.6,124.5,316.3,125.2,317.5,126
		z"/>
	<path class="st0" d="M109,137.8c-1.4,0.7-2.2,1.4-3,1.4c-1.2,0-1.7-1.1-1.3-2.1c0.3-0.6,1.3-1.4,1.8-1.3
		C107.3,135.9,107.9,136.8,109,137.8z"/>
	<path class="st0" d="M132.7,51.2c0.8,1.2,1.6,1.9,1.6,2.6c0,0.5-1,1.4-1.6,1.5c-1.1,0.2-2-0.6-1.8-1.8
		C131.1,52.9,131.8,52.3,132.7,51.2z"/>
	<path class="st0" d="M272.6,53.6c-1.1,0.8-1.7,1.5-2.5,1.6c-1.2,0.2-2-0.7-1.7-1.8c0.2-0.6,1.1-1.5,1.8-1.5
		C270.9,51.8,271.5,52.7,272.6,53.6z"/>
</g>
</svg>
