<?xml version="1.0" encoding="utf-8"?>
<!-- Generator: Adobe Illustrator 26.3.1, SVG Export Plug-In . SVG Version: 6.00 Build 0)  -->
<svg version="1.1" id="Calque_1" xmlns="http://www.w3.org/2000/svg" xmlns:xlink="http://www.w3.org/1999/xlink" x="0px" y="0px"
	 viewBox="0 0 400 400" style="enable-background:new 0 0 400 400;" xml:space="preserve">
<style type="text/css">
	.st0{fill:#FEE7F0;}
	.st1{display:none;}
	.st2{display:inline;fill-rule:evenodd;clip-rule:evenodd;fill:#FEE7F0;}
	.st3{display:none;fill-rule:evenodd;clip-rule:evenodd;fill:#FEE7F0;}
</style>
<g>
	<path class="st0" d="M185.79,178.06l5.4-118.84l-5.32-0.3l-8.11,115.67c-20.5,6.55-32.29,17.21-40.12,28.21
		c-5.44,7.25-13.41,23.81-9.3,43.53c5.87,28.21,18.89,37.32,14.78,52.8c-3.97,14.97-44.96,33.4-23.37,78.52
		c8.83,15.66,23.56,22.35,23.56,22.35c-13.38-9.29-38.76-46.99-5.94-83.07c31.19-34.29-4.62-40.08-2.12-83.92
		C137.75,189.17,185.79,178.06,185.79,178.06"/>
	<path class="st0" d="M186.89,64.93l-7.11-0.07c0,0,8.41-34.17-2.18-60.5c0,0,19.77-10.37,40.34,0.89c0,0-16.32-6.26-31.18,0.7
		C186.76,5.95,191.97,27.54,186.89,64.93"/>
	<path class="st0" d="M198.06,50.58c-0.01,1.29-1.08,2.33-2.37,2.31c-1.3-0.01-2.33-1.07-2.31-2.36l0.36-34.82
		c0.01-1.29,1.07-2.33,2.36-2.32c1.29,0.01,2.33,1.07,2.32,2.36L198.06,50.58"/>
	<path class="st0" d="M207.23,50.67c-0.01,1.3-1.07,2.33-2.36,2.32c-1.29-0.01-2.33-1.07-2.32-2.37l0.36-34.82
		c0.01-1.29,1.07-2.33,2.37-2.31c1.29,0.01,2.33,1.07,2.31,2.36L207.23,50.67"/>
	<path class="st0" d="M185.86,47.32l-8.98-0.09c-0.47-2.04-2.27-3.58-4.46-3.61c-2.56-0.03-4.66,2.02-4.69,4.59
		c-0.02,2.56,2.03,4.66,4.59,4.68c2.19,0.02,4.02-1.48,4.53-3.51l8.99,0.09L185.86,47.32"/>
	<path class="st0" d="M186,33.65l-8.98-0.09c-0.47-2.04-2.27-3.58-4.46-3.61c-2.56-0.03-4.65,2.03-4.68,4.58
		c-0.03,2.56,2.03,4.65,4.58,4.68c2.19,0.02,4.02-1.48,4.53-3.51l8.98,0.09L186,33.65"/>
	<path class="st0" d="M186.15,19.99l-8.98-0.1c-0.47-2.04-2.27-3.58-4.46-3.6c-2.56-0.03-4.66,2.03-4.68,4.59
		c-0.03,2.56,2.03,4.65,4.59,4.68c2.19,0.02,4.02-1.48,4.53-3.51l8.98,0.09L186.15,19.99"/>
	<path class="st0" d="M224.2,16.87c-2.19-0.02-4.02,1.48-4.53,3.51l-5.22-0.05c-0.1,0.69-0.2,1.41-0.3,2.15l5.5,0.06
		c0.47,2.04,2.27,3.58,4.46,3.6c2.56,0.03,4.65-2.02,4.68-4.58C228.81,18.99,226.76,16.9,224.2,16.87"/>
	<path class="st0" d="M224.06,30.54c-2.19-0.02-4.02,1.48-4.54,3.51l-6.56-0.07c-0.05,0.71-0.1,1.43-0.14,2.15l6.68,0.07
		c0.46,2.04,2.27,3.58,4.46,3.6c2.56,0.02,4.65-2.03,4.68-4.59C228.67,32.66,226.61,30.57,224.06,30.54"/>
	<path class="st0" d="M223.91,44.2c-2.19-0.02-4.02,1.48-4.53,3.51l-6.76-0.07c0.02,0.72,0.05,1.44,0.08,2.15l6.66,0.07
		c0.46,2.05,2.27,3.58,4.46,3.61c2.56,0.03,4.65-2.02,4.68-4.59C228.53,46.32,226.47,44.23,223.91,44.2"/>
	<path class="st0" d="M157.73,353.99c0,0,32.83-18.73,68.89-15.68c0,0-37.69,1.58-69.01,23.44L157.73,353.99"/>
	<path class="st0" d="M208.41,59.82l-2.42-0.11l-3.15,280.82c0.8-0.38,1.62-0.75,2.44-1.11L208.41,59.82"/>
	<path class="st0" d="M213.56,60.13l-2.43-0.07l1.13,279.65c0.8-0.39,1.61,0.39,2.42,0.01L213.56,60.13"/>
	<path class="st0" d="M200.71,59.47l-7.74,284.85c0.8-0.4,1.63-0.81,2.47-1.22l7.7-283.52L200.71,59.47"/>
	<path class="st0" d="M195.27,59.23l-12.22,287.56c0.77-0.41,1.6-0.84,2.49-1.3L197.7,59.34L195.27,59.23"/>
	<path class="st0" d="M177.43,275.56c0.6-13.19,11.78-23.4,24.97-22.8c12.72,0.58,22.65,10.99,22.82,23.55
		c0.01-0.11,0.02-0.22,0.02-0.32c0.64-14.02-10.21-25.9-24.23-26.53c-14.02-0.64-25.9,10.21-26.53,24.23
		c-0.59,12.97,8.66,24.11,21.16,26.2C184.75,297.22,176.9,287.17,177.43,275.56"/>
	<path class="st0" d="M281.22,329.49c-6.94-12.85-17.18-22.05-18.57-33.91c-1.39-11.86,14.2-28.76,15.07-50.94
		c0.84-21.49-10.83-35.67-11.66-36.4l-0.03,0c4.26,6.89,7.25,15.24,7.83,25.34c2.5,43.84-37.28,49.54-6.41,84.11
		c15.21,17.03,18.36,27.81,17.96,40.24l0.02-0.01l-0.01,0C285.85,352.43,289.22,344.29,281.22,329.49"/>
</g>
<g class="st1">
	<path class="st2" d="M33.04,141.25c120.84-24.19,370.69-18.61,359.6-2.84c-7.16,10.18-80.62,5.26-75.72,21.19
		c-57.82,3.98-116.31,9.38-175.13,11.23c55.2-3.8,111.46-12.69,166.65-16.49c-4.67-17.65,68.42-6.59,76.05-15.49
		C396.62,124.68,148.72,122.14,33.04,141.25z"/>
	<path class="st2" d="M296.05,125.35c57.44-18.4,90.98-34.52,91.63-47.12c0.62-11.88-24.71-15.68-46.33-14.45
		c-27.16,1.55-29.55-7.43-35.2-26.3C301.48,21.86,292.88,5.7,245,12.12c-35.14,31.75-70.28,63.51-105.41,95.26
		c35.92-29.31,74.18-61.75,106.77-91.2c44.41-5.96,51.72,10.73,56.05,25.22c5.24,17.5,8.98,28.24,34.16,26.81
		c20.05-1.14,42.7,1.61,42.13,12.62C378.1,92.51,349.32,108.28,296.05,125.35z"/>
	<path class="st2" d="M255.18,42.06c3.42,40.49,8.31,80.4,21.54,117.09c3.69-0.31,7.38-0.61,11.07-0.92
		C274.46,123.69,264.49,83.44,255.18,42.06z"/>
	<path class="st2" d="M254.7,40.64c2.16,0,3.92,0.62,3.92,1.38c0,0.09-0.03,0.18-0.07,0.26c-0.27-0.4-1.3-0.7-2.52-0.7
		c-1.43,0-2.59,0.41-2.59,0.92c0,0.43,0.85,0.79,1.99,0.89c-0.24,0.01-0.49,0.02-0.74,0.02c-2.16,0-3.92-0.62-3.92-1.39
		C250.78,41.26,252.54,40.64,254.7,40.64z"/>
	<path class="st2" d="M309.12,234.27l-201.15,31.57c69.94-8.53,139.88-17.06,209.82-25.59c-3.63-23.39-4.74-48.99-0.33-73.65
		C310,188.06,307.13,211.48,309.12,234.27z"/>
	<path class="st2" d="M384.14,201.72c-32.64,3.09-51.75,10.44-62.09,20.53c20.61-9.42,43.36-14.07,67.1-16.5
		c3.38-0.35,5.87-2.81,5.77-5.71c-0.66-19.33-0.97-38.66-1.15-57.98c-3.08,17.83-4.12,35.86-3.79,54.01
		C390.02,198.97,387.51,201.4,384.14,201.72z"/>
	<path class="st2" d="M339.11,227.36c2.03,26.54,5.15,57.29,8.31,82.16c0.6,4.71,7.83,1.96,8.74-2.17
		c7.21-32.91,0.17-94.7,20.52-98.86c-28.33,5.61-17.57,63.94-22.8,95.37c-0.66,3.95-4.15,5.62-4.53,1.12
		C347.36,281.23,344.53,245.38,339.11,227.36z"/>
	<path class="st2" d="M88.12,250.17c-2.79,22.75-6.8,49.1-10.67,70.41c-0.73,4.04-7.89,1.69-8.67-1.86
		c-6.26-28.21,0.77-76.75-18.13-84.23c28.17,4.81,16.19,54.3,20.51,81.24c0.54,3.38,3.99,4.82,4.49,0.96
		C78.33,296.34,82.19,265.61,88.12,250.17z"/>
	<path class="st2" d="M36.81,175c-1.26-10.94-2.51-21.87-3.77-32.81c-0.22,9.67-0.44,19.35-0.66,29.02
		c-0.08,3.68-3.01,6.74-7.23,7.55c-6.38,1.22-12.75,2.45-19.13,3.68c-0.57,0.11-0.96,0.53-0.94,1.03
		c0.34,10.09,0.69,20.19,1.04,30.28c0.69-9.1,1.38-18.21,2.07-27.31c0.04-0.5,0.48-0.9,1.07-0.96c6.46-0.62,12.92-1.25,19.38-1.87
		C33.65,183.14,37.3,179.29,36.81,175z"/>
	<path class="st2" d="M105.65,225.56c-0.34,0.87-0.68,1.73-1.02,2.6c-29.14-13.32-58.37-26.56-89.78-38.12
		C43.95,197.26,74.74,211.16,105.65,225.56z"/>
	<path class="st2" d="M106.01,263.83c-28.63-16-65.61-34.93-96.48-49.45c28.25,9.9,64.62,27.92,94.63,44.94l-1.13-33.08
		c-0.02-0.62,0.47-1.16,1.18-1.3c7.98-1.53,15.96-3.07,23.94-4.6c5.28-1.02,8.94-4.85,9.05-9.46c0.27-12.11,0.55-24.22,0.82-36.33
		c1.57,13.69,3.15,27.37,4.72,41.06c0.62,5.37-3.95,10.18-10.24,10.79c-8.08,0.78-16.17,1.56-24.25,2.34
		c-0.74,0.07-1.29,0.57-1.34,1.2C106.67,233.01,110.13,258.27,106.01,263.83z"/>
	<polygon class="st2" points="150.44,163.19 151.61,161.06 165.79,113 98.4,106.04 87.39,139.02 96.9,102.34 175.12,111.01 
		159.95,163.05 	"/>
	<path class="st2" d="M174.48,287.12c1.75,32.68,4.54,70.53,7.4,101.15c0.54,5.8,7.6,2.42,8.52-2.67c4.95-27.52,4.74-68.99,8.1-94.6
		c2.5-19.05,30.05-25.45,41.84-25.46c0.69,0,1.28-0.21,1.76-0.62c0.48-0.41,0.71-0.91,0.69-1.48c-0.12-3.57-0.44-8.77-0.44-11.32
		c-1.68,0.22-3.35,0.45-5.03,0.68c0,1.67,0,3.34,0,5.01c0,1.01-0.86,1.86-2.06,2.02c-21.77,2.96-36.39,12.19-41.01,30.77
		c-6.11,24.6-2.37,64.24-6.03,90.71c-0.67,4.86-4.08,6.92-4.41,1.38C182.05,353.45,179.6,309.3,174.48,287.12z"/>
	<path class="st2" d="M135.23,171.99c-22.71-6.93-86.89-24.95-98.64-28.4C65.69,148.67,107.48,158.03,135.23,171.99z"/>
	<path class="st2" d="M131.7,215.67c-17.08-8.19-72.53-26.94-84.27-29.84C72.52,191.75,108.42,202.05,131.7,215.67z"/>
</g>
<g>
	<path class="st3" d="M225.82,341.6c0,0.05-0.08,0.25-0.17,0.43c-0.09,0.18-0.49,0.99-0.88,1.78c-1,2.05-1.02,2.08-2.41,3.49
		c-1.32,1.35-2.93,2.44-3.86,2.62c-0.31,0.06-0.61,0.19-0.67,0.28c-0.06,0.09-0.35,0.17-0.65,0.17c-0.3,0-0.58,0.11-0.63,0.24
		c-0.06,0.18-1.09,0.24-4.27,0.24c-3.18,0-4.21-0.06-4.27-0.24c-0.04-0.13-0.25-0.24-0.45-0.24c-0.2,0-0.52-0.08-0.7-0.18
		c-0.18-0.1-0.74-0.37-1.23-0.61c-2.29-1.08-2.69-2.25-1.18-3.39c0.4-0.3,0.78-0.59,0.83-0.65c0.05-0.05,0.53-0.3,1.06-0.55
		c0.53-0.24,1.1-0.52,1.27-0.61c0.17-0.09,0.63-0.23,1.01-0.3c0.38-0.07,0.74-0.21,0.8-0.3c0.06-0.09,0.32-0.17,0.57-0.17
		c0.26,0,0.47-0.08,0.47-0.18c0-0.1,0.56-0.24,1.25-0.31c0.69-0.07,1.29-0.2,1.34-0.29c0.05-0.08,0.83-0.21,1.73-0.29
		c0.9-0.07,1.68-0.21,1.74-0.31c0.06-0.09,0.6-0.17,1.21-0.17c0.61,0,1.18-0.08,1.28-0.18c0.1-0.1,0.92-0.21,1.81-0.25
		C223.97,341.52,225.82,341.5,225.82,341.6 M208.09,286.93c0.18,0.41,0.4,0.74,0.49,0.74c0.09,0,0.16,0.09,0.16,0.19
		c0,0.1,0.34,0.91,0.76,1.79c0.42,0.88,0.82,1.86,0.89,2.17c0.07,0.32,0.2,0.67,0.28,0.77c0.08,0.1,0.2,0.56,0.28,1.01
		c0.07,0.45,0.21,0.82,0.31,0.82c0.1,0,0.18,0.3,0.18,0.68c0,0.37,0.08,0.68,0.18,0.68c0.1,0,0.24,0.61,0.31,1.35
		c0.07,0.74,0.2,1.35,0.28,1.35c0.08,0,0.21,0.76,0.29,1.69c0.08,0.93,0.24,1.81,0.35,1.96c0.33,0.41,0.3,14.38-0.02,14.71
		c-0.13,0.13-0.24,0.41-0.24,0.62c0,0.54-0.77,2.02-1.13,2.16c-0.37,0.14-1.88-1.44-2.06-2.15c-0.06-0.25-0.19-0.46-0.29-0.46
		c-0.09,0-0.17-0.15-0.17-0.34c0-0.19-0.13-0.59-0.29-0.89c-0.16-0.3-0.29-0.72-0.29-0.91c0-0.2-0.08-0.36-0.17-0.36
		c-0.09,0-0.23-0.48-0.3-1.06c-0.07-0.58-0.2-1.1-0.3-1.16c-0.09-0.06-0.23-0.8-0.3-1.65c-0.07-0.85-0.21-1.59-0.3-1.65
		c-0.09-0.06-0.17-0.57-0.17-1.14c0-0.66-0.09-1.06-0.24-1.11c-0.33-0.11-0.31-19.54,0.02-19.88c0.12-0.12,0.22-0.57,0.22-1
		l0.01-0.78l0.46,0.57C207.55,285.94,207.91,286.53,208.09,286.93 M204.28,249.94c-0.06,13.67-0.13,18.14-0.3,18.2
		c-0.15,0.05-0.23,0.71-0.23,2.05c0,1.09-0.06,3.03-0.12,4.31l-0.12,2.33l-0.59-0.19c-0.33-0.1-0.76-0.28-0.96-0.38
		c-0.2-0.11-0.83-0.24-1.4-0.3c-0.57-0.06-1.08-0.18-1.14-0.27c-0.17-0.27-8.09-0.21-8.18,0.07c-0.11,0.34-10.15,0.35-10.27,0.01
		c-0.04-0.13-0.23-0.24-0.41-0.24c-0.72,0-2.56-1.17-3.78-2.4c-1.12-1.13-2.58-3.7-2.58-4.53c0-0.2-0.11-0.41-0.24-0.45
		c-0.18-0.06-0.24-1.03-0.24-3.96c0-2.85,0.06-3.95,0.24-4.12c0.13-0.13,0.24-0.47,0.24-0.76c0-0.28,0.13-0.77,0.29-1.07
		c0.16-0.3,0.29-0.74,0.29-0.98c0-0.23,0.08-0.47,0.17-0.53c0.09-0.06,0.23-0.41,0.3-0.78c0.07-0.37,0.2-0.68,0.29-0.68
		s0.23-0.28,0.3-0.63c0.07-0.34,0.19-0.67,0.26-0.72c0.12-0.1,0.45-0.66,1.11-1.93c0.19-0.37,0.4-0.72,0.45-0.77
		c0.05-0.05,0.53-0.75,1.06-1.54c0.53-0.8,1.05-1.54,1.15-1.66c0.1-0.12,0.4-0.47,0.65-0.77c2.46-2.96,4.51-5.02,7.31-7.35
		c0.27-0.22,0.91-0.76,1.44-1.21c1.45-1.23,1.64-1.38,2.88-2.3c0.63-0.47,1.42-1.08,1.75-1.35c0.33-0.27,0.85-0.69,1.15-0.92
		c0.3-0.23,0.74-0.58,0.96-0.77c0.23-0.19,0.6-0.48,0.83-0.64c0.39-0.27,0.58-0.42,1.63-1.31c0.21-0.18,0.77-0.63,1.25-0.99
		c0.47-0.37,1.04-0.85,1.25-1.06c0.21-0.22,0.99-0.94,1.73-1.62l1.34-1.22l0.15,2.67C204.28,230.61,204.32,239.97,204.28,249.94
		 M211.33,181.38c0.32,0.42,0.66,0.87,0.77,1c0.51,0.62,1.24,1.9,1.36,2.34c0.07,0.27,0.19,0.5,0.28,0.5c0.09,0,0.21,0.35,0.28,0.77
		c0.07,0.42,0.2,0.77,0.29,0.77s0.22,0.65,0.29,1.45c0.07,0.8,0.21,1.5,0.3,1.55c0.09,0.06,0.17,1.57,0.17,3.36
		c0,1.79-0.08,3.31-0.17,3.36c-0.09,0.06-0.23,0.78-0.31,1.6c-0.08,0.83-0.2,1.59-0.29,1.69c-0.08,0.11-0.21,0.62-0.29,1.14
		c-0.07,0.52-0.2,1.08-0.29,1.25c-0.08,0.17-0.3,0.79-0.48,1.37c-0.18,0.58-0.45,1.33-0.6,1.67c-0.15,0.33-0.27,0.74-0.27,0.91
		c0,0.16-0.09,0.35-0.19,0.42c-0.11,0.07-0.19,0.27-0.19,0.45c0,0.38-2.92,6.28-3.51,7.07c-0.78,1.06-0.75,1.45-0.63-6.83
		c0.07-4.7,0.19-7.88,0.3-8c0.1-0.1,0.19-0.99,0.19-1.97c0-0.98,0.08-1.83,0.17-1.89c0.09-0.06,0.23-1.45,0.31-3.1
		c0.08-1.65,0.2-2.99,0.29-2.99c0.08,0,0.21-1.02,0.28-2.27c0.08-1.25,0.21-2.36,0.29-2.46c0.09-0.11,0.2-0.63,0.27-1.16
		C210.33,180.19,210.39,180.11,211.33,181.38 M143.7,63.4c-0.58,0.38-1.96,1.11-3.07,1.64c-1.11,0.53-2.15,1.03-2.31,1.12
		c-0.16,0.09-0.57,0.22-0.91,0.3c-0.34,0.07-0.66,0.22-0.72,0.31c-0.06,0.1-0.26,0.18-0.43,0.18c-0.18,0-0.57,0.13-0.87,0.29
		c-0.3,0.16-0.67,0.29-0.82,0.29c-0.15,0-0.27,0.08-0.27,0.17c0,0.09-0.33,0.22-0.74,0.29c-0.41,0.07-0.99,0.25-1.3,0.41
		c-0.3,0.16-0.7,0.29-0.88,0.29c-0.18,0-0.38,0.09-0.44,0.19c-0.07,0.11-0.29,0.19-0.49,0.19c-0.2,0-0.37,0.07-0.37,0.17
		c0,0.09-0.36,0.23-0.81,0.3c-0.44,0.07-0.92,0.22-1.05,0.33c-0.13,0.11-0.35,0.16-0.49,0.11c-0.16-0.06-0.12-0.14,0.14-0.24
		c0.21-0.08,0.43-0.2,0.48-0.27c0.09-0.1,2.84-1.48,5.77-2.88c0.7-0.33,1.37-0.6,1.49-0.6c0.12,0,0.22-0.09,0.22-0.19
		s0.11-0.19,0.24-0.19c0.13,0,0.47-0.12,0.75-0.27c0.28-0.15,0.78-0.33,1.1-0.4c0.32-0.07,0.59-0.21,0.59-0.31
		c0-0.1,0.17-0.18,0.37-0.18s0.42-0.08,0.48-0.18c0.06-0.1,0.45-0.23,0.87-0.31c0.42-0.07,0.77-0.2,0.77-0.29
		c0-0.09,0.37-0.22,0.81-0.3c0.45-0.07,0.9-0.2,1.01-0.29c0.11-0.08,0.41-0.19,0.67-0.24C144.68,62.63,144.72,62.73,143.7,63.4
		 M189.29,0.16c-0.06,0.09-1.02,0.22-2.15,0.3c-1.13,0.07-2.2,0.22-2.39,0.32c-0.19,0.1-0.7,0.19-1.12,0.19
		c-0.43,0-0.78,0.08-0.78,0.17c0,0.09-0.69,0.23-1.53,0.31c-0.84,0.08-1.54,0.2-1.54,0.29c0,0.08-0.65,0.21-1.44,0.29
		c-0.79,0.07-1.49,0.21-1.55,0.31c-0.06,0.1-0.41,0.18-0.77,0.18c-0.36,0-0.66,0.08-0.66,0.18c0,0.1-0.56,0.24-1.25,0.31
		c-0.69,0.07-1.29,0.2-1.34,0.29c-0.05,0.08-0.55,0.21-1.1,0.29c-0.55,0.08-1.05,0.2-1.1,0.27c-0.09,0.12-1.49,0.46-3.02,0.72
		c-0.34,0.06-0.62,0.17-0.62,0.26c0,0.08-0.47,0.21-1.05,0.28c-0.58,0.07-1.1,0.2-1.15,0.29c-0.05,0.09-0.48,0.22-0.96,0.29
		c-0.48,0.07-0.91,0.21-0.97,0.31c-0.06,0.1-0.36,0.18-0.66,0.18c-0.3,0-0.6,0.08-0.66,0.18c-0.06,0.1-0.5,0.24-0.97,0.31
		c-0.47,0.07-0.86,0.2-0.86,0.28c0,0.08-0.39,0.21-0.86,0.28c-0.47,0.07-0.91,0.21-0.97,0.31c-0.06,0.1-0.32,0.18-0.58,0.18
		c-0.26,0-0.47,0.08-0.47,0.18c0,0.1-0.39,0.24-0.86,0.31c-0.48,0.07-0.86,0.2-0.86,0.28c0,0.08-0.36,0.2-0.81,0.28
		c-0.44,0.07-0.9,0.2-1.01,0.28c-0.11,0.08-0.72,0.31-1.35,0.51c-0.63,0.2-1.24,0.43-1.34,0.5c-0.11,0.07-0.52,0.2-0.91,0.27
		c-0.4,0.07-0.72,0.21-0.72,0.31c0,0.09-0.15,0.17-0.34,0.17c-0.18,0-0.58,0.13-0.88,0.29c-0.3,0.16-0.71,0.29-0.91,0.29
		c-0.2,0-0.36,0.08-0.36,0.17c0,0.09-0.3,0.23-0.67,0.3c-0.37,0.07-0.67,0.21-0.67,0.31c0,0.1-0.14,0.19-0.32,0.19
		c-0.17,0-0.76,0.21-1.29,0.47c-1.99,0.95-3.6,1.66-3.77,1.66c-0.1,0-0.18,0.09-0.18,0.19c0,0.11-0.11,0.19-0.24,0.19
		c-0.23,0-3.78,1.72-3.98,1.93c-0.05,0.06-0.66,0.4-1.34,0.76c-1.32,0.7-6.17,3.67-6.33,3.87c-0.05,0.07-0.53,0.42-1.06,0.77
		c-0.53,0.36-1.06,0.74-1.18,0.86c-0.12,0.11-0.41,0.33-0.64,0.49c-0.24,0.16-0.61,0.45-0.84,0.64c-0.23,0.2-0.66,0.54-0.95,0.77
		c-0.82,0.63-1.29,1.03-2.34,1.96c-0.53,0.47-1.18,1.03-1.44,1.26c-2.24,1.93-6.77,6.78-8.57,9.18c-0.39,0.52-0.76,0.99-0.83,1.04
		c-0.06,0.05-0.61,0.79-1.21,1.64c-0.6,0.85-1.16,1.63-1.24,1.74c-0.32,0.42-2.28,3.71-2.64,4.44c-0.21,0.42-0.42,0.82-0.48,0.87
		c-0.21,0.21-1.92,3.96-1.92,4.2c0,0.1-0.13,0.44-0.29,0.74c-0.16,0.3-0.29,0.75-0.29,0.99c0,0.24-0.09,0.43-0.19,0.43
		s-0.19,0.22-0.19,0.48c0,0.27-0.08,0.48-0.18,0.48c-0.1,0-0.24,0.48-0.31,1.06c-0.07,0.58-0.2,1.06-0.29,1.06
		c-0.09,0-0.22,0.61-0.29,1.36c-0.07,0.74-0.21,1.4-0.3,1.46c-0.22,0.14-0.22,6.78,0,6.91c0.09,0.06,0.22,0.46,0.29,0.89
		c0.07,0.43,0.19,0.93,0.28,1.11c1.88,3.98,4.12,6.04,7.1,6.52c0.44,0.07,0.85,0.2,0.9,0.3c0.16,0.26,6.29,0.21,6.55-0.05
		c0.12-0.12,0.32-0.18,0.45-0.14c0.13,0.04-0.06,0.26-0.43,0.48c-1.8,1.07-4.28,3.67-4.51,4.74c-0.06,0.29-0.17,0.53-0.24,0.53
		c-0.33,0-0.64,2.35-0.42,3.15c0.5,1.75,1.78,3.03,3.05,3.03c0.22,0,0.45,0.09,0.51,0.19c0.15,0.24,6.62,0.26,6.62,0.02
		c0-0.09,0.65-0.23,1.44-0.31c0.79-0.07,1.49-0.21,1.55-0.31c0.06-0.1,0.32-0.18,0.58-0.18c0.26,0,0.47-0.08,0.47-0.17
		c0-0.09,0.47-0.23,1.05-0.3c0.58-0.07,1.06-0.2,1.06-0.29c0-0.09,0.29-0.2,0.65-0.26c0.36-0.06,1.02-0.29,1.47-0.5
		c0.45-0.22,1.11-0.45,1.46-0.52c0.35-0.07,0.64-0.19,0.64-0.28c0-0.08,0.35-0.21,0.77-0.29c0.42-0.07,0.77-0.21,0.77-0.31
		c0-0.1,0.12-0.18,0.27-0.18c0.15,0,0.51-0.13,0.81-0.29c0.3-0.16,0.74-0.29,0.98-0.29c0.24,0,0.43-0.08,0.43-0.19
		c0-0.1,0.3-0.24,0.67-0.31c0.37-0.07,0.72-0.2,0.78-0.3c0.06-0.09,0.27-0.17,0.47-0.17c0.32,0,1.23-0.33,2.13-0.78
		c0.17-0.09,0.62-0.22,1.01-0.29c0.38-0.07,0.7-0.2,0.7-0.28c0-0.08,0.39-0.21,0.86-0.28c0.47-0.07,0.91-0.21,0.97-0.31
		c0.06-0.1,0.32-0.18,0.57-0.18c0.25,0,0.51-0.08,0.57-0.18c0.06-0.1,0.58-0.24,1.16-0.31c0.58-0.07,1.05-0.2,1.05-0.28
		c0-0.08,0.56-0.21,1.25-0.28c0.69-0.07,1.29-0.21,1.35-0.31c0.06-0.1,0.43-0.18,0.83-0.18s0.82-0.1,0.95-0.23
		c0.34-0.34,6.59-0.35,6.7-0.01c0.04,0.13,0.21,0.24,0.36,0.24c0.15,0,0.62,0.36,1.04,0.8c1.56,1.65,0.69,3.83-2.6,6.5
		c-0.74,0.6-1.39,1.15-1.44,1.22c-0.05,0.07-0.44,0.31-0.86,0.54c-0.94,0.51-1.5,0.85-1.63,0.98c-0.1,0.1-0.74,0.45-2.3,1.27
		c-0.48,0.25-1.55,0.76-2.4,1.15c-0.84,0.38-1.88,0.86-2.3,1.07c-0.42,0.2-1.01,0.42-1.3,0.49c-0.29,0.07-0.58,0.2-0.63,0.3
		c-0.06,0.09-0.25,0.17-0.43,0.17c-0.18,0-0.57,0.13-0.87,0.29c-0.3,0.16-0.67,0.29-0.81,0.29c-0.15,0-0.27,0.08-0.27,0.17
		c0,0.09-0.3,0.23-0.66,0.3c-0.36,0.07-0.9,0.25-1.2,0.41c-0.3,0.15-0.69,0.28-0.87,0.28c-0.18,0-0.34,0.09-0.34,0.19
		c0,0.11-0.22,0.19-0.48,0.19c-0.26,0-0.48,0.08-0.48,0.18c0,0.1-0.34,0.23-0.77,0.31c-0.42,0.07-0.77,0.21-0.77,0.31
		c0,0.1-0.14,0.18-0.31,0.18c-0.37,0-1.52,0.48-4.59,1.93c-5.7,2.68-9.83,6.92-10.2,10.45c-0.25,2.33,0.39,3.72,1.95,4.23
		c0.42,0.14,0.85,0.32,0.95,0.41c0.27,0.22,3.71,0.19,3.85-0.04c0.06-0.11,0.36-0.19,0.66-0.19c0.56,0,2.35-0.48,2.93-0.79
		c0.18-0.1,0.49-0.18,0.67-0.18c0.19,0,0.57-0.12,0.85-0.27c0.28-0.15,0.78-0.33,1.1-0.4c0.32-0.07,0.63-0.21,0.7-0.31
		c0.06-0.1,0.28-0.18,0.48-0.18s0.37-0.08,0.37-0.18c0-0.1,0.26-0.23,0.57-0.3c0.31-0.07,1-0.34,1.53-0.59
		c0.53-0.26,1.05-0.47,1.16-0.47c0.11,0,0.19-0.09,0.19-0.19c0-0.11,0.1-0.19,0.23-0.19c0.22,0,3.8-1.73,4-1.93
		c0.05-0.05,0.57-0.35,1.15-0.65c0.58-0.31,1.79-0.95,2.69-1.43c4.52-2.42,9.28-4.74,10.22-4.97c0.29-0.07,0.58-0.21,0.63-0.3
		c0.06-0.09,0.24-0.17,0.4-0.17c0.27,0,1.23-0.37,1.99-0.76c0.16-0.08,0.59-0.22,0.96-0.3c0.37-0.08,0.75-0.21,0.86-0.29
		c0.11-0.08,0.56-0.21,1.01-0.28c0.45-0.07,0.86-0.21,0.92-0.31c0.06-0.1,0.34-0.18,0.63-0.18c0.29,0,0.61-0.09,0.72-0.19
		c0.11-0.11,0.86-0.25,1.68-0.32c0.82-0.07,1.53-0.2,1.59-0.29c0.14-0.23,1.61-0.2,1.61,0.03c0,0.11,0.17,0.19,0.37,0.19
		c0.38,0,1.17,0.84,1.17,1.23c0,0.73-1.27,2.32-3.1,3.88c-1.2,1.02-7.15,4.34-7.79,4.34c-0.13,0-0.24,0.08-0.24,0.18
		c0,0.1-0.35,0.23-0.77,0.31c-0.42,0.07-0.77,0.21-0.77,0.31c0,0.1-0.17,0.18-0.38,0.18c-0.21,0-0.38,0.08-0.38,0.18
		c0,0.1-0.39,0.24-0.86,0.31c-0.48,0.07-0.86,0.2-0.86,0.28c0,0.08-0.35,0.2-0.78,0.27c-0.43,0.07-0.92,0.2-1.1,0.3
		c-0.46,0.24-2.25,0.78-2.62,0.78c-0.16,0-0.3,0.08-0.3,0.17c0,0.09-0.43,0.22-0.95,0.29c-0.52,0.07-1,0.2-1.05,0.29
		c-0.06,0.09-0.49,0.22-0.96,0.3c-0.47,0.07-0.91,0.21-0.97,0.31c-0.06,0.1-0.36,0.18-0.66,0.18c-0.31,0-0.6,0.08-0.66,0.18
		c-0.06,0.1-0.45,0.23-0.87,0.31c-0.42,0.07-0.81,0.21-0.87,0.31c-0.06,0.1-0.3,0.18-0.53,0.18c-0.23,0-0.67,0.13-0.97,0.29
		c-0.3,0.16-0.67,0.29-0.81,0.29c-0.15,0-0.27,0.09-0.27,0.19c0,0.11-0.14,0.19-0.31,0.19c-0.63,0-3.98,1.64-5.74,2.81
		c-4.54,3.01-6.61,7.12-5.06,10.02c0.6,1.13,2.03,2.03,3.23,2.03c0.32,0,0.59,0.09,0.59,0.19c0,0.11,0.74,0.19,1.82,0.19
		c1,0,1.82-0.07,1.82-0.17c0-0.09,0.8-0.23,1.77-0.3c0.97-0.07,1.82-0.2,1.87-0.29c0.06-0.08,0.47-0.21,0.93-0.28
		c0.45-0.07,0.99-0.21,1.2-0.32c0.21-0.1,0.53-0.27,0.72-0.36c0.19-0.09,0.64-0.23,1-0.31c0.36-0.08,0.79-0.21,0.95-0.3
		c1.06-0.56,4.05-1.92,4.2-1.92c0.1,0,0.21-0.07,0.25-0.15c0.04-0.08,0.41-0.32,0.83-0.53c0.42-0.21,0.81-0.43,0.86-0.48
		c0.05-0.05,0.7-0.4,1.44-0.77c0.74-0.37,1.39-0.72,1.44-0.78c0.05-0.06,0.31-0.21,0.58-0.34c0.26-0.13,0.95-0.5,1.53-0.84
		c0.58-0.34,1.53-0.87,2.11-1.19c0.58-0.32,1.14-0.64,1.25-0.72c0.54-0.42,6.62-3.55,8.25-4.25c0.53-0.23,1.22-0.52,1.53-0.66
		c0.32-0.14,0.88-0.36,1.25-0.5c0.37-0.14,0.76-0.32,0.86-0.39c0.1-0.08,0.56-0.2,1.01-0.27c0.45-0.07,0.86-0.21,0.91-0.29
		c0.05-0.09,0.64-0.21,1.3-0.28c0.66-0.07,1.4-0.22,1.64-0.34c0.33-0.16,0.49-0.16,0.66,0.01c0.12,0.13,0.38,0.23,0.57,0.23
		c0.47,0,0.44,0.25-0.13,1.16c-0.94,1.49-4.97,5.21-5.65,5.21c-0.11,0-0.21,0.08-0.21,0.18c0,0.1-0.19,0.24-0.43,0.32
		c-0.24,0.07-0.48,0.19-0.53,0.25c-0.2,0.24-2.5,1.44-4.51,2.34c-0.74,0.33-1.49,0.68-1.68,0.78c-0.18,0.1-0.43,0.18-0.55,0.18
		c-0.12,0-0.49,0.12-0.82,0.27c-0.33,0.15-1.08,0.43-1.66,0.63c-0.58,0.2-1.1,0.41-1.15,0.47c-0.05,0.06-0.43,0.18-0.84,0.25
		c-0.41,0.08-0.88,0.21-1.05,0.3c-0.17,0.09-0.85,0.32-1.51,0.52c-0.66,0.2-1.2,0.41-1.2,0.48c0,0.07-0.43,0.19-0.96,0.26
		c-0.53,0.07-0.96,0.2-0.96,0.28c0,0.08-0.43,0.21-0.95,0.28c-0.52,0.07-1,0.21-1.07,0.31c-0.06,0.1-0.33,0.19-0.58,0.19
		c-0.26,0-0.47,0.08-0.47,0.17c0,0.09-0.39,0.23-0.86,0.3c-0.48,0.07-0.86,0.2-0.86,0.29s-0.39,0.22-0.86,0.29
		c-0.47,0.07-0.91,0.21-0.97,0.31c-0.06,0.1-0.25,0.18-0.41,0.18c-0.28,0-1.27,0.39-2.03,0.79c-0.18,0.1-0.44,0.18-0.58,0.18
		c-0.23,0-3.78,1.72-3.98,1.93c-0.05,0.06-0.4,0.27-0.77,0.48c-0.37,0.21-0.77,0.47-0.89,0.58c-0.12,0.11-0.69,0.59-1.26,1.07
		c-0.57,0.47-1.3,1.19-1.61,1.59c-0.31,0.4-0.73,0.92-0.92,1.16c-0.2,0.24-0.57,0.91-0.82,1.5c-0.26,0.58-0.55,1.21-0.65,1.4
		c-0.25,0.45-0.24,4.34,0.01,4.49c0.1,0.07,0.19,0.29,0.19,0.49c0,0.79,2.47,2.69,3.5,2.69c0.14,0,0.37,0.11,0.5,0.24
		c0.31,0.32,6.59,0.32,6.97,0.01c0.14-0.11,0.75-0.27,1.36-0.35c0.61-0.08,1.15-0.21,1.21-0.31c0.06-0.09,0.32-0.17,0.57-0.17
		c0.26,0,0.47-0.08,0.47-0.18c0-0.1,0.39-0.24,0.86-0.31c0.48-0.07,0.86-0.2,0.86-0.29c0-0.08,0.35-0.21,0.77-0.28
		c0.42-0.07,0.77-0.21,0.77-0.31c0-0.1,0.13-0.18,0.29-0.18c0.16,0,0.72-0.21,1.26-0.47c0.53-0.26,1.22-0.53,1.53-0.59
		c0.31-0.07,0.57-0.2,0.57-0.3s0.13-0.18,0.29-0.18s0.7-0.21,1.2-0.47c0.5-0.26,1.51-0.75,2.25-1.1c0.74-0.35,1.39-0.69,1.44-0.76
		c0.05-0.07,0.31-0.2,0.57-0.28c0.27-0.08,0.52-0.2,0.58-0.27c0.05-0.07,0.74-0.45,1.54-0.85c0.79-0.4,2.04-1.08,2.78-1.5
		c0.74-0.42,1.56-0.87,1.82-1c0.27-0.13,0.52-0.28,0.58-0.33c0.05-0.05,0.4-0.26,0.77-0.46c0.84-0.45,2.52-1.38,3.11-1.71
		c0.24-0.14,0.48-0.29,0.54-0.34c0.2-0.2,3.77-1.93,3.99-1.93c0.13,0,0.23-0.09,0.23-0.19s0.1-0.19,0.21-0.19
		c0.12,0,0.48-0.12,0.81-0.27c0.33-0.15,1.08-0.43,1.66-0.62c0.58-0.19,1.14-0.41,1.25-0.48c0.11-0.07,0.58-0.19,1.06-0.27
		c0.47-0.08,0.96-0.22,1.09-0.32c0.49-0.4,3.24-0.25,3.68,0.2c0.43,0.43,0.56,0.99,0.22,0.99c-0.11,0-0.19,0.19-0.19,0.43
		c0,1.54-2.56,4.69-5.56,6.87c-0.9,0.65-1.72,1.25-1.83,1.33c-0.53,0.39-5.57,2.97-7.38,3.78c-0.58,0.26-1.46,0.66-1.96,0.88
		c-0.5,0.23-1.03,0.41-1.19,0.41c-0.16,0-0.34,0.09-0.41,0.19c-0.06,0.11-0.26,0.19-0.44,0.19c-0.18,0-0.54,0.11-0.8,0.25
		c-0.27,0.14-1,0.42-1.63,0.62c-0.63,0.21-1.19,0.44-1.25,0.5c-0.05,0.07-0.51,0.19-1.01,0.27c-0.5,0.08-0.96,0.21-1.01,0.3
		c-0.05,0.09-0.49,0.22-0.96,0.29c-0.47,0.07-0.91,0.21-0.97,0.3c-0.06,0.09-0.31,0.17-0.56,0.17c-0.25,0-0.51,0.08-0.56,0.17
		c-0.06,0.09-0.49,0.23-0.97,0.3c-0.47,0.07-0.91,0.2-0.96,0.29c-0.05,0.09-0.49,0.22-0.96,0.29c-0.47,0.07-0.91,0.21-0.97,0.31
		c-0.06,0.1-0.28,0.18-0.48,0.18s-0.37,0.08-0.37,0.17c0,0.09-0.33,0.22-0.73,0.29c-0.66,0.11-1.48,0.42-2.38,0.91
		c-0.18,0.1-0.46,0.18-0.62,0.18c-0.16,0-0.29,0.09-0.29,0.19c0,0.11-0.09,0.19-0.2,0.19c-1.46,0-5.4,3.08-6.17,4.81
		c-0.21,0.48-0.49,1.09-0.61,1.34c-0.3,0.64-0.28,4.95,0.03,5.26c0.13,0.13,0.23,0.48,0.23,0.78s0.09,0.54,0.19,0.54
		c0.11,0,0.19,0.19,0.19,0.43c0,1.08,2.66,5.56,4.78,8.07c1.96,2.32,5.87,5.01,7.27,5.01c0.23,0,0.42,0.08,0.42,0.18
		c0,0.1,0.48,0.24,1.05,0.31c0.58,0.07,1.06,0.2,1.06,0.28c0,0.17,0.58,0.29,2.88,0.6c0.9,0.12,1.84,0.31,2.09,0.44
		c0.61,0.29,12.17,0.28,12.53-0.01c0.14-0.11,1.26-0.26,2.51-0.34c1.24-0.08,2.3-0.22,2.36-0.31s0.66-0.17,1.34-0.17
		c0.68,0,1.24-0.08,1.24-0.17c0-0.09,1.1-0.23,2.45-0.31c1.48-0.08,2.5-0.23,2.58-0.36c0.19-0.31,13.41-0.31,13.79,0
		c0.15,0.12,0.64,0.28,1.09,0.36c0.45,0.07,1.23,0.34,1.73,0.6c0.5,0.25,1.02,0.46,1.14,0.46c0.42,0,0.48,0.9,0.17,2.55
		c-0.5,2.7-0.53,2.89-0.76,5.08c-0.12,1.17-0.28,2.21-0.35,2.32c-0.07,0.1-0.19,1.47-0.27,3.04c-0.08,1.57-0.21,2.84-0.31,2.84
		c-0.09,0-0.16,0.81-0.16,1.79c0,1.11-0.09,1.88-0.23,2.02c-0.16,0.17-0.25,3.33-0.31,11.76l-0.09,11.53l-1.65,1.71
		c-2.7,2.79-4.58,4.54-6.64,6.2c-0.53,0.42-1,0.81-1.05,0.87c-0.05,0.05-0.61,0.49-1.25,0.96c-0.63,0.48-1.2,0.92-1.25,0.97
		c-0.05,0.06-0.66,0.54-1.34,1.06c-0.69,0.52-1.33,1.02-1.44,1.1c-5.02,3.99-5.32,4.25-8.35,7.28c-3.12,3.12-4.49,4.73-5.68,6.66
		c-0.2,0.32-0.41,0.62-0.47,0.68c-0.53,0.46-3.45,6.33-3.45,6.93c0,0.12-0.08,0.36-0.17,0.55c-0.3,0.59-0.79,2.25-0.79,2.66
		c0,0.22-0.09,0.49-0.2,0.6c-0.11,0.11-0.26,1.04-0.32,2.06c-0.06,1.02-0.18,1.86-0.27,1.86c-0.21,0-0.21,3.42,0,3.55
		c0.09,0.06,0.22,0.9,0.29,1.88c0.07,0.98,0.21,1.87,0.32,1.98c0.1,0.1,0.19,0.35,0.19,0.55c0,1.74,3.5,6.58,5.47,7.57
		c0.42,0.21,0.81,0.44,0.86,0.51c0.05,0.07,0.42,0.19,0.82,0.26c0.4,0.07,0.72,0.21,0.72,0.31c0,0.09,0.21,0.17,0.47,0.17
		c0.26,0,0.49,0.09,0.53,0.2c0.04,0.11,0.97,0.25,2.13,0.32c1.14,0.06,2.11,0.19,2.17,0.28c0.13,0.21,2.96,0.21,2.96,0
		c0-0.09,1.44-0.22,3.21-0.3c1.76-0.07,3.31-0.22,3.44-0.33c0.46-0.38,6.26,0.11,6.86,0.58c0.12,0.09,0.45,0.22,0.74,0.29
		c0.29,0.07,0.92,0.36,1.4,0.65l0.88,0.53l-0.11,1.35c-0.46,5.62-0.63,21.22-0.28,24.41c0.1,0.9,0.23,2.1,0.29,2.65
		c0.06,0.56,0.17,1.01,0.25,1.01c0.08,0,0.2,0.62,0.27,1.38c0.07,0.76,0.2,1.48,0.29,1.59c0.09,0.11,0.22,0.62,0.29,1.12
		c0.07,0.5,0.21,0.96,0.31,1.02c0.1,0.06,0.18,0.32,0.18,0.58c0,0.26,0.08,0.47,0.17,0.47c0.09,0,0.23,0.39,0.3,0.87
		c0.07,0.48,0.21,0.87,0.31,0.87c0.1,0,0.18,0.09,0.18,0.2c0,0.37,0.73,1.81,1.14,2.25c0.22,0.23,0.4,0.51,0.4,0.61
		c0,0.26,1.13,1.18,1.45,1.18c0.15,0,0.27,0.09,0.27,0.19c0,0.11,0.17,0.19,0.37,0.19s0.42,0.09,0.49,0.19
		c0.07,0.11,0.68,0.19,1.38,0.19c2.58,0,4.56-1.81,4.97-4.53c0.07-0.48,0.2-0.87,0.28-0.87c0.85,0,0.85-17.15,0-18.23
		c-0.08-0.11-0.21-0.91-0.29-1.78c-0.08-0.88-0.2-1.59-0.28-1.59c-0.08,0-0.2-0.54-0.27-1.2c-0.07-0.66-0.21-1.28-0.31-1.39
		c-0.11-0.11-0.19-0.43-0.19-0.72c0-0.29-0.08-0.58-0.18-0.64c-0.1-0.06-0.24-0.5-0.31-0.98c-0.07-0.48-0.2-0.86-0.28-0.86
		c-0.08,0-0.21-0.31-0.28-0.69c-0.07-0.38-0.3-0.99-0.5-1.36c-0.2-0.37-0.37-0.76-0.37-0.88c0-0.25-1.17-2.72-1.36-2.86
		c-0.07-0.05-0.18-0.29-0.26-0.53c-0.07-0.24-0.2-0.43-0.29-0.43c-0.09,0-0.21-0.2-0.27-0.43c-0.06-0.24-0.33-0.69-0.6-0.99
		c-0.27-0.31-0.49-0.62-0.49-0.7c0-0.08-0.6-0.78-1.34-1.56l-1.34-1.42l0.12-3.86c0.07-2.12,0.2-3.95,0.29-4.07
		c0.09-0.12,0.22-4.3,0.29-9.31c0.07-5,0.2-9.1,0.29-9.1c0.22,0,0.21-10.37-0.01-10.45c-0.1-0.04-0.2-4.27-0.23-10.11l-0.06-10.04
		l0.57-0.76c0.31-0.42,0.61-0.81,0.67-0.86c0.06-0.05,0.53-0.75,1.06-1.54c0.52-0.8,1.01-1.49,1.07-1.54
		c0.34-0.28,3.21-5.9,4.09-8.01c0.18-0.42,0.39-0.9,0.48-1.07s0.22-0.6,0.3-0.96c0.08-0.37,0.2-0.76,0.28-0.86
		c0.07-0.11,0.29-0.71,0.49-1.35c0.19-0.64,0.42-1.33,0.5-1.54c0.08-0.21,0.21-0.78,0.28-1.25c0.07-0.48,0.2-0.96,0.3-1.08
		c0.09-0.12,0.23-0.88,0.3-1.69c0.07-0.81,0.2-1.48,0.29-1.48c0.09,0,0.16-0.7,0.16-1.54c0-0.9,0.08-1.54,0.19-1.54
		c0.12,0,0.19-0.8,0.19-2.01c0-1.13-0.08-2.07-0.19-2.13c-0.11-0.07-0.19-0.72-0.19-1.46c0-0.74-0.07-1.34-0.17-1.34
		c-0.09,0-0.23-0.61-0.3-1.35c-0.07-0.74-0.2-1.35-0.29-1.35s-0.21-0.33-0.27-0.72c-0.06-0.4-0.28-1.07-0.48-1.5
		c-0.2-0.42-0.52-1.12-0.72-1.54c-0.79-1.72-2.61-3.99-4.47-5.55l-0.63-0.53l0.34-1.01c0.18-0.56,0.45-1.28,0.59-1.62
		c0.14-0.33,0.26-0.72,0.27-0.87c0-0.14,0.13-0.43,0.29-0.63c0.16-0.21,0.28-0.53,0.28-0.72c0-0.19,0.07-0.35,0.16-0.35
		c0.09,0,0.32-0.35,0.51-0.77c0.36-0.81,2.1-2.7,2.48-2.7c0.6,0,3.95,4.21,3.95,4.97c0,0.13,0.09,0.24,0.19,0.24
		c0.11,0,0.19,0.09,0.19,0.2c0,0.21,0.49,1.37,1.16,2.79c0.2,0.42,0.42,1.03,0.5,1.35c0.07,0.32,0.19,0.67,0.27,0.77
		c0.08,0.11,0.2,0.56,0.28,1.01c0.07,0.45,0.21,0.87,0.31,0.93c0.1,0.06,0.17,0.28,0.17,0.48c0,0.21,0.08,0.37,0.17,0.37
		c0.09,0,0.22,0.52,0.3,1.15c0.07,0.63,0.2,1.2,0.3,1.26c0.09,0.06,0.23,0.69,0.3,1.4c0.07,0.72,0.19,1.39,0.26,1.49
		c0.16,0.25,0.58,2.94,0.72,4.58c0.06,0.72,0.18,1.3,0.26,1.3c0.08,0,0.21,1.2,0.29,2.65c0.08,1.46,0.21,2.7,0.29,2.75
		c0.08,0.05,0.22,1.9,0.29,4.11c0.08,2.2,0.21,4.05,0.31,4.11c0.09,0.06,0.16,2.48,0.16,5.4c0,3.4,0.07,5.29,0.19,5.29
		c0.25,0,0.25,0.83,0.01,1.08c-0.11,0.11-0.22,2.78-0.28,6.45c-0.12,8.43-0.51,19.56-0.69,19.68c-0.08,0.05-0.21,3.13-0.29,6.85
		c-0.08,3.71-0.21,6.84-0.3,6.95c-0.53,0.67-0.53,37.52,0,38.19c0.09,0.11,0.22,2.76,0.29,5.89c0.08,3.13,0.2,5.74,0.29,5.79
		c0.14,0.09,0.47,6.57,0.7,13.7c0.05,1.65,0.18,3.07,0.28,3.17c0.25,0.25,0.24,10.33-0.01,10.33c-0.11,0-0.19,0.6-0.19,1.41
		c0,1.84-0.27,2.45-1.1,2.45c-0.34,0-0.62,0.07-0.62,0.16c0,0.09-1.79,0.22-3.97,0.29c-2.18,0.07-4.06,0.21-4.16,0.32
		c-0.1,0.1-0.65,0.19-1.21,0.19c-0.56,0-1.02,0.08-1.02,0.17c0,0.09-0.78,0.23-1.73,0.3c-0.95,0.07-1.73,0.21-1.73,0.29
		c0,0.09-0.49,0.22-1.09,0.29c-0.6,0.08-1.22,0.21-1.39,0.29c-0.17,0.09-0.85,0.31-1.51,0.5c-0.66,0.19-1.25,0.41-1.31,0.5
		c-0.06,0.09-0.23,0.16-0.39,0.16c-0.27,0-1.82,0.71-3.22,1.48c-0.92,0.51-2.41,2.12-2.53,2.76c-0.06,0.32-0.19,0.58-0.28,0.58
		c-0.23,0-0.21,3.23,0.02,3.38c0.11,0.07,0.19,0.31,0.19,0.55c0,0.94,2.57,3.4,3.54,3.4c0.16,0,0.29,0.08,0.29,0.17
		c0,0.09,0.32,0.23,0.72,0.31c0.39,0.07,0.8,0.19,0.91,0.26c0.63,0.41,1.78,0.65,3.6,0.75c1.14,0.06,2.11,0.19,2.17,0.28
		c0.14,0.23,2.33,0.21,2.48-0.03c0.07-0.11,0.74-0.2,1.5-0.2c0.76,0,1.77-0.1,2.24-0.2c0.48-0.11,1.1-0.24,1.39-0.3
		c0.29-0.06,0.53-0.17,0.53-0.26c0-0.08,0.39-0.21,0.86-0.28c0.47-0.07,0.86-0.21,0.86-0.31c0-0.1,0.13-0.18,0.28-0.18
		c0.39,0,1.64-0.61,1.64-0.81c0-0.09,0.11-0.16,0.25-0.16c0.92,0,4.11-3.7,4.78-5.55c0.12-0.34,0.3-0.63,0.38-0.63
		c0.08,0,0.15-0.12,0.15-0.27c0-0.15,0.13-0.51,0.29-0.82c0.16-0.3,0.29-0.7,0.29-0.89c0-0.19,0.08-0.34,0.18-0.34
		c0.1,0,0.24-0.49,0.31-1.09l0.14-1.09l5.96,0.12c3.58,0.07,6.04,0.2,6.15,0.32c0.11,0.11,0.81,0.2,1.56,0.2
		c0.75,0,1.43,0.06,1.51,0.15c0.08,0.08,1.11,0.25,2.29,0.38c4.54,0.5,5.99,0.7,6.08,0.83c0.05,0.08,0.48,0.19,0.96,0.25
		c1.33,0.17,3.53,0.6,3.74,0.73c0.11,0.07,0.73,0.18,1.39,0.26c0.66,0.08,1.2,0.21,1.2,0.29c0,0.09,0.52,0.22,1.15,0.29
		c0.63,0.07,1.2,0.21,1.26,0.31c0.06,0.1,0.31,0.17,0.56,0.17c0.25,0,0.51,0.08,0.56,0.18c0.06,0.1,0.54,0.23,1.07,0.31
		c0.53,0.07,0.96,0.2,0.96,0.28c0,0.08,0.36,0.21,0.81,0.28c0.44,0.07,0.9,0.2,1.01,0.28c0.11,0.08,0.68,0.3,1.26,0.49
		c0.58,0.19,1.33,0.47,1.66,0.62c0.33,0.15,0.74,0.27,0.91,0.27c0.17,0,0.31,0.09,0.31,0.19c0,0.1,0.13,0.19,0.29,0.19
		s0.44,0.08,0.62,0.17c0.18,0.09,1.72,0.85,3.4,1.68c1.69,0.83,3.24,1.67,3.45,1.86c0.21,0.19,0.58,0.4,0.82,0.46
		c0.24,0.06,0.43,0.19,0.43,0.28c0,0.09,0.1,0.17,0.21,0.17c0.12,0,0.54,0.26,0.94,0.58c0.4,0.32,0.78,0.58,0.85,0.58
		c0.07,0,0.23,0.09,0.36,0.19c0.13,0.11,0.75,0.58,1.38,1.06c4.63,3.48,9.67,9.6,10.38,12.59c0.07,0.29,0.2,0.62,0.28,0.73
		c0.09,0.11,0.22,0.57,0.29,1.02c0.07,0.45,0.2,0.86,0.3,0.92c0.09,0.06,0.17,0.49,0.17,0.96c0,0.47,0.09,0.86,0.19,0.86
		s0.19,0.43,0.19,0.96s-0.09,0.96-0.19,0.96s-0.19,0.43-0.19,0.95c0,0.53-0.09,1.01-0.19,1.07c-0.11,0.07-0.19,0.31-0.2,0.54
		c0,0.23-0.17,0.77-0.38,1.2c-0.2,0.42-0.37,0.88-0.38,1.01c0,0.13-0.08,0.24-0.18,0.24c-0.09,0-0.22,0.15-0.28,0.34
		c-0.12,0.35-0.47,0.93-0.8,1.32c-0.11,0.12-0.32,0.42-0.48,0.65c-0.16,0.23-0.88,1.01-1.6,1.71c-1.81,1.77-1.81,1.77-2.01,1.77
		c-0.1,0-0.24,0.13-0.3,0.29c-0.06,0.16-0.24,0.29-0.39,0.29c-0.15,0-0.31,0.07-0.34,0.15c-0.34,0.81-8.91,5.06-10.2,5.06
		c-0.18,0-0.33,0.08-0.33,0.17c0,0.09-0.39,0.23-0.86,0.3c-0.48,0.07-0.86,0.2-0.86,0.3c0,0.09-0.47,0.23-1.05,0.3
		c-0.58,0.07-1.06,0.21-1.06,0.3c0,0.09-0.3,0.17-0.67,0.17c-0.37,0-0.67,0.08-0.67,0.17c0,0.09-0.6,0.23-1.34,0.31
		c-0.74,0.07-1.34,0.2-1.34,0.29c0,0.08-0.69,0.21-1.54,0.29c-0.84,0.07-1.58,0.21-1.64,0.31c-0.06,0.1-0.48,0.17-0.95,0.17
		c-0.46,0-0.89,0.08-0.95,0.17c-0.06,0.09-1.03,0.23-2.17,0.31c-1.14,0.08-2.11,0.21-2.16,0.29c-0.05,0.08-1.56,0.22-3.36,0.29
		c-2,0.09-3.31,0.22-3.4,0.35c-0.19,0.3-21.7,0.29-22.06-0.01c-0.15-0.12-1.83-0.27-4.05-0.35c-2.09-0.08-3.83-0.21-3.88-0.29
		c-0.05-0.08-1.26-0.21-2.68-0.29c-1.43-0.08-2.64-0.22-2.7-0.31c-0.06-0.09-0.66-0.17-1.33-0.17c-0.68,0-1.27-0.08-1.33-0.17
		c-0.06-0.09-0.99-0.23-2.07-0.31c-1.08-0.08-2.11-0.21-2.28-0.3c-0.17-0.09-1.1-0.22-2.06-0.3c-0.97-0.07-1.76-0.21-1.76-0.3
		c0-0.09-0.38-0.17-0.85-0.17c-0.47,0-0.9-0.08-0.96-0.18c-0.06-0.1-0.76-0.24-1.55-0.31c-0.79-0.08-1.48-0.21-1.53-0.29
		c-0.05-0.08-0.74-0.21-1.54-0.29c-0.79-0.07-1.49-0.21-1.54-0.31c-0.06-0.09-0.4-0.17-0.75-0.17c-0.36,0-0.7-0.08-0.76-0.17
		c-0.06-0.1-0.65-0.24-1.31-0.31c-0.66-0.08-1.29-0.2-1.39-0.29c-0.11-0.08-0.67-0.21-1.25-0.29c-0.58-0.08-1.14-0.21-1.25-0.29
		c-0.11-0.08-0.5-0.2-0.86-0.25c-0.37-0.06-1.19-0.25-1.82-0.43c-0.63-0.18-1.65-0.42-2.26-0.54c-0.61-0.11-1.1-0.27-1.1-0.35
		c0-0.08-0.48-0.2-1.06-0.28c-0.58-0.07-1.06-0.21-1.06-0.3c0-0.09-0.25-0.17-0.56-0.17c-0.31,0-0.61-0.08-0.67-0.18
		c-0.06-0.1-0.5-0.24-0.97-0.31c-0.47-0.07-0.86-0.2-0.86-0.28c0-0.08-0.48-0.21-1.06-0.28c-0.58-0.07-1.05-0.21-1.05-0.31
		c0-0.1-0.21-0.18-0.47-0.18c-0.26,0-0.52-0.08-0.58-0.18c-0.06-0.1-0.45-0.23-0.87-0.31c-0.42-0.07-0.81-0.2-0.87-0.3
		c-0.06-0.09-0.49-0.22-0.96-0.3c-0.47-0.07-0.86-0.21-0.86-0.3c0-0.09-0.16-0.17-0.36-0.17c-0.2,0-0.61-0.13-0.91-0.29
		c-0.3-0.16-0.7-0.29-0.88-0.29c-0.18,0-0.34-0.08-0.34-0.17c0-0.09-0.3-0.23-0.66-0.3c-0.36-0.07-0.9-0.25-1.2-0.41
		c-0.3-0.15-0.6-0.28-0.68-0.28c-0.12,0-0.98-0.37-2.96-1.27c-0.33-0.15-0.74-0.28-0.91-0.28c-0.17,0-0.31-0.09-0.31-0.19
		c0-0.11-0.1-0.19-0.22-0.19c-0.33,0-5.64-2.67-6.99-3.51c-0.64-0.4-1.27-0.73-1.39-0.73c-0.12,0-0.22-0.08-0.22-0.19
		c0-0.1-0.22-0.24-0.48-0.31c-0.26-0.07-0.48-0.2-0.48-0.29c0-0.09-0.09-0.17-0.2-0.17c-0.2,0-4.88-3.15-5.17-3.48
		c-0.05-0.06-0.28-0.23-0.5-0.39c-1.9-1.31-5.8-5.19-6.99-6.94c-0.16-0.23-0.37-0.53-0.48-0.65c-0.11-0.12-0.36-0.52-0.56-0.89
		c-0.2-0.37-0.42-0.71-0.48-0.77c-0.19-0.17-0.73-1.4-1.1-2.51c-0.19-0.58-0.42-1.11-0.51-1.18c-0.25-0.18-0.2-4.3,0.05-4.38
		c0.11-0.04,0.21-0.28,0.21-0.54s0.09-0.47,0.19-0.47c0.11,0,0.19-0.16,0.19-0.35c0-1.05,3.14-4.81,5.19-6.21
		c0.23-0.16,0.52-0.38,0.65-0.48c0.3-0.26,0.91-0.65,1.26-0.81c0.16-0.07,0.33-0.18,0.38-0.24c0.17-0.2,3.73-1.94,3.98-1.94
		c0.13,0,0.24-0.08,0.24-0.18c0-0.1,0.3-0.24,0.67-0.31c0.37-0.07,0.72-0.2,0.78-0.3c0.06-0.09,0.24-0.17,0.4-0.17
		c0.16,0,0.61-0.14,1-0.31c1.3-0.57,1.47-0.63,2.14-0.76c0.37-0.07,0.76-0.2,0.86-0.28c0.11-0.08,0.49-0.21,0.86-0.28
		c0.83-0.17,1.95-0.52,2.21-0.7c0.11-0.07,0.69-0.2,1.3-0.27c0.61-0.08,1.1-0.2,1.1-0.29c0-0.08,0.56-0.21,1.25-0.28
		c0.69-0.07,1.29-0.21,1.35-0.31c0.06-0.1,0.34-0.18,0.63-0.18c0.65,0,3.68-0.57,4.07-0.77c0.16-0.08,1.11-0.21,2.11-0.29
		c1-0.08,1.86-0.21,1.91-0.28c0.09-0.14,3.84-0.5,7.19-0.71c0.95-0.06,1.85-0.2,1.99-0.33c0.4-0.33,20.25-0.32,20.58,0.01
		c0.26,0.26,1.7,0.34,1.7,0.09c0-0.08,0.19-0.23,0.43-0.34c0.38-0.17,0.43-0.33,0.43-1.35c0-1.01-0.05-1.18-0.43-1.35
		c-0.24-0.1-0.43-0.26-0.43-0.34c0-0.08-0.33-0.15-0.73-0.15c-0.4,0-0.84-0.11-0.97-0.24c-0.19-0.19-2.72-0.24-11.35-0.24
		c-8.63,0-11.16,0.05-11.35,0.24c-0.15,0.16-0.83,0.24-1.93,0.24c-0.93,0-1.69,0.08-1.69,0.17s-1.17,0.23-2.59,0.31
		c-1.42,0.08-2.59,0.21-2.59,0.29c0,0.08-0.79,0.21-1.77,0.28c-0.97,0.07-1.86,0.2-1.97,0.29c-0.11,0.09-0.73,0.21-1.38,0.27
		c-1.21,0.12-2.75,0.45-3.43,0.72c-0.21,0.09-0.84,0.21-1.39,0.28c-0.55,0.07-1.01,0.19-1.01,0.28c0,0.08-0.52,0.21-1.15,0.28
		c-0.63,0.07-1.2,0.21-1.26,0.31c-0.06,0.1-0.37,0.18-0.68,0.18c-0.31,0-0.56,0.08-0.56,0.18c0,0.1-0.48,0.24-1.06,0.31
		c-0.58,0.07-1.1,0.2-1.15,0.29c-0.05,0.08-0.44,0.21-0.86,0.28c-0.42,0.07-0.81,0.21-0.87,0.31c-0.06,0.1-0.32,0.18-0.58,0.18
		c-0.26,0-0.47,0.08-0.47,0.19c0,0.1-0.32,0.24-0.7,0.32c-0.39,0.07-0.93,0.25-1.2,0.39c-0.27,0.14-0.65,0.26-0.83,0.26
		c-0.18,0-0.34,0.09-0.34,0.19c0,0.11-0.13,0.19-0.29,0.19c-0.16,0-0.44,0.08-0.62,0.18c-0.18,0.1-0.85,0.43-1.48,0.74
		c-2.95,1.42-5.48,3.09-7.26,4.78c-0.92,0.88-2.43,2.71-2.43,2.96c0,0.12-0.09,0.22-0.19,0.22c-0.11,0-0.19,0.1-0.19,0.23
		c0,0.12-0.12,0.36-0.26,0.53c-0.14,0.17-0.42,0.74-0.61,1.27c-0.19,0.53-0.42,1.05-0.51,1.15c-0.09,0.1-0.16,0.36-0.16,0.59
		c0,0.22-0.11,0.51-0.24,0.65c-0.6,0.6-0.23,7.49,0.45,8.42c0.08,0.11,0.2,0.52,0.28,0.92c0.07,0.4,0.21,0.72,0.31,0.72
		c0.09,0,0.17,0.14,0.17,0.31c0,0.3,0.55,1.42,0.79,1.62c0.07,0.05,0.18,0.29,0.25,0.53c0.07,0.24,0.2,0.44,0.29,0.44
		c0.09,0,0.21,0.15,0.27,0.34c0.13,0.39,0.49,0.97,0.85,1.36c0.13,0.15,0.48,0.58,0.77,0.97c0.63,0.85,3.45,3.7,4.65,4.71
		c0.47,0.4,1.12,0.94,1.44,1.21c0.32,0.27,0.88,0.68,1.25,0.91c0.37,0.23,0.88,0.61,1.14,0.85c0.26,0.23,0.75,0.58,1.1,0.77
		c0.35,0.19,0.64,0.41,0.64,0.5c0,0.08,0.09,0.15,0.19,0.15c0.11,0,0.55,0.26,0.99,0.58c0.44,0.32,0.91,0.58,1.05,0.58
		c0.14,0,0.26,0.07,0.26,0.15c0,0.08,0.32,0.32,0.72,0.53c0.4,0.21,0.76,0.43,0.82,0.49c0.05,0.06,0.53,0.32,1.06,0.58
		c0.53,0.26,1,0.51,1.05,0.57c0.22,0.23,2.52,1.35,2.77,1.35c0.15,0,0.3,0.07,0.33,0.16c0.06,0.14,0.7,0.46,3.52,1.78
		c1.76,0.82,2.59,1.15,2.87,1.15c0.16,0,0.3,0.09,0.3,0.19c0,0.11,0.12,0.19,0.27,0.19s0.51,0.13,0.82,0.29
		c0.3,0.16,0.7,0.29,0.87,0.29c0.18,0,0.37,0.08,0.43,0.17c0.06,0.09,0.41,0.23,0.78,0.3c0.37,0.07,0.68,0.21,0.68,0.31
		s0.17,0.19,0.38,0.19c0.37,0,1.42,0.35,2.62,0.89c0.33,0.15,0.78,0.27,1,0.27c0.21,0,0.44,0.08,0.5,0.18
		c0.06,0.1,0.47,0.24,0.92,0.31c0.45,0.08,0.96,0.21,1.15,0.31c0.19,0.09,0.51,0.25,0.72,0.36c0.21,0.1,0.73,0.24,1.15,0.31
		c0.43,0.07,0.78,0.19,0.78,0.28c0,0.09,0.48,0.21,1.06,0.29s1.05,0.2,1.05,0.28c0,0.08,0.24,0.2,0.53,0.26
		c1.44,0.3,2.66,0.63,2.87,0.76c0.13,0.08,0.67,0.2,1.2,0.27c0.53,0.06,0.96,0.18,0.96,0.26c0,0.08,0.28,0.19,0.62,0.25
		c1.26,0.22,2.93,0.61,3.13,0.74c0.11,0.07,0.67,0.19,1.25,0.27c0.57,0.07,1.13,0.2,1.24,0.29c0.11,0.08,0.74,0.21,1.4,0.29
		c0.66,0.08,1.25,0.21,1.3,0.3c0.06,0.09,0.4,0.17,0.75,0.17c0.36,0,0.7,0.08,0.76,0.18c0.06,0.1,0.76,0.24,1.55,0.31
		c0.79,0.07,1.44,0.2,1.44,0.29c0,0.08,0.73,0.21,1.63,0.29c0.9,0.08,1.63,0.21,1.63,0.31c0,0.09,0.34,0.17,0.76,0.17
		c0.42,0,0.8,0.08,0.86,0.17c0.06,0.09,0.88,0.23,1.84,0.31c0.95,0.08,1.77,0.21,1.82,0.29c0.05,0.08,1.09,0.22,2.3,0.29
		c1.21,0.08,2.21,0.21,2.21,0.29c0,0.08,0.54,0.2,1.2,0.26c4.43,0.4,6.41,0.62,6.58,0.73c0.11,0.07,1.77,0.19,3.69,0.27
		c1.92,0.08,3.49,0.21,3.49,0.29c0,0.24,5.71,0.41,13.91,0.41c7.97,0,13.15-0.16,13.15-0.41c0-0.08,1.35-0.21,3-0.29
		c1.65-0.08,3.14-0.21,3.31-0.3c0.17-0.09,1.22-0.26,2.33-0.38c3.35-0.35,3.84-0.43,3.84-0.59c0-0.08,0.65-0.21,1.44-0.29
		c0.79-0.07,1.44-0.21,1.44-0.29c0-0.09,0.6-0.22,1.34-0.29c0.74-0.07,1.34-0.21,1.34-0.31c0-0.09,0.26-0.17,0.57-0.17
		c0.32,0,0.58-0.08,0.58-0.17c0-0.09,0.48-0.23,1.06-0.3c0.58-0.07,1.05-0.2,1.05-0.29s0.39-0.21,0.86-0.27
		c0.47-0.06,1.03-0.21,1.25-0.32c0.21-0.11,0.55-0.28,0.75-0.38c0.2-0.1,0.67-0.24,1.05-0.31c0.38-0.07,0.7-0.2,0.7-0.29
		c0-0.09,0.35-0.21,0.77-0.29c0.42-0.07,0.77-0.2,0.77-0.28c0-0.08,0.47-0.31,1.05-0.51c0.58-0.2,1.06-0.43,1.06-0.51
		c0-0.08,0.1-0.15,0.22-0.15c0.33,0,2.66-1.22,2.66-1.39c0-0.08,0.11-0.15,0.24-0.15c0.22,0,2.63-1.56,3.14-2.02
		c0.12-0.11,0.63-0.54,1.15-0.96c1.08-0.88,2.2-2.03,2.93-2.99c0.28-0.37,0.59-0.77,0.7-0.88c0.11-0.11,0.36-0.55,0.58-0.97
		c0.21-0.42,0.43-0.8,0.49-0.85c0.06-0.05,0.26-0.44,0.44-0.87c0.18-0.42,0.42-0.92,0.52-1.1c0.1-0.18,0.24-0.68,0.3-1.11
		c0.07-0.43,0.2-0.83,0.29-0.89c0.09-0.06,0.17-0.38,0.17-0.73c0-0.34,0.09-0.72,0.2-0.83c0.37-0.37-0.01-7.4-0.4-7.4
		c-0.08,0-0.21-0.43-0.29-0.96c-0.07-0.53-0.2-0.96-0.29-0.96c-0.09,0-0.21-0.35-0.29-0.77c-0.07-0.42-0.21-0.77-0.31-0.77
		c-0.1,0-0.17-0.17-0.17-0.39c0-0.21-0.08-0.39-0.17-0.39c-0.09,0-0.23-0.22-0.3-0.5c-0.07-0.27-0.34-0.84-0.6-1.25
		c-0.26-0.41-0.47-0.84-0.47-0.95c0-0.11-0.09-0.2-0.19-0.2c-0.1,0-0.19-0.09-0.19-0.2c0-0.17-0.67-1.25-0.96-1.54
		c-0.05-0.05-0.48-0.61-0.96-1.24c-1.29-1.73-3.89-4.3-5.95-5.89c-0.47-0.37-0.91-0.72-0.96-0.77c-0.05-0.06-0.74-0.54-1.53-1.07
		c-0.79-0.53-1.48-1.01-1.54-1.07c-0.05-0.06-0.4-0.28-0.77-0.48c-0.37-0.2-0.71-0.42-0.77-0.47c-0.05-0.05-0.4-0.26-0.77-0.46
		c-0.37-0.2-1.06-0.58-1.53-0.85c-1.5-0.83-3.04-1.58-3.25-1.58c-0.11,0-0.2-0.07-0.2-0.15c0-0.08-0.6-0.36-1.34-0.62
		c-0.74-0.26-1.34-0.54-1.34-0.62c0-0.08-0.12-0.15-0.27-0.15c-0.15,0-0.51-0.13-0.82-0.29c-0.3-0.16-0.7-0.29-0.87-0.29
		c-0.18,0-0.37-0.08-0.43-0.18c-0.06-0.1-0.45-0.23-0.87-0.31c-0.42-0.07-0.77-0.21-0.77-0.31c0-0.1-0.21-0.18-0.47-0.18
		c-0.26,0-0.52-0.09-0.59-0.19c-0.07-0.11-0.31-0.19-0.54-0.19c-0.23,0-0.66-0.12-0.95-0.28c-0.29-0.15-0.92-0.34-1.39-0.41
		c-0.48-0.07-0.91-0.21-0.97-0.3c-0.06-0.09-0.35-0.17-0.66-0.17c-0.3,0-0.6-0.08-0.66-0.18c-0.06-0.1-0.58-0.24-1.16-0.31
		c-0.58-0.07-1.05-0.2-1.05-0.29c0-0.09-0.56-0.22-1.25-0.29c-0.68-0.07-1.25-0.2-1.25-0.29c0-0.08-0.37-0.2-0.81-0.26
		c-2.25-0.3-3.79-0.6-3.79-0.72c0-0.07-0.82-0.2-1.82-0.27c-1-0.08-1.82-0.21-1.82-0.29c0-0.08-1.04-0.21-2.3-0.29
		c-1.27-0.08-2.3-0.21-2.3-0.31c0-0.09-0.59-0.17-1.3-0.17c-0.72,0-1.39-0.08-1.49-0.19c-0.1-0.1-2.32-0.25-4.94-0.32
		c-2.61-0.07-4.8-0.21-4.85-0.3c-0.05-0.09-0.87-0.16-1.81-0.16h-1.72v-0.66c0-0.37,0.09-0.72,0.19-0.78
		c0.12-0.08,0.19-2.96,0.19-8.02c0-5.14-0.07-7.9-0.19-7.9c-0.12,0-0.19-1.02-0.19-2.67c0-1.47-0.08-3.1-0.18-3.62
		c-0.1-0.52-0.24-2.98-0.31-5.48c-0.07-2.49-0.2-4.62-0.29-4.73c-0.08-0.11-0.21-2.89-0.29-6.17c-0.08-3.64-0.22-6.08-0.34-6.23
		c-0.28-0.35-0.28-30.98,0-31.33c0.13-0.16,0.25-2.77,0.34-7c0.07-3.71,0.22-6.84,0.31-6.94c0.1-0.1,0.18-1.4,0.19-2.89
		c0.01-1.49,0.1-4.32,0.21-6.28c0.56-10.3,0.9-27.18,0.56-27.88c-0.11-0.21-0.24-1.95-0.29-3.86c-0.12-4.06-0.53-10.14-0.71-10.42
		c-0.07-0.1-0.18-1.32-0.26-2.69c-0.08-1.37-0.21-2.63-0.29-2.8c-0.15-0.29-0.46-2.39-0.69-4.59c-0.06-0.56-0.18-1.01-0.27-1.01
		c-0.09,0-0.22-0.61-0.3-1.35c-0.07-0.74-0.2-1.35-0.27-1.35c-0.08,0-0.2-0.43-0.27-0.96c-0.07-0.53-0.21-1.01-0.31-1.07
		c-0.1-0.06-0.19-0.37-0.19-0.67s-0.08-0.61-0.18-0.67c-0.1-0.06-0.24-0.5-0.31-0.98c-0.07-0.47-0.21-0.86-0.3-0.86
		c-0.09,0-0.17-0.19-0.17-0.43c0-0.24-0.13-0.68-0.29-0.99c-0.16-0.3-0.29-0.67-0.29-0.82s-0.08-0.27-0.18-0.27
		c-0.1,0-0.24-0.28-0.31-0.62c-0.07-0.34-0.2-0.75-0.29-0.92c-0.08-0.16-0.43-0.86-0.78-1.55c-2.19-4.41-3.76-6.07-6.58-6.95
		c-1.93-0.6-4.64,0.77-6.25,3.18c-0.72,1.08-1.74,3.11-1.74,3.47c0,0.16-0.07,0.3-0.17,0.3s-0.22,0.36-0.3,0.81
		c-0.07,0.45-0.19,0.9-0.28,1.01c-0.08,0.11-0.26,0.56-0.4,1c-0.24,0.76-0.75,0.97-1.16,0.47c-0.16-0.19-1.99-0.79-2.41-0.79
		c-0.22,0-0.49-0.09-0.6-0.2c-0.11-0.11-1.17-0.25-2.34-0.32c-1.18-0.06-2.14-0.19-2.14-0.28c0-0.09-1.43-0.16-3.17-0.16
		c-1.74,0-3.17,0.07-3.17,0.17c0,0.09-1.44,0.23-3.21,0.31c-1.77,0.08-3.26,0.21-3.31,0.29c-0.05,0.08-1.13,0.21-2.4,0.29
		c-1.26,0.08-2.45,0.22-2.63,0.32c-0.18,0.1-0.77,0.18-1.3,0.18c-0.54,0-0.97,0.08-0.97,0.17s-1.21,0.23-2.69,0.31
		c-1.48,0.08-2.69,0.22-2.69,0.31s-1.89,0.17-4.22,0.17c-2.32,0-4.22-0.08-4.22-0.17c0-0.09-0.86-0.23-1.92-0.3
		c-1.05-0.08-1.97-0.22-2.03-0.31c-0.06-0.1-0.4-0.18-0.76-0.18c-0.36,0-0.7-0.08-0.75-0.17c-0.06-0.09-0.54-0.22-1.07-0.3
		c-0.53-0.07-0.96-0.2-0.96-0.29c0-0.09-0.26-0.21-0.57-0.28c-1.63-0.33-5.96-4.08-7.21-6.25c-0.29-0.51-0.74-1.17-0.98-1.47
		c-0.25-0.3-0.45-0.66-0.45-0.8c0-0.14-0.06-0.29-0.14-0.32c-0.08-0.04-0.34-0.5-0.59-1.03c-0.25-0.53-0.53-1.11-0.62-1.3
		c-0.1-0.19-0.18-0.5-0.18-0.71c0-0.21-0.09-0.43-0.19-0.5c-0.11-0.07-0.19-0.68-0.19-1.36c0-0.7,0.08-1.24,0.19-1.24
		c0.11,0,0.19-0.12,0.19-0.27c0-0.34,1.82-2.18,2.31-2.33c0.2-0.07,0.37-0.2,0.37-0.3c0-0.1,0.1-0.18,0.22-0.18
		c0.12,0,0.64-0.26,1.16-0.58c0.51-0.32,1.06-0.58,1.22-0.58c0.16,0,0.28-0.08,0.28-0.17c0-0.09,0.3-0.23,0.67-0.3
		c0.37-0.07,0.67-0.2,0.67-0.29c0-0.09,0.35-0.22,0.77-0.3c0.42-0.07,0.82-0.21,0.87-0.31c0.06-0.1,0.28-0.18,0.48-0.18
		c0.2,0,0.37-0.08,0.37-0.17s0.43-0.23,0.96-0.31c0.53-0.07,0.96-0.21,0.96-0.29c0-0.09,0.48-0.22,1.06-0.29
		c0.58-0.07,1.05-0.21,1.05-0.3c0-0.09,0.13-0.17,0.3-0.17c0.36,0,2.16-0.54,2.62-0.78c0.18-0.1,0.68-0.23,1.1-0.3
		c0.43-0.07,0.78-0.2,0.78-0.29c0-0.09,0.17-0.17,0.38-0.17c0.37,0,1.71-0.44,2.33-0.77c0.17-0.09,0.62-0.22,1.01-0.3
		c0.38-0.07,0.7-0.21,0.7-0.3c0-0.09,0.15-0.17,0.34-0.17c0.18,0,0.58-0.13,0.88-0.29c0.3-0.16,0.67-0.29,0.82-0.29
		c0.15,0,0.27-0.09,0.27-0.19c0-0.11,0.14-0.19,0.31-0.19c0.54,0,6.46-2.86,8.48-4.09c0.66-0.4,1.28-0.73,1.38-0.73
		c0.09,0,0.2-0.07,0.24-0.15c0.04-0.08,0.41-0.37,0.83-0.66c3.3-2.2,6.03-5.62,6.86-8.58c0.28-1,0.42-4.71,0.18-4.71
		c-0.1,0-0.24-0.21-0.3-0.46c-0.14-0.58-1.24-1.66-1.68-1.66c-0.18,0-0.37-0.11-0.41-0.24c-0.11-0.32-6.61-0.35-6.82-0.03
		c-0.08,0.12-0.55,0.28-1.04,0.35c-0.5,0.07-0.96,0.22-1.02,0.32c-0.06,0.1-0.32,0.18-0.58,0.18c-0.26,0-0.47,0.09-0.47,0.19
		c0,0.11-0.19,0.19-0.43,0.19c-0.24,0-0.68,0.13-0.98,0.29c-0.3,0.16-0.63,0.29-0.74,0.29c-0.22,0-5.77,2.69-5.91,2.87
		c-0.05,0.07-0.53,0.33-1.05,0.59c-0.53,0.25-1.18,0.61-1.44,0.8c-0.26,0.18-0.95,0.59-1.53,0.9c-2.13,1.16-2.4,1.31-2.49,1.4
		c-0.1,0.1-1.13,0.65-3.93,2.09c-0.95,0.49-1.76,0.96-1.79,1.04c-0.04,0.08-0.16,0.15-0.29,0.15c-0.12,0-1,0.39-1.95,0.87
		c-0.95,0.47-1.84,0.86-1.97,0.87c-0.13,0-0.24,0.08-0.24,0.18c0,0.1-0.26,0.23-0.57,0.31c-0.32,0.07-0.62,0.21-0.68,0.3
		c-0.06,0.1-0.23,0.18-0.37,0.18c-0.14,0-0.82,0.26-1.51,0.58c-0.68,0.32-1.33,0.58-1.43,0.58c-0.1,0-0.43,0.13-0.74,0.29
		c-0.3,0.16-0.74,0.29-0.97,0.29c-0.23,0-0.47,0.09-0.54,0.19c-0.07,0.1-0.33,0.19-0.59,0.19c-0.26,0-0.47,0.08-0.47,0.18
		s-0.56,0.24-1.25,0.31c-0.69,0.07-1.25,0.21-1.25,0.3c0,0.22-3.59,0.22-3.73,0c-0.06-0.09-0.38-0.22-0.71-0.29
		c-0.69-0.14-1.7-1.1-1.7-1.62c0-0.69,1.59-3.22,2.65-4.22c0.67-0.63,1.96-1.68,2.32-1.88c0.17-0.1,0.36-0.23,0.41-0.29
		c0.05-0.06,0.42-0.29,0.81-0.49c0.4-0.21,0.72-0.45,0.72-0.53c0-0.08,0.09-0.15,0.2-0.15c0.11,0,0.61-0.18,1.1-0.4
		c1.36-0.6,1.61-0.7,2.34-0.96c0.37-0.13,0.93-0.35,1.25-0.48c0.32-0.13,1.22-0.43,2.01-0.66c0.79-0.23,1.59-0.49,1.77-0.6
		c0.18-0.1,0.51-0.18,0.72-0.18c0.21,0,0.39-0.08,0.39-0.17c0-0.1,0.43-0.23,0.96-0.31c0.53-0.07,0.96-0.21,0.96-0.31
		c0-0.1,0.17-0.17,0.38-0.17c0.42,0,1.9-0.46,2.82-0.88c0.33-0.15,0.79-0.28,1.01-0.28c0.22,0,0.4-0.09,0.4-0.19
		c0-0.11,0.21-0.19,0.48-0.19c0.46,0,1.44-0.32,2.72-0.89c0.33-0.15,0.74-0.27,0.9-0.27c0.16,0,0.34-0.08,0.4-0.17
		c0.06-0.09,0.39-0.22,0.75-0.29c0.35-0.07,0.98-0.28,1.39-0.48c0.41-0.2,1.09-0.51,1.52-0.69c1.16-0.51,4.4-2.1,4.51-2.22
		c0.05-0.05,0.42-0.27,0.82-0.47c0.4-0.2,0.72-0.44,0.72-0.53c0-0.09,0.12-0.16,0.28-0.16c0.15,0,0.39-0.11,0.53-0.24
		c0.14-0.13,0.77-0.63,1.41-1.1c5.73-4.27,7.57-11.19,3.16-11.9c-0.42-0.07-0.76-0.2-0.76-0.29c0-0.09-0.95-0.17-2.11-0.17
		c-1.16,0-2.11,0.08-2.11,0.17c0,0.09-0.6,0.23-1.34,0.3c-0.74,0.07-1.34,0.21-1.34,0.31c0,0.1-0.18,0.18-0.4,0.18
		s-0.68,0.12-1.01,0.26c-0.88,0.37-1.88,0.73-2.38,0.85c-0.24,0.05-0.43,0.18-0.43,0.27c0,0.09-0.13,0.17-0.3,0.17
		c-0.47,0-6.07,2.68-8.53,4.07c-0.58,0.33-1.79,0.99-2.69,1.48c-0.9,0.48-1.68,0.93-1.73,0.99c-0.05,0.06-0.61,0.39-1.25,0.72
		c-1.94,1.02-2.49,1.32-2.59,1.42c-0.51,0.51-7.79,4.05-8.34,4.05c-0.15,0-0.33,0.09-0.39,0.19c-0.07,0.11-0.33,0.19-0.59,0.19
		c-0.26,0-0.47,0.08-0.47,0.17c0,0.09-0.41,0.23-0.91,0.31c-0.5,0.07-1.02,0.22-1.14,0.33c-0.42,0.35-5.28,0.42-5.7,0.08
		c-0.93-0.75,2-3.85,5.45-5.78c1.35-0.75,1.64-0.89,1.87-0.89c0.13,0,0.24-0.09,0.24-0.19c0-0.11,0.15-0.19,0.34-0.19
		c0.18,0,0.58-0.13,0.89-0.29c0.3-0.16,0.67-0.29,0.81-0.29c0.15,0,0.27-0.08,0.27-0.17c0-0.09,0.32-0.23,0.72-0.31
		c0.4-0.07,0.81-0.2,0.91-0.29c0.11-0.08,0.53-0.21,0.94-0.29c0.41-0.07,0.91-0.22,1.1-0.32c0.2-0.1,0.53-0.27,0.74-0.37
		c0.21-0.1,0.75-0.25,1.2-0.32c0.45-0.07,0.91-0.19,1.02-0.28c0.11-0.08,0.54-0.21,0.96-0.29c0.42-0.08,0.85-0.21,0.96-0.29
		c0.1-0.08,0.56-0.21,1.01-0.28c0.45-0.07,0.86-0.21,0.92-0.31c0.06-0.1,0.31-0.18,0.56-0.18c0.25,0,0.51-0.08,0.56-0.17
		c0.06-0.09,0.5-0.23,0.97-0.3c0.48-0.07,0.87-0.2,0.87-0.29s0.31-0.22,0.7-0.29c0.38-0.07,0.84-0.2,1.01-0.29
		c0.67-0.35,1.72-0.77,1.93-0.77c0.12,0,0.36-0.08,0.55-0.18c0.75-0.41,2.9-1.36,3.08-1.36c0.11,0,0.22-0.06,0.26-0.14
		c0.04-0.08,0.69-0.45,1.45-0.82c0.76-0.37,1.39-0.74,1.39-0.82c0-0.08,0.1-0.15,0.22-0.15c0.12,0,0.51-0.22,0.85-0.48
		c0.35-0.27,0.72-0.48,0.84-0.48s0.26-0.13,0.32-0.29c0.06-0.16,0.22-0.29,0.34-0.29c0.67,0,3.76-3.55,3.76-4.32
		c0-0.15,0.1-0.31,0.23-0.36c0.33-0.11,0.45-3.68,0.15-4.78c-0.31-1.17-1.63-2.46-2.69-2.63c-0.42-0.07-0.77-0.2-0.77-0.29
		c0-0.22-4.93-0.22-5.07,0c-0.06,0.09-0.64,0.22-1.3,0.29c-1.14,0.12-2.45,0.48-2.65,0.72c-0.05,0.06-0.52,0.17-1.05,0.24
		c-0.52,0.07-1,0.2-1.05,0.3c-0.06,0.09-0.47,0.23-0.92,0.31c-0.45,0.07-0.86,0.22-0.92,0.31c-0.06,0.1-0.32,0.18-0.58,0.18
		c-0.26,0-0.47,0.08-0.47,0.18c0,0.1-0.34,0.23-0.77,0.31c-0.42,0.07-0.77,0.21-0.77,0.31c0,0.1-0.15,0.18-0.34,0.18
		c-0.18,0-0.68,0.17-1.1,0.38c-0.42,0.21-0.83,0.38-0.91,0.38c-0.08,0-1.05,0.44-2.16,0.97c-1.11,0.53-2.09,0.97-2.19,0.97
		c-0.1,0-0.2,0.06-0.24,0.14c-0.04,0.08-0.97,0.6-2.08,1.16c-2.08,1.05-3.48,1.81-3.65,1.98c-0.05,0.05-0.96,0.53-2.01,1.06
		c-1.05,0.53-1.96,1.02-2.02,1.09c-0.05,0.07-0.33,0.19-0.62,0.26c-0.29,0.07-0.53,0.19-0.53,0.26s-0.43,0.3-0.96,0.5
		c-0.53,0.21-0.96,0.44-0.96,0.53c0,0.08-0.09,0.15-0.2,0.15c-0.23,0-1.62,0.59-2.74,1.17c-0.41,0.21-0.82,0.38-0.93,0.38
		c-0.11,0-0.47,0.12-0.8,0.27c-0.33,0.15-1.21,0.46-1.95,0.69c-0.74,0.23-1.61,0.49-1.93,0.59c-0.63,0.19-3.15,0.25-3.15,0.08
		c0-1.13,5.74-6.65,6.92-6.65c0.08,0,0.18-0.06,0.21-0.15c0.09-0.21,4.49-2.36,4.82-2.36c0.1,0,0.49-0.14,0.87-0.31
		c0.39-0.17,0.98-0.43,1.33-0.58c0.35-0.15,0.76-0.27,0.91-0.27c0.16,0,0.28-0.08,0.28-0.18c0-0.1,0.35-0.23,0.77-0.31
		c0.42-0.07,0.77-0.19,0.77-0.26c0-0.07,0.56-0.3,1.25-0.51c0.69-0.21,1.25-0.45,1.25-0.53c0-0.08,0.15-0.15,0.34-0.15
		c0.18,0,0.57-0.12,0.85-0.27c0.28-0.15,0.78-0.33,1.1-0.4c0.32-0.07,0.64-0.21,0.7-0.31c0.06-0.1,0.28-0.18,0.48-0.18
		s0.37-0.08,0.37-0.18c0-0.1,0.26-0.24,0.59-0.31c0.32-0.07,0.82-0.25,1.1-0.4c0.28-0.15,0.62-0.27,0.76-0.27
		c0.13,0,0.24-0.09,0.24-0.19c0-0.11,0.1-0.19,0.21-0.19c0.36,0,4.21-2.01,6.03-3.14c3.13-1.96,5.6-4.39,6.34-6.27
		c0.15-0.39,0.36-0.89,0.44-1.1c0.72-1.72,0.7-5.31-0.03-5.31c-0.08,0-0.15-0.22-0.15-0.48c0-0.63-1.56-2.25-2.59-2.69
		c-0.42-0.18-0.94-0.43-1.15-0.56c-0.51-0.3-7.29-0.41-8.93-0.15c-2,0.32-2.58,0.45-2.78,0.6c-0.11,0.08-0.69,0.2-1.29,0.28
		c-0.6,0.07-1.14,0.2-1.19,0.29c-0.05,0.09-0.53,0.21-1.05,0.28c-0.53,0.07-1.01,0.21-1.07,0.32c-0.06,0.1-0.32,0.19-0.57,0.19
		c-0.25,0-0.5,0.08-0.56,0.17c-0.06,0.09-0.49,0.23-0.97,0.3c-0.48,0.07-0.86,0.2-0.86,0.29c0,0.09-0.43,0.22-0.96,0.3
		c-0.53,0.07-0.96,0.19-0.96,0.26c0,0.07-0.56,0.3-1.25,0.5c-0.69,0.21-1.25,0.44-1.25,0.52c0,0.08-0.39,0.2-0.86,0.27
		c-0.48,0.07-0.86,0.2-0.86,0.29c0,0.08-0.28,0.22-0.62,0.29c-0.34,0.07-0.75,0.2-0.91,0.29c-0.76,0.39-1.72,0.76-1.99,0.76
		c-0.16,0-0.34,0.08-0.4,0.18c-0.06,0.1-0.38,0.24-0.72,0.31c-0.33,0.07-0.89,0.29-1.23,0.49c-0.34,0.19-0.95,0.41-1.35,0.48
		c-0.4,0.07-0.82,0.2-0.93,0.28c-0.11,0.08-0.56,0.21-1.01,0.28c-0.45,0.07-0.86,0.21-0.92,0.31c-0.06,0.1-0.35,0.18-0.66,0.18
		c-0.3,0-0.58,0.09-0.61,0.19c-0.04,0.1-0.73,0.25-1.55,0.32c-0.82,0.07-1.49,0.2-1.49,0.29c0,0.09-0.78,0.17-1.73,0.17
		c-1.02,0-1.73-0.08-1.73-0.19c0-0.11-0.15-0.19-0.34-0.2c-2.12-0.02,1.49-3.96,5.33-5.82c2.1-1.02,3.25-1.51,3.52-1.51
		c0.17,0,0.31-0.09,0.31-0.19c0-0.11,0.17-0.19,0.37-0.19c0.2,0,0.61-0.1,0.91-0.22c1.23-0.51,2.48-0.92,2.8-0.93
		c0.18,0,0.34-0.09,0.34-0.19c0-0.1,0.39-0.24,0.86-0.31c0.48-0.07,0.86-0.21,0.86-0.3c0-0.09,0.18-0.17,0.4-0.17
		c0.36,0,1.25-0.32,2.1-0.76c0.16-0.08,0.59-0.22,0.96-0.3c0.37-0.08,0.75-0.2,0.86-0.27c0.1-0.07,0.69-0.29,1.29-0.49
		c0.61-0.2,1.1-0.43,1.1-0.52c0-0.09,0.19-0.16,0.43-0.16c0.24,0,0.65-0.12,0.93-0.26c0.27-0.14,0.74-0.32,1.05-0.4
		c0.3-0.08,0.99-0.34,1.52-0.59c1.69-0.79,2.36-1.07,2.56-1.07c0.11,0,0.22-0.07,0.26-0.15c0.04-0.08,0.8-0.52,1.7-0.97
		c4.28-2.16,6.12-5.25,4.59-7.71c-0.58-0.94-4.76-1.39-6.61-0.72c-0.42,0.15-1.01,0.28-1.3,0.28c-0.29,0-0.53,0.08-0.53,0.18
		c0,0.1-0.39,0.24-0.86,0.31c-0.48,0.07-0.86,0.21-0.86,0.3c0,0.09-0.18,0.17-0.4,0.17c-0.22,0-0.72,0.14-1.1,0.31
		c-0.38,0.17-0.97,0.43-1.3,0.58s-0.74,0.27-0.91,0.27c-0.17,0-0.31,0.09-0.31,0.19c0,0.11-0.13,0.19-0.28,0.19
		c-0.35,0-1.71,0.62-1.8,0.82c-0.04,0.08-0.18,0.15-0.33,0.15c-0.34,0-2.85,1.19-2.93,1.39c-0.03,0.08-0.17,0.15-0.3,0.15
		c-0.13,0-0.97,0.38-1.86,0.84c-0.89,0.46-2.61,1.35-3.82,1.98c-1.21,0.62-2.24,1.2-2.27,1.28c-0.04,0.08-0.14,0.15-0.23,0.15
		c-0.09,0-0.88,0.34-1.76,0.75c-0.88,0.41-1.81,0.81-2.07,0.88c-0.26,0.07-0.65,0.21-0.86,0.3c-0.71,0.32-2.46,0.77-3,0.77
		c-0.29,0-0.58,0.09-0.65,0.19c-0.06,0.11-0.76,0.19-1.55,0.19c-0.82,0-1.43-0.08-1.43-0.19c0-0.11-0.24-0.19-0.53-0.19
		c-2.34,0.01-5.57-3.12-5.94-5.75c-0.06-0.45-0.19-0.87-0.28-0.93c-0.22-0.14-0.21-3.11,0-3.25c0.09-0.06,0.23-0.8,0.3-1.65
		c0.07-0.85,0.2-1.59,0.29-1.64c0.09-0.05,0.22-0.5,0.29-1c0.07-0.49,0.23-1.08,0.34-1.31c0.45-0.88,0.53-1.08,0.53-1.29
		c0-0.42,2.79-6.27,3.19-6.68c0.13-0.13,0.34-0.5,0.49-0.82c0.14-0.32,0.32-0.58,0.4-0.58c0.08,0,0.15-0.12,0.15-0.26
		c0-0.14,0.21-0.51,0.48-0.82c0.26-0.31,0.48-0.61,0.48-0.67c0-0.06,0.48-0.76,1.06-1.54c0.59-0.79,1.26-1.69,1.49-2
		c2.75-3.7,7.06-8.23,10.76-11.32c0.3-0.25,0.86-0.75,1.23-1.09c0.37-0.34,0.73-0.63,0.79-0.63c0.07,0,0.33-0.2,0.6-0.44
		c0.26-0.24,1.17-0.94,2.01-1.54c0.84-0.61,1.62-1.17,1.73-1.25c1.53-1.14,5.33-3.52,5.62-3.52c0.11,0,0.22-0.07,0.26-0.15
		c0.12-0.27,6.43-3.46,9.27-4.68c0.21-0.09,0.79-0.34,1.28-0.56c0.5-0.22,0.95-0.4,1-0.4c0.06,0,0.57-0.22,1.15-0.48
		c0.58-0.27,1.18-0.48,1.34-0.48c0.16,0,0.34-0.09,0.41-0.19c0.07-0.1,0.25-0.19,0.41-0.19c0.16,0,0.57-0.12,0.9-0.26
		c0.88-0.37,1.88-0.73,2.38-0.85c0.24-0.06,0.43-0.17,0.43-0.25c0-0.08,0.39-0.21,0.86-0.28c0.47-0.07,0.9-0.21,0.96-0.3
		c0.06-0.09,0.49-0.23,0.96-0.3c0.47-0.07,0.86-0.21,0.86-0.3c0-0.09,0.22-0.17,0.48-0.17c0.26,0,0.48-0.08,0.48-0.17
		c0-0.09,0.43-0.23,0.95-0.3c0.52-0.07,1-0.2,1.05-0.29c0.06-0.09,0.49-0.22,0.96-0.3c0.47-0.07,0.91-0.21,0.97-0.31
		c0.06-0.1,0.28-0.18,0.48-0.18s0.37-0.07,0.37-0.17c0-0.09,0.44-0.22,0.98-0.28c0.54-0.06,1.08-0.19,1.2-0.29
		c0.12-0.09,0.6-0.23,1.06-0.3c0.47-0.07,0.94-0.19,1.06-0.27c0.25-0.16,2.03-0.6,3.04-0.75c0.4-0.06,0.72-0.17,0.72-0.26
		c0-0.08,0.52-0.21,1.15-0.29c0.63-0.07,1.15-0.2,1.15-0.28c0-0.08,0.49-0.2,1.08-0.26c0.6-0.06,1.18-0.2,1.29-0.32
		c0.11-0.11,0.53-0.2,0.93-0.2c0.4,0,0.73-0.08,0.73-0.17c0-0.09,0.65-0.23,1.44-0.31c0.79-0.07,1.48-0.2,1.53-0.29
		c0.05-0.09,0.79-0.22,1.63-0.29c0.85-0.08,1.59-0.21,1.64-0.31c0.06-0.09,0.49-0.17,0.95-0.17c0.46,0,0.89-0.08,0.95-0.18
		c0.06-0.1,1.15-0.24,2.41-0.31c1.27-0.08,2.3-0.21,2.3-0.31c0-0.09,1.38-0.17,3.07-0.17c1.69,0,3.07,0.07,3.07,0.16
		c0,0.09,0.57,0.22,1.27,0.29c0.7,0.07,1.37,0.19,1.49,0.28c0.12,0.09,0.72,0.33,1.32,0.53c0.61,0.2,1.1,0.43,1.1,0.52
		c0,0.08,0.12,0.15,0.27,0.15c0.76,0,3,2.82,3,3.79c0,0.23,0.09,0.45,0.2,0.49c0.25,0.08,0.27,4.93,0.02,5.24
		c-0.1,0.12-0.24,0.59-0.31,1.04c-0.07,0.45-0.21,0.82-0.31,0.82c-0.1,0-0.18,0.15-0.18,0.33c0,0.37-1.12,2.73-1.49,3.11
		c-0.13,0.14-0.24,0.34-0.24,0.44c0,0.17-1.49,2.67-1.72,2.88c-0.06,0.05-0.33,0.44-0.61,0.87c-1.67,2.54-4.26,5.33-10.81,11.68
		c-2.66,2.57-4.12,4.14-4.65,4.98c-0.18,0.28-0.37,0.56-0.43,0.61c-0.72,0.68-1.92,3.26-1.92,4.14c0,0.38-0.09,0.69-0.19,0.69
		c-0.11,0-0.19,0.39-0.19,0.87c0,0.48,0.09,0.87,0.19,0.87c0.1,0,0.19,0.18,0.19,0.41c0,0.83,0.58,1.66,1.49,2.13
		c1,0.52,4.74,0.67,5.64,0.23c0.25-0.12,0.9-0.37,1.46-0.56c0.55-0.19,1.01-0.4,1.01-0.48c0-0.07,0.3-0.19,0.67-0.26
		c0.37-0.07,0.67-0.19,0.67-0.26c0-0.07,0.39-0.31,0.86-0.52c0.47-0.21,0.86-0.45,0.86-0.53c0-0.08,0.12-0.15,0.26-0.15
		s0.62-0.26,1.05-0.58c0.44-0.32,0.87-0.58,0.97-0.58c0.1,0,0.21-0.06,0.24-0.14c0.04-0.08,0.52-0.45,1.07-0.82
		c0.55-0.37,1.01-0.74,1.01-0.82c0-0.08,0.12-0.15,0.28-0.15c0.15,0,0.39-0.11,0.53-0.25c0.14-0.14,0.69-0.55,1.21-0.92
		c0.53-0.37,1-0.71,1.05-0.76c0.05-0.05,0.74-0.53,1.53-1.06c0.79-0.53,1.48-1.01,1.54-1.06c0.19-0.19,0.87-0.59,1.2-0.7
		c0.18-0.06,0.34-0.19,0.34-0.28c0-0.09,0.12-0.17,0.27-0.17c0.15,0,0.39-0.11,0.53-0.24c0.14-0.13,0.86-0.55,1.6-0.92
		c0.74-0.37,1.38-0.73,1.44-0.8c0.05-0.07,0.42-0.19,0.82-0.26c0.39-0.07,0.72-0.21,0.72-0.29c0-0.09,0.48-0.22,1.06-0.29
		c0.58-0.07,1.1-0.21,1.16-0.3c0.68-1.11,4.18,0.72,3.83,1.99c-0.18,0.63-0.73,1.74-1.01,2.05c-0.13,0.14-0.24,0.33-0.24,0.42
		c0,0.13-1.04,1.2-2.79,2.85c-0.44,0.41-3.37,2.36-3.56,2.36c-0.1,0-0.18,0.08-0.18,0.18c0,0.1-0.19,0.24-0.43,0.32
		c-0.24,0.07-0.48,0.19-0.53,0.25c-0.21,0.25-5.45,2.92-5.74,2.92c-0.11,0-0.21,0.09-0.21,0.19c0,0.11-0.1,0.19-0.23,0.19
		c-0.13,0-1.03,0.39-2.01,0.87c-0.98,0.48-1.87,0.87-1.98,0.87c-0.11,0-0.2,0.09-0.2,0.19c0,0.11-0.11,0.19-0.24,0.19
		c-0.27,0-2.49,1.14-2.64,1.35c-0.05,0.08-0.28,0.2-0.51,0.27c-0.55,0.17-3.27,1.98-3.94,2.61c-0.29,0.27-0.63,0.59-0.77,0.71
		c-0.76,0.66-1.37,1.53-2.1,3.02c-0.22,0.45-0.21,3.04,0.01,3.04c0.1,0,0.21,0.19,0.24,0.42c0.15,0.99,0.91,1.22,3.95,1.22
		c2.07,0,2.82-0.06,2.88-0.24c0.05-0.13,0.3-0.24,0.56-0.24c0.27,0,0.8-0.14,1.18-0.31c0.39-0.17,0.97-0.43,1.31-0.58
		c0.33-0.15,0.74-0.27,0.91-0.27c0.17,0,0.31-0.08,0.31-0.17c0-0.09,0.3-0.23,0.67-0.3c0.37-0.07,0.67-0.21,0.67-0.31
		c0-0.1,0.11-0.18,0.24-0.18c0.23,0,5.71-2.68,5.9-2.89c0.05-0.06,0.44-0.28,0.86-0.49c0.42-0.21,0.81-0.43,0.86-0.48
		c0.05-0.05,0.4-0.26,0.77-0.45c1.31-0.69,1.82-1,2.07-1.24c0.14-0.13,0.38-0.24,0.53-0.24c0.15,0,0.27-0.09,0.27-0.19
		c0-0.11,0.09-0.19,0.2-0.19c0.11,0,1.19-0.61,2.4-1.35c1.21-0.74,2.27-1.35,2.37-1.35c0.1,0,0.2-0.06,0.24-0.14
		c0.08-0.19,4.36-2.36,4.64-2.37c0.12,0,0.44-0.12,0.72-0.27c1.37-0.72,3.8-0.75,4.24-0.06c0.39,0.61-0.1,2.1-1.01,3.08
		c-0.2,0.22-0.37,0.48-0.37,0.58c0,0.2-4.29,4.53-4.92,4.97c-0.23,0.16-1.05,0.77-1.82,1.37c-0.78,0.6-1.76,1.3-2.18,1.56
		c-0.42,0.27-0.89,0.62-1.03,0.8c-0.14,0.17-0.38,0.32-0.52,0.32c-0.15,0-0.27,0.06-0.27,0.15c0,0.08-0.52,0.44-1.15,0.81
		c-0.63,0.37-1.15,0.74-1.15,0.82c0,0.08-0.12,0.16-0.27,0.16c-0.15,0-0.39,0.11-0.54,0.24c-0.14,0.13-0.43,0.34-0.64,0.47
		c-2.62,1.61-4.22,2.65-4.28,2.79c-0.03,0.09-0.16,0.17-0.27,0.17c-0.18,0-1.8,0.97-2.35,1.4c-0.11,0.08-0.92,0.64-1.82,1.23
		c-0.89,0.59-1.84,1.26-2.11,1.49c-1.29,1.11-3.21,3.2-3.49,3.8c-0.17,0.37-0.43,0.92-0.58,1.23c-0.9,1.94,0.02,5.34,1.52,5.63
		c0.34,0.07,0.67,0.2,0.73,0.29c0.14,0.22,4.3,0.22,4.3,0c0-0.09,0.47-0.23,1.05-0.3s1.1-0.21,1.16-0.31
		c0.06-0.1,0.24-0.18,0.4-0.18c0.29,0,0.64-0.14,2.75-1.09c2.37-1.07,5.89-2.96,7.34-3.95c0.6-0.41,1.14-0.75,1.19-0.75
		c0.11,0,3.17-2.02,3.5-2.31c0.13-0.11,0.28-0.2,0.33-0.2c0.1,0,1.87-1.18,2.03-1.36c0.05-0.06,0.4-0.29,0.77-0.52
		c0.37-0.23,0.85-0.57,1.06-0.76c0.21-0.19,1.03-0.79,1.82-1.32c0.79-0.53,1.55-1.07,1.69-1.21c0.14-0.13,0.32-0.24,0.4-0.24
		c0.08,0,0.31-0.16,0.51-0.34c0.2-0.19,0.72-0.55,1.14-0.81c0.42-0.26,0.81-0.51,0.86-0.57c0.05-0.06,0.4-0.27,0.77-0.48
		c0.37-0.2,0.72-0.42,0.77-0.48c0.05-0.06,0.4-0.27,0.77-0.47c1.26-0.67,1.82-0.99,1.92-1.11c0.05-0.07,0.38-0.18,0.72-0.26
		c0.34-0.08,0.62-0.21,0.62-0.3s0.39-0.22,0.87-0.3c0.48-0.07,0.91-0.21,0.97-0.3c0.25-0.4,1.55-0.17,2.16,0.38
		c0.59,0.53,0.79,1,0.44,1c-0.09,0-0.22,0.26-0.28,0.58c-0.23,1.16-2.03,3.23-4.54,5.22c-1.32,1.05-4.86,3.46-5.08,3.46
		c-0.07,0-0.41,0.22-0.76,0.48c-0.35,0.27-0.72,0.48-0.84,0.48c-0.11,0-0.32,0.11-0.47,0.24c-0.14,0.13-0.6,0.41-1.02,0.62
		c-0.42,0.21-0.81,0.43-0.86,0.48c-0.05,0.05-0.53,0.32-1.05,0.58c-0.53,0.27-1,0.53-1.06,0.58c-0.1,0.1-2.75,1.48-6.62,3.44
		c-1.16,0.59-2.14,1.14-2.17,1.23c-0.04,0.09-0.15,0.16-0.26,0.16c-0.29,0-1.45,0.57-2.75,1.35c-0.63,0.38-1.48,0.86-1.87,1.07
		c-0.39,0.21-0.72,0.45-0.72,0.53c0,0.08-0.12,0.15-0.26,0.15c-0.14,0-0.46,0.17-0.7,0.38c-0.24,0.21-0.49,0.39-0.56,0.39
		c-0.06,0-0.37,0.22-0.67,0.48c-0.31,0.27-0.62,0.48-0.69,0.48c-0.66,0-3.46,3.63-3.46,4.5c0,0.17-0.09,0.36-0.19,0.42
		c-0.36,0.23-0.19,2.45,0.26,3.28c0.42,0.79,1.59,1.6,2.34,1.63c0.22,0.01,0.49,0.11,0.6,0.22c0.3,0.3,4.86-0.08,4.86-0.4
		c0-0.09,0.52-0.22,1.15-0.29c0.63-0.07,1.15-0.2,1.15-0.29c0-0.09,0.43-0.22,0.96-0.29c0.53-0.07,0.96-0.21,0.96-0.31
		c0-0.1,0.22-0.18,0.48-0.18c0.26,0,0.48-0.08,0.48-0.17c0-0.09,0.3-0.23,0.66-0.3c0.36-0.07,0.9-0.25,1.2-0.41
		c0.3-0.16,0.63-0.28,0.74-0.28c0.32,0,1.23-0.47,1.24-0.63c0-0.08,0.17-0.14,0.39-0.14c0.21,0,0.71-0.17,1.1-0.39
		c0.39-0.21,0.87-0.39,1.05-0.39c0.19,0,0.34-0.09,0.34-0.19c0-0.11,0.11-0.19,0.24-0.19c0.32,0,7.71-3.69,7.79-3.89
		c0.04-0.09,0.15-0.16,0.27-0.16c0.22,0,1.91-0.8,2.07-0.98c0.15-0.18,4.57-2.3,4.79-2.3c0.11,0,0.2-0.09,0.2-0.19
		s0.15-0.19,0.34-0.19c0.18,0,0.58-0.13,0.89-0.29c0.3-0.16,0.91-0.34,1.34-0.41l0.79-0.12l-0.38,0.45
		c-0.65,0.76-2.48,2.58-2.9,2.89c-0.22,0.16-0.75,0.55-1.17,0.87c-0.42,0.32-0.97,0.71-1.2,0.87c-0.24,0.16-0.53,0.38-0.65,0.48
		c-0.12,0.11-0.52,0.36-0.89,0.57c-0.37,0.21-0.78,0.49-0.92,0.63c-0.14,0.14-0.38,0.25-0.53,0.25c-0.15,0-0.28,0.09-0.28,0.19
		c0,0.11-0.09,0.19-0.19,0.19c-0.11,0-0.52,0.21-0.92,0.46c-1.02,0.65-3.35,1.92-6.95,3.81c-0.69,0.36-1.29,0.7-1.34,0.75
		c-0.05,0.05-0.48,0.29-0.96,0.52c-5.81,2.88-11.48,7.38-13.15,10.44c-0.21,0.39-0.45,0.73-0.53,0.77
		c-0.08,0.04-0.14,0.21-0.14,0.39c0,0.18-0.13,0.57-0.29,0.87c-0.32,0.61-0.42,4.37-0.12,4.37c0.09,0,0.21,0.24,0.28,0.54
		c0.15,0.74,0.98,1.53,2.24,2.14c1.18,0.57,9.17,0.8,9.8,0.29c0.15-0.12,0.76-0.28,1.37-0.35c0.6-0.07,1.15-0.21,1.21-0.31
		c0.06-0.1,0.36-0.18,0.66-0.18s0.6-0.07,0.66-0.17c0.06-0.09,0.53-0.22,1.06-0.3c0.53-0.07,1.01-0.21,1.06-0.3
		c0.06-0.1,0.5-0.23,0.97-0.31c0.47-0.07,0.86-0.21,0.86-0.3c0-0.09,0.21-0.17,0.48-0.17c0.26,0,0.48-0.09,0.48-0.19
		s0.19-0.19,0.43-0.19c0.24,0,0.65-0.12,0.92-0.26c0.27-0.14,0.79-0.32,1.15-0.39c0.79-0.16,1.72-0.55,1.72-0.73
		c0-0.07,0.43-0.19,0.96-0.26c0.53-0.07,0.96-0.2,0.96-0.29c0-0.08,0.4-0.21,0.89-0.29c0.49-0.07,1.03-0.21,1.2-0.3
		c0.43-0.23,1.88-0.6,2.8-0.71c0.42-0.05,0.85-0.17,0.95-0.27c0.26-0.24,5.48-0.22,5.48,0.02c0,0.11,0.19,0.19,0.42,0.19
		c1.14,0,3.75,1.81,4.53,3.14c0.17,0.29,0.37,0.53,0.45,0.53c0.07,0,0.19,0.26,0.26,0.58c0.07,0.32,0.2,0.58,0.29,0.58
		c0.09,0,0.22,0.5,0.29,1.11c0.07,0.61,0.21,1.29,0.31,1.51c0.38,0.78-0.18,7.61-0.62,7.61c-0.09,0-0.17,0.21-0.17,0.48
		s-0.14,0.8-0.31,1.21c-0.17,0.4-0.38,0.9-0.45,1.12c-0.21,0.6-0.96,2.27-1.2,2.7c-0.12,0.21-0.47,0.86-0.78,1.45
		c-1.49,2.81-5.61,7.66-8.19,9.65c-0.48,0.37-0.96,0.75-1.07,0.86c-0.11,0.11-0.52,0.37-0.91,0.58s-0.71,0.45-0.71,0.53
		c0,0.08-0.09,0.15-0.2,0.15s-0.53,0.21-0.94,0.47c-0.41,0.26-0.97,0.53-1.24,0.6c-0.27,0.07-0.5,0.2-0.5,0.3
		c0,0.09-0.15,0.17-0.34,0.17c-0.18,0-0.58,0.13-0.88,0.29c-0.3,0.16-0.67,0.29-0.82,0.29c-0.15,0-0.27,0.08-0.27,0.18
		c0,0.1-0.74,0.24-1.63,0.31c-0.9,0.08-1.68,0.21-1.74,0.31c-0.13,0.22-3.15,0.22-3.15,0c0-0.09-0.6-0.23-1.34-0.3
		c-0.74-0.07-1.34-0.21-1.34-0.31s-0.17-0.18-0.37-0.18c-0.2,0-0.61-0.12-0.91-0.27c-0.3-0.15-0.89-0.43-1.31-0.63
		c-0.42-0.2-0.8-0.42-0.83-0.5c-0.04-0.08-0.16-0.14-0.27-0.14c-0.11,0-0.65-0.28-1.18-0.62c-1.11-0.71-0.99-0.62-2.51-1.83
		c-0.63-0.5-1.32-1.05-1.53-1.21c-0.5-0.38-4.87-4.77-5.38-5.41c-0.22-0.27-0.69-0.92-1.04-1.45c-0.36-0.53-0.7-1-0.76-1.06
		c-0.24-0.22-2.32-3.48-2.32-3.65c0-0.1-0.11-0.3-0.24-0.44c-0.13-0.14-0.75-1.27-1.38-2.52c-0.63-1.25-1.21-2.27-1.29-2.27
		c-0.09,0-0.15-0.11-0.15-0.25c0-0.14-0.39-1.02-0.86-1.95c-0.48-0.94-0.86-1.82-0.86-1.97c0-0.15-0.09-0.26-0.19-0.26
		c-0.11,0-0.19-0.1-0.19-0.22c0-0.3-1.2-2.76-1.39-2.84c-0.08-0.04-0.15-0.18-0.15-0.32c0-0.14-0.26-0.78-0.58-1.42
		c-0.32-0.64-0.58-1.26-0.58-1.37c0-0.11-0.09-0.2-0.19-0.2c-0.11,0-0.19-0.09-0.19-0.21c0-0.12-0.14-0.53-0.32-0.92
		c-1.32-2.93-1.64-3.67-2.17-4.95c-0.22-0.53-0.48-1.11-0.59-1.3c-0.1-0.18-0.18-0.47-0.18-0.63s-0.08-0.29-0.18-0.29
		c-0.1,0-0.23-0.26-0.3-0.58c-0.07-0.32-0.2-0.62-0.3-0.69c-0.1-0.06-0.18-0.23-0.18-0.37c0-0.23-0.9-2.4-1.33-3.19
		c-0.09-0.16-0.22-0.58-0.3-0.92c-0.07-0.34-0.21-0.62-0.31-0.62c-0.1,0-0.18-0.17-0.18-0.39c0-0.21-0.09-0.39-0.19-0.39
		c-0.11,0-0.19-0.15-0.19-0.34c0-0.19-0.12-0.57-0.27-0.85c-0.15-0.29-0.33-0.78-0.4-1.11c-0.07-0.33-0.19-0.59-0.26-0.59
		c-0.13,0-0.53-1.02-0.74-1.88c-0.06-0.24-0.18-0.43-0.28-0.43c-0.09,0-0.17-0.14-0.17-0.3c0-0.29-0.57-1.73-0.97-2.45
		c-0.1-0.18-0.18-0.47-0.18-0.63c0-0.16-0.08-0.29-0.17-0.29c-0.09,0-0.23-0.3-0.3-0.68c-0.07-0.37-0.21-0.68-0.31-0.68
		c-0.1,0-0.18-0.15-0.18-0.34c0-0.19-0.13-0.59-0.29-0.89c-0.16-0.3-0.29-0.67-0.29-0.82s-0.09-0.27-0.19-0.27
		c-0.11,0-0.19-0.09-0.19-0.2c0-0.28-0.4-1.19-2.38-5.44c-0.48-1.04-0.88-1.97-0.88-2.07c0-0.1-0.08-0.19-0.18-0.19
		c-0.1,0-0.23-0.26-0.3-0.58c-0.07-0.32-0.19-0.58-0.26-0.58c-0.07,0-0.3-0.43-0.51-0.96c-0.2-0.53-0.43-0.96-0.5-0.96
		c-0.07,0-0.19-0.24-0.26-0.53c-0.07-0.29-0.19-0.57-0.26-0.63c-0.07-0.05-0.43-0.71-0.8-1.45c-0.37-0.74-0.71-1.39-0.77-1.45
		c-0.05-0.05-0.27-0.44-0.48-0.87c-0.21-0.42-0.43-0.82-0.48-0.87c-0.05-0.05-0.31-0.53-0.58-1.06c-0.26-0.53-0.52-1.01-0.58-1.06
		c-0.1-0.1-0.49-0.79-1.08-1.93c-0.19-0.37-0.4-0.72-0.45-0.77c-0.05-0.05-0.27-0.42-0.48-0.82c-0.21-0.4-0.44-0.72-0.53-0.72
		c-0.08,0-0.15-0.13-0.15-0.28c0-0.15-0.11-0.39-0.24-0.53c-0.13-0.14-0.41-0.56-0.61-0.93c-0.2-0.37-0.49-0.79-0.62-0.93
		c-0.14-0.14-0.25-0.38-0.25-0.53c0-0.15-0.08-0.28-0.17-0.28c-0.09,0-0.22-0.15-0.28-0.34c-0.06-0.19-0.68-1.16-1.37-2.17
		c-0.69-1.01-1.36-2-1.49-2.19c-0.13-0.2-0.48-0.7-0.77-1.11c-0.29-0.41-0.53-0.83-0.53-0.93c0-0.1-0.07-0.21-0.14-0.24
		c-0.08-0.04-0.58-0.71-1.1-1.51c-0.53-0.8-1.07-1.56-1.2-1.7c-0.13-0.14-0.24-0.32-0.24-0.4c0-0.08-0.15-0.32-0.34-0.53
		c-0.18-0.21-0.42-0.52-0.53-0.68c-1.06-1.63-2.06-3.08-2.25-3.3c-0.13-0.14-0.34-0.43-0.47-0.64c-0.13-0.21-0.75-1.21-1.39-2.23
		c-1.36-2.18-2.31-4-2.31-4.46c0-0.18-0.09-0.38-0.19-0.44c-0.33-0.21-0.23-2.58,0.14-3.25c0.34-0.63,3-3.4,3.26-3.41
		c0.08,0,0.45-0.26,0.82-0.58c0.93-0.79,0.93-0.79,2.11-1.54c0.58-0.37,1.1-0.71,1.15-0.77c0.05-0.06,0.27-0.21,0.48-0.34
		c0.21-0.13,1.44-0.89,2.73-1.69c1.29-0.8,2.42-1.46,2.53-1.46c0.1,0,0.22-0.06,0.25-0.14c0.04-0.08,0.37-0.31,0.74-0.51
		c0.37-0.2,1.32-0.71,2.11-1.14c2.31-1.25,6.74-3.42,6.98-3.42c0.07,0,0.43-0.2,0.79-0.44c0.83-0.54,1.07-3.23,0.3-3.23
		c-0.2,0-0.42-0.09-0.49-0.19c-0.07-0.11-0.5-0.19-0.97-0.19c-0.47,0-0.85,0.09-0.85,0.19s-0.13,0.19-0.3,0.19
		c-0.58,0-8.56,3.89-9.11,4.44c-0.05,0.05-0.68,0.4-1.39,0.77c-0.71,0.37-1.29,0.74-1.3,0.82c0,0.08-0.1,0.14-0.23,0.14
		c-0.28,0-5.6,3.28-5.69,3.51c-0.03,0.09-0.14,0.16-0.23,0.16c-0.15,0-1.86,1.1-2.1,1.36c-0.05,0.06-0.48,0.4-0.96,0.77
		c-2.17,1.69-3.65,3.22-3.65,3.8c0,0.14-0.08,0.25-0.18,0.25c-0.1,0-0.24,0.3-0.31,0.68c-0.07,0.37-0.2,0.73-0.3,0.78
		c-0.09,0.06-0.17,0.36-0.17,0.67c0,0.31-0.09,0.57-0.19,0.57c-0.11,0-0.19,0.68-0.19,1.64c0,0.97,0.08,1.64,0.19,1.64
		c0.11,0,0.19,0.35,0.19,0.77c0,0.42,0.08,0.77,0.17,0.77c0.09,0,0.23,0.31,0.3,0.7c0.15,0.79,1.97,4.45,2.69,5.4
		c0.27,0.35,0.48,0.69,0.48,0.76s0.11,0.24,0.24,0.39c0.31,0.35,0.58,0.71,0.82,1.1c0.35,0.58,2.09,3.13,2.19,3.23
		c0.06,0.05,0.54,0.75,1.06,1.54c0.52,0.8,1,1.49,1.05,1.54c0.06,0.05,0.53,0.75,1.06,1.54c0.53,0.8,1.02,1.48,1.1,1.51
		c0.08,0.04,0.15,0.14,0.15,0.23c0,0.17,2.09,3.3,2.31,3.47c0.07,0.05,0.19,0.29,0.26,0.53c0.07,0.24,0.21,0.43,0.31,0.43
		c0.1,0,0.18,0.07,0.18,0.16c0,0.14,1.37,2.37,1.86,3.03c0.27,0.37,0.63,0.95,0.77,1.24c0.07,0.16,0.24,0.4,0.38,0.54
		c0.14,0.14,0.25,0.38,0.25,0.53c0,0.15,0.08,0.28,0.17,0.28c0.09,0,0.22,0.2,0.28,0.44c0.06,0.24,0.26,0.61,0.45,0.82
		c0.19,0.21,0.61,0.9,0.95,1.54c0.71,1.37,1.53,2.88,2.35,4.34c0.33,0.58,0.92,1.71,1.31,2.51c0.4,0.8,0.79,1.48,0.87,1.51
		c0.08,0.04,0.15,0.15,0.15,0.26c0,0.11,0.73,1.7,1.63,3.53c0.9,1.83,1.63,3.43,1.63,3.55c0,0.12,0.09,0.22,0.19,0.22
		c0.11,0,0.19,0.15,0.19,0.32c0,0.18,0.25,0.85,0.55,1.5c0.3,0.64,0.7,1.52,0.88,1.94c0.52,1.23,0.62,1.47,1.26,2.89
		c0.33,0.74,0.68,1.5,0.78,1.69c0.1,0.18,0.18,0.43,0.18,0.55c0,0.12,0.14,0.53,0.31,0.92c0.33,0.77,0.43,0.99,1.03,2.44
		c0.22,0.53,0.47,1.1,0.56,1.26c0.09,0.16,0.22,0.57,0.3,0.92c0.07,0.34,0.21,0.67,0.31,0.73c0.1,0.06,0.18,0.28,0.18,0.48
		s0.08,0.37,0.18,0.37c0.1,0,0.24,0.28,0.31,0.62c0.07,0.34,0.21,0.75,0.29,0.92c0.09,0.16,0.43,0.9,0.75,1.65
		c0.33,0.74,0.67,1.48,0.75,1.65c0.09,0.16,0.22,0.58,0.29,0.92c0.07,0.34,0.21,0.62,0.31,0.62c0.1,0,0.18,0.17,0.18,0.37
		c0,0.21,0.08,0.43,0.18,0.48c0.1,0.06,0.23,0.37,0.3,0.69s0.21,0.58,0.3,0.58c0.1,0,0.18,0.14,0.18,0.3c0,0.17,0.22,0.8,0.5,1.4
		c0.27,0.6,0.72,1.58,0.98,2.16c0.79,1.74,1.5,3.27,2.44,5.23c0.49,1.02,0.88,1.96,0.88,2.07c0,0.12,0.09,0.22,0.19,0.22
		c0.11,0,0.19,0.11,0.19,0.24c0,0.23,4.2,8.82,4.41,9.02c0.05,0.05,0.4,0.68,0.76,1.4c0.37,0.72,0.73,1.3,0.82,1.3
		c0.08,0,0.15,0.11,0.15,0.26c0,0.22,1.95,3.35,2.61,4.17c1.8,2.27,2.54,3.1,4.19,4.74c4.14,4.12,8.93,7.47,11.32,7.92
		c0.37,0.07,0.68,0.21,0.68,0.3c0,0.09,0.2,0.17,0.44,0.17c0.24,0,0.53,0.09,0.64,0.2c0.11,0.11,0.69,0.25,1.29,0.32
		c0.59,0.06,1.08,0.19,1.08,0.28c0,0.09,1.55,0.17,3.45,0.17c1.9,0,3.45-0.07,3.45-0.17c0-0.09,0.54-0.22,1.19-0.29
		c0.65-0.07,1.28-0.21,1.38-0.32c0.1-0.11,0.39-0.19,0.63-0.19c0.24,0,0.44-0.09,0.44-0.19c0-0.11,0.18-0.19,0.4-0.19
		c0.22,0,0.72-0.14,1.1-0.31c1.89-0.83,2.14-0.96,2.14-1.08c0-0.07,0.26-0.19,0.58-0.26c0.32-0.07,0.57-0.2,0.57-0.28
		c0-0.09,0.22-0.21,0.48-0.28c0.26-0.07,0.48-0.21,0.48-0.31c0-0.1,0.1-0.19,0.22-0.19c0.7,0,7.84-6.49,7.84-7.13
		c0-0.09,0.11-0.29,0.24-0.43c0.57-0.6,1.48-1.87,1.48-2.07c0-0.12,0.09-0.21,0.19-0.21c0.1,0,0.24-0.22,0.31-0.48
		c0.07-0.27,0.18-0.48,0.26-0.48c0.08,0,0.31-0.33,0.51-0.72c0.2-0.4,0.41-0.77,0.48-0.82c0.1-0.09,0.85-1.63,1.59-3.31
		c0.17-0.39,0.31-0.84,0.31-1.01c0-0.17,0.06-0.31,0.14-0.31c0.08,0,0.3-0.54,0.5-1.21c0.19-0.66,0.43-1.36,0.53-1.55
		c0.1-0.19,0.23-0.86,0.3-1.5c0.07-0.64,0.19-1.21,0.28-1.26c0.21-0.13,0.21-8.38,0-8.38c-0.09,0-0.21-0.41-0.27-0.92
		c-0.1-0.8-0.99-3.25-1.28-3.52c-0.06-0.05-0.23-0.34-0.38-0.63c-0.52-1.02-3.12-3.23-3.8-3.23c-0.13,0-0.24-0.07-0.24-0.15
		c0-0.16-1.15-0.6-2.01-0.76c-0.32-0.06-0.64-0.2-0.71-0.32c-0.19-0.3-7.98-0.3-8.61,0c-0.44,0.21-1.82,0.54-3.2,0.78
		c-0.34,0.06-0.62,0.18-0.62,0.26c0,0.08-0.43,0.21-0.96,0.29c-0.53,0.07-0.96,0.21-0.96,0.31c0,0.1-0.19,0.18-0.43,0.18
		c-0.24,0-0.68,0.13-0.98,0.29c-0.3,0.16-0.71,0.29-0.91,0.29c-0.2,0-0.36,0.08-0.36,0.17c0,0.09-0.33,0.22-0.74,0.29
		c-0.41,0.07-0.99,0.25-1.29,0.41c-0.3,0.16-0.66,0.29-0.8,0.29c-0.13,0-0.41,0.09-0.62,0.19c-0.21,0.11-0.54,0.27-0.74,0.37
		c-0.2,0.1-0.76,0.24-1.25,0.31c-0.49,0.07-0.89,0.2-0.89,0.29c0,0.08-0.43,0.21-0.96,0.29c-0.53,0.07-0.96,0.2-0.96,0.29
		c0,0.08-0.28,0.2-0.62,0.25c-1.28,0.2-2.94,0.58-3.37,0.79c-0.6,0.28-5.95,0.3-6.13,0.02c-0.08-0.11-0.27-0.25-0.43-0.31
		c-2.12-0.78,1.73-5.95,6.82-9.14c0.32-0.2,0.62-0.41,0.67-0.46c0.05-0.06,0.4-0.27,0.77-0.47c0.37-0.2,0.72-0.42,0.77-0.48
		c0.05-0.06,0.4-0.27,0.77-0.47c1.13-0.6,1.82-0.99,1.92-1.09c0.09-0.09,0.64-0.39,4.13-2.22c0.84-0.44,1.93-1.03,2.42-1.31
		c0.94-0.54,1.86-1.05,3.72-2.07c0.63-0.35,1.19-0.69,1.25-0.75c0.05-0.07,0.42-0.29,0.81-0.5c0.4-0.21,0.72-0.45,0.72-0.53
		c0-0.08,0.09-0.15,0.19-0.15c0.11,0,0.53-0.24,0.94-0.53c0.41-0.29,0.94-0.66,1.17-0.82c0.24-0.16,0.53-0.38,0.65-0.48
		s0.56-0.45,0.98-0.76c1.23-0.91,3.61-3.42,4.03-4.26c0.21-0.42,0.45-0.8,0.53-0.84c0.08-0.04,0.14-0.22,0.14-0.42
		c0-0.2,0.09-0.41,0.19-0.48c0.11-0.07,0.19-0.68,0.19-1.36c0-0.7-0.08-1.24-0.19-1.24c-0.11,0-0.19-0.16-0.19-0.35
		c0-0.48-0.7-1.19-1.16-1.19c-0.21,0-0.38-0.09-0.38-0.19c0-0.24-3.77-0.27-3.92-0.03c-0.06,0.09-0.53,0.22-1.06,0.29
		c-0.53,0.07-1.01,0.21-1.07,0.32c-0.06,0.1-0.25,0.19-0.42,0.19c-0.17,0-0.79,0.23-1.38,0.51c-3.3,1.56-4.73,2.28-4.78,2.42
		c-0.04,0.09-0.19,0.16-0.34,0.16c-0.25,0-2.55,1.13-2.77,1.36c-0.19,0.21-6.84,3.47-7.06,3.47c-0.13,0-0.23,0.09-0.23,0.19
		c0,0.11-0.13,0.19-0.3,0.19c-0.16,0-0.85,0.26-1.53,0.58c-0.68,0.32-1.32,0.58-1.43,0.58c-0.11,0-0.2,0.09-0.2,0.19
		c0,0.1-0.35,0.24-0.77,0.31c-0.42,0.07-0.77,0.19-0.77,0.27c0,0.08-0.35,0.21-0.77,0.28c-0.42,0.07-0.77,0.21-0.77,0.31
		c0,0.1-0.22,0.18-0.48,0.18c-0.26,0-0.48,0.08-0.48,0.17c0,0.09-0.39,0.23-0.86,0.3c-0.47,0.07-0.91,0.21-0.97,0.3
		c-0.06,0.1-0.62,0.23-1.25,0.3c-0.63,0.07-1.14,0.21-1.14,0.3c0,0.09-0.6,0.17-1.34,0.17c-0.78,0-1.34-0.08-1.34-0.2
		c0-0.2,2.95-3.28,3.14-3.28c0.17,0,1.94-1.23,2.01-1.4c0.03-0.08,0.15-0.15,0.27-0.15c0.11,0,0.64-0.27,1.18-0.61
		c0.98-0.6,3.62-2.02,6.54-3.52c0.84-0.43,1.56-0.85,1.6-0.93c0.04-0.08,0.16-0.15,0.28-0.15c0.21,0,2.64-1.16,2.83-1.35
		c0.05-0.05,0.64-0.38,1.3-0.72c0.66-0.35,1.74-0.91,2.4-1.25c0.66-0.35,1.24-0.67,1.3-0.72c0.05-0.05,0.4-0.26,0.77-0.47
		c0.37-0.2,0.72-0.42,0.77-0.48c0.05-0.06,0.49-0.32,0.96-0.57c0.48-0.25,1.49-0.88,2.26-1.4c0.77-0.51,1.47-0.94,1.57-0.94
		s0.2-0.06,0.24-0.14c0.04-0.08,0.44-0.4,0.9-0.72c0.46-0.31,0.88-0.68,0.93-0.82c0.05-0.14,0.2-0.25,0.32-0.25
		c0.25,0,3.18-2.86,3.18-3.11c0-0.08,0.13-0.28,0.29-0.43c0.45-0.46,1.44-2.49,1.44-2.97c0-0.24,0.09-0.44,0.19-0.44
		c0.12,0,0.19-0.74,0.19-1.82c0-1.01-0.09-1.87-0.19-1.94c-0.1-0.07-0.19-0.29-0.19-0.49c0-0.6-1.29-1.89-2.03-2.03
		c-0.36-0.07-0.65-0.2-0.65-0.3c0-0.09-1.08-0.17-2.4-0.17c-1.32,0-2.4,0.08-2.4,0.17s-0.39,0.22-0.86,0.29
		c-0.47,0.07-1.01,0.2-1.2,0.29c-0.19,0.09-1.12,0.55-2.07,1.02c-1.93,0.94-4.57,2.48-4.67,2.72c-0.04,0.08-0.19,0.15-0.34,0.15
		c-0.15,0-0.27,0.07-0.27,0.15c0,0.08-0.32,0.32-0.71,0.53c-0.39,0.21-0.98,0.6-1.32,0.86c-0.34,0.27-0.78,0.59-0.97,0.72
		c-0.5,0.33-4.92,3.47-5.15,3.67c-0.11,0.09-0.67,0.46-1.25,0.83c-0.58,0.37-1.08,0.74-1.12,0.82c-0.04,0.08-0.14,0.15-0.23,0.15
		c-0.21,0-1.98,1.2-2.07,1.4c-0.04,0.08-0.17,0.15-0.31,0.15s-0.6,0.26-1.04,0.58c-0.44,0.32-0.88,0.58-0.99,0.58
		c-0.11,0-0.19,0.07-0.19,0.15c0,0.08-0.24,0.25-0.53,0.37c-0.29,0.12-1,0.5-1.58,0.83c-2.14,1.24-5.57,2.89-6.01,2.89
		c-0.16,0-0.35,0.08-0.42,0.19c-0.06,0.1-0.54,0.24-1.07,0.31c-0.53,0.07-1,0.2-1.06,0.3c-0.17,0.27-1.17,0.19-1.42-0.12
		c-0.19-0.23-0.1-0.47,0.49-1.28c1.52-2.08,4.12-3.98,13.19-9.64c1.77-1.11,3.38-2.16,3.56-2.33c0.18-0.17,0.52-0.37,0.75-0.45
		c0.23-0.07,0.42-0.2,0.42-0.27c0-0.08,0.28-0.3,0.62-0.5c0.68-0.4,3.44-2.4,3.6-2.61c0.05-0.07,0.24-0.21,0.41-0.31
		c2.72-1.52,7.47-7.42,7.78-9.66c0.06-0.46,0.19-0.83,0.28-0.83s0.17-0.57,0.17-1.25c0-0.69-0.08-1.25-0.17-1.25
		s-0.22-0.34-0.29-0.76c-0.15-0.93-1.26-2.12-2.34-2.5c-1.67-0.59-6.48-0.32-6.91,0.4c-0.06,0.09-0.23,0.16-0.39,0.16
		c-0.16,0-0.57,0.12-0.9,0.26c-0.33,0.15-0.99,0.42-1.47,0.62c-0.48,0.2-0.91,0.41-0.96,0.48c-0.05,0.07-0.31,0.19-0.58,0.27
		c-0.26,0.08-0.52,0.2-0.58,0.27c-0.05,0.06-0.44,0.29-0.86,0.5c-0.42,0.21-1.31,0.71-1.97,1.11c-0.66,0.4-1.29,0.73-1.39,0.73
		c-0.1,0-0.19,0.08-0.19,0.18c0,0.1-0.19,0.24-0.43,0.32c-0.24,0.07-0.86,0.41-1.39,0.75c-1.27,0.81-4.94,2.94-6.14,3.56
		c-0.53,0.27-1,0.55-1.06,0.62c-0.05,0.07-0.31,0.19-0.58,0.27c-0.26,0.08-0.52,0.2-0.58,0.27c-0.16,0.2-2.59,1.37-2.84,1.37
		c-0.13,0-0.23,0.09-0.23,0.19c0,0.11-0.11,0.19-0.24,0.19c-0.13,0-0.46,0.11-0.72,0.25c-0.26,0.14-0.91,0.41-1.44,0.6
		c-0.53,0.2-1.05,0.42-1.15,0.5c-0.1,0.08-0.52,0.21-0.91,0.28c-0.4,0.08-0.72,0.2-0.72,0.29c0,0.08-0.4,0.18-0.88,0.22l-0.88,0.07
		l1.22-1.16c1.13-1.08,4.27-3.19,5.15-3.47c0.21-0.07,0.39-0.21,0.39-0.3c0-0.1,0.1-0.18,0.23-0.18c0.3,0,2.73-1.21,2.81-1.4
		c0.04-0.08,0.16-0.15,0.29-0.15c0.12,0,0.57-0.17,0.99-0.38c0.42-0.2,0.87-0.37,1.01-0.38c0.13,0,0.24-0.09,0.24-0.2
		c0-0.11,0.17-0.19,0.38-0.19c0.21,0,0.38-0.09,0.38-0.19c0-0.11,0.1-0.19,0.22-0.19c0.31,0,2.74-1.19,2.81-1.39
		c0.04-0.09,0.16-0.16,0.29-0.16c0.24,0,0.5-0.13,2.33-1.15c1.18-0.65,4.13-2.56,4.77-3.09c2.38-1.95,4.73-4.6,4.73-5.33
		c0-0.07,0.12-0.39,0.27-0.73c1.6-3.69-0.02-8.23-2.93-8.23c-0.22,0-0.4-0.09-0.4-0.19c0-0.24-5.31-0.27-5.45-0.03
		c-0.06,0.09-0.53,0.22-1.06,0.29c-0.53,0.07-1.01,0.21-1.07,0.32c-0.06,0.1-0.25,0.19-0.41,0.19c-0.16,0-0.61,0.14-1,0.31
		c-1.22,0.55-3.19,1.51-3.29,1.62c-0.05,0.05-0.35,0.23-0.67,0.38c-0.65,0.33-7.54,4.94-7.78,5.2c-0.28,0.31-4.99,3.48-5.18,3.48
		c-0.09,0-0.19,0.07-0.23,0.15c-0.1,0.23-3.33,1.78-3.98,1.91c-0.32,0.07-0.59,0.2-0.59,0.29c0,0.09-0.44,0.17-0.98,0.17h-0.98
		l0.12-0.6c0.26-1.3,2.19-3.78,5.29-6.8c4.77-4.64,9.23-9.22,10.08-10.35c0.52-0.69,1.01-1.28,1.1-1.32
		c0.08-0.04,0.15-0.15,0.15-0.25c0-0.11,0.11-0.3,0.24-0.44c0.13-0.14,0.37-0.45,0.53-0.68c0.16-0.24,0.53-0.77,0.82-1.18
		c0.29-0.41,0.53-0.79,0.53-0.84c0-0.05,0.33-0.64,0.73-1.31c0.91-1.49,2.34-4.48,2.34-4.87c0-0.16,0.08-0.29,0.17-0.29
		s0.23-0.43,0.31-0.96c0.07-0.53,0.21-0.97,0.31-0.97c0.1,0,0.17-0.37,0.17-0.83c0-0.46,0.09-0.92,0.2-1.03
		c0.34-0.35-0.05-6.62-0.41-6.62c-0.1,0-0.17-0.23-0.17-0.5c0-0.45-0.17-0.95-0.84-2.39c-0.67-1.46-4.17-4.06-5.46-4.06
		c-0.23,0-0.42-0.07-0.42-0.15c0-0.21-1.48-0.64-2.64-0.77c-0.55-0.06-1.01-0.18-1.01-0.27C199.15-0.05,189.42-0.05,189.29,0.16"/>
</g>
</svg>
