<?xml version="1.0" encoding="utf-8"?>
<!-- Generator: Adobe Illustrator 26.3.1, SVG Export Plug-In . SVG Version: 6.00 Build 0)  -->
<svg version="1.1" id="Calque_1" xmlns="http://www.w3.org/2000/svg" xmlns:xlink="http://www.w3.org/1999/xlink" x="0px" y="0px"
	 viewBox="0 0 400 400" style="enable-background:new 0 0 400 400;" xml:space="preserve">
<style type="text/css">
	.st0{display:none;}
	.st1{display:inline;fill:#FEE7F0;}
	.st2{display:inline;fill-rule:evenodd;clip-rule:evenodd;fill:#FEE7F0;}
	.st3{fill-rule:evenodd;clip-rule:evenodd;fill:#FEE7F0;}
	.st4{fill:#FEE7F0;}
</style>
<g class="st0">
	<path class="st1" d="M185.8,178.1l5.4-118.8l-5.3-0.3l-8.1,115.7c-20.5,6.6-32.3,17.2-40.1,28.2c-5.4,7.2-13.4,23.8-9.3,43.5
		c5.9,28.2,18.9,37.3,14.8,52.8c-4,15-45,33.4-23.4,78.5c8.8,15.7,23.6,22.4,23.6,22.4c-13.4-9.3-38.8-47-5.9-83.1
		c31.2-34.3-4.6-40.1-2.1-83.9C137.8,189.2,185.8,178.1,185.8,178.1"/>
	<path class="st1" d="M186.9,64.9l-7.1-0.1c0,0,8.4-34.2-2.2-60.5c0,0,19.8-10.4,40.3,0.9c0,0-16.3-6.3-31.2,0.7
		C186.8,5.9,192,27.5,186.9,64.9"/>
	<path class="st1" d="M198.1,50.6c0,1.3-1.1,2.3-2.4,2.3c-1.3,0-2.3-1.1-2.3-2.4l0.4-34.8c0-1.3,1.1-2.3,2.4-2.3s2.3,1.1,2.3,2.4
		L198.1,50.6"/>
	<path class="st1" d="M207.2,50.7c0,1.3-1.1,2.3-2.4,2.3c-1.3,0-2.3-1.1-2.3-2.4l0.4-34.8c0-1.3,1.1-2.3,2.4-2.3
		c1.3,0,2.3,1.1,2.3,2.4L207.2,50.7"/>
	<path class="st1" d="M185.9,47.3l-9-0.1c-0.5-2-2.3-3.6-4.5-3.6c-2.6,0-4.7,2-4.7,4.6c0,2.6,2,4.7,4.6,4.7c2.2,0,4-1.5,4.5-3.5
		l9,0.1L185.9,47.3"/>
	<path class="st1" d="M186,33.7l-9-0.1c-0.5-2-2.3-3.6-4.5-3.6c-2.6,0-4.6,2-4.7,4.6c0,2.6,2,4.7,4.6,4.7c2.2,0,4-1.5,4.5-3.5l9,0.1
		L186,33.7"/>
	<path class="st1" d="M186.1,20l-9-0.1c-0.5-2-2.3-3.6-4.5-3.6c-2.6,0-4.7,2-4.7,4.6c0,2.6,2,4.6,4.6,4.7c2.2,0,4-1.5,4.5-3.5l9,0.1
		L186.1,20"/>
	<path class="st1" d="M224.2,16.9c-2.2,0-4,1.5-4.5,3.5l-5.2,0c-0.1,0.7-0.2,1.4-0.3,2.1l5.5,0.1c0.5,2,2.3,3.6,4.5,3.6
		c2.6,0,4.6-2,4.7-4.6C228.8,19,226.8,16.9,224.2,16.9"/>
	<path class="st1" d="M224.1,30.5c-2.2,0-4,1.5-4.5,3.5L213,34c-0.1,0.7-0.1,1.4-0.1,2.2l6.7,0.1c0.5,2,2.3,3.6,4.5,3.6
		c2.6,0,4.6-2,4.7-4.6C228.7,32.7,226.6,30.6,224.1,30.5"/>
	<path class="st1" d="M223.9,44.2c-2.2,0-4,1.5-4.5,3.5l-6.8-0.1c0,0.7,0.1,1.4,0.1,2.2l6.7,0.1c0.5,2,2.3,3.6,4.5,3.6
		c2.6,0,4.6-2,4.7-4.6C228.5,46.3,226.5,44.2,223.9,44.2"/>
	<path class="st1" d="M157.7,354c0,0,32.8-18.7,68.9-15.7c0,0-37.7,1.6-69,23.4L157.7,354"/>
	<path class="st1" d="M208.4,59.8l-2.4-0.1l-3.1,280.8c0.8-0.4,1.6-0.8,2.4-1.1L208.4,59.8"/>
	<path class="st1" d="M213.6,60.1l-2.4-0.1l1.1,279.6c0.8-0.4,1.6,0.4,2.4,0L213.6,60.1"/>
	<path class="st1" d="M200.7,59.5L193,344.3c0.8-0.4,1.6-0.8,2.5-1.2l7.7-283.5L200.7,59.5"/>
	<path class="st1" d="M195.3,59.2l-12.2,287.6c0.8-0.4,1.6-0.8,2.5-1.3l12.2-286.2L195.3,59.2"/>
	<path class="st1" d="M177.4,275.6c0.6-13.2,11.8-23.4,25-22.8c12.7,0.6,22.6,11,22.8,23.6c0-0.1,0-0.2,0-0.3
		c0.6-14-10.2-25.9-24.2-26.5c-14-0.6-25.9,10.2-26.5,24.2c-0.6,13,8.7,24.1,21.2,26.2C184.8,297.2,176.9,287.2,177.4,275.6"/>
	<path class="st1" d="M281.2,329.5c-6.9-12.9-17.2-22-18.6-33.9c-1.4-11.9,14.2-28.8,15.1-50.9c0.8-21.5-10.8-35.7-11.7-36.4h0
		c4.3,6.9,7.2,15.2,7.8,25.3c2.5,43.8-37.3,49.5-6.4,84.1c15.2,17,18.4,27.8,18,40.2l0,0h0C285.9,352.4,289.2,344.3,281.2,329.5"/>
</g>
<g class="st0">
	<path class="st2" d="M33,141.2c120.8-24.2,370.7-18.6,359.6-2.8c-7.2,10.2-80.6,5.3-75.7,21.2c-57.8,4-116.3,9.4-175.1,11.2
		c55.2-3.8,111.5-12.7,166.6-16.5c-4.7-17.6,68.4-6.6,76-15.5C396.6,124.7,148.7,122.1,33,141.2z"/>
	<path class="st2" d="M296,125.3c57.4-18.4,91-34.5,91.6-47.1c0.6-11.9-24.7-15.7-46.3-14.5c-27.2,1.5-29.5-7.4-35.2-26.3
		c-4.7-15.6-13.3-31.8-61.1-25.4c-35.1,31.8-70.3,63.5-105.4,95.3c35.9-29.3,74.2-61.8,106.8-91.2c44.4-6,51.7,10.7,56,25.2
		c5.2,17.5,9,28.2,34.2,26.8c20-1.1,42.7,1.6,42.1,12.6C378.1,92.5,349.3,108.3,296,125.3z"/>
	<path class="st2" d="M255.2,42.1c3.4,40.5,8.3,80.4,21.5,117.1c3.7-0.3,7.4-0.6,11.1-0.9C274.5,123.7,264.5,83.4,255.2,42.1z"/>
	<path class="st2" d="M254.7,40.6c2.2,0,3.9,0.6,3.9,1.4c0,0.1,0,0.2-0.1,0.3c-0.3-0.4-1.3-0.7-2.5-0.7c-1.4,0-2.6,0.4-2.6,0.9
		c0,0.4,0.9,0.8,2,0.9c-0.2,0-0.5,0-0.7,0c-2.2,0-3.9-0.6-3.9-1.4C250.8,41.3,252.5,40.6,254.7,40.6z"/>
	<path class="st2" d="M309.1,234.3L108,265.8c69.9-8.5,139.9-17.1,209.8-25.6c-3.6-23.4-4.7-49-0.3-73.6
		C310,188.1,307.1,211.5,309.1,234.3z"/>
	<path class="st2" d="M384.1,201.7c-32.6,3.1-51.8,10.4-62.1,20.5c20.6-9.4,43.4-14.1,67.1-16.5c3.4-0.4,5.9-2.8,5.8-5.7
		c-0.7-19.3-1-38.7-1.1-58c-3.1,17.8-4.1,35.9-3.8,54C390,199,387.5,201.4,384.1,201.7z"/>
	<path class="st2" d="M339.1,227.4c2,26.5,5.1,57.3,8.3,82.2c0.6,4.7,7.8,2,8.7-2.2c7.2-32.9,0.2-94.7,20.5-98.9
		c-28.3,5.6-17.6,63.9-22.8,95.4c-0.7,4-4.1,5.6-4.5,1.1C347.4,281.2,344.5,245.4,339.1,227.4z"/>
	<path class="st2" d="M88.1,250.2c-2.8,22.7-6.8,49.1-10.7,70.4c-0.7,4-7.9,1.7-8.7-1.9c-6.3-28.2,0.8-76.8-18.1-84.2
		c28.2,4.8,16.2,54.3,20.5,81.2c0.5,3.4,4,4.8,4.5,1C78.3,296.3,82.2,265.6,88.1,250.2z"/>
	<path class="st2" d="M36.8,175c-1.3-10.9-2.5-21.9-3.8-32.8c-0.2,9.7-0.4,19.4-0.7,29c-0.1,3.7-3,6.7-7.2,7.6
		c-6.4,1.2-12.8,2.4-19.1,3.7c-0.6,0.1-1,0.5-0.9,1c0.3,10.1,0.7,20.2,1,30.3c0.7-9.1,1.4-18.2,2.1-27.3c0-0.5,0.5-0.9,1.1-1
		c6.5-0.6,12.9-1.2,19.4-1.9C33.7,183.1,37.3,179.3,36.8,175z"/>
	<path class="st2" d="M105.7,225.6c-0.3,0.9-0.7,1.7-1,2.6c-29.1-13.3-58.4-26.6-89.8-38.1C44,197.3,74.7,211.2,105.7,225.6z"/>
	<path class="st2" d="M106,263.8c-28.6-16-65.6-34.9-96.5-49.4c28.2,9.9,64.6,27.9,94.6,44.9l-1.1-33.1c0-0.6,0.5-1.2,1.2-1.3
		c8-1.5,16-3.1,23.9-4.6c5.3-1,8.9-4.9,9.1-9.5c0.3-12.1,0.6-24.2,0.8-36.3c1.6,13.7,3.1,27.4,4.7,41.1c0.6,5.4-3.9,10.2-10.2,10.8
		c-8.1,0.8-16.2,1.6-24.2,2.3c-0.7,0.1-1.3,0.6-1.3,1.2C106.7,233,110.1,258.3,106,263.8z"/>
	<polygon class="st2" points="150.4,163.2 151.6,161.1 165.8,113 98.4,106 87.4,139 96.9,102.3 175.1,111 159.9,163.1 	"/>
	<path class="st2" d="M174.5,287.1c1.8,32.7,4.5,70.5,7.4,101.1c0.5,5.8,7.6,2.4,8.5-2.7c4.9-27.5,4.7-69,8.1-94.6
		c2.5-19,30.1-25.5,41.8-25.5c0.7,0,1.3-0.2,1.8-0.6s0.7-0.9,0.7-1.5c-0.1-3.6-0.4-8.8-0.4-11.3c-1.7,0.2-3.4,0.4-5,0.7
		c0,1.7,0,3.3,0,5c0,1-0.9,1.9-2.1,2c-21.8,3-36.4,12.2-41,30.8c-6.1,24.6-2.4,64.2-6,90.7c-0.7,4.9-4.1,6.9-4.4,1.4
		C182.1,353.5,179.6,309.3,174.5,287.1z"/>
	<path class="st2" d="M135.2,172c-22.7-6.9-86.9-24.9-98.6-28.4C65.7,148.7,107.5,158,135.2,172z"/>
	<path class="st2" d="M131.7,215.7c-17.1-8.2-72.5-26.9-84.3-29.8C72.5,191.8,108.4,202.1,131.7,215.7z"/>
</g>
<g class="st0">
	<path class="st3" d="M225.8,341.6c0,0-0.1,0.2-0.2,0.4s-0.5,1-0.9,1.8c-1,2-1,2.1-2.4,3.5c-1.3,1.4-2.9,2.4-3.9,2.6
		c-0.3,0.1-0.6,0.2-0.7,0.3s-0.4,0.2-0.6,0.2c-0.3,0-0.6,0.1-0.6,0.2c-0.1,0.2-1.1,0.2-4.3,0.2c-3.2,0-4.2-0.1-4.3-0.2
		c0-0.1-0.2-0.2-0.4-0.2s-0.5-0.1-0.7-0.2s-0.7-0.4-1.2-0.6c-2.3-1.1-2.7-2.2-1.2-3.4c0.4-0.3,0.8-0.6,0.8-0.6
		c0.1,0,0.5-0.3,1.1-0.5c0.5-0.2,1.1-0.5,1.3-0.6s0.6-0.2,1-0.3c0.4-0.1,0.7-0.2,0.8-0.3s0.3-0.2,0.6-0.2c0.3,0,0.5-0.1,0.5-0.2
		s0.6-0.2,1.2-0.3s1.3-0.2,1.3-0.3c0.1-0.1,0.8-0.2,1.7-0.3c0.9-0.1,1.7-0.2,1.7-0.3c0.1-0.1,0.6-0.2,1.2-0.2s1.2-0.1,1.3-0.2
		s0.9-0.2,1.8-0.2C224,341.5,225.8,341.5,225.8,341.6 M208.1,286.9c0.2,0.4,0.4,0.7,0.5,0.7c0.1,0,0.2,0.1,0.2,0.2s0.3,0.9,0.8,1.8
		s0.8,1.9,0.9,2.2c0.1,0.3,0.2,0.7,0.3,0.8c0.1,0.1,0.2,0.6,0.3,1c0.1,0.5,0.2,0.8,0.3,0.8c0.1,0,0.2,0.3,0.2,0.7
		c0,0.4,0.1,0.7,0.2,0.7c0.1,0,0.2,0.6,0.3,1.4c0.1,0.7,0.2,1.4,0.3,1.4s0.2,0.8,0.3,1.7c0.1,0.9,0.2,1.8,0.4,2
		c0.3,0.4,0.3,14.4,0,14.7c-0.1,0.1-0.2,0.4-0.2,0.6c0,0.5-0.8,2-1.1,2.2c-0.4,0.1-1.9-1.4-2.1-2.1c-0.1-0.2-0.2-0.5-0.3-0.5
		c-0.1,0-0.2-0.1-0.2-0.3s-0.1-0.6-0.3-0.9c-0.2-0.3-0.3-0.7-0.3-0.9c0-0.2-0.1-0.4-0.2-0.4s-0.2-0.5-0.3-1.1s-0.2-1.1-0.3-1.2
		c-0.1-0.1-0.2-0.8-0.3-1.6s-0.2-1.6-0.3-1.6s-0.2-0.6-0.2-1.1c0-0.7-0.1-1.1-0.2-1.1c-0.3-0.1-0.3-19.5,0-19.9
		c0.1-0.1,0.2-0.6,0.2-1l0-0.8l0.5,0.6C207.6,285.9,207.9,286.5,208.1,286.9 M204.3,249.9c-0.1,13.7-0.1,18.1-0.3,18.2
		c-0.1,0-0.2,0.7-0.2,2c0,1.1-0.1,3-0.1,4.3l-0.1,2.3l-0.6-0.2c-0.3-0.1-0.8-0.3-1-0.4c-0.2-0.1-0.8-0.2-1.4-0.3
		c-0.6-0.1-1.1-0.2-1.1-0.3c-0.2-0.3-8.1-0.2-8.2,0.1c-0.1,0.3-10.1,0.4-10.3,0c0-0.1-0.2-0.2-0.4-0.2c-0.7,0-2.6-1.2-3.8-2.4
		c-1.1-1.1-2.6-3.7-2.6-4.5c0-0.2-0.1-0.4-0.2-0.5c-0.2-0.1-0.2-1-0.2-4c0-2.9,0.1-4,0.2-4.1c0.1-0.1,0.2-0.5,0.2-0.8
		c0-0.3,0.1-0.8,0.3-1.1c0.2-0.3,0.3-0.7,0.3-1c0-0.2,0.1-0.5,0.2-0.5s0.2-0.4,0.3-0.8s0.2-0.7,0.3-0.7s0.2-0.3,0.3-0.6
		c0.1-0.3,0.2-0.7,0.3-0.7c0.1-0.1,0.4-0.7,1.1-1.9c0.2-0.4,0.4-0.7,0.4-0.8s0.5-0.8,1.1-1.5c0.5-0.8,1.1-1.5,1.1-1.7
		c0.1-0.1,0.4-0.5,0.6-0.8c2.5-3,4.5-5,7.3-7.4c0.3-0.2,0.9-0.8,1.4-1.2c1.4-1.2,1.6-1.4,2.9-2.3c0.6-0.5,1.4-1.1,1.8-1.4
		s0.9-0.7,1.1-0.9c0.3-0.2,0.7-0.6,1-0.8c0.2-0.2,0.6-0.5,0.8-0.6c0.4-0.3,0.6-0.4,1.6-1.3c0.2-0.2,0.8-0.6,1.2-1
		c0.5-0.4,1-0.9,1.2-1.1c0.2-0.2,1-0.9,1.7-1.6l1.3-1.2l0.1,2.7C204.3,230.6,204.3,240,204.3,249.9 M211.3,181.4
		c0.3,0.4,0.7,0.9,0.8,1c0.5,0.6,1.2,1.9,1.4,2.3c0.1,0.3,0.2,0.5,0.3,0.5s0.2,0.4,0.3,0.8c0.1,0.4,0.2,0.8,0.3,0.8s0.2,0.6,0.3,1.4
		c0.1,0.8,0.2,1.5,0.3,1.6c0.1,0.1,0.2,1.6,0.2,3.4s-0.1,3.3-0.2,3.4c-0.1,0.1-0.2,0.8-0.3,1.6c-0.1,0.8-0.2,1.6-0.3,1.7
		c-0.1,0.1-0.2,0.6-0.3,1.1c-0.1,0.5-0.2,1.1-0.3,1.2c-0.1,0.2-0.3,0.8-0.5,1.4s-0.4,1.3-0.6,1.7c-0.1,0.3-0.3,0.7-0.3,0.9
		c0,0.2-0.1,0.4-0.2,0.4c-0.1,0.1-0.2,0.3-0.2,0.4c0,0.4-2.9,6.3-3.5,7.1c-0.8,1.1-0.8,1.4-0.6-6.8c0.1-4.7,0.2-7.9,0.3-8
		c0.1-0.1,0.2-1,0.2-2s0.1-1.8,0.2-1.9s0.2-1.4,0.3-3.1c0.1-1.6,0.2-3,0.3-3c0.1,0,0.2-1,0.3-2.3c0.1-1.2,0.2-2.4,0.3-2.5
		c0.1-0.1,0.2-0.6,0.3-1.2C210.3,180.2,210.4,180.1,211.3,181.4 M143.7,63.4c-0.6,0.4-2,1.1-3.1,1.6s-2.1,1-2.3,1.1
		c-0.2,0.1-0.6,0.2-0.9,0.3c-0.3,0.1-0.7,0.2-0.7,0.3c-0.1,0.1-0.3,0.2-0.4,0.2c-0.2,0-0.6,0.1-0.9,0.3c-0.3,0.2-0.7,0.3-0.8,0.3
		c-0.1,0-0.3,0.1-0.3,0.2s-0.3,0.2-0.7,0.3s-1,0.2-1.3,0.4c-0.3,0.2-0.7,0.3-0.9,0.3c-0.2,0-0.4,0.1-0.4,0.2
		c-0.1,0.1-0.3,0.2-0.5,0.2c-0.2,0-0.4,0.1-0.4,0.2c0,0.1-0.4,0.2-0.8,0.3c-0.4,0.1-0.9,0.2-1.1,0.3s-0.3,0.2-0.5,0.1
		c-0.2-0.1-0.1-0.1,0.1-0.2c0.2-0.1,0.4-0.2,0.5-0.3c0.1-0.1,2.8-1.5,5.8-2.9c0.7-0.3,1.4-0.6,1.5-0.6c0.1,0,0.2-0.1,0.2-0.2
		s0.1-0.2,0.2-0.2s0.5-0.1,0.8-0.3c0.3-0.2,0.8-0.3,1.1-0.4s0.6-0.2,0.6-0.3s0.2-0.2,0.4-0.2s0.4-0.1,0.5-0.2s0.4-0.2,0.9-0.3
		c0.4-0.1,0.8-0.2,0.8-0.3s0.4-0.2,0.8-0.3c0.4-0.1,0.9-0.2,1-0.3c0.1-0.1,0.4-0.2,0.7-0.2C144.7,62.6,144.7,62.7,143.7,63.4
		 M189.3,0.2c-0.1,0.1-1,0.2-2.1,0.3c-1.1,0.1-2.2,0.2-2.4,0.3S184.1,1,183.6,1c-0.4,0-0.8,0.1-0.8,0.2s-0.7,0.2-1.5,0.3
		s-1.5,0.2-1.5,0.3c0,0.1-0.6,0.2-1.4,0.3c-0.8,0.1-1.5,0.2-1.6,0.3s-0.4,0.2-0.8,0.2s-0.7,0.1-0.7,0.2c0,0.1-0.6,0.2-1.2,0.3
		s-1.3,0.2-1.3,0.3c-0.1,0.1-0.6,0.2-1.1,0.3s-1.1,0.2-1.1,0.3c-0.1,0.1-1.5,0.5-3,0.7c-0.3,0.1-0.6,0.2-0.6,0.3
		c0,0.1-0.5,0.2-1.1,0.3s-1.1,0.2-1.1,0.3c-0.1,0.1-0.5,0.2-1,0.3c-0.5,0.1-0.9,0.2-1,0.3s-0.4,0.2-0.7,0.2s-0.6,0.1-0.7,0.2
		s-0.5,0.2-1,0.3s-0.9,0.2-0.9,0.3c0,0.1-0.4,0.2-0.9,0.3s-0.9,0.2-1,0.3s-0.3,0.2-0.6,0.2s-0.5,0.1-0.5,0.2c0,0.1-0.4,0.2-0.9,0.3
		c-0.5,0.1-0.9,0.2-0.9,0.3s-0.4,0.2-0.8,0.3c-0.4,0.1-0.9,0.2-1,0.3s-0.7,0.3-1.4,0.5s-1.2,0.4-1.3,0.5c-0.1,0.1-0.5,0.2-0.9,0.3
		c-0.4,0.1-0.7,0.2-0.7,0.3c0,0.1-0.1,0.2-0.3,0.2c-0.2,0-0.6,0.1-0.9,0.3s-0.7,0.3-0.9,0.3s-0.4,0.1-0.4,0.2s-0.3,0.2-0.7,0.3
		c-0.4,0.1-0.7,0.2-0.7,0.3s-0.1,0.2-0.3,0.2c-0.2,0-0.8,0.2-1.3,0.5c-2,0.9-3.6,1.7-3.8,1.7c-0.1,0-0.2,0.1-0.2,0.2
		c0,0.1-0.1,0.2-0.2,0.2c-0.2,0-3.8,1.7-4,1.9c-0.1,0.1-0.7,0.4-1.3,0.8c-1.3,0.7-6.2,3.7-6.3,3.9c-0.1,0.1-0.5,0.4-1.1,0.8
		c-0.5,0.4-1.1,0.7-1.2,0.9c-0.1,0.1-0.4,0.3-0.6,0.5c-0.2,0.2-0.6,0.5-0.8,0.6c-0.2,0.2-0.7,0.5-0.9,0.8c-0.8,0.6-1.3,1-2.3,2
		c-0.5,0.5-1.2,1-1.4,1.3c-2.2,1.9-6.8,6.8-8.6,9.2c-0.4,0.5-0.8,1-0.8,1c-0.1,0-0.6,0.8-1.2,1.6s-1.2,1.6-1.2,1.7
		c-0.3,0.4-2.3,3.7-2.6,4.4c-0.2,0.4-0.4,0.8-0.5,0.9c-0.2,0.2-1.9,4-1.9,4.2c0,0.1-0.1,0.4-0.3,0.7c-0.2,0.3-0.3,0.8-0.3,1
		s-0.1,0.4-0.2,0.4s-0.2,0.2-0.2,0.5c0,0.3-0.1,0.5-0.2,0.5s-0.2,0.5-0.3,1.1s-0.2,1.1-0.3,1.1c-0.1,0-0.2,0.6-0.3,1.4
		c-0.1,0.7-0.2,1.4-0.3,1.5c-0.2,0.1-0.2,6.8,0,6.9c0.1,0.1,0.2,0.5,0.3,0.9s0.2,0.9,0.3,1.1c1.9,4,4.1,6,7.1,6.5
		c0.4,0.1,0.8,0.2,0.9,0.3c0.2,0.3,6.3,0.2,6.6-0.1c0.1-0.1,0.3-0.2,0.4-0.1s-0.1,0.3-0.4,0.5c-1.8,1.1-4.3,3.7-4.5,4.7
		c-0.1,0.3-0.2,0.5-0.2,0.5c-0.3,0-0.6,2.3-0.4,3.2c0.5,1.8,1.8,3,3.1,3c0.2,0,0.4,0.1,0.5,0.2c0.2,0.2,6.6,0.3,6.6,0
		c0-0.1,0.7-0.2,1.4-0.3c0.8-0.1,1.5-0.2,1.6-0.3c0.1-0.1,0.3-0.2,0.6-0.2s0.5-0.1,0.5-0.2s0.5-0.2,1.1-0.3s1.1-0.2,1.1-0.3
		c0-0.1,0.3-0.2,0.7-0.3c0.4-0.1,1-0.3,1.5-0.5c0.4-0.2,1.1-0.4,1.5-0.5s0.6-0.2,0.6-0.3c0-0.1,0.4-0.2,0.8-0.3
		c0.4-0.1,0.8-0.2,0.8-0.3s0.1-0.2,0.3-0.2c0.1,0,0.5-0.1,0.8-0.3s0.7-0.3,1-0.3c0.2,0,0.4-0.1,0.4-0.2c0-0.1,0.3-0.2,0.7-0.3
		s0.7-0.2,0.8-0.3c0.1-0.1,0.3-0.2,0.5-0.2c0.3,0,1.2-0.3,2.1-0.8c0.2-0.1,0.6-0.2,1-0.3c0.4-0.1,0.7-0.2,0.7-0.3s0.4-0.2,0.9-0.3
		s0.9-0.2,1-0.3s0.3-0.2,0.6-0.2s0.5-0.1,0.6-0.2c0.1-0.1,0.6-0.2,1.2-0.3s1.1-0.2,1.1-0.3s0.6-0.2,1.2-0.3s1.3-0.2,1.4-0.3
		c0.1-0.1,0.4-0.2,0.8-0.2s0.8-0.1,0.9-0.2c0.3-0.3,6.6-0.3,6.7,0c0,0.1,0.2,0.2,0.4,0.2s0.6,0.4,1,0.8c1.6,1.7,0.7,3.8-2.6,6.5
		c-0.7,0.6-1.4,1.2-1.4,1.2s-0.4,0.3-0.9,0.5c-0.9,0.5-1.5,0.8-1.6,1c-0.1,0.1-0.7,0.4-2.3,1.3c-0.5,0.2-1.6,0.8-2.4,1.2
		c-0.8,0.4-1.9,0.9-2.3,1.1c-0.4,0.2-1,0.4-1.3,0.5c-0.3,0.1-0.6,0.2-0.6,0.3c-0.1,0.1-0.2,0.2-0.4,0.2s-0.6,0.1-0.9,0.3
		c-0.3,0.2-0.7,0.3-0.8,0.3c-0.1,0-0.3,0.1-0.3,0.2s-0.3,0.2-0.7,0.3s-0.9,0.2-1.2,0.4c-0.3,0.2-0.7,0.3-0.9,0.3s-0.3,0.1-0.3,0.2
		c0,0.1-0.2,0.2-0.5,0.2s-0.5,0.1-0.5,0.2s-0.3,0.2-0.8,0.3c-0.4,0.1-0.8,0.2-0.8,0.3s-0.1,0.2-0.3,0.2c-0.4,0-1.5,0.5-4.6,1.9
		c-5.7,2.7-9.8,6.9-10.2,10.4c-0.2,2.3,0.4,3.7,1.9,4.2c0.4,0.1,0.8,0.3,0.9,0.4c0.3,0.2,3.7,0.2,3.8,0c0.1-0.1,0.4-0.2,0.7-0.2
		c0.6,0,2.3-0.5,2.9-0.8c0.2-0.1,0.5-0.2,0.7-0.2c0.2,0,0.6-0.1,0.9-0.3c0.3-0.2,0.8-0.3,1.1-0.4s0.6-0.2,0.7-0.3
		c0.1-0.1,0.3-0.2,0.5-0.2s0.4-0.1,0.4-0.2s0.3-0.2,0.6-0.3c0.3-0.1,1-0.3,1.5-0.6c0.5-0.3,1.1-0.5,1.2-0.5s0.2-0.1,0.2-0.2
		c0-0.1,0.1-0.2,0.2-0.2c0.2,0,3.8-1.7,4-1.9c0.1-0.1,0.6-0.3,1.1-0.7c0.6-0.3,1.8-0.9,2.7-1.4c4.5-2.4,9.3-4.7,10.2-5
		c0.3-0.1,0.6-0.2,0.6-0.3c0.1-0.1,0.2-0.2,0.4-0.2c0.3,0,1.2-0.4,2-0.8c0.2-0.1,0.6-0.2,1-0.3c0.4-0.1,0.8-0.2,0.9-0.3
		s0.6-0.2,1-0.3s0.9-0.2,0.9-0.3s0.3-0.2,0.6-0.2c0.3,0,0.6-0.1,0.7-0.2c0.1-0.1,0.9-0.2,1.7-0.3c0.8-0.1,1.5-0.2,1.6-0.3
		c0.1-0.2,1.6-0.2,1.6,0c0,0.1,0.2,0.2,0.4,0.2c0.4,0,1.2,0.8,1.2,1.2c0,0.7-1.3,2.3-3.1,3.9c-1.2,1-7.1,4.3-7.8,4.3
		c-0.1,0-0.2,0.1-0.2,0.2s-0.4,0.2-0.8,0.3c-0.4,0.1-0.8,0.2-0.8,0.3s-0.2,0.2-0.4,0.2s-0.4,0.1-0.4,0.2s-0.4,0.2-0.9,0.3
		c-0.5,0.1-0.9,0.2-0.9,0.3s-0.4,0.2-0.8,0.3s-0.9,0.2-1.1,0.3c-0.5,0.2-2.2,0.8-2.6,0.8c-0.2,0-0.3,0.1-0.3,0.2s-0.4,0.2-0.9,0.3
		s-1,0.2-1.1,0.3c-0.1,0.1-0.5,0.2-1,0.3c-0.5,0.1-0.9,0.2-1,0.3s-0.4,0.2-0.7,0.2c-0.3,0-0.6,0.1-0.7,0.2s-0.4,0.2-0.9,0.3
		c-0.4,0.1-0.8,0.2-0.9,0.3s-0.3,0.2-0.5,0.2s-0.7,0.1-1,0.3s-0.7,0.3-0.8,0.3c-0.1,0-0.3,0.1-0.3,0.2c0,0.1-0.1,0.2-0.3,0.2
		c-0.6,0-4,1.6-5.7,2.8c-4.5,3-6.6,7.1-5.1,10c0.6,1.1,2,2,3.2,2c0.3,0,0.6,0.1,0.6,0.2c0,0.1,0.7,0.2,1.8,0.2c1,0,1.8-0.1,1.8-0.2
		c0-0.1,0.8-0.2,1.8-0.3s1.8-0.2,1.9-0.3c0.1-0.1,0.5-0.2,0.9-0.3c0.4-0.1,1-0.2,1.2-0.3c0.2-0.1,0.5-0.3,0.7-0.4
		c0.2-0.1,0.6-0.2,1-0.3c0.4-0.1,0.8-0.2,0.9-0.3c1.1-0.6,4.1-1.9,4.2-1.9c0.1,0,0.2-0.1,0.2-0.2s0.4-0.3,0.8-0.5s0.8-0.4,0.9-0.5
		s0.7-0.4,1.4-0.8c0.7-0.4,1.4-0.7,1.4-0.8s0.3-0.2,0.6-0.3c0.3-0.1,0.9-0.5,1.5-0.8s1.5-0.9,2.1-1.2s1.1-0.6,1.2-0.7
		c0.5-0.4,6.6-3.6,8.2-4.2c0.5-0.2,1.2-0.5,1.5-0.7c0.3-0.1,0.9-0.4,1.2-0.5s0.8-0.3,0.9-0.4c0.1-0.1,0.6-0.2,1-0.3s0.9-0.2,0.9-0.3
		c0.1-0.1,0.6-0.2,1.3-0.3s1.4-0.2,1.6-0.3c0.3-0.2,0.5-0.2,0.7,0c0.1,0.1,0.4,0.2,0.6,0.2c0.5,0,0.4,0.2-0.1,1.2
		c-0.9,1.5-5,5.2-5.6,5.2c-0.1,0-0.2,0.1-0.2,0.2s-0.2,0.2-0.4,0.3c-0.2,0.1-0.5,0.2-0.5,0.2c-0.2,0.2-2.5,1.4-4.5,2.3
		c-0.7,0.3-1.5,0.7-1.7,0.8c-0.2,0.1-0.4,0.2-0.6,0.2c-0.1,0-0.5,0.1-0.8,0.3c-0.3,0.2-1.1,0.4-1.7,0.6s-1.1,0.4-1.1,0.5
		c-0.1,0.1-0.4,0.2-0.8,0.2c-0.4,0.1-0.9,0.2-1.1,0.3c-0.2,0.1-0.9,0.3-1.5,0.5c-0.7,0.2-1.2,0.4-1.2,0.5s-0.4,0.2-1,0.3
		c-0.5,0.1-1,0.2-1,0.3s-0.4,0.2-0.9,0.3s-1,0.2-1.1,0.3c-0.1,0.1-0.3,0.2-0.6,0.2c-0.3,0-0.5,0.1-0.5,0.2s-0.4,0.2-0.9,0.3
		c-0.5,0.1-0.9,0.2-0.9,0.3s-0.4,0.2-0.9,0.3s-0.9,0.2-1,0.3s-0.2,0.2-0.4,0.2c-0.3,0-1.3,0.4-2,0.8c-0.2,0.1-0.4,0.2-0.6,0.2
		c-0.2,0-3.8,1.7-4,1.9c-0.1,0.1-0.4,0.3-0.8,0.5c-0.4,0.2-0.8,0.5-0.9,0.6s-0.7,0.6-1.3,1.1c-0.6,0.5-1.3,1.2-1.6,1.6
		s-0.7,0.9-0.9,1.2c-0.2,0.2-0.6,0.9-0.8,1.5c-0.3,0.6-0.6,1.2-0.6,1.4c-0.2,0.4-0.2,4.3,0,4.5c0.1,0.1,0.2,0.3,0.2,0.5
		c0,0.8,2.5,2.7,3.5,2.7c0.1,0,0.4,0.1,0.5,0.2c0.3,0.3,6.6,0.3,7,0c0.1-0.1,0.8-0.3,1.4-0.4s1.1-0.2,1.2-0.3
		c0.1-0.1,0.3-0.2,0.6-0.2c0.3,0,0.5-0.1,0.5-0.2c0-0.1,0.4-0.2,0.9-0.3c0.5-0.1,0.9-0.2,0.9-0.3c0-0.1,0.4-0.2,0.8-0.3
		c0.4-0.1,0.8-0.2,0.8-0.3c0-0.1,0.1-0.2,0.3-0.2c0.2,0,0.7-0.2,1.3-0.5c0.5-0.3,1.2-0.5,1.5-0.6c0.3-0.1,0.6-0.2,0.6-0.3
		s0.1-0.2,0.3-0.2s0.7-0.2,1.2-0.5s1.5-0.8,2.2-1.1s1.4-0.7,1.4-0.8c0.1-0.1,0.3-0.2,0.6-0.3c0.3-0.1,0.5-0.2,0.6-0.3
		c0.1-0.1,0.7-0.4,1.5-0.9c0.8-0.4,2-1.1,2.8-1.5s1.6-0.9,1.8-1c0.3-0.1,0.5-0.3,0.6-0.3c0.1-0.1,0.4-0.3,0.8-0.5
		c0.8-0.4,2.5-1.4,3.1-1.7c0.2-0.1,0.5-0.3,0.5-0.3c0.2-0.2,3.8-1.9,4-1.9c0.1,0,0.2-0.1,0.2-0.2s0.1-0.2,0.2-0.2
		c0.1,0,0.5-0.1,0.8-0.3c0.3-0.1,1.1-0.4,1.7-0.6s1.1-0.4,1.2-0.5c0.1-0.1,0.6-0.2,1.1-0.3c0.5-0.1,1-0.2,1.1-0.3
		c0.5-0.4,3.2-0.2,3.7,0.2c0.4,0.4,0.6,1,0.2,1c-0.1,0-0.2,0.2-0.2,0.4c0,1.5-2.6,4.7-5.6,6.9c-0.9,0.6-1.7,1.2-1.8,1.3
		c-0.5,0.4-5.6,3-7.4,3.8c-0.6,0.3-1.5,0.7-2,0.9c-0.5,0.2-1,0.4-1.2,0.4s-0.3,0.1-0.4,0.2c-0.1,0.1-0.3,0.2-0.4,0.2
		c-0.2,0-0.5,0.1-0.8,0.2c-0.3,0.1-1,0.4-1.6,0.6c-0.6,0.2-1.2,0.4-1.2,0.5c-0.1,0.1-0.5,0.2-1,0.3s-1,0.2-1,0.3
		c-0.1,0.1-0.5,0.2-1,0.3c-0.5,0.1-0.9,0.2-1,0.3s-0.3,0.2-0.6,0.2s-0.5,0.1-0.6,0.2c-0.1,0.1-0.5,0.2-1,0.3c-0.5,0.1-0.9,0.2-1,0.3
		s-0.5,0.2-1,0.3c-0.5,0.1-0.9,0.2-1,0.3c-0.1,0.1-0.3,0.2-0.5,0.2s-0.4,0.1-0.4,0.2s-0.3,0.2-0.7,0.3c-0.7,0.1-1.5,0.4-2.4,0.9
		c-0.2,0.1-0.5,0.2-0.6,0.2c-0.2,0-0.3,0.1-0.3,0.2c0,0.1-0.1,0.2-0.2,0.2c-1.5,0-5.4,3.1-6.2,4.8c-0.2,0.5-0.5,1.1-0.6,1.3
		c-0.3,0.6-0.3,4.9,0,5.3c0.1,0.1,0.2,0.5,0.2,0.8s0.1,0.5,0.2,0.5c0.1,0,0.2,0.2,0.2,0.4c0,1.1,2.7,5.6,4.8,8.1c2,2.3,5.9,5,7.3,5
		c0.2,0,0.4,0.1,0.4,0.2c0,0.1,0.5,0.2,1.1,0.3c0.6,0.1,1.1,0.2,1.1,0.3c0,0.2,0.6,0.3,2.9,0.6c0.9,0.1,1.8,0.3,2.1,0.4
		c0.6,0.3,12.2,0.3,12.5,0c0.1-0.1,1.3-0.3,2.5-0.3c1.2-0.1,2.3-0.2,2.4-0.3s0.7-0.2,1.3-0.2s1.2-0.1,1.2-0.2s1.1-0.2,2.4-0.3
		c1.5-0.1,2.5-0.2,2.6-0.4c0.2-0.3,13.4-0.3,13.8,0c0.1,0.1,0.6,0.3,1.1,0.4c0.4,0.1,1.2,0.3,1.7,0.6c0.5,0.2,1,0.5,1.1,0.5
		c0.4,0,0.5,0.9,0.2,2.6c-0.5,2.7-0.5,2.9-0.8,5.1c-0.1,1.2-0.3,2.2-0.4,2.3c-0.1,0.1-0.2,1.5-0.3,3c-0.1,1.6-0.2,2.8-0.3,2.8
		c-0.1,0-0.2,0.8-0.2,1.8c0,1.1-0.1,1.9-0.2,2c-0.2,0.2-0.2,3.3-0.3,11.8l-0.1,11.5l-1.6,1.7c-2.7,2.8-4.6,4.5-6.6,6.2
		c-0.5,0.4-1,0.8-1.1,0.9c-0.1,0.1-0.6,0.5-1.2,1c-0.6,0.5-1.2,0.9-1.2,1c-0.1,0.1-0.7,0.5-1.3,1.1c-0.7,0.5-1.3,1-1.4,1.1
		c-5,4-5.3,4.2-8.4,7.3c-3.1,3.1-4.5,4.7-5.7,6.7c-0.2,0.3-0.4,0.6-0.5,0.7c-0.5,0.5-3.4,6.3-3.4,6.9c0,0.1-0.1,0.4-0.2,0.6
		c-0.3,0.6-0.8,2.3-0.8,2.7c0,0.2-0.1,0.5-0.2,0.6c-0.1,0.1-0.3,1-0.3,2.1c-0.1,1-0.2,1.9-0.3,1.9c-0.2,0-0.2,3.4,0,3.5
		c0.1,0.1,0.2,0.9,0.3,1.9c0.1,1,0.2,1.9,0.3,2c0.1,0.1,0.2,0.4,0.2,0.5c0,1.7,3.5,6.6,5.5,7.6c0.4,0.2,0.8,0.4,0.9,0.5
		s0.4,0.2,0.8,0.3c0.4,0.1,0.7,0.2,0.7,0.3c0,0.1,0.2,0.2,0.5,0.2s0.5,0.1,0.5,0.2c0,0.1,1,0.2,2.1,0.3c1.1,0.1,2.1,0.2,2.2,0.3
		c0.1,0.2,3,0.2,3,0c0-0.1,1.4-0.2,3.2-0.3c1.8-0.1,3.3-0.2,3.4-0.3c0.5-0.4,6.3,0.1,6.9,0.6c0.1,0.1,0.4,0.2,0.7,0.3
		c0.3,0.1,0.9,0.4,1.4,0.6l0.9,0.5l-0.1,1.4c-0.5,5.6-0.6,21.2-0.3,24.4c0.1,0.9,0.2,2.1,0.3,2.6c0.1,0.6,0.2,1,0.2,1
		s0.2,0.6,0.3,1.4s0.2,1.5,0.3,1.6s0.2,0.6,0.3,1.1c0.1,0.5,0.2,1,0.3,1c0.1,0.1,0.2,0.3,0.2,0.6c0,0.3,0.1,0.5,0.2,0.5
		s0.2,0.4,0.3,0.9c0.1,0.5,0.2,0.9,0.3,0.9c0.1,0,0.2,0.1,0.2,0.2c0,0.4,0.7,1.8,1.1,2.2c0.2,0.2,0.4,0.5,0.4,0.6
		c0,0.3,1.1,1.2,1.4,1.2c0.1,0,0.3,0.1,0.3,0.2c0,0.1,0.2,0.2,0.4,0.2s0.4,0.1,0.5,0.2c0.1,0.1,0.7,0.2,1.4,0.2c2.6,0,4.6-1.8,5-4.5
		c0.1-0.5,0.2-0.9,0.3-0.9c0.9,0,0.9-17.1,0-18.2c-0.1-0.1-0.2-0.9-0.3-1.8c-0.1-0.9-0.2-1.6-0.3-1.6s-0.2-0.5-0.3-1.2
		s-0.2-1.3-0.3-1.4c-0.1-0.1-0.2-0.4-0.2-0.7s-0.1-0.6-0.2-0.6c-0.1-0.1-0.2-0.5-0.3-1c-0.1-0.5-0.2-0.9-0.3-0.9s-0.2-0.3-0.3-0.7
		c-0.1-0.4-0.3-1-0.5-1.4s-0.4-0.8-0.4-0.9c0-0.2-1.2-2.7-1.4-2.9c-0.1,0-0.2-0.3-0.3-0.5c-0.1-0.2-0.2-0.4-0.3-0.4
		s-0.2-0.2-0.3-0.4c-0.1-0.2-0.3-0.7-0.6-1c-0.3-0.3-0.5-0.6-0.5-0.7c0-0.1-0.6-0.8-1.3-1.6l-1.3-1.4l0.1-3.9c0.1-2.1,0.2-4,0.3-4.1
		s0.2-4.3,0.3-9.3c0.1-5,0.2-9.1,0.3-9.1c0.2,0,0.2-10.4,0-10.4c-0.1,0-0.2-4.3-0.2-10.1l-0.1-10l0.6-0.8c0.3-0.4,0.6-0.8,0.7-0.9
		s0.5-0.8,1.1-1.5c0.5-0.8,1-1.5,1.1-1.5c0.3-0.3,3.2-5.9,4.1-8c0.2-0.4,0.4-0.9,0.5-1.1s0.2-0.6,0.3-1c0.1-0.4,0.2-0.8,0.3-0.9
		c0.1-0.1,0.3-0.7,0.5-1.4c0.2-0.6,0.4-1.3,0.5-1.5c0.1-0.2,0.2-0.8,0.3-1.2c0.1-0.5,0.2-1,0.3-1.1c0.1-0.1,0.2-0.9,0.3-1.7
		s0.2-1.5,0.3-1.5s0.2-0.7,0.2-1.5c0-0.9,0.1-1.5,0.2-1.5c0.1,0,0.2-0.8,0.2-2c0-1.1-0.1-2.1-0.2-2.1c-0.1-0.1-0.2-0.7-0.2-1.5
		s-0.1-1.3-0.2-1.3c-0.1,0-0.2-0.6-0.3-1.4s-0.2-1.4-0.3-1.4s-0.2-0.3-0.3-0.7c-0.1-0.4-0.3-1.1-0.5-1.5c-0.2-0.4-0.5-1.1-0.7-1.5
		c-0.8-1.7-2.6-4-4.5-5.6l-0.6-0.5l0.3-1c0.2-0.6,0.4-1.3,0.6-1.6c0.1-0.3,0.3-0.7,0.3-0.9c0-0.1,0.1-0.4,0.3-0.6
		c0.2-0.2,0.3-0.5,0.3-0.7s0.1-0.4,0.2-0.4s0.3-0.4,0.5-0.8c0.4-0.8,2.1-2.7,2.5-2.7c0.6,0,3.9,4.2,3.9,5c0,0.1,0.1,0.2,0.2,0.2
		c0.1,0,0.2,0.1,0.2,0.2c0,0.2,0.5,1.4,1.2,2.8c0.2,0.4,0.4,1,0.5,1.4c0.1,0.3,0.2,0.7,0.3,0.8c0.1,0.1,0.2,0.6,0.3,1
		c0.1,0.4,0.2,0.9,0.3,0.9c0.1,0.1,0.2,0.3,0.2,0.5c0,0.2,0.1,0.4,0.2,0.4s0.2,0.5,0.3,1.1c0.1,0.6,0.2,1.2,0.3,1.3
		c0.1,0.1,0.2,0.7,0.3,1.4c0.1,0.7,0.2,1.4,0.3,1.5c0.2,0.2,0.6,2.9,0.7,4.6c0.1,0.7,0.2,1.3,0.3,1.3s0.2,1.2,0.3,2.6
		c0.1,1.5,0.2,2.7,0.3,2.8c0.1,0.1,0.2,1.9,0.3,4.1c0.1,2.2,0.2,4.1,0.3,4.1c0.1,0.1,0.2,2.5,0.2,5.4c0,3.4,0.1,5.3,0.2,5.3
		c0.2,0,0.2,0.8,0,1.1c-0.1,0.1-0.2,2.8-0.3,6.4c-0.1,8.4-0.5,19.6-0.7,19.7c-0.1,0.1-0.2,3.1-0.3,6.9c-0.1,3.7-0.2,6.8-0.3,7
		c-0.5,0.7-0.5,37.5,0,38.2c0.1,0.1,0.2,2.8,0.3,5.9c0.1,3.1,0.2,5.7,0.3,5.8c0.1,0.1,0.5,6.6,0.7,13.7c0.1,1.6,0.2,3.1,0.3,3.2
		c0.2,0.2,0.2,10.3,0,10.3c-0.1,0-0.2,0.6-0.2,1.4c0,1.8-0.3,2.5-1.1,2.5c-0.3,0-0.6,0.1-0.6,0.2s-1.8,0.2-4,0.3
		c-2.2,0.1-4.1,0.2-4.2,0.3c-0.1,0.1-0.6,0.2-1.2,0.2c-0.6,0-1,0.1-1,0.2c0,0.1-0.8,0.2-1.7,0.3c-0.9,0.1-1.7,0.2-1.7,0.3
		c0,0.1-0.5,0.2-1.1,0.3c-0.6,0.1-1.2,0.2-1.4,0.3c-0.2,0.1-0.9,0.3-1.5,0.5c-0.7,0.2-1.2,0.4-1.3,0.5s-0.2,0.2-0.4,0.2
		c-0.3,0-1.8,0.7-3.2,1.5c-0.9,0.5-2.4,2.1-2.5,2.8c-0.1,0.3-0.2,0.6-0.3,0.6c-0.2,0-0.2,3.2,0,3.4c0.1,0.1,0.2,0.3,0.2,0.5
		c0,0.9,2.6,3.4,3.5,3.4c0.2,0,0.3,0.1,0.3,0.2c0,0.1,0.3,0.2,0.7,0.3c0.4,0.1,0.8,0.2,0.9,0.3c0.6,0.4,1.8,0.6,3.6,0.8
		c1.1,0.1,2.1,0.2,2.2,0.3c0.1,0.2,2.3,0.2,2.5,0c0.1-0.1,0.7-0.2,1.5-0.2s1.8-0.1,2.2-0.2c0.5-0.1,1.1-0.2,1.4-0.3s0.5-0.2,0.5-0.3
		c0-0.1,0.4-0.2,0.9-0.3s0.9-0.2,0.9-0.3s0.1-0.2,0.3-0.2c0.4,0,1.6-0.6,1.6-0.8c0-0.1,0.1-0.2,0.2-0.2c0.9,0,4.1-3.7,4.8-5.5
		c0.1-0.3,0.3-0.6,0.4-0.6s0.1-0.1,0.1-0.3s0.1-0.5,0.3-0.8c0.2-0.3,0.3-0.7,0.3-0.9s0.1-0.3,0.2-0.3c0.1,0,0.2-0.5,0.3-1.1l0.1-1.1
		l6,0.1c3.6,0.1,6,0.2,6.1,0.3c0.1,0.1,0.8,0.2,1.6,0.2s1.4,0.1,1.5,0.1c0.1,0.1,1.1,0.2,2.3,0.4c4.5,0.5,6,0.7,6.1,0.8
		c0.1,0.1,0.5,0.2,1,0.2c1.3,0.2,3.5,0.6,3.7,0.7c0.1,0.1,0.7,0.2,1.4,0.3c0.7,0.1,1.2,0.2,1.2,0.3c0,0.1,0.5,0.2,1.1,0.3
		s1.2,0.2,1.3,0.3s0.3,0.2,0.6,0.2s0.5,0.1,0.6,0.2c0.1,0.1,0.5,0.2,1.1,0.3c0.5,0.1,1,0.2,1,0.3s0.4,0.2,0.8,0.3
		c0.4,0.1,0.9,0.2,1,0.3c0.1,0.1,0.7,0.3,1.3,0.5c0.6,0.2,1.3,0.5,1.7,0.6c0.3,0.1,0.7,0.3,0.9,0.3s0.3,0.1,0.3,0.2s0.1,0.2,0.3,0.2
		s0.4,0.1,0.6,0.2c0.2,0.1,1.7,0.9,3.4,1.7c1.7,0.8,3.2,1.7,3.5,1.9c0.2,0.2,0.6,0.4,0.8,0.5c0.2,0.1,0.4,0.2,0.4,0.3
		s0.1,0.2,0.2,0.2c0.1,0,0.5,0.3,0.9,0.6c0.4,0.3,0.8,0.6,0.9,0.6s0.2,0.1,0.4,0.2c0.1,0.1,0.8,0.6,1.4,1.1
		c4.6,3.5,9.7,9.6,10.4,12.6c0.1,0.3,0.2,0.6,0.3,0.7c0.1,0.1,0.2,0.6,0.3,1c0.1,0.5,0.2,0.9,0.3,0.9c0.1,0.1,0.2,0.5,0.2,1
		s0.1,0.9,0.2,0.9s0.2,0.4,0.2,1s-0.1,1-0.2,1s-0.2,0.4-0.2,1c0,0.5-0.1,1-0.2,1.1c-0.1,0.1-0.2,0.3-0.2,0.5c0,0.2-0.2,0.8-0.4,1.2
		c-0.2,0.4-0.4,0.9-0.4,1c0,0.1-0.1,0.2-0.2,0.2c-0.1,0-0.2,0.1-0.3,0.3c-0.1,0.4-0.5,0.9-0.8,1.3c-0.1,0.1-0.3,0.4-0.5,0.6
		c-0.2,0.2-0.9,1-1.6,1.7c-1.8,1.8-1.8,1.8-2,1.8c-0.1,0-0.2,0.1-0.3,0.3s-0.2,0.3-0.4,0.3c-0.1,0-0.3,0.1-0.3,0.1
		c-0.3,0.8-8.9,5.1-10.2,5.1c-0.2,0-0.3,0.1-0.3,0.2c0,0.1-0.4,0.2-0.9,0.3c-0.5,0.1-0.9,0.2-0.9,0.3c0,0.1-0.5,0.2-1,0.3
		c-0.6,0.1-1.1,0.2-1.1,0.3s-0.3,0.2-0.7,0.2c-0.4,0-0.7,0.1-0.7,0.2c0,0.1-0.6,0.2-1.3,0.3c-0.7,0.1-1.3,0.2-1.3,0.3
		c0,0.1-0.7,0.2-1.5,0.3c-0.8,0.1-1.6,0.2-1.6,0.3c-0.1,0.1-0.5,0.2-1,0.2c-0.5,0-0.9,0.1-1,0.2c-0.1,0.1-1,0.2-2.2,0.3
		s-2.1,0.2-2.2,0.3c0,0.1-1.6,0.2-3.4,0.3c-2,0.1-3.3,0.2-3.4,0.4c-0.2,0.3-21.7,0.3-22.1,0c-0.1-0.1-1.8-0.3-4.1-0.4
		c-2.1-0.1-3.8-0.2-3.9-0.3c-0.1-0.1-1.3-0.2-2.7-0.3c-1.4-0.1-2.6-0.2-2.7-0.3s-0.7-0.2-1.3-0.2c-0.7,0-1.3-0.1-1.3-0.2
		c-0.1-0.1-1-0.2-2.1-0.3s-2.1-0.2-2.3-0.3s-1.1-0.2-2.1-0.3c-1-0.1-1.8-0.2-1.8-0.3s-0.4-0.2-0.9-0.2s-0.9-0.1-1-0.2
		c-0.1-0.1-0.8-0.2-1.6-0.3c-0.8-0.1-1.5-0.2-1.5-0.3c-0.1-0.1-0.7-0.2-1.5-0.3c-0.8-0.1-1.5-0.2-1.5-0.3c-0.1-0.1-0.4-0.2-0.8-0.2
		c-0.4,0-0.7-0.1-0.8-0.2c-0.1-0.1-0.6-0.2-1.3-0.3c-0.7-0.1-1.3-0.2-1.4-0.3c-0.1-0.1-0.7-0.2-1.2-0.3c-0.6-0.1-1.1-0.2-1.2-0.3
		c-0.1-0.1-0.5-0.2-0.9-0.2c-0.4-0.1-1.2-0.2-1.8-0.4s-1.6-0.4-2.3-0.5c-0.6-0.1-1.1-0.3-1.1-0.4c0-0.1-0.5-0.2-1.1-0.3
		c-0.6-0.1-1.1-0.2-1.1-0.3s-0.2-0.2-0.6-0.2s-0.6-0.1-0.7-0.2s-0.5-0.2-1-0.3s-0.9-0.2-0.9-0.3s-0.5-0.2-1.1-0.3s-1.1-0.2-1.1-0.3
		s-0.2-0.2-0.5-0.2s-0.5-0.1-0.6-0.2s-0.4-0.2-0.9-0.3c-0.4-0.1-0.8-0.2-0.9-0.3c-0.1-0.1-0.5-0.2-1-0.3c-0.5-0.1-0.9-0.2-0.9-0.3
		s-0.2-0.2-0.4-0.2s-0.6-0.1-0.9-0.3s-0.7-0.3-0.9-0.3c-0.2,0-0.3-0.1-0.3-0.2c0-0.1-0.3-0.2-0.7-0.3c-0.4-0.1-0.9-0.2-1.2-0.4
		c-0.3-0.1-0.6-0.3-0.7-0.3c-0.1,0-1-0.4-3-1.3c-0.3-0.1-0.7-0.3-0.9-0.3s-0.3-0.1-0.3-0.2c0-0.1-0.1-0.2-0.2-0.2
		c-0.3,0-5.6-2.7-7-3.5c-0.6-0.4-1.3-0.7-1.4-0.7s-0.2-0.1-0.2-0.2c0-0.1-0.2-0.2-0.5-0.3s-0.5-0.2-0.5-0.3s-0.1-0.2-0.2-0.2
		c-0.2,0-4.9-3.1-5.2-3.5c-0.1-0.1-0.3-0.2-0.5-0.4c-1.9-1.3-5.8-5.2-7-6.9c-0.2-0.2-0.4-0.5-0.5-0.6s-0.4-0.5-0.6-0.9
		c-0.2-0.4-0.4-0.7-0.5-0.8c-0.2-0.2-0.7-1.4-1.1-2.5c-0.2-0.6-0.4-1.1-0.5-1.2c-0.2-0.2-0.2-4.3,0.1-4.4c0.1,0,0.2-0.3,0.2-0.5
		s0.1-0.5,0.2-0.5c0.1,0,0.2-0.2,0.2-0.4c0-1,3.1-4.8,5.2-6.2c0.2-0.2,0.5-0.4,0.6-0.5c0.3-0.3,0.9-0.6,1.3-0.8
		c0.2-0.1,0.3-0.2,0.4-0.2c0.2-0.2,3.7-1.9,4-1.9c0.1,0,0.2-0.1,0.2-0.2s0.3-0.2,0.7-0.3s0.7-0.2,0.8-0.3c0.1-0.1,0.2-0.2,0.4-0.2
		c0.2,0,0.6-0.1,1-0.3c1.3-0.6,1.5-0.6,2.1-0.8c0.4-0.1,0.8-0.2,0.9-0.3c0.1-0.1,0.5-0.2,0.9-0.3c0.8-0.2,1.9-0.5,2.2-0.7
		c0.1-0.1,0.7-0.2,1.3-0.3c0.6-0.1,1.1-0.2,1.1-0.3c0-0.1,0.6-0.2,1.2-0.3s1.3-0.2,1.4-0.3c0.1-0.1,0.3-0.2,0.6-0.2
		c0.6,0,3.7-0.6,4.1-0.8c0.2-0.1,1.1-0.2,2.1-0.3c1-0.1,1.9-0.2,1.9-0.3c0.1-0.1,3.8-0.5,7.2-0.7c0.9-0.1,1.9-0.2,2-0.3
		c0.4-0.3,20.2-0.3,20.6,0c0.3,0.3,1.7,0.3,1.7,0.1c0-0.1,0.2-0.2,0.4-0.3c0.4-0.2,0.4-0.3,0.4-1.4c0-1-0.1-1.2-0.4-1.4
		c-0.2-0.1-0.4-0.3-0.4-0.3s-0.3-0.1-0.7-0.1s-0.8-0.1-1-0.2c-0.2-0.2-2.7-0.2-11.4-0.2s-11.2,0-11.4,0.2c-0.1,0.2-0.8,0.2-1.9,0.2
		c-0.9,0-1.7,0.1-1.7,0.2s-1.2,0.2-2.6,0.3s-2.6,0.2-2.6,0.3c0,0.1-0.8,0.2-1.8,0.3c-1,0.1-1.9,0.2-2,0.3s-0.7,0.2-1.4,0.3
		c-1.2,0.1-2.8,0.5-3.4,0.7c-0.2,0.1-0.8,0.2-1.4,0.3s-1,0.2-1,0.3c0,0.1-0.5,0.2-1.1,0.3c-0.6,0.1-1.2,0.2-1.3,0.3
		s-0.4,0.2-0.7,0.2s-0.6,0.1-0.6,0.2s-0.5,0.2-1.1,0.3s-1.1,0.2-1.1,0.3c-0.1,0.1-0.4,0.2-0.9,0.3s-0.8,0.2-0.9,0.3
		s-0.3,0.2-0.6,0.2s-0.5,0.1-0.5,0.2c0,0.1-0.3,0.2-0.7,0.3c-0.4,0.1-0.9,0.2-1.2,0.4s-0.6,0.3-0.8,0.3c-0.2,0-0.3,0.1-0.3,0.2
		c0,0.1-0.1,0.2-0.3,0.2c-0.2,0-0.4,0.1-0.6,0.2s-0.9,0.4-1.5,0.7c-2.9,1.4-5.5,3.1-7.3,4.8c-0.9,0.9-2.4,2.7-2.4,3
		c0,0.1-0.1,0.2-0.2,0.2c-0.1,0-0.2,0.1-0.2,0.2c0,0.1-0.1,0.4-0.3,0.5s-0.4,0.7-0.6,1.3s-0.4,1-0.5,1.1s-0.2,0.4-0.2,0.6
		c0,0.2-0.1,0.5-0.2,0.6c-0.6,0.6-0.2,7.5,0.4,8.4c0.1,0.1,0.2,0.5,0.3,0.9c0.1,0.4,0.2,0.7,0.3,0.7c0.1,0,0.2,0.1,0.2,0.3
		c0,0.3,0.6,1.4,0.8,1.6c0.1,0,0.2,0.3,0.2,0.5s0.2,0.4,0.3,0.4s0.2,0.1,0.3,0.3c0.1,0.4,0.5,1,0.9,1.4c0.1,0.1,0.5,0.6,0.8,1
		c0.6,0.9,3.4,3.7,4.6,4.7c0.5,0.4,1.1,0.9,1.4,1.2s0.9,0.7,1.2,0.9s0.9,0.6,1.1,0.9c0.3,0.2,0.8,0.6,1.1,0.8s0.6,0.4,0.6,0.5
		c0,0.1,0.1,0.1,0.2,0.1c0.1,0,0.6,0.3,1,0.6c0.4,0.3,0.9,0.6,1.1,0.6s0.3,0.1,0.3,0.1s0.3,0.3,0.7,0.5s0.8,0.4,0.8,0.5
		c0.1,0.1,0.5,0.3,1.1,0.6c0.5,0.3,1,0.5,1.1,0.6c0.2,0.2,2.5,1.4,2.8,1.4c0.1,0,0.3,0.1,0.3,0.2c0.1,0.1,0.7,0.5,3.5,1.8
		c1.8,0.8,2.6,1.1,2.9,1.1c0.2,0,0.3,0.1,0.3,0.2c0,0.1,0.1,0.2,0.3,0.2s0.5,0.1,0.8,0.3c0.3,0.2,0.7,0.3,0.9,0.3
		c0.2,0,0.4,0.1,0.4,0.2c0.1,0.1,0.4,0.2,0.8,0.3c0.4,0.1,0.7,0.2,0.7,0.3s0.2,0.2,0.4,0.2c0.4,0,1.4,0.4,2.6,0.9
		c0.3,0.1,0.8,0.3,1,0.3c0.2,0,0.4,0.1,0.5,0.2s0.5,0.2,0.9,0.3c0.4,0.1,1,0.2,1.1,0.3c0.2,0.1,0.5,0.2,0.7,0.4
		c0.2,0.1,0.7,0.2,1.1,0.3c0.4,0.1,0.8,0.2,0.8,0.3s0.5,0.2,1.1,0.3s1.1,0.2,1.1,0.3s0.2,0.2,0.5,0.3c1.4,0.3,2.7,0.6,2.9,0.8
		c0.1,0.1,0.7,0.2,1.2,0.3c0.5,0.1,1,0.2,1,0.3c0,0.1,0.3,0.2,0.6,0.2c1.3,0.2,2.9,0.6,3.1,0.7c0.1,0.1,0.7,0.2,1.2,0.3
		c0.6,0.1,1.1,0.2,1.2,0.3c0.1,0.1,0.7,0.2,1.4,0.3c0.7,0.1,1.2,0.2,1.3,0.3c0.1,0.1,0.4,0.2,0.8,0.2c0.4,0,0.7,0.1,0.8,0.2
		s0.8,0.2,1.6,0.3c0.8,0.1,1.4,0.2,1.4,0.3c0,0.1,0.7,0.2,1.6,0.3c0.9,0.1,1.6,0.2,1.6,0.3c0,0.1,0.3,0.2,0.8,0.2s0.8,0.1,0.9,0.2
		c0.1,0.1,0.9,0.2,1.8,0.3c0.9,0.1,1.8,0.2,1.8,0.3c0.1,0.1,1.1,0.2,2.3,0.3c1.2,0.1,2.2,0.2,2.2,0.3c0,0.1,0.5,0.2,1.2,0.3
		c4.4,0.4,6.4,0.6,6.6,0.7c0.1,0.1,1.8,0.2,3.7,0.3s3.5,0.2,3.5,0.3c0,0.2,5.7,0.4,13.9,0.4c8,0,13.1-0.2,13.1-0.4
		c0-0.1,1.4-0.2,3-0.3c1.6-0.1,3.1-0.2,3.3-0.3c0.2-0.1,1.2-0.3,2.3-0.4c3.4-0.4,3.8-0.4,3.8-0.6c0-0.1,0.6-0.2,1.4-0.3
		c0.8-0.1,1.4-0.2,1.4-0.3c0-0.1,0.6-0.2,1.3-0.3s1.3-0.2,1.3-0.3c0-0.1,0.3-0.2,0.6-0.2c0.3,0,0.6-0.1,0.6-0.2
		c0-0.1,0.5-0.2,1.1-0.3c0.6-0.1,1-0.2,1-0.3s0.4-0.2,0.9-0.3c0.5-0.1,1-0.2,1.2-0.3c0.2-0.1,0.5-0.3,0.8-0.4s0.7-0.2,1-0.3
		c0.4-0.1,0.7-0.2,0.7-0.3s0.4-0.2,0.8-0.3c0.4-0.1,0.8-0.2,0.8-0.3s0.5-0.3,1-0.5s1.1-0.4,1.1-0.5c0-0.1,0.1-0.1,0.2-0.1
		c0.3,0,2.7-1.2,2.7-1.4c0-0.1,0.1-0.1,0.2-0.1c0.2,0,2.6-1.6,3.1-2c0.1-0.1,0.6-0.5,1.1-1c1.1-0.9,2.2-2,2.9-3
		c0.3-0.4,0.6-0.8,0.7-0.9c0.1-0.1,0.4-0.5,0.6-1c0.2-0.4,0.4-0.8,0.5-0.9c0.1,0,0.3-0.4,0.4-0.9c0.2-0.4,0.4-0.9,0.5-1.1
		c0.1-0.2,0.2-0.7,0.3-1.1c0.1-0.4,0.2-0.8,0.3-0.9c0.1-0.1,0.2-0.4,0.2-0.7c0-0.3,0.1-0.7,0.2-0.8c0.4-0.4,0-7.4-0.4-7.4
		c-0.1,0-0.2-0.4-0.3-1c-0.1-0.5-0.2-1-0.3-1s-0.2-0.4-0.3-0.8c-0.1-0.4-0.2-0.8-0.3-0.8s-0.2-0.2-0.2-0.4c0-0.2-0.1-0.4-0.2-0.4
		c-0.1,0-0.2-0.2-0.3-0.5c-0.1-0.3-0.3-0.8-0.6-1.2s-0.5-0.8-0.5-1c0-0.1-0.1-0.2-0.2-0.2s-0.2-0.1-0.2-0.2c0-0.2-0.7-1.2-1-1.5
		c0,0-0.5-0.6-1-1.2c-1.3-1.7-3.9-4.3-6-5.9c-0.5-0.4-0.9-0.7-1-0.8c0-0.1-0.7-0.5-1.5-1.1s-1.5-1-1.5-1.1c0-0.1-0.4-0.3-0.8-0.5
		s-0.7-0.4-0.8-0.5c0,0-0.4-0.3-0.8-0.5c-0.4-0.2-1.1-0.6-1.5-0.9c-1.5-0.8-3-1.6-3.2-1.6c-0.1,0-0.2-0.1-0.2-0.1s-0.6-0.4-1.3-0.6
		s-1.3-0.5-1.3-0.6s-0.1-0.1-0.3-0.1s-0.5-0.1-0.8-0.3c-0.3-0.2-0.7-0.3-0.9-0.3c-0.2,0-0.4-0.1-0.4-0.2s-0.5-0.2-0.9-0.3
		c-0.4-0.1-0.8-0.2-0.8-0.3s-0.2-0.2-0.5-0.2s-0.5-0.1-0.6-0.2c-0.1-0.1-0.3-0.2-0.5-0.2s-0.7-0.1-1-0.3c-0.3-0.1-0.9-0.3-1.4-0.4
		c-0.5-0.1-0.9-0.2-1-0.3s-0.4-0.2-0.7-0.2c-0.3,0-0.6-0.1-0.7-0.2s-0.6-0.2-1.2-0.3c-0.6-0.1-1-0.2-1-0.3s-0.6-0.2-1.2-0.3
		c-0.7-0.1-1.2-0.2-1.2-0.3c0-0.1-0.4-0.2-0.8-0.3c-2.2-0.3-3.8-0.6-3.8-0.7c0-0.1-0.8-0.2-1.8-0.3c-1-0.1-1.8-0.2-1.8-0.3
		c0-0.1-1-0.2-2.3-0.3c-1.3-0.1-2.3-0.2-2.3-0.3c0-0.1-0.6-0.2-1.3-0.2c-0.7,0-1.4-0.1-1.5-0.2c-0.1-0.1-2.3-0.2-4.9-0.3
		c-2.6-0.1-4.8-0.2-4.9-0.3s-0.9-0.2-1.8-0.2h-1.7v-0.7c0-0.4,0.1-0.7,0.2-0.8c0.1-0.1,0.2-3,0.2-8c0-5.1-0.1-7.9-0.2-7.9
		s-0.2-1-0.2-2.7c0-1.5-0.1-3.1-0.2-3.6c-0.1-0.5-0.2-3-0.3-5.5c-0.1-2.5-0.2-4.6-0.3-4.7c-0.1-0.1-0.2-2.9-0.3-6.2
		c-0.1-3.6-0.2-6.1-0.3-6.2c-0.3-0.4-0.3-31,0-31.3c0.1-0.2,0.2-2.8,0.3-7c0.1-3.7,0.2-6.8,0.3-6.9c0.1-0.1,0.2-1.4,0.2-2.9
		c0-1.5,0.1-4.3,0.2-6.3c0.6-10.3,0.9-27.2,0.6-27.9c-0.1-0.2-0.2-1.9-0.3-3.9c-0.1-4.1-0.5-10.1-0.7-10.4c-0.1-0.1-0.2-1.3-0.3-2.7
		s-0.2-2.6-0.3-2.8c-0.1-0.3-0.5-2.4-0.7-4.6c-0.1-0.6-0.2-1-0.3-1c-0.1,0-0.2-0.6-0.3-1.4c-0.1-0.7-0.2-1.4-0.3-1.4
		c-0.1,0-0.2-0.4-0.3-1c-0.1-0.5-0.2-1-0.3-1.1c-0.1-0.1-0.2-0.4-0.2-0.7s-0.1-0.6-0.2-0.7c-0.1-0.1-0.2-0.5-0.3-1
		c-0.1-0.5-0.2-0.9-0.3-0.9s-0.2-0.2-0.2-0.4c0-0.2-0.1-0.7-0.3-1c-0.2-0.3-0.3-0.7-0.3-0.8s-0.1-0.3-0.2-0.3
		c-0.1,0-0.2-0.3-0.3-0.6c-0.1-0.3-0.2-0.8-0.3-0.9c-0.1-0.2-0.4-0.9-0.8-1.6c-2.2-4.4-3.8-6.1-6.6-6.9c-1.9-0.6-4.6,0.8-6.2,3.2
		c-0.7,1.1-1.7,3.1-1.7,3.5c0,0.2-0.1,0.3-0.2,0.3s-0.2,0.4-0.3,0.8c-0.1,0.4-0.2,0.9-0.3,1c-0.1,0.1-0.3,0.6-0.4,1
		c-0.2,0.8-0.8,1-1.2,0.5c-0.2-0.2-2-0.8-2.4-0.8c-0.2,0-0.5-0.1-0.6-0.2s-1.2-0.2-2.3-0.3c-1.2-0.1-2.1-0.2-2.1-0.3
		s-1.4-0.2-3.2-0.2s-3.2,0.1-3.2,0.2c0,0.1-1.4,0.2-3.2,0.3s-3.3,0.2-3.3,0.3c-0.1,0.1-1.1,0.2-2.4,0.3c-1.3,0.1-2.4,0.2-2.6,0.3
		c-0.2,0.1-0.8,0.2-1.3,0.2c-0.5,0-1,0.1-1,0.2s-1.2,0.2-2.7,0.3s-2.7,0.2-2.7,0.3s-1.9,0.2-4.2,0.2c-2.3,0-4.2-0.1-4.2-0.2
		s-0.9-0.2-1.9-0.3c-1.1-0.1-2-0.2-2-0.3c-0.1-0.1-0.4-0.2-0.8-0.2s-0.7-0.1-0.8-0.2c-0.1-0.1-0.5-0.2-1.1-0.3c-0.5-0.1-1-0.2-1-0.3
		s-0.3-0.2-0.6-0.3c-1.6-0.3-6-4.1-7.2-6.2c-0.3-0.5-0.7-1.2-1-1.5c-0.2-0.3-0.4-0.7-0.4-0.8s-0.1-0.3-0.1-0.3c-0.1,0-0.3-0.5-0.6-1
		s-0.5-1.1-0.6-1.3c-0.1-0.2-0.2-0.5-0.2-0.7s-0.1-0.4-0.2-0.5c-0.1-0.1-0.2-0.7-0.2-1.4c0-0.7,0.1-1.2,0.2-1.2s0.2-0.1,0.2-0.3
		c0-0.3,1.8-2.2,2.3-2.3c0.2-0.1,0.4-0.2,0.4-0.3s0.1-0.2,0.2-0.2s0.6-0.3,1.2-0.6c0.5-0.3,1.1-0.6,1.2-0.6s0.3-0.1,0.3-0.2
		s0.3-0.2,0.7-0.3s0.7-0.2,0.7-0.3s0.4-0.2,0.8-0.3c0.4-0.1,0.8-0.2,0.9-0.3c0.1-0.1,0.3-0.2,0.5-0.2s0.4-0.1,0.4-0.2s0.4-0.2,1-0.3
		c0.5-0.1,1-0.2,1-0.3c0-0.1,0.5-0.2,1.1-0.3c0.6-0.1,1.1-0.2,1.1-0.3s0.1-0.2,0.3-0.2c0.4,0,2.2-0.5,2.6-0.8
		c0.2-0.1,0.7-0.2,1.1-0.3c0.4-0.1,0.8-0.2,0.8-0.3s0.2-0.2,0.4-0.2c0.4,0,1.7-0.4,2.3-0.8c0.2-0.1,0.6-0.2,1-0.3
		c0.4-0.1,0.7-0.2,0.7-0.3s0.1-0.2,0.3-0.2c0.2,0,0.6-0.1,0.9-0.3c0.3-0.2,0.7-0.3,0.8-0.3c0.1,0,0.3-0.1,0.3-0.2
		c0-0.1,0.1-0.2,0.3-0.2c0.5,0,6.5-2.9,8.5-4.1c0.7-0.4,1.3-0.7,1.4-0.7c0.1,0,0.2-0.1,0.2-0.1c0-0.1,0.4-0.4,0.8-0.7
		c3.3-2.2,6-5.6,6.9-8.6c0.3-1,0.4-4.7,0.2-4.7c-0.1,0-0.2-0.2-0.3-0.5c-0.1-0.6-1.2-1.7-1.7-1.7c-0.2,0-0.4-0.1-0.4-0.2
		c-0.1-0.3-6.6-0.3-6.8,0c-0.1,0.1-0.6,0.3-1,0.3c-0.5,0.1-1,0.2-1,0.3s-0.3,0.2-0.6,0.2s-0.5,0.1-0.5,0.2c0,0.1-0.2,0.2-0.4,0.2
		c-0.2,0-0.7,0.1-1,0.3s-0.6,0.3-0.7,0.3c-0.2,0-5.8,2.7-5.9,2.9c-0.1,0.1-0.5,0.3-1.1,0.6c-0.5,0.2-1.2,0.6-1.4,0.8
		c-0.3,0.2-0.9,0.6-1.5,0.9c-2.1,1.2-2.4,1.3-2.5,1.4c-0.1,0.1-1.1,0.6-3.9,2.1c-0.9,0.5-1.8,1-1.8,1c0,0.1-0.2,0.1-0.3,0.1
		c-0.1,0-1,0.4-1.9,0.9c-0.9,0.5-1.8,0.9-2,0.9c-0.1,0-0.2,0.1-0.2,0.2c0,0.1-0.3,0.2-0.6,0.3c-0.3,0.1-0.6,0.2-0.7,0.3
		c-0.1,0.1-0.2,0.2-0.4,0.2s-0.8,0.3-1.5,0.6c-0.7,0.3-1.3,0.6-1.4,0.6c-0.1,0-0.4,0.1-0.7,0.3c-0.3,0.2-0.7,0.3-1,0.3
		s-0.5,0.1-0.5,0.2c-0.1,0.1-0.3,0.2-0.6,0.2s-0.5,0.1-0.5,0.2s-0.6,0.2-1.2,0.3c-0.7,0.1-1.2,0.2-1.2,0.3c0,0.2-3.6,0.2-3.7,0
		c-0.1-0.1-0.4-0.2-0.7-0.3c-0.7-0.1-1.7-1.1-1.7-1.6c0-0.7,1.6-3.2,2.6-4.2c0.7-0.6,2-1.7,2.3-1.9c0.2-0.1,0.4-0.2,0.4-0.3
		s0.4-0.3,0.8-0.5c0.4-0.2,0.7-0.4,0.7-0.5s0.1-0.1,0.2-0.1s0.6-0.2,1.1-0.4c1.4-0.6,1.6-0.7,2.3-1c0.4-0.1,0.9-0.4,1.2-0.5
		c0.3-0.1,1.2-0.4,2-0.7c0.8-0.2,1.6-0.5,1.8-0.6c0.2-0.1,0.5-0.2,0.7-0.2s0.4-0.1,0.4-0.2c0-0.1,0.4-0.2,1-0.3c0.5-0.1,1-0.2,1-0.3
		c0-0.1,0.2-0.2,0.4-0.2c0.4,0,1.9-0.5,2.8-0.9c0.3-0.2,0.8-0.3,1-0.3s0.4-0.1,0.4-0.2c0-0.1,0.2-0.2,0.5-0.2c0.5,0,1.4-0.3,2.7-0.9
		c0.3-0.2,0.7-0.3,0.9-0.3c0.2,0,0.3-0.1,0.4-0.2s0.4-0.2,0.8-0.3c0.4-0.1,1-0.3,1.4-0.5c0.4-0.2,1.1-0.5,1.5-0.7
		c1.2-0.5,4.4-2.1,4.5-2.2c0.1-0.1,0.4-0.3,0.8-0.5c0.4-0.2,0.7-0.4,0.7-0.5s0.1-0.2,0.3-0.2c0.1,0,0.4-0.1,0.5-0.2s0.8-0.6,1.4-1.1
		c5.7-4.3,7.6-11.2,3.2-11.9c-0.4-0.1-0.8-0.2-0.8-0.3c0-0.1-0.9-0.2-2.1-0.2s-2.1,0.1-2.1,0.2s-0.6,0.2-1.3,0.3
		c-0.7,0.1-1.3,0.2-1.3,0.3s-0.2,0.2-0.4,0.2s-0.7,0.1-1,0.3c-0.9,0.4-1.9,0.7-2.4,0.8c-0.2,0.1-0.4,0.2-0.4,0.3s-0.1,0.2-0.3,0.2
		c-0.5,0-6.1,2.7-8.5,4.1c-0.6,0.3-1.8,1-2.7,1.5c-0.9,0.5-1.7,0.9-1.7,1s-0.6,0.4-1.2,0.7c-1.9,1-2.5,1.3-2.6,1.4
		c-0.5,0.5-7.8,4.1-8.3,4.1c-0.1,0-0.3,0.1-0.4,0.2c-0.1,0.1-0.3,0.2-0.6,0.2s-0.5,0.1-0.5,0.2s-0.4,0.2-0.9,0.3
		c-0.5,0.1-1,0.2-1.1,0.3c-0.4,0.3-5.3,0.4-5.7,0.1c-0.9-0.8,2-3.8,5.4-5.8c1.4-0.8,1.6-0.9,1.9-0.9c0.1,0,0.2-0.1,0.2-0.2
		c0-0.1,0.1-0.2,0.3-0.2c0.2,0,0.6-0.1,0.9-0.3c0.3-0.2,0.7-0.3,0.8-0.3c0.1,0,0.3-0.1,0.3-0.2s0.3-0.2,0.7-0.3
		c0.4-0.1,0.8-0.2,0.9-0.3c0.1-0.1,0.5-0.2,0.9-0.3c0.4-0.1,0.9-0.2,1.1-0.3c0.2-0.1,0.5-0.3,0.7-0.4c0.2-0.1,0.8-0.2,1.2-0.3
		s0.9-0.2,1-0.3c0.1-0.1,0.5-0.2,1-0.3c0.4-0.1,0.9-0.2,1-0.3c0.1-0.1,0.6-0.2,1-0.3s0.9-0.2,0.9-0.3s0.3-0.2,0.6-0.2
		s0.5-0.1,0.6-0.2c0.1-0.1,0.5-0.2,1-0.3c0.5-0.1,0.9-0.2,0.9-0.3s0.3-0.2,0.7-0.3c0.4-0.1,0.8-0.2,1-0.3c0.7-0.3,1.7-0.8,1.9-0.8
		c0.1,0,0.4-0.1,0.6-0.2c0.8-0.4,2.9-1.4,3.1-1.4c0.1,0,0.2-0.1,0.3-0.1s0.7-0.4,1.4-0.8s1.4-0.7,1.4-0.8s0.1-0.2,0.2-0.2
		s0.5-0.2,0.9-0.5c0.4-0.3,0.7-0.5,0.8-0.5s0.3-0.1,0.3-0.3c0.1-0.2,0.2-0.3,0.3-0.3c0.7,0,3.8-3.6,3.8-4.3c0-0.2,0.1-0.3,0.2-0.4
		c0.3-0.1,0.4-3.7,0.1-4.8c-0.3-1.2-1.6-2.5-2.7-2.6c-0.4-0.1-0.8-0.2-0.8-0.3c0-0.2-4.9-0.2-5.1,0c-0.1,0.1-0.6,0.2-1.3,0.3
		c-1.1,0.1-2.4,0.5-2.6,0.7c-0.1,0.1-0.5,0.2-1.1,0.2c-0.5,0.1-1,0.2-1.1,0.3c-0.1,0.1-0.5,0.2-0.9,0.3c-0.4,0.1-0.9,0.2-0.9,0.3
		c-0.1,0.1-0.3,0.2-0.6,0.2s-0.5,0.1-0.5,0.2S156,95,155.5,95c-0.4,0.1-0.8,0.2-0.8,0.3s-0.1,0.2-0.3,0.2c-0.2,0-0.7,0.2-1.1,0.4
		c-0.4,0.2-0.8,0.4-0.9,0.4s-1.1,0.4-2.2,1s-2.1,1-2.2,1s-0.2,0.1-0.2,0.1c0,0.1-1,0.6-2.1,1.2c-2.1,1.1-3.5,1.8-3.6,2
		c-0.1,0.1-1,0.5-2,1.1c-1.1,0.5-2,1-2,1.1c-0.1,0.1-0.3,0.2-0.6,0.3s-0.5,0.2-0.5,0.3s-0.4,0.3-1,0.5c-0.5,0.2-1,0.4-1,0.5
		c0,0.1-0.1,0.2-0.2,0.2c-0.2,0-1.6,0.6-2.7,1.2c-0.4,0.2-0.8,0.4-0.9,0.4c-0.1,0-0.5,0.1-0.8,0.3c-0.3,0.2-1.2,0.5-1.9,0.7
		c-0.7,0.2-1.6,0.5-1.9,0.6c-0.6,0.2-3.2,0.2-3.2,0.1c0-1.1,5.7-6.7,6.9-6.7c0.1,0,0.2-0.1,0.2-0.2c0.1-0.2,4.5-2.4,4.8-2.4
		c0.1,0,0.5-0.1,0.9-0.3c0.4-0.2,1-0.4,1.3-0.6s0.8-0.3,0.9-0.3c0.2,0,0.3-0.1,0.3-0.2s0.4-0.2,0.8-0.3c0.4-0.1,0.8-0.2,0.8-0.3
		s0.6-0.3,1.2-0.5s1.2-0.4,1.2-0.5s0.1-0.2,0.3-0.2c0.2,0,0.6-0.1,0.9-0.3c0.3-0.2,0.8-0.3,1.1-0.4s0.6-0.2,0.7-0.3s0.3-0.2,0.5-0.2
		s0.4-0.1,0.4-0.2s0.3-0.2,0.6-0.3c0.3-0.1,0.8-0.2,1.1-0.4s0.6-0.3,0.8-0.3c0.1,0,0.2-0.1,0.2-0.2c0-0.1,0.1-0.2,0.2-0.2
		c0.4,0,4.2-2,6-3.1c3.1-2,5.6-4.4,6.3-6.3c0.1-0.4,0.4-0.9,0.4-1.1c0.7-1.7,0.7-5.3,0-5.3c-0.1,0-0.1-0.2-0.1-0.5
		c0-0.6-1.6-2.2-2.6-2.7c-0.4-0.2-0.9-0.4-1.1-0.6c-0.5-0.3-7.3-0.4-8.9-0.2c-2,0.3-2.6,0.4-2.8,0.6c-0.1,0.1-0.7,0.2-1.3,0.3
		c-0.6,0.1-1.1,0.2-1.2,0.3c-0.1,0.1-0.5,0.2-1.1,0.3c-0.5,0.1-1,0.2-1.1,0.3c-0.1,0.1-0.3,0.2-0.6,0.2s-0.5,0.1-0.6,0.2
		s-0.5,0.2-1,0.3s-0.9,0.2-0.9,0.3c0,0.1-0.4,0.2-1,0.3c-0.5,0.1-1,0.2-1,0.3s-0.6,0.3-1.2,0.5c-0.7,0.2-1.2,0.4-1.2,0.5
		c0,0.1-0.4,0.2-0.9,0.3c-0.5,0.1-0.9,0.2-0.9,0.3c0,0.1-0.3,0.2-0.6,0.3s-0.8,0.2-0.9,0.3c-0.8,0.4-1.7,0.8-2,0.8
		c-0.2,0-0.3,0.1-0.4,0.2s-0.4,0.2-0.7,0.3c-0.3,0.1-0.9,0.3-1.2,0.5c-0.3,0.2-0.9,0.4-1.3,0.5s-0.8,0.2-0.9,0.3s-0.6,0.2-1,0.3
		c-0.4,0.1-0.9,0.2-0.9,0.3s-0.3,0.2-0.7,0.2c-0.3,0-0.6,0.1-0.6,0.2c0,0.1-0.7,0.2-1.6,0.3s-1.5,0.2-1.5,0.3c0,0.1-0.8,0.2-1.7,0.2
		c-1,0-1.7-0.1-1.7-0.2s-0.2-0.2-0.3-0.2c-2.1,0,1.5-4,5.3-5.8c2.1-1,3.2-1.5,3.5-1.5c0.2,0,0.3-0.1,0.3-0.2c0-0.1,0.2-0.2,0.4-0.2
		c0.2,0,0.6-0.1,0.9-0.2c1.2-0.5,2.5-0.9,2.8-0.9c0.2,0,0.3-0.1,0.3-0.2c0-0.1,0.4-0.2,0.9-0.3c0.5-0.1,0.9-0.2,0.9-0.3
		c0-0.1,0.2-0.2,0.4-0.2c0.4,0,1.2-0.3,2.1-0.8c0.2-0.1,0.6-0.2,1-0.3c0.4-0.1,0.8-0.2,0.9-0.3c0.1-0.1,0.7-0.3,1.3-0.5
		c0.6-0.2,1.1-0.4,1.1-0.5s0.2-0.2,0.4-0.2c0.2,0,0.6-0.1,0.9-0.3c0.3-0.1,0.7-0.3,1.1-0.4c0.3-0.1,1-0.3,1.5-0.6
		c1.7-0.8,2.4-1.1,2.6-1.1c0.1,0,0.2-0.1,0.3-0.2s0.8-0.5,1.7-1c4.3-2.2,6.1-5.2,4.6-7.7c-0.6-0.9-4.8-1.4-6.6-0.7
		c-0.4,0.2-1,0.3-1.3,0.3c-0.3,0-0.5,0.1-0.5,0.2s-0.4,0.2-0.9,0.3c-0.5,0.1-0.9,0.2-0.9,0.3s-0.2,0.2-0.4,0.2s-0.7,0.1-1.1,0.3
		c-0.4,0.2-1,0.4-1.3,0.6s-0.7,0.3-0.9,0.3s-0.3,0.1-0.3,0.2c0,0.1-0.1,0.2-0.3,0.2c-0.4,0-1.7,0.6-1.8,0.8c0,0.1-0.2,0.2-0.3,0.2
		c-0.3,0-2.9,1.2-2.9,1.4c0,0.1-0.2,0.2-0.3,0.2s-1,0.4-1.9,0.8s-2.6,1.3-3.8,2c-1.2,0.6-2.2,1.2-2.3,1.3c0,0.1-0.1,0.2-0.2,0.2
		c-0.1,0-0.9,0.3-1.8,0.8c-0.9,0.4-1.8,0.8-2.1,0.9s-0.7,0.2-0.9,0.3c-0.7,0.3-2.5,0.8-3,0.8c-0.3,0-0.6,0.1-0.7,0.2
		c-0.1,0.1-0.8,0.2-1.6,0.2c-0.8,0-1.4-0.1-1.4-0.2s-0.2-0.2-0.5-0.2c-2.3,0-5.6-3.1-5.9-5.8c-0.1-0.4-0.2-0.9-0.3-0.9
		c-0.2-0.1-0.2-3.1,0-3.2c0.1-0.1,0.2-0.8,0.3-1.7c0.1-0.8,0.2-1.6,0.3-1.6c0.1,0,0.2-0.5,0.3-1c0.1-0.5,0.2-1.1,0.3-1.3
		c0.4-0.9,0.5-1.1,0.5-1.3c0-0.4,2.8-6.3,3.2-6.7c0.1-0.1,0.3-0.5,0.5-0.8c0.1-0.3,0.3-0.6,0.4-0.6s0.2-0.1,0.2-0.3s0.2-0.5,0.5-0.8
		c0.3-0.3,0.5-0.6,0.5-0.7c0-0.1,0.5-0.8,1.1-1.5c0.6-0.8,1.3-1.7,1.5-2c2.8-3.7,7.1-8.2,10.8-11.3c0.3-0.2,0.9-0.8,1.2-1.1
		s0.7-0.6,0.8-0.6c0.1,0,0.3-0.2,0.6-0.4c0.3-0.2,1.2-0.9,2-1.5c0.8-0.6,1.6-1.2,1.7-1.2c1.5-1.1,5.3-3.5,5.6-3.5
		c0.1,0,0.2-0.1,0.3-0.1c0.1-0.3,6.4-3.5,9.3-4.7c0.2-0.1,0.8-0.3,1.3-0.6c0.5-0.2,0.9-0.4,1-0.4c0.1,0,0.6-0.2,1.1-0.5
		c0.6-0.3,1.2-0.5,1.3-0.5s0.3-0.1,0.4-0.2c0.1-0.1,0.2-0.2,0.4-0.2s0.6-0.1,0.9-0.3c0.9-0.4,1.9-0.7,2.4-0.9
		c0.2-0.1,0.4-0.2,0.4-0.2s0.4-0.2,0.9-0.3s0.9-0.2,1-0.3c0.1-0.1,0.5-0.2,1-0.3c0.5-0.1,0.9-0.2,0.9-0.3s0.2-0.2,0.5-0.2
		s0.5-0.1,0.5-0.2s0.4-0.2,0.9-0.3c0.5-0.1,1-0.2,1.1-0.3c0.1-0.1,0.5-0.2,1-0.3c0.5-0.1,0.9-0.2,1-0.3s0.3-0.2,0.5-0.2
		s0.4-0.1,0.4-0.2c0-0.1,0.4-0.2,1-0.3c0.5-0.1,1.1-0.2,1.2-0.3c0.1-0.1,0.6-0.2,1.1-0.3c0.5-0.1,0.9-0.2,1.1-0.3
		c0.2-0.2,2-0.6,3-0.8c0.4-0.1,0.7-0.2,0.7-0.3c0-0.1,0.5-0.2,1.1-0.3c0.6-0.1,1.1-0.2,1.1-0.3c0-0.1,0.5-0.2,1.1-0.3
		c0.6-0.1,1.2-0.2,1.3-0.3c0.1-0.1,0.5-0.2,0.9-0.2s0.7-0.1,0.7-0.2s0.6-0.2,1.4-0.3c0.8-0.1,1.5-0.2,1.5-0.3s0.8-0.2,1.6-0.3
		c0.9-0.1,1.6-0.2,1.6-0.3c0.1-0.1,0.5-0.2,0.9-0.2c0.5,0,0.9-0.1,0.9-0.2s1.1-0.2,2.4-0.3c1.3-0.1,2.3-0.2,2.3-0.3
		c0-0.1,1.4-0.2,3.1-0.2s3.1,0.1,3.1,0.2c0,0.1,0.6,0.2,1.3,0.3s1.4,0.2,1.5,0.3c0.1,0.1,0.7,0.3,1.3,0.5c0.6,0.2,1.1,0.4,1.1,0.5
		c0,0.1,0.1,0.2,0.3,0.2c0.8,0,3,2.8,3,3.8c0,0.2,0.1,0.4,0.2,0.5c0.2,0.1,0.3,4.9,0,5.2c-0.1,0.1-0.2,0.6-0.3,1
		c-0.1,0.5-0.2,0.8-0.3,0.8c-0.1,0-0.2,0.1-0.2,0.3c0,0.4-1.1,2.7-1.5,3.1c-0.1,0.1-0.2,0.3-0.2,0.4c0,0.2-1.5,2.7-1.7,2.9
		c-0.1,0-0.3,0.4-0.6,0.9c-1.7,2.5-4.3,5.3-10.8,11.7c-2.7,2.6-4.1,4.1-4.6,5c-0.2,0.3-0.4,0.6-0.4,0.6c-0.7,0.7-1.9,3.3-1.9,4.1
		c0,0.4-0.1,0.7-0.2,0.7c-0.1,0-0.2,0.4-0.2,0.9s0.1,0.9,0.2,0.9s0.2,0.2,0.2,0.4c0,0.8,0.6,1.7,1.5,2.1c1,0.5,4.7,0.7,5.6,0.2
		c0.2-0.1,0.9-0.4,1.5-0.6c0.6-0.2,1-0.4,1-0.5c0-0.1,0.3-0.2,0.7-0.3s0.7-0.2,0.7-0.3s0.4-0.3,0.9-0.5s0.9-0.5,0.9-0.5
		c0-0.1,0.1-0.2,0.3-0.2s0.6-0.3,1.1-0.6c0.4-0.3,0.9-0.6,1-0.6s0.2-0.1,0.2-0.1c0-0.1,0.5-0.5,1.1-0.8s1-0.7,1-0.8
		c0-0.1,0.1-0.2,0.3-0.2c0.1,0,0.4-0.1,0.5-0.2s0.7-0.5,1.2-0.9c0.5-0.4,1-0.7,1.1-0.8s0.7-0.5,1.5-1.1c0.8-0.5,1.5-1,1.5-1.1
		c0.2-0.2,0.9-0.6,1.2-0.7c0.2-0.1,0.3-0.2,0.3-0.3s0.1-0.2,0.3-0.2c0.1,0,0.4-0.1,0.5-0.2s0.9-0.5,1.6-0.9s1.4-0.7,1.4-0.8
		c0.1-0.1,0.4-0.2,0.8-0.3c0.4-0.1,0.7-0.2,0.7-0.3c0-0.1,0.5-0.2,1.1-0.3s1.1-0.2,1.2-0.3c0.7-1.1,4.2,0.7,3.8,2
		c-0.2,0.6-0.7,1.7-1,2c-0.1,0.1-0.2,0.3-0.2,0.4c0,0.1-1,1.2-2.8,2.8c-0.4,0.4-3.4,2.4-3.6,2.4c-0.1,0-0.2,0.1-0.2,0.2
		s-0.2,0.2-0.4,0.3c-0.2,0.1-0.5,0.2-0.5,0.2c-0.2,0.2-5.4,2.9-5.7,2.9c-0.1,0-0.2,0.1-0.2,0.2c0,0.1-0.1,0.2-0.2,0.2
		c-0.1,0-1,0.4-2,0.9s-1.9,0.9-2,0.9s-0.2,0.1-0.2,0.2c0,0.1-0.1,0.2-0.2,0.2c-0.3,0-2.5,1.1-2.6,1.3c-0.1,0.1-0.3,0.2-0.5,0.3
		c-0.6,0.2-3.3,2-3.9,2.6c-0.3,0.3-0.6,0.6-0.8,0.7c-0.8,0.7-1.4,1.5-2.1,3c-0.2,0.5-0.2,3,0,3c0.1,0,0.2,0.2,0.2,0.4
		c0.1,1,0.9,1.2,3.9,1.2c2.1,0,2.8-0.1,2.9-0.2c0.1-0.1,0.3-0.2,0.6-0.2c0.3,0,0.8-0.1,1.2-0.3c0.4-0.2,1-0.4,1.3-0.6
		c0.3-0.2,0.7-0.3,0.9-0.3s0.3-0.1,0.3-0.2c0-0.1,0.3-0.2,0.7-0.3s0.7-0.2,0.7-0.3c0-0.1,0.1-0.2,0.2-0.2c0.2,0,5.7-2.7,5.9-2.9
		c0.1-0.1,0.4-0.3,0.9-0.5c0.4-0.2,0.8-0.4,0.9-0.5s0.4-0.3,0.8-0.5c1.3-0.7,1.8-1,2.1-1.2c0.1-0.1,0.4-0.2,0.5-0.2s0.3-0.1,0.3-0.2
		c0-0.1,0.1-0.2,0.2-0.2s1.2-0.6,2.4-1.3c1.2-0.7,2.3-1.3,2.4-1.3c0.1,0,0.2-0.1,0.2-0.1c0.1-0.2,4.4-2.4,4.6-2.4
		c0.1,0,0.4-0.1,0.7-0.3c1.4-0.7,3.8-0.8,4.2-0.1c0.4,0.6-0.1,2.1-1,3.1c-0.2,0.2-0.4,0.5-0.4,0.6c0,0.2-4.3,4.5-4.9,5
		c-0.2,0.2-1.1,0.8-1.8,1.4c-0.8,0.6-1.8,1.3-2.2,1.6c-0.4,0.3-0.9,0.6-1,0.8c-0.1,0.2-0.4,0.3-0.5,0.3c-0.1,0-0.3,0.1-0.3,0.1
		c0,0.1-0.5,0.4-1.1,0.8c-0.6,0.4-1.1,0.7-1.1,0.8s-0.1,0.2-0.3,0.2c-0.1,0-0.4,0.1-0.5,0.2c-0.1,0.1-0.4,0.3-0.6,0.5
		c-2.6,1.6-4.2,2.7-4.3,2.8c0,0.1-0.2,0.2-0.3,0.2c-0.2,0-1.8,1-2.4,1.4c-0.1,0.1-0.9,0.6-1.8,1.2c-0.9,0.6-1.8,1.3-2.1,1.5
		c-1.3,1.1-3.2,3.2-3.5,3.8c-0.2,0.4-0.4,0.9-0.6,1.2c-0.9,1.9,0,5.3,1.5,5.6c0.3,0.1,0.7,0.2,0.7,0.3c0.1,0.2,4.3,0.2,4.3,0
		c0-0.1,0.5-0.2,1.1-0.3s1.1-0.2,1.2-0.3s0.2-0.2,0.4-0.2c0.3,0,0.6-0.1,2.8-1.1c2.4-1.1,5.9-3,7.3-3.9c0.6-0.4,1.1-0.8,1.2-0.8
		c0.1,0,3.2-2,3.5-2.3c0.1-0.1,0.3-0.2,0.3-0.2c0.1,0,1.9-1.2,2-1.4c0.1-0.1,0.4-0.3,0.8-0.5c0.4-0.2,0.9-0.6,1.1-0.8
		c0.2-0.2,1-0.8,1.8-1.3c0.8-0.5,1.6-1.1,1.7-1.2c0.1-0.1,0.3-0.2,0.4-0.2c0.1,0,0.3-0.2,0.5-0.3c0.2-0.2,0.7-0.6,1.1-0.8
		c0.4-0.3,0.8-0.5,0.9-0.6s0.4-0.3,0.8-0.5c0.4-0.2,0.7-0.4,0.8-0.5c0.1-0.1,0.4-0.3,0.8-0.5c1.3-0.7,1.8-1,1.9-1.1
		c0.1-0.1,0.4-0.2,0.7-0.3s0.6-0.2,0.6-0.3s0.4-0.2,0.9-0.3c0.5-0.1,0.9-0.2,1-0.3c0.2-0.4,1.6-0.2,2.2,0.4c0.6,0.5,0.8,1,0.4,1
		c-0.1,0-0.2,0.3-0.3,0.6c-0.2,1.2-2,3.2-4.5,5.2c-1.3,1.1-4.9,3.5-5.1,3.5c-0.1,0-0.4,0.2-0.8,0.5c-0.4,0.3-0.7,0.5-0.8,0.5
		c-0.1,0-0.3,0.1-0.5,0.2c-0.1,0.1-0.6,0.4-1,0.6s-0.8,0.4-0.9,0.5s-0.5,0.3-1.1,0.6c-0.5,0.3-1,0.5-1.1,0.6
		c-0.1,0.1-2.8,1.5-6.6,3.4c-1.2,0.6-2.1,1.1-2.2,1.2c0,0.1-0.1,0.2-0.3,0.2c-0.3,0-1.4,0.6-2.8,1.3c-0.6,0.4-1.5,0.9-1.9,1.1
		s-0.7,0.4-0.7,0.5s-0.1,0.2-0.3,0.2s-0.5,0.2-0.7,0.4c-0.2,0.2-0.5,0.4-0.6,0.4c-0.1,0-0.4,0.2-0.7,0.5c-0.3,0.3-0.6,0.5-0.7,0.5
		c-0.7,0-3.5,3.6-3.5,4.5c0,0.2-0.1,0.4-0.2,0.4c-0.4,0.2-0.2,2.4,0.3,3.3c0.4,0.8,1.6,1.6,2.3,1.6c0.2,0,0.5,0.1,0.6,0.2
		c0.3,0.3,4.9-0.1,4.9-0.4c0-0.1,0.5-0.2,1.1-0.3c0.6-0.1,1.1-0.2,1.1-0.3c0-0.1,0.4-0.2,1-0.3c0.5-0.1,1-0.2,1-0.3s0.2-0.2,0.5-0.2
		s0.5-0.1,0.5-0.2s0.3-0.2,0.7-0.3s0.9-0.2,1.2-0.4s0.6-0.3,0.7-0.3c0.3,0,1.2-0.5,1.2-0.6c0-0.1,0.2-0.1,0.4-0.1
		c0.2,0,0.7-0.2,1.1-0.4c0.4-0.2,0.9-0.4,1.1-0.4c0.2,0,0.3-0.1,0.3-0.2c0-0.1,0.1-0.2,0.2-0.2c0.3,0,7.7-3.7,7.8-3.9
		c0-0.1,0.1-0.2,0.3-0.2c0.2,0,1.9-0.8,2.1-1c0.1-0.2,4.6-2.3,4.8-2.3c0.1,0,0.2-0.1,0.2-0.2s0.1-0.2,0.3-0.2c0.2,0,0.6-0.1,0.9-0.3
		c0.3-0.2,0.9-0.3,1.3-0.4l0.8-0.1l-0.4,0.4c-0.6,0.8-2.5,2.6-2.9,2.9c-0.2,0.2-0.8,0.6-1.2,0.9s-1,0.7-1.2,0.9
		c-0.2,0.2-0.5,0.4-0.6,0.5c-0.1,0.1-0.5,0.4-0.9,0.6s-0.8,0.5-0.9,0.6s-0.4,0.2-0.5,0.2s-0.3,0.1-0.3,0.2c0,0.1-0.1,0.2-0.2,0.2
		c-0.1,0-0.5,0.2-0.9,0.5c-1,0.7-3.4,1.9-6.9,3.8c-0.7,0.4-1.3,0.7-1.3,0.8s-0.5,0.3-1,0.5c-5.8,2.9-11.5,7.4-13.1,10.4
		c-0.2,0.4-0.4,0.7-0.5,0.8c-0.1,0-0.1,0.2-0.1,0.4s-0.1,0.6-0.3,0.9c-0.3,0.6-0.4,4.4-0.1,4.4c0.1,0,0.2,0.2,0.3,0.5
		c0.1,0.7,1,1.5,2.2,2.1c1.2,0.6,9.2,0.8,9.8,0.3c0.1-0.1,0.8-0.3,1.4-0.3c0.6-0.1,1.1-0.2,1.2-0.3c0.1-0.1,0.4-0.2,0.7-0.2
		s0.6-0.1,0.7-0.2c0.1-0.1,0.5-0.2,1.1-0.3c0.5-0.1,1-0.2,1.1-0.3c0.1-0.1,0.5-0.2,1-0.3c0.5-0.1,0.9-0.2,0.9-0.3
		c0-0.1,0.2-0.2,0.5-0.2c0.3,0,0.5-0.1,0.5-0.2s0.2-0.2,0.4-0.2c0.2,0,0.6-0.1,0.9-0.3s0.8-0.3,1.1-0.4c0.8-0.2,1.7-0.6,1.7-0.7
		c0-0.1,0.4-0.2,1-0.3c0.5-0.1,1-0.2,1-0.3c0-0.1,0.4-0.2,0.9-0.3c0.5-0.1,1-0.2,1.2-0.3c0.4-0.2,1.9-0.6,2.8-0.7
		c0.4-0.1,0.9-0.2,0.9-0.3c0.3-0.2,5.5-0.2,5.5,0c0,0.1,0.2,0.2,0.4,0.2c1.1,0,3.8,1.8,4.5,3.1c0.2,0.3,0.4,0.5,0.4,0.5
		c0.1,0,0.2,0.3,0.3,0.6c0.1,0.3,0.2,0.6,0.3,0.6s0.2,0.5,0.3,1.1s0.2,1.3,0.3,1.5c0.4,0.8-0.2,7.6-0.6,7.6c-0.1,0-0.2,0.2-0.2,0.5
		s-0.1,0.8-0.3,1.2c-0.2,0.4-0.4,0.9-0.4,1.1c-0.2,0.6-1,2.3-1.2,2.7c-0.1,0.2-0.5,0.9-0.8,1.4c-1.5,2.8-5.6,7.7-8.2,9.6
		c-0.5,0.4-1,0.8-1.1,0.9s-0.5,0.4-0.9,0.6s-0.7,0.4-0.7,0.5s-0.1,0.1-0.2,0.1s-0.5,0.2-0.9,0.5s-1,0.5-1.2,0.6s-0.5,0.2-0.5,0.3
		c0,0.1-0.1,0.2-0.3,0.2c-0.2,0-0.6,0.1-0.9,0.3c-0.3,0.2-0.7,0.3-0.8,0.3c-0.1,0-0.3,0.1-0.3,0.2c0,0.1-0.7,0.2-1.6,0.3
		c-0.9,0.1-1.7,0.2-1.7,0.3c-0.1,0.2-3.1,0.2-3.1,0c0-0.1-0.6-0.2-1.3-0.3c-0.7-0.1-1.3-0.2-1.3-0.3s-0.2-0.2-0.4-0.2
		s-0.6-0.1-0.9-0.3c-0.3-0.1-0.9-0.4-1.3-0.6c-0.4-0.2-0.8-0.4-0.8-0.5c0-0.1-0.2-0.1-0.3-0.1s-0.6-0.3-1.2-0.6
		c-1.1-0.7-1-0.6-2.5-1.8c-0.6-0.5-1.3-1.1-1.5-1.2c-0.5-0.4-4.9-4.8-5.4-5.4c-0.2-0.3-0.7-0.9-1-1.4c-0.4-0.5-0.7-1-0.8-1.1
		c-0.2-0.2-2.3-3.5-2.3-3.6c0-0.1-0.1-0.3-0.2-0.4s-0.8-1.3-1.4-2.5c-0.6-1.2-1.2-2.3-1.3-2.3c-0.1,0-0.1-0.1-0.1-0.2
		s-0.4-1-0.9-1.9c-0.5-0.9-0.9-1.8-0.9-2s-0.1-0.3-0.2-0.3c-0.1,0-0.2-0.1-0.2-0.2c0-0.3-1.2-2.8-1.4-2.8c-0.1,0-0.1-0.2-0.1-0.3
		s-0.3-0.8-0.6-1.4s-0.6-1.3-0.6-1.4s-0.1-0.2-0.2-0.2c-0.1,0-0.2-0.1-0.2-0.2s-0.1-0.5-0.3-0.9c-1.3-2.9-1.6-3.7-2.2-4.9
		c-0.2-0.5-0.5-1.1-0.6-1.3c-0.1-0.2-0.2-0.5-0.2-0.6s-0.1-0.3-0.2-0.3c-0.1,0-0.2-0.3-0.3-0.6s-0.2-0.6-0.3-0.7
		c-0.1-0.1-0.2-0.2-0.2-0.4c0-0.2-0.9-2.4-1.3-3.2c-0.1-0.2-0.2-0.6-0.3-0.9c-0.1-0.3-0.2-0.6-0.3-0.6c-0.1,0-0.2-0.2-0.2-0.4
		c0-0.2-0.1-0.4-0.2-0.4c-0.1,0-0.2-0.2-0.2-0.3c0-0.2-0.1-0.6-0.3-0.8c-0.1-0.3-0.3-0.8-0.4-1.1c-0.1-0.3-0.2-0.6-0.3-0.6
		c-0.1,0-0.5-1-0.7-1.9c-0.1-0.2-0.2-0.4-0.3-0.4c-0.1,0-0.2-0.1-0.2-0.3c0-0.3-0.6-1.7-1-2.4c-0.1-0.2-0.2-0.5-0.2-0.6
		c0-0.2-0.1-0.3-0.2-0.3s-0.2-0.3-0.3-0.7c-0.1-0.4-0.2-0.7-0.3-0.7c-0.1,0-0.2-0.2-0.2-0.3c0-0.2-0.1-0.6-0.3-0.9
		c-0.2-0.3-0.3-0.7-0.3-0.8s-0.1-0.3-0.2-0.3c-0.1,0-0.2-0.1-0.2-0.2c0-0.3-0.4-1.2-2.4-5.4c-0.5-1-0.9-2-0.9-2.1S186.1,79,186,79
		c-0.1,0-0.2-0.3-0.3-0.6s-0.2-0.6-0.3-0.6c-0.1,0-0.3-0.4-0.5-1c-0.2-0.5-0.4-1-0.5-1s-0.2-0.2-0.3-0.5c-0.1-0.3-0.2-0.6-0.3-0.6
		c-0.1-0.1-0.4-0.7-0.8-1.4c-0.4-0.7-0.7-1.4-0.8-1.4c-0.1-0.1-0.3-0.4-0.5-0.9c-0.2-0.4-0.4-0.8-0.5-0.9s-0.3-0.5-0.6-1.1
		c-0.3-0.5-0.5-1-0.6-1.1c-0.1-0.1-0.5-0.8-1.1-1.9c-0.2-0.4-0.4-0.7-0.4-0.8c-0.1-0.1-0.3-0.4-0.5-0.8c-0.2-0.4-0.4-0.7-0.5-0.7
		c-0.1,0-0.1-0.1-0.1-0.3c0-0.2-0.1-0.4-0.2-0.5s-0.4-0.6-0.6-0.9s-0.5-0.8-0.6-0.9c-0.1-0.1-0.2-0.4-0.2-0.5c0-0.2-0.1-0.3-0.2-0.3
		s-0.2-0.2-0.3-0.3s-0.7-1.2-1.4-2.2c-0.7-1-1.4-2-1.5-2.2c-0.1-0.2-0.5-0.7-0.8-1.1c-0.3-0.4-0.5-0.8-0.5-0.9s-0.1-0.2-0.1-0.2
		c-0.1,0-0.6-0.7-1.1-1.5c-0.5-0.8-1.1-1.6-1.2-1.7c-0.1-0.1-0.2-0.3-0.2-0.4s-0.1-0.3-0.3-0.5c-0.2-0.2-0.4-0.5-0.5-0.7
		c-1.1-1.6-2.1-3.1-2.2-3.3c-0.1-0.1-0.3-0.4-0.5-0.6s-0.8-1.2-1.4-2.2c-1.4-2.2-2.3-4-2.3-4.5c0-0.2-0.1-0.4-0.2-0.4
		c-0.3-0.2-0.2-2.6,0.1-3.2c0.3-0.6,3-3.4,3.3-3.4c0.1,0,0.4-0.3,0.8-0.6c0.9-0.8,0.9-0.8,2.1-1.5c0.6-0.4,1.1-0.7,1.1-0.8
		c0.1-0.1,0.3-0.2,0.5-0.3c0.2-0.1,1.4-0.9,2.7-1.7c1.3-0.8,2.4-1.5,2.5-1.5c0.1,0,0.2-0.1,0.2-0.1c0-0.1,0.4-0.3,0.7-0.5
		c0.4-0.2,1.3-0.7,2.1-1.1c2.3-1.2,6.7-3.4,7-3.4c0.1,0,0.4-0.2,0.8-0.4c0.8-0.5,1.1-3.2,0.3-3.2c-0.2,0-0.4-0.1-0.5-0.2
		c-0.1-0.1-0.5-0.2-1-0.2s-0.9,0.1-0.9,0.2s-0.1,0.2-0.3,0.2c-0.6,0-8.6,3.9-9.1,4.4c-0.1,0-0.7,0.4-1.4,0.8s-1.3,0.7-1.3,0.8
		c0,0.1-0.1,0.1-0.2,0.1c-0.3,0-5.6,3.3-5.7,3.5c0,0.1-0.1,0.2-0.2,0.2c-0.1,0-1.9,1.1-2.1,1.4c-0.1,0.1-0.5,0.4-1,0.8
		c-2.2,1.7-3.6,3.2-3.6,3.8c0,0.1-0.1,0.2-0.2,0.2c-0.1,0-0.2,0.3-0.3,0.7c-0.1,0.4-0.2,0.7-0.3,0.8c-0.1,0.1-0.2,0.4-0.2,0.7
		c0,0.3-0.1,0.6-0.2,0.6c-0.1,0-0.2,0.7-0.2,1.6c0,1,0.1,1.6,0.2,1.6s0.2,0.3,0.2,0.8c0,0.4,0.1,0.8,0.2,0.8s0.2,0.3,0.3,0.7
		c0.1,0.8,2,4.5,2.7,5.4c0.3,0.3,0.5,0.7,0.5,0.8s0.1,0.2,0.2,0.4c0.3,0.3,0.6,0.7,0.8,1.1c0.4,0.6,2.1,3.1,2.2,3.2
		c0.1,0,0.5,0.8,1.1,1.5c0.5,0.8,1,1.5,1.1,1.5c0.1,0,0.5,0.8,1.1,1.5c0.5,0.8,1,1.5,1.1,1.5c0.1,0,0.1,0.1,0.1,0.2
		c0,0.2,2.1,3.3,2.3,3.5c0.1,0,0.2,0.3,0.3,0.5c0.1,0.2,0.2,0.4,0.3,0.4c0.1,0,0.2,0.1,0.2,0.2c0,0.1,1.4,2.4,1.9,3
		c0.3,0.4,0.6,0.9,0.8,1.2c0.1,0.2,0.2,0.4,0.4,0.5s0.2,0.4,0.2,0.5s0.1,0.3,0.2,0.3s0.2,0.2,0.3,0.4c0.1,0.2,0.3,0.6,0.4,0.8
		s0.6,0.9,0.9,1.5c0.7,1.4,1.5,2.9,2.4,4.3c0.3,0.6,0.9,1.7,1.3,2.5c0.4,0.8,0.8,1.5,0.9,1.5c0.1,0,0.1,0.2,0.1,0.3s0.7,1.7,1.6,3.5
		c0.9,1.8,1.6,3.4,1.6,3.6s0.1,0.2,0.2,0.2c0.1,0,0.2,0.2,0.2,0.3c0,0.2,0.2,0.8,0.6,1.5c0.3,0.6,0.7,1.5,0.9,1.9
		c0.5,1.2,0.6,1.5,1.3,2.9c0.3,0.7,0.7,1.5,0.8,1.7c0.1,0.2,0.2,0.4,0.2,0.6s0.1,0.5,0.3,0.9c0.3,0.8,0.4,1,1,2.4
		c0.2,0.5,0.5,1.1,0.6,1.3s0.2,0.6,0.3,0.9c0.1,0.3,0.2,0.7,0.3,0.7c0.1,0.1,0.2,0.3,0.2,0.5s0.1,0.4,0.2,0.4c0.1,0,0.2,0.3,0.3,0.6
		c0.1,0.3,0.2,0.8,0.3,0.9c0.1,0.2,0.4,0.9,0.8,1.7c0.3,0.7,0.7,1.5,0.8,1.7c0.1,0.2,0.2,0.6,0.3,0.9c0.1,0.3,0.2,0.6,0.3,0.6
		c0.1,0,0.2,0.2,0.2,0.4c0,0.2,0.1,0.4,0.2,0.5c0.1,0.1,0.2,0.4,0.3,0.7s0.2,0.6,0.3,0.6c0.1,0,0.2,0.1,0.2,0.3
		c0,0.2,0.2,0.8,0.5,1.4c0.3,0.6,0.7,1.6,1,2.2c0.8,1.7,1.5,3.3,2.4,5.2c0.5,1,0.9,2,0.9,2.1c0,0.1,0.1,0.2,0.2,0.2
		c0.1,0,0.2,0.1,0.2,0.2c0,0.2,4.2,8.8,4.4,9c0.1,0.1,0.4,0.7,0.8,1.4c0.4,0.7,0.7,1.3,0.8,1.3c0.1,0,0.1,0.1,0.1,0.3
		c0,0.2,1.9,3.4,2.6,4.2c1.8,2.3,2.5,3.1,4.2,4.7c4.1,4.1,8.9,7.5,11.3,7.9c0.4,0.1,0.7,0.2,0.7,0.3s0.2,0.2,0.4,0.2
		s0.5,0.1,0.6,0.2s0.7,0.2,1.3,0.3c0.6,0.1,1.1,0.2,1.1,0.3s1.6,0.2,3.4,0.2s3.4-0.1,3.4-0.2c0-0.1,0.5-0.2,1.2-0.3
		c0.6-0.1,1.3-0.2,1.4-0.3s0.4-0.2,0.6-0.2s0.4-0.1,0.4-0.2c0-0.1,0.2-0.2,0.4-0.2s0.7-0.1,1.1-0.3c1.9-0.8,2.1-1,2.1-1.1
		c0-0.1,0.3-0.2,0.6-0.3c0.3-0.1,0.6-0.2,0.6-0.3c0-0.1,0.2-0.2,0.5-0.3c0.3-0.1,0.5-0.2,0.5-0.3c0-0.1,0.1-0.2,0.2-0.2
		c0.7,0,7.8-6.5,7.8-7.1c0-0.1,0.1-0.3,0.2-0.4c0.6-0.6,1.5-1.9,1.5-2.1c0-0.1,0.1-0.2,0.2-0.2s0.2-0.2,0.3-0.5
		c0.1-0.3,0.2-0.5,0.3-0.5s0.3-0.3,0.5-0.7c0.2-0.4,0.4-0.8,0.5-0.8c0.1-0.1,0.9-1.6,1.6-3.3c0.2-0.4,0.3-0.8,0.3-1s0.1-0.3,0.1-0.3
		c0.1,0,0.3-0.5,0.5-1.2c0.2-0.7,0.4-1.4,0.5-1.6s0.2-0.9,0.3-1.5c0.1-0.6,0.2-1.2,0.3-1.3c0.2-0.1,0.2-8.4,0-8.4
		c-0.1,0-0.2-0.4-0.3-0.9c-0.1-0.8-1-3.2-1.3-3.5c-0.1-0.1-0.2-0.3-0.4-0.6c-0.5-1-3.1-3.2-3.8-3.2c-0.1,0-0.2-0.1-0.2-0.2
		c0-0.2-1.1-0.6-2-0.8c-0.3-0.1-0.6-0.2-0.7-0.3c-0.2-0.3-8-0.3-8.6,0c-0.4,0.2-1.8,0.5-3.2,0.8c-0.3,0.1-0.6,0.2-0.6,0.3
		s-0.4,0.2-1,0.3c-0.5,0.1-1,0.2-1,0.3s-0.2,0.2-0.4,0.2c-0.2,0-0.7,0.1-1,0.3s-0.7,0.3-0.9,0.3s-0.4,0.1-0.4,0.2s-0.3,0.2-0.7,0.3
		s-1,0.2-1.3,0.4c-0.3,0.2-0.7,0.3-0.8,0.3c-0.1,0-0.4,0.1-0.6,0.2c-0.2,0.1-0.5,0.3-0.7,0.4c-0.2,0.1-0.8,0.2-1.2,0.3
		s-0.9,0.2-0.9,0.3c0,0.1-0.4,0.2-1,0.3c-0.5,0.1-1,0.2-1,0.3c0,0.1-0.3,0.2-0.6,0.2c-1.3,0.2-2.9,0.6-3.4,0.8
		c-0.6,0.3-5.9,0.3-6.1,0c-0.1-0.1-0.3-0.2-0.4-0.3c-2.1-0.8,1.7-5.9,6.8-9.1c0.3-0.2,0.6-0.4,0.7-0.5c0.1-0.1,0.4-0.3,0.8-0.5
		c0.4-0.2,0.7-0.4,0.8-0.5c0.1-0.1,0.4-0.3,0.8-0.5c1.1-0.6,1.8-1,1.9-1.1c0.1-0.1,0.6-0.4,4.1-2.2c0.8-0.4,1.9-1,2.4-1.3
		c0.9-0.5,1.9-1.1,3.7-2.1c0.6-0.3,1.2-0.7,1.2-0.8c0.1-0.1,0.4-0.3,0.8-0.5c0.4-0.2,0.7-0.4,0.7-0.5s0.1-0.2,0.2-0.2
		c0.1,0,0.5-0.2,0.9-0.5s0.9-0.7,1.2-0.8c0.2-0.2,0.5-0.4,0.6-0.5s0.6-0.4,1-0.8c1.2-0.9,3.6-3.4,4-4.3c0.2-0.4,0.4-0.8,0.5-0.8
		c0.1,0,0.1-0.2,0.1-0.4s0.1-0.4,0.2-0.5c0.1-0.1,0.2-0.7,0.2-1.4c0-0.7-0.1-1.2-0.2-1.2s-0.2-0.2-0.2-0.3c0-0.5-0.7-1.2-1.2-1.2
		c-0.2,0-0.4-0.1-0.4-0.2c0-0.2-3.8-0.3-3.9,0c-0.1,0.1-0.5,0.2-1.1,0.3s-1,0.2-1.1,0.3c-0.1,0.1-0.2,0.2-0.4,0.2s-0.8,0.2-1.4,0.5
		c-3.3,1.6-4.7,2.3-4.8,2.4c0,0.1-0.2,0.2-0.3,0.2c-0.2,0-2.6,1.1-2.8,1.4c-0.2,0.2-6.8,3.5-7.1,3.5c-0.1,0-0.2,0.1-0.2,0.2
		c0,0.1-0.1,0.2-0.3,0.2c-0.2,0-0.9,0.3-1.5,0.6s-1.3,0.6-1.4,0.6c-0.1,0-0.2,0.1-0.2,0.2c0,0.1-0.4,0.2-0.8,0.3s-0.8,0.2-0.8,0.3
		c0,0.1-0.4,0.2-0.8,0.3s-0.8,0.2-0.8,0.3s-0.2,0.2-0.5,0.2s-0.5,0.1-0.5,0.2s-0.4,0.2-0.9,0.3s-0.9,0.2-1,0.3
		c-0.1,0.1-0.6,0.2-1.2,0.3s-1.1,0.2-1.1,0.3c0,0.1-0.6,0.2-1.3,0.2c-0.8,0-1.3-0.1-1.3-0.2c0-0.2,2.9-3.3,3.1-3.3
		c0.2,0,1.9-1.2,2-1.4c0-0.1,0.1-0.2,0.3-0.2c0.1,0,0.6-0.3,1.2-0.6c1-0.6,3.6-2,6.5-3.5c0.8-0.4,1.6-0.8,1.6-0.9
		c0-0.1,0.2-0.2,0.3-0.2c0.2,0,2.6-1.2,2.8-1.3c0.1-0.1,0.6-0.4,1.3-0.7c0.7-0.3,1.7-0.9,2.4-1.2c0.7-0.3,1.2-0.7,1.3-0.7
		c0.1-0.1,0.4-0.3,0.8-0.5c0.4-0.2,0.7-0.4,0.8-0.5c0.1-0.1,0.5-0.3,1-0.6c0.5-0.2,1.5-0.9,2.3-1.4c0.8-0.5,1.5-0.9,1.6-0.9
		s0.2-0.1,0.2-0.1c0-0.1,0.4-0.4,0.9-0.7c0.5-0.3,0.9-0.7,0.9-0.8c0.1-0.1,0.2-0.2,0.3-0.2c0.2,0,3.2-2.9,3.2-3.1
		c0-0.1,0.1-0.3,0.3-0.4c0.4-0.5,1.4-2.5,1.4-3c0-0.2,0.1-0.4,0.2-0.4c0.1,0,0.2-0.7,0.2-1.8c0-1-0.1-1.9-0.2-1.9s-0.2-0.3-0.2-0.5
		c0-0.6-1.3-1.9-2-2c-0.4-0.1-0.6-0.2-0.6-0.3c0-0.1-1.1-0.2-2.4-0.2c-1.3,0-2.4,0.1-2.4,0.2s-0.4,0.2-0.9,0.3s-1,0.2-1.2,0.3
		s-1.1,0.5-2.1,1c-1.9,0.9-4.6,2.5-4.7,2.7c0,0.1-0.2,0.2-0.3,0.2s-0.3,0.1-0.3,0.2s-0.3,0.3-0.7,0.5s-1,0.6-1.3,0.9
		c-0.3,0.3-0.8,0.6-1,0.7c-0.5,0.3-4.9,3.5-5.1,3.7c-0.1,0.1-0.7,0.5-1.2,0.8s-1.1,0.7-1.1,0.8s-0.1,0.2-0.2,0.2
		c-0.2,0-2,1.2-2.1,1.4c0,0.1-0.2,0.2-0.3,0.2s-0.6,0.3-1,0.6c-0.4,0.3-0.9,0.6-1,0.6s-0.2,0.1-0.2,0.2s-0.2,0.2-0.5,0.4
		s-1,0.5-1.6,0.8c-2.1,1.2-5.6,2.9-6,2.9c-0.2,0-0.4,0.1-0.4,0.2c-0.1,0.1-0.5,0.2-1.1,0.3c-0.5,0.1-1,0.2-1.1,0.3
		c-0.2,0.3-1.2,0.2-1.4-0.1c-0.2-0.2-0.1-0.5,0.5-1.3c1.5-2.1,4.1-4,13.2-9.6c1.8-1.1,3.4-2.2,3.6-2.3s0.5-0.4,0.8-0.4
		c0.2-0.1,0.4-0.2,0.4-0.3c0-0.1,0.3-0.3,0.6-0.5c0.7-0.4,3.4-2.4,3.6-2.6c0.1-0.1,0.2-0.2,0.4-0.3c2.7-1.5,7.5-7.4,7.8-9.7
		c0.1-0.5,0.2-0.8,0.3-0.8s0.2-0.6,0.2-1.2c0-0.7-0.1-1.2-0.2-1.2s-0.2-0.3-0.3-0.8c-0.1-0.9-1.3-2.1-2.3-2.5
		c-1.7-0.6-6.5-0.3-6.9,0.4c-0.1,0.1-0.2,0.2-0.4,0.2s-0.6,0.1-0.9,0.3c-0.3,0.2-1,0.4-1.5,0.6s-0.9,0.4-1,0.5s-0.3,0.2-0.6,0.3
		c-0.3,0.1-0.5,0.2-0.6,0.3c-0.1,0.1-0.4,0.3-0.9,0.5s-1.3,0.7-2,1.1S215,52,214.9,52s-0.2,0.1-0.2,0.2s-0.2,0.2-0.4,0.3
		c-0.2,0.1-0.9,0.4-1.4,0.8c-1.3,0.8-4.9,2.9-6.1,3.6c-0.5,0.3-1,0.5-1.1,0.6c-0.1,0.1-0.3,0.2-0.6,0.3c-0.3,0.1-0.5,0.2-0.6,0.3
		c-0.2,0.2-2.6,1.4-2.8,1.4c-0.1,0-0.2,0.1-0.2,0.2c0,0.1-0.1,0.2-0.2,0.2s-0.5,0.1-0.7,0.2s-0.9,0.4-1.4,0.6
		c-0.5,0.2-1.1,0.4-1.1,0.5c-0.1,0.1-0.5,0.2-0.9,0.3c-0.4,0.1-0.7,0.2-0.7,0.3c0,0.1-0.4,0.2-0.9,0.2l-0.9,0.1l1.2-1.2
		c1.1-1.1,4.3-3.2,5.1-3.5c0.2-0.1,0.4-0.2,0.4-0.3c0-0.1,0.1-0.2,0.2-0.2c0.3,0,2.7-1.2,2.8-1.4c0-0.1,0.2-0.2,0.3-0.2
		c0.1,0,0.6-0.2,1-0.4c0.4-0.2,0.9-0.4,1-0.4c0.1,0,0.2-0.1,0.2-0.2s0.2-0.2,0.4-0.2s0.4-0.1,0.4-0.2c0-0.1,0.1-0.2,0.2-0.2
		c0.3,0,2.7-1.2,2.8-1.4c0-0.1,0.2-0.2,0.3-0.2c0.2,0,0.5-0.1,2.3-1.2c1.2-0.7,4.1-2.6,4.8-3.1c2.4-2,4.7-4.6,4.7-5.3
		c0-0.1,0.1-0.4,0.3-0.7c1.6-3.7,0-8.2-2.9-8.2c-0.2,0-0.4-0.1-0.4-0.2c0-0.2-5.3-0.3-5.4,0c-0.1,0.1-0.5,0.2-1.1,0.3
		s-1,0.2-1.1,0.3c-0.1,0.1-0.2,0.2-0.4,0.2s-0.6,0.1-1,0.3c-1.2,0.5-3.2,1.5-3.3,1.6c-0.1,0-0.4,0.2-0.7,0.4
		c-0.6,0.3-7.5,4.9-7.8,5.2c-0.3,0.3-5,3.5-5.2,3.5c-0.1,0-0.2,0.1-0.2,0.2c-0.1,0.2-3.3,1.8-4,1.9c-0.3,0.1-0.6,0.2-0.6,0.3
		s-0.4,0.2-1,0.2h-1l0.1-0.6c0.3-1.3,2.2-3.8,5.3-6.8c4.8-4.6,9.2-9.2,10.1-10.4c0.5-0.7,1-1.3,1.1-1.3c0.1,0,0.1-0.1,0.1-0.2
		c0-0.1,0.1-0.3,0.2-0.4c0.1-0.1,0.4-0.5,0.5-0.7c0.2-0.2,0.5-0.8,0.8-1.2c0.3-0.4,0.5-0.8,0.5-0.8s0.3-0.6,0.7-1.3
		c0.9-1.5,2.3-4.5,2.3-4.9c0-0.2,0.1-0.3,0.2-0.3s0.2-0.4,0.3-1c0.1-0.5,0.2-1,0.3-1c0.1,0,0.2-0.4,0.2-0.8c0-0.5,0.1-0.9,0.2-1
		c0.3-0.4-0.1-6.6-0.4-6.6c-0.1,0-0.2-0.2-0.2-0.5c0-0.4-0.2-0.9-0.8-2.4c-0.7-1.5-4.2-4.1-5.5-4.1c-0.2,0-0.4-0.1-0.4-0.1
		c0-0.2-1.5-0.6-2.6-0.8c-0.6-0.1-1-0.2-1-0.3C199.1-0.1,189.4-0.1,189.3,0.2"/>
</g>
<g>
	<path class="st4" d="M100.3,75.2c-34.1,0-60.8,34.7-60.8,78.9c0,13.1,2.4,25.6,6.8,36.7c0.1,0.2,0.1,0.3,0.2,0.4
		c1.8,4.6,4,8.9,6.4,12.8c0.1,0.1,0.1,0.2,0.2,0.3c2.4,3.8,5.1,7.5,8.1,10.7c4.1,4.3,6.8,8.1,8.4,10.4v0c1.3,2,2.8,3.8,4.3,5.7
		c18,22.6,15.3,43.1,9.4,69.6l-6.8,30.7c-3.8,17.2-0.7,35,8.8,50c3.3,5.3,9,8.5,15.2,8.5c6.2,0,11.9-3.2,15.2-8.5
		c9.5-15,12.6-32.7,8.8-50l-7.5-34c-5.1-22.7-9.9-44.1,9.8-66.2c1.9-2.2,3.6-4.2,5.2-6.3c1.9-2.6,5.4-7.2,7.8-9.8
		c2.9-3.1,5.5-6.7,7.9-10.5c0.1-0.1,0.2-0.2,0.2-0.3c2.5-4,4.7-8.4,6.6-13c0.1-0.1,0.1-0.3,0.2-0.4c4.4-11.1,6.8-23.6,6.8-36.7
		C161.1,109.9,134.4,75.2,100.3,75.2 M100.3,79.1c15.1,0,28.6,7.4,38.6,19.6c-33.5,9.6-65.4,3.1-77.2,0
		C71.8,86.5,85.3,79.1,100.3,79.1z M59,102.1c6.7,1.9,22.6,5.7,42.6,5.7c12.2,0,26-1.4,39.9-5.6c5.7,7.8,10,17.2,12.7,27.8
		c-47.8,15.6-93.4,4.3-107.8,0C49.1,119.3,53.4,109.9,59,102.1z M62.3,137.9c9.2,1.8,20.8,3.5,34,3.9l-20.8,26.7L62.3,137.9z
		 M71.8,169.9c-11.6-1.7-20.7-3.9-26.3-5.5l13.3-24.7L71.8,169.9z M100.2,143.2l20.2,28.1c-15.3,1.4-29.5,0.9-41.7-0.5L100.2,143.2z
		 M104,141.9c11.3-0.1,23.5-1.3,36-4l-16.5,31.1L104,141.9z M143.7,139.5l11.5,24.9c-9.5,2.9-18.9,4.9-28,6.1L143.7,139.5z
		 M43.4,154.1c0-7.1,0.7-13.9,2.1-20.4c2.6,0.8,6.1,1.8,10.5,2.8l-12.4,23C43.6,157.8,43.4,155.9,43.4,154.1z M112.1,379.4
		c-2.6,4.2-7.1,6.6-11.9,6.6c-4.8,0-9.2-2.5-11.8-6.6c-3.9-6.2-6.6-12.8-8.1-19.7c4.1,1.9,11.2,4.4,20.1,4.4c6,0,12.8-1.3,19.9-4.6
		C118.7,366.5,116.1,373.2,112.1,379.4z M121.2,354.8c-20.4,11-38,2.2-41.8,0.1c-0.3-1.9-0.5-3.9-0.6-5.9c3.7,1.9,11.5,5.1,21.6,5.1
		c6.4,0,13.7-1.4,21.3-5.3C121.6,350.8,121.5,352.8,121.2,354.8z M136.5,212.4c-2.5,2.7-6.1,7.5-8,10.2c-1.5,2.1-3.2,3.9-5,6
		c-21,23.7-16,46.1-10.7,69.7l7.5,34c0.9,4,1.4,8,1.5,12c-22.4,12.5-41.7,0.9-43.1,0c0.1-4,0.6-8.1,1.5-12.1l6.8-30.7
		c4.9-22.1,10.4-47.1-10.1-72.9c-1.4-1.8-2.8-3.6-4.1-5.5c-1.6-2.5-4.5-6.3-8.7-10.9c-1.7-1.8-3.3-3.8-4.8-5.9
		c10.7,2.6,25.6,5.3,42.8,5.3c12.2,0,25.6-1.5,39.3-5.1C139.8,208.7,138.2,210.7,136.5,212.4z M144.5,201.8
		c-36.6,10.7-70.8,4.6-88.5-0.2c-1.6-2.6-3.1-5.3-4.4-8.2c9.8,2.9,28.1,7.3,50.4,7.3c14.5,0,30.6-2,47-7.3
		C147.6,196.4,146.1,199.2,144.5,201.8z M150.9,188.8c-44.8,15.6-87.7,4.3-101.2-0.1c-2.5-6.4-4.2-13.3-5.2-20.5
		c6.2,1.8,16.8,4.3,30.2,6.1c0,0,0.1,0,0.1,0s0.1,0,0.1,0c8.2,1,17.4,1.8,27.3,1.8c16.5,0,35.1-2.1,53.9-7.9
		C155.1,175.5,153.4,182.3,150.9,188.8z M146.5,136.2c2.8-0.8,5.7-1.5,8.6-2.4c1.3,6.4,2.1,13.2,2.1,20.3c0,1.6-0.1,3.1-0.2,4.7
		L146.5,136.2z"/>
	<path class="st4" d="M109.7,123.9c0-5.2-4.2-9.4-9.5-9.4c-5.2,0-9.4,4.2-9.4,9.4c0,5.2,4.2,9.4,9.4,9.4
		C105.5,133.3,109.7,129.1,109.7,123.9 M100.3,129.3c-3,0-5.5-2.4-5.5-5.5s2.4-5.5,5.5-5.5s5.5,2.5,5.5,5.5S103.3,129.3,100.3,129.3
		z"/>
	<path class="st4" d="M137.7,128c5.2,0,9.5-4.2,9.5-9.4c0-5.2-4.2-9.4-9.5-9.4c-5.2,0-9.4,4.2-9.4,9.4
		C128.2,123.8,132.5,128,137.7,128 M137.7,113.2c3,0,5.5,2.4,5.5,5.5c0,3-2.5,5.5-5.5,5.5c-3,0-5.5-2.5-5.5-5.5
		C132.2,115.6,134.6,113.2,137.7,113.2z"/>
	<path class="st4" d="M62.9,109.2c-5.2,0-9.5,4.2-9.5,9.4c0,5.2,4.3,9.4,9.5,9.4c5.2,0,9.5-4.2,9.5-9.4
		C72.4,113.4,68.1,109.2,62.9,109.2 M62.9,124.1c-3,0-5.5-2.5-5.5-5.5c0-3,2.5-5.5,5.5-5.5c3,0,5.5,2.4,5.5,5.5
		C68.4,121.6,65.9,124.1,62.9,124.1z"/>
	<path class="st4" d="M52.5,72.5c0.8-0.7,0.9-2,0.2-2.8c-0.7-0.8-2-0.9-2.8-0.2c-0.5,0.4-47.8,42.1-26.9,105.3
		c0.3,0.8,1.1,1.4,1.9,1.4c0.2,0,0.4,0,0.6-0.1c1-0.3,1.6-1.4,1.3-2.5C6.7,112.9,52,72.9,52.5,72.5"/>
	<path class="st4" d="M24.7,78c0.8-0.7,0.9-1.9,0.2-2.8c-0.7-0.8-1.9-0.9-2.8-0.2c-1.1,1-27.9,24.8-20.9,74.7c0.1,1,1,1.7,1.9,1.7
		c0.1,0,0.2,0,0.3,0c1.1-0.2,1.8-1.2,1.7-2.2C-1.6,101.5,24.4,78.2,24.7,78"/>
	<path class="st4" d="M173.9,173.5c-0.4,1,0.2,2.2,1.2,2.5c0.2,0.1,0.4,0.1,0.6,0.1c0.8,0,1.6-0.5,1.9-1.4
		c20.8-63.2-26.4-104.8-26.9-105.3c-0.8-0.7-2.1-0.6-2.8,0.2c-0.7,0.8-0.6,2.1,0.2,2.8C148.6,72.9,193.8,112.9,173.9,173.5"/>
	<path class="st4" d="M195.5,149.2c-0.2,1.1,0.6,2.1,1.7,2.2c0.1,0,0.2,0,0.3,0c1,0,1.8-0.7,2-1.7c7-49.9-19.8-73.7-20.9-74.7
		c-0.8-0.7-2.1-0.6-2.8,0.2c-0.7,0.8-0.6,2.1,0.2,2.8C176.2,78.2,202.2,101.4,195.5,149.2"/>
	<path class="st4" d="M93.2,298.9c-1.1-0.2-2.1,0.4-2.4,1.5l-7.8,35.8c-0.2,1,0.4,2.1,1.5,2.3c0.1,0,0.3,0,0.4,0
		c0.9,0,1.7-0.6,1.9-1.5l7.8-35.8C95,300.2,94.3,299.2,93.2,298.9"/>
	<path class="st4" d="M100.3,84c-15.5,0.4-26.3,8.2-26.7,8.5c-0.9,0.6-1.1,1.9-0.4,2.8c0.4,0.5,1,0.8,1.6,0.8c0.4,0,0.8-0.1,1.1-0.4
		c0.1-0.1,10.3-7.4,24.5-7.8c1.1,0,1.9-0.9,1.9-2C102.2,84.8,101.3,84.1,100.3,84"/>
	<path class="st4" d="M331.5,53c-29-17.9-70.1-2.4-93.5,35.2c-6.9,11.1-11.5,23.1-13.6,34.8c-0.1,0.2-0.1,0.3-0.1,0.5
		c-0.8,4.8-1.3,9.6-1.3,14.3c0,0.1,0,0.2,0,0.4c0,4.5,0.4,9,1.2,13.3c1.1,5.8,1.5,10.4,1.6,13.2c0.1,2.4,0.3,4.7,0.6,7.1
		c3.3,28.7-9.9,44.7-28.9,64.1l-22,22.5c-12.4,12.7-19.1,29.4-19,47.1c0.1,6.3,3.2,11.9,8.4,15.2c2.9,1.8,6.1,2.6,9.4,2.6
		c2.7,0,5.5-0.6,8-1.9c16-7.8,28-21.2,33.9-37.9l11.6-32.8c7.7-22,14.9-42.6,43.3-51.2c2.8-0.8,5.3-1.6,7.8-2.6
		c3.7-1.5,8.6-3.4,11.8-4.3c4.2-1.2,8.3-2.8,12.4-4.8c0.2-0.1,0.3-0.1,0.4-0.2c4.3-2.1,8.4-4.7,12.4-7.6c0.2-0.1,0.3-0.2,0.5-0.3
		c9.6-7.2,18.2-16.5,25.1-27.6C364.9,114.3,360.5,70.9,331.5,53 M329.4,56.3c12.8,7.9,20.4,21.2,22.5,36.9
		c-33.7-9.5-57.3-31.7-65.6-40.5C301.3,47.7,316.7,48.4,329.4,56.3z M282.3,54.2c7.5,8.2,33,33.4,70.1,43.3c0.7,9.6-0.6,19.9-4,30.3
		c-48.9-11.8-81.7-45.3-91.6-56.6C264.6,63.6,273.3,57.9,282.3,54.2z M332.2,127.1l-30.4,17.8l-2.3-33.2
		C309.1,117.5,320.1,122.9,332.2,127.1z M295.4,110.7l2.4,34.5c-13.7-6.8-25.6-14.7-35.2-22.3L295.4,110.7z M261.1,119.3l4.9-32.9
		c6.9,6.4,15.9,13.9,26.8,21.1L261.1,119.3z M241.4,90.3c3.8-6,8-11.4,12.6-16.2c1.8,2,4.3,4.7,7.5,7.9L238.7,95
		C239.6,93.4,240.5,91.8,241.4,90.3z M262.1,86.1l-4.9,32.5c-9-7.5-15.5-14.2-19.5-18.5L262.1,86.1z M180.7,317.8
		c-4.4,2.2-9.5,1.9-13.6-0.6c-4.1-2.5-6.6-7-6.6-11.9c0-7.2,1.2-14.3,3.5-21c4.2,6.3,14.7,18.6,34,20.8
		C193.1,310.3,187.3,314.6,180.7,317.8z M201.4,301.6c-23.1-1.3-33.5-18-35.6-21.8c0.8-1.8,1.7-3.5,2.6-5.3
		c3.5,5.9,14.6,20.5,36.5,22.4C203.9,298.5,202.7,300.1,201.4,301.6z M289.8,188.6c-3.3,0.9-8.5,2.9-12.2,4.4
		c-2.4,1-4.8,1.7-7.5,2.5c-30.3,9.1-37.9,30.8-45.9,53.7l-11.6,32.9c-1.4,3.9-3.1,7.5-5.1,11c-25.7-1.1-35.9-21.1-36.7-22.6
		c2.2-3.4,4.8-6.5,7.6-9.5l22-22.5c15.8-16.2,33.8-34.6,30-67.3c-0.3-2.3-0.5-4.5-0.6-6.8c-0.1-3-0.5-7.8-1.7-13.9
		c-0.5-2.5-0.8-5-1-7.6c13.1,13.4,36.9,33.2,69.7,43.2C294.5,187.2,292.1,188,289.8,188.6z M302.1,183.8
		c-36.8-10-62.6-33.2-75.1-46.6c0-3.1,0.2-6.2,0.6-9.3c11.2,12.5,40.1,40.6,82.7,51.1C307.7,180.8,304.9,182.4,302.1,183.8z
		 M314.5,176c-46.4-10.3-76.9-42.3-86-53.1c1.3-6.7,3.4-13.5,6.4-20.1c4.4,4.8,12,12.5,22.5,21c0,0,0,0.1,0.1,0.1c0,0,0.1,0,0.1,0.1
		c17.1,13.8,41.8,29.5,72.3,37.4C325.1,167,320,171.9,314.5,176z M331,157.6c-9.6-2.5-18.7-5.8-27-9.5l30.4-17.8L331,157.6z
		 M335.5,153.8l3.1-24.6c2.8,0.8,5.7,1.6,8.6,2.3c-2.3,6.2-5.2,12.3-8.9,18.4C337.3,151.2,336.4,152.5,335.5,153.8z"/>
	<path class="st4" d="M300.8,102.4c1.5,0.9,3.2,1.4,4.9,1.4c0.7,0,1.5-0.1,2.2-0.2c2.5-0.6,4.5-2.1,5.9-4.2c1.3-2.1,1.8-4.6,1.2-7.1
		c-0.6-2.4-2.1-4.5-4.2-5.9c-2.1-1.3-4.7-1.7-7.1-1.1c-2.5,0.6-4.5,2.1-5.9,4.2C295,93.8,296.4,99.6,300.8,102.4 M301.1,91.5
		c1.1-1.7,2.8-2.6,4.7-2.6c1,0,2,0.2,2.9,0.8c2.6,1.6,3.4,5,1.8,7.5c-0.8,1.2-2,2.1-3.4,2.4c-1.4,0.3-2.9,0.1-4.1-0.7
		c-1.2-0.8-2.1-2-2.4-3.4C300.1,94.2,300.3,92.7,301.1,91.5z"/>
	<path class="st4" d="M335.4,117.5c1.5,1,3.2,1.4,5,1.4c0.7,0,1.5-0.1,2.2-0.2c2.5-0.6,4.5-2.1,5.9-4.2c1.3-2.1,1.7-4.6,1.2-7.1
		c-0.6-2.4-2.1-4.5-4.2-5.8c-2.1-1.3-4.7-1.8-7.1-1.2c-2.4,0.6-4.5,2.1-5.9,4.2c-1.3,2.2-1.7,4.7-1.1,7.1
		C331.7,114.1,333.2,116.2,335.4,117.5 M335.7,106.6c0.8-1.2,2-2.1,3.4-2.5c0.4-0.1,0.8-0.1,1.3-0.1c1,0,2,0.3,2.9,0.8
		c1.2,0.8,2.1,2,2.4,3.4c0.3,1.4,0.1,2.9-0.7,4.1c-0.8,1.2-2,2.1-3.4,2.4c-1.4,0.3-2.9,0.1-4.1-0.7c-1.3-0.8-2.1-2-2.5-3.4
		C334.6,109.3,334.9,107.8,335.7,106.6z"/>
	<path class="st4" d="M271.8,78.3c1.5,0.9,3.2,1.4,5,1.4c0.7,0,1.5-0.1,2.2-0.2c2.5-0.6,4.5-2.1,5.9-4.2c1.3-2.1,1.7-4.6,1.2-7.1
		c-0.6-2.4-2.1-4.5-4.2-5.9c-2.1-1.3-4.7-1.7-7.1-1.1c-2.4,0.6-4.5,2.1-5.9,4.2c-1.3,2.2-1.7,4.7-1.1,7.1
		C268.2,74.9,269.7,77,271.8,78.3 M272.1,67.4c0.8-1.3,2-2.1,3.4-2.5c0.4-0.1,0.9-0.2,1.3-0.2c1,0,2,0.3,2.9,0.8
		c1.2,0.8,2.1,2,2.4,3.4c0.3,1.4,0.1,2.9-0.7,4.2c-0.8,1.2-2,2.1-3.4,2.4c-1.5,0.3-2.9,0.1-4.1-0.7c-1.3-0.8-2.1-2-2.5-3.4
		C271.1,70.1,271.3,68.7,272.1,67.4z"/>
	<path class="st4" d="M213.1,97.1c-0.2,1,0.4,2.1,1.5,2.4c0.2,0,0.3,0.1,0.5,0.1c0.9,0,1.7-0.6,1.9-1.5c15.1-62,74.7-72.3,75.3-72.4
		c1.1-0.2,1.8-1.2,1.6-2.3c-0.2-1.1-1.2-1.8-2.3-1.6C291.1,21.8,228.9,32.4,213.1,97.1"/>
	<path class="st4" d="M209.7,67.1c0.7,0,1.5-0.4,1.8-1.2c19.6-44.1,54-50.2,54.3-50.3c1.1-0.2,1.8-1.2,1.6-2.3
		c-0.2-1.1-1.2-1.8-2.3-1.6c-1.5,0.2-36.9,6.4-57.3,52.5c-0.4,1,0,2.2,1,2.6C209.1,67.1,209.4,67.1,209.7,67.1"/>
	<path class="st4" d="M377.4,74.5c-0.3-1-1.4-1.6-2.5-1.3c-1.1,0.3-1.6,1.4-1.3,2.5c0.2,0.6,17.6,58.3-31.6,99.4
		c-0.8,0.7-1,1.9-0.2,2.8c0.4,0.5,1,0.7,1.5,0.7c0.5,0,0.9-0.2,1.3-0.5C395.7,135.3,377.6,75.1,377.4,74.5"/>
	<path class="st4" d="M398.1,93.8c-0.3-1-1.4-1.6-2.5-1.3c-1.1,0.3-1.6,1.4-1.3,2.5c0.1,0.3,9.9,33.8-21,70.8
		c-0.7,0.8-0.6,2.1,0.3,2.8c0.4,0.3,0.8,0.5,1.3,0.5c0.6,0,1.1-0.2,1.5-0.7C408.8,129.5,398.6,95.2,398.1,93.8"/>
	<path class="st4" d="M204.4,239.5l-25.6,26.4c-0.8,0.8-0.7,2,0.1,2.8c0.4,0.4,0.9,0.6,1.4,0.6c0.5,0,1.1-0.2,1.4-0.6l25.6-26.4
		c0.8-0.8,0.7-2-0.1-2.8C206.4,238.7,205.2,238.7,204.4,239.5"/>
	<path class="st4" d="M300,57.6c0.1,0,12.6-1,24.9,6.2c0.3,0.2,0.6,0.3,1,0.3c0.6,0,1.3-0.3,1.7-1c0.6-0.9,0.2-2.1-0.7-2.7
		c-13.3-7.8-26.7-6.8-27.2-6.7c-1.1,0.1-1.9,1-1.8,2.1C297.9,56.9,298.9,57.7,300,57.6"/>
</g>
</svg>
