<?xml version="1.0" encoding="utf-8"?>
<!-- Generator: Adobe Illustrator 26.3.1, SVG Export Plug-In . SVG Version: 6.00 Build 0)  -->
<svg version="1.1" id="Calque_1" xmlns="http://www.w3.org/2000/svg" xmlns:xlink="http://www.w3.org/1999/xlink" x="0px" y="0px"
	 viewBox="0 0 400 400" style="enable-background:new 0 0 400 400;" xml:space="preserve">
<style type="text/css">
	.st0{fill:#FEE7F0;}
	.st1{display:none;}
	.st2{display:inline;fill-rule:evenodd;clip-rule:evenodd;fill:#FEE7F0;}
	.st3{display:none;fill-rule:evenodd;clip-rule:evenodd;fill:#FEE7F0;}
</style>
<g>
	<path class="st0" d="M185.8,178.1l5.4-118.8l-5.3-0.3l-8.1,115.7c-20.5,6.6-32.3,17.2-40.1,28.2c-5.4,7.2-13.4,23.8-9.3,43.5
		c5.9,28.2,18.9,37.3,14.8,52.8c-4,15-45,33.4-23.4,78.5c8.8,15.7,23.6,22.4,23.6,22.4c-13.4-9.3-38.8-47-5.9-83.1
		c31.2-34.3-4.6-40.1-2.1-83.9C137.8,189.2,185.8,178.1,185.8,178.1"/>
	<path class="st0" d="M186.9,64.9l-7.1-0.1c0,0,8.4-34.2-2.2-60.5c0,0,19.8-10.4,40.3,0.9c0,0-16.3-6.3-31.2,0.7
		C186.8,5.9,192,27.5,186.9,64.9"/>
	<path class="st0" d="M198.1,50.6c0,1.3-1.1,2.3-2.4,2.3c-1.3,0-2.3-1.1-2.3-2.4l0.4-34.8c0-1.3,1.1-2.3,2.4-2.3s2.3,1.1,2.3,2.4
		L198.1,50.6"/>
	<path class="st0" d="M207.2,50.7c0,1.3-1.1,2.3-2.4,2.3c-1.3,0-2.3-1.1-2.3-2.4l0.4-34.8c0-1.3,1.1-2.3,2.4-2.3
		c1.3,0,2.3,1.1,2.3,2.4L207.2,50.7"/>
	<path class="st0" d="M185.9,47.3l-9-0.1c-0.5-2-2.3-3.6-4.5-3.6c-2.6,0-4.7,2-4.7,4.6c0,2.6,2,4.7,4.6,4.7c2.2,0,4-1.5,4.5-3.5
		l9,0.1L185.9,47.3"/>
	<path class="st0" d="M186,33.6l-9-0.1c-0.5-2-2.3-3.6-4.5-3.6c-2.6,0-4.6,2-4.7,4.6c0,2.6,2,4.7,4.6,4.7c2.2,0,4-1.5,4.5-3.5l9,0.1
		L186,33.6"/>
	<path class="st0" d="M186.1,20l-9-0.1c-0.5-2-2.3-3.6-4.5-3.6c-2.6,0-4.7,2-4.7,4.6c0,2.6,2,4.6,4.6,4.7c2.2,0,4-1.5,4.5-3.5l9,0.1
		L186.1,20"/>
	<path class="st0" d="M224.2,16.9c-2.2,0-4,1.5-4.5,3.5l-5.2,0c-0.1,0.7-0.2,1.4-0.3,2.1l5.5,0.1c0.5,2,2.3,3.6,4.5,3.6
		c2.6,0,4.6-2,4.7-4.6C228.8,19,226.8,16.9,224.2,16.9"/>
	<path class="st0" d="M224.1,30.5c-2.2,0-4,1.5-4.5,3.5L213,34c-0.1,0.7-0.1,1.4-0.1,2.2l6.7,0.1c0.5,2,2.3,3.6,4.5,3.6
		c2.6,0,4.6-2,4.7-4.6C228.7,32.7,226.6,30.6,224.1,30.5"/>
	<path class="st0" d="M223.9,44.2c-2.2,0-4,1.5-4.5,3.5l-6.8-0.1c0,0.7,0.1,1.4,0.1,2.2l6.7,0.1c0.5,2,2.3,3.6,4.5,3.6
		c2.6,0,4.6-2,4.7-4.6C228.5,46.3,226.5,44.2,223.9,44.2"/>
	<path class="st0" d="M157.7,354c0,0,32.8-18.7,68.9-15.7c0,0-37.7,1.6-69,23.4L157.7,354"/>
	<path class="st0" d="M208.4,59.8l-2.4-0.1l-3.1,280.8c0.8-0.4,1.6-0.8,2.4-1.1L208.4,59.8"/>
	<path class="st0" d="M213.6,60.1l-2.4-0.1l1.1,279.6c0.8-0.4,1.6,0.4,2.4,0L213.6,60.1"/>
	<path class="st0" d="M200.7,59.5L193,344.3c0.8-0.4,1.6-0.8,2.5-1.2l7.7-283.5L200.7,59.5"/>
	<path class="st0" d="M195.3,59.2l-12.2,287.6c0.8-0.4,1.6-0.8,2.5-1.3l12.2-286.2L195.3,59.2"/>
	<path class="st0" d="M177.4,275.6c0.6-13.2,11.8-23.4,25-22.8c12.7,0.6,22.6,11,22.8,23.6c0-0.1,0-0.2,0-0.3
		c0.6-14-10.2-25.9-24.2-26.5c-14-0.6-25.9,10.2-26.5,24.2c-0.6,13,8.7,24.1,21.2,26.2C184.8,297.2,176.9,287.2,177.4,275.6"/>
	<path class="st0" d="M281.2,329.5c-6.9-12.9-17.2-22-18.6-33.9c-1.4-11.9,14.2-28.8,15.1-50.9c0.8-21.5-10.8-35.7-11.7-36.4h0
		c4.3,6.9,7.2,15.2,7.8,25.3c2.5,43.8-37.3,49.5-6.4,84.1c15.2,17,18.4,27.8,18,40.2l0,0h0C285.9,352.4,289.2,344.3,281.2,329.5"/>
</g>
<g class="st1">
	<path class="st2" d="M33,141.2c120.8-24.2,370.7-18.6,359.6-2.8c-7.2,10.2-80.6,5.3-75.7,21.2c-57.8,4-116.3,9.4-175.1,11.2
		c55.2-3.8,111.5-12.7,166.6-16.5c-4.7-17.6,68.4-6.6,76-15.5C396.6,124.7,148.7,122.1,33,141.2z"/>
	<path class="st2" d="M296,125.3c57.4-18.4,91-34.5,91.6-47.1c0.6-11.9-24.7-15.7-46.3-14.5c-27.2,1.5-29.5-7.4-35.2-26.3
		c-4.7-15.6-13.3-31.8-61.1-25.4c-35.1,31.7-70.3,63.5-105.4,95.3c35.9-29.3,74.2-61.8,106.8-91.2c44.4-6,51.7,10.7,56,25.2
		c5.2,17.5,9,28.2,34.2,26.8c20-1.1,42.7,1.6,42.1,12.6C378.1,92.5,349.3,108.3,296,125.3z"/>
	<path class="st2" d="M255.2,42.1c3.4,40.5,8.3,80.4,21.5,117.1c3.7-0.3,7.4-0.6,11.1-0.9C274.5,123.7,264.5,83.4,255.2,42.1z"/>
	<path class="st2" d="M254.7,40.6c2.2,0,3.9,0.6,3.9,1.4c0,0.1,0,0.2-0.1,0.3c-0.3-0.4-1.3-0.7-2.5-0.7c-1.4,0-2.6,0.4-2.6,0.9
		c0,0.4,0.9,0.8,2,0.9c-0.2,0-0.5,0-0.7,0c-2.2,0-3.9-0.6-3.9-1.4C250.8,41.3,252.5,40.6,254.7,40.6z"/>
	<path class="st2" d="M309.1,234.3L108,265.8c69.9-8.5,139.9-17.1,209.8-25.6c-3.6-23.4-4.7-49-0.3-73.6
		C310,188.1,307.1,211.5,309.1,234.3z"/>
	<path class="st2" d="M384.1,201.7c-32.6,3.1-51.8,10.4-62.1,20.5c20.6-9.4,43.4-14.1,67.1-16.5c3.4-0.4,5.9-2.8,5.8-5.7
		c-0.7-19.3-1-38.7-1.1-58c-3.1,17.8-4.1,35.9-3.8,54C390,199,387.5,201.4,384.1,201.7z"/>
	<path class="st2" d="M339.1,227.4c2,26.5,5.1,57.3,8.3,82.2c0.6,4.7,7.8,2,8.7-2.2c7.2-32.9,0.2-94.7,20.5-98.9
		c-28.3,5.6-17.6,63.9-22.8,95.4c-0.7,4-4.1,5.6-4.5,1.1C347.4,281.2,344.5,245.4,339.1,227.4z"/>
	<path class="st2" d="M88.1,250.2c-2.8,22.8-6.8,49.1-10.7,70.4c-0.7,4-7.9,1.7-8.7-1.9c-6.3-28.2,0.8-76.8-18.1-84.2
		c28.2,4.8,16.2,54.3,20.5,81.2c0.5,3.4,4,4.8,4.5,1C78.3,296.3,82.2,265.6,88.1,250.2z"/>
	<path class="st2" d="M36.8,175c-1.3-10.9-2.5-21.9-3.8-32.8c-0.2,9.7-0.4,19.4-0.7,29c-0.1,3.7-3,6.7-7.2,7.6
		c-6.4,1.2-12.8,2.4-19.1,3.7c-0.6,0.1-1,0.5-0.9,1c0.3,10.1,0.7,20.2,1,30.3c0.7-9.1,1.4-18.2,2.1-27.3c0-0.5,0.5-0.9,1.1-1
		c6.5-0.6,12.9-1.2,19.4-1.9C33.7,183.1,37.3,179.3,36.8,175z"/>
	<path class="st2" d="M105.7,225.6c-0.3,0.9-0.7,1.7-1,2.6c-29.1-13.3-58.4-26.6-89.8-38.1C44,197.3,74.7,211.2,105.7,225.6z"/>
	<path class="st2" d="M106,263.8c-28.6-16-65.6-34.9-96.5-49.5c28.2,9.9,64.6,27.9,94.6,44.9l-1.1-33.1c0-0.6,0.5-1.2,1.2-1.3
		c8-1.5,16-3.1,23.9-4.6c5.3-1,8.9-4.9,9.1-9.5c0.3-12.1,0.6-24.2,0.8-36.3c1.6,13.7,3.1,27.4,4.7,41.1c0.6,5.4-3.9,10.2-10.2,10.8
		c-8.1,0.8-16.2,1.6-24.2,2.3c-0.7,0.1-1.3,0.6-1.3,1.2C106.7,233,110.1,258.3,106,263.8z"/>
	<polygon class="st2" points="150.4,163.2 151.6,161.1 165.8,113 98.4,106 87.4,139 96.9,102.3 175.1,111 159.9,163 	"/>
	<path class="st2" d="M174.5,287.1c1.8,32.7,4.5,70.5,7.4,101.1c0.5,5.8,7.6,2.4,8.5-2.7c4.9-27.5,4.7-69,8.1-94.6
		c2.5-19,30.1-25.5,41.8-25.5c0.7,0,1.3-0.2,1.8-0.6s0.7-0.9,0.7-1.5c-0.1-3.6-0.4-8.8-0.4-11.3c-1.7,0.2-3.4,0.4-5,0.7
		c0,1.7,0,3.3,0,5c0,1-0.9,1.9-2.1,2c-21.8,3-36.4,12.2-41,30.8c-6.1,24.6-2.4,64.2-6,90.7c-0.7,4.9-4.1,6.9-4.4,1.4
		C182.1,353.5,179.6,309.3,174.5,287.1z"/>
	<path class="st2" d="M135.2,172c-22.7-6.9-86.9-24.9-98.6-28.4C65.7,148.7,107.5,158,135.2,172z"/>
	<path class="st2" d="M131.7,215.7c-17.1-8.2-72.5-26.9-84.3-29.8C72.5,191.7,108.4,202,131.7,215.7z"/>
</g>
<g>
	<path class="st3" d="M225.8,341.6c0,0-0.1,0.2-0.2,0.4s-0.5,1-0.9,1.8c-1,2-1,2.1-2.4,3.5c-1.3,1.4-2.9,2.4-3.9,2.6
		c-0.3,0.1-0.6,0.2-0.7,0.3s-0.4,0.2-0.6,0.2c-0.3,0-0.6,0.1-0.6,0.2c-0.1,0.2-1.1,0.2-4.3,0.2c-3.2,0-4.2-0.1-4.3-0.2
		c0-0.1-0.2-0.2-0.4-0.2s-0.5-0.1-0.7-0.2s-0.7-0.4-1.2-0.6c-2.3-1.1-2.7-2.2-1.2-3.4c0.4-0.3,0.8-0.6,0.8-0.6
		c0.1,0,0.5-0.3,1.1-0.5c0.5-0.2,1.1-0.5,1.3-0.6s0.6-0.2,1-0.3c0.4-0.1,0.7-0.2,0.8-0.3s0.3-0.2,0.6-0.2c0.3,0,0.5-0.1,0.5-0.2
		s0.6-0.2,1.2-0.3s1.3-0.2,1.3-0.3c0.1-0.1,0.8-0.2,1.7-0.3c0.9-0.1,1.7-0.2,1.7-0.3c0.1-0.1,0.6-0.2,1.2-0.2s1.2-0.1,1.3-0.2
		s0.9-0.2,1.8-0.2C224,341.5,225.8,341.5,225.8,341.6 M208.1,286.9c0.2,0.4,0.4,0.7,0.5,0.7c0.1,0,0.2,0.1,0.2,0.2s0.3,0.9,0.8,1.8
		s0.8,1.9,0.9,2.2c0.1,0.3,0.2,0.7,0.3,0.8c0.1,0.1,0.2,0.6,0.3,1c0.1,0.5,0.2,0.8,0.3,0.8c0.1,0,0.2,0.3,0.2,0.7
		c0,0.4,0.1,0.7,0.2,0.7c0.1,0,0.2,0.6,0.3,1.4c0.1,0.7,0.2,1.4,0.3,1.4s0.2,0.8,0.3,1.7c0.1,0.9,0.2,1.8,0.4,2
		c0.3,0.4,0.3,14.4,0,14.7c-0.1,0.1-0.2,0.4-0.2,0.6c0,0.5-0.8,2-1.1,2.2c-0.4,0.1-1.9-1.4-2.1-2.1c-0.1-0.2-0.2-0.5-0.3-0.5
		c-0.1,0-0.2-0.1-0.2-0.3s-0.1-0.6-0.3-0.9c-0.2-0.3-0.3-0.7-0.3-0.9c0-0.2-0.1-0.4-0.2-0.4s-0.2-0.5-0.3-1.1s-0.2-1.1-0.3-1.2
		c-0.1-0.1-0.2-0.8-0.3-1.6s-0.2-1.6-0.3-1.6s-0.2-0.6-0.2-1.1c0-0.7-0.1-1.1-0.2-1.1c-0.3-0.1-0.3-19.5,0-19.9
		c0.1-0.1,0.2-0.6,0.2-1l0-0.8l0.5,0.6C207.6,285.9,207.9,286.5,208.1,286.9 M204.3,249.9c-0.1,13.7-0.1,18.1-0.3,18.2
		c-0.1,0-0.2,0.7-0.2,2c0,1.1-0.1,3-0.1,4.3l-0.1,2.3l-0.6-0.2c-0.3-0.1-0.8-0.3-1-0.4c-0.2-0.1-0.8-0.2-1.4-0.3
		c-0.6-0.1-1.1-0.2-1.1-0.3c-0.2-0.3-8.1-0.2-8.2,0.1c-0.1,0.3-10.1,0.4-10.3,0c0-0.1-0.2-0.2-0.4-0.2c-0.7,0-2.6-1.2-3.8-2.4
		c-1.1-1.1-2.6-3.7-2.6-4.5c0-0.2-0.1-0.4-0.2-0.5c-0.2-0.1-0.2-1-0.2-4c0-2.9,0.1-4,0.2-4.1c0.1-0.1,0.2-0.5,0.2-0.8
		c0-0.3,0.1-0.8,0.3-1.1c0.2-0.3,0.3-0.7,0.3-1c0-0.2,0.1-0.5,0.2-0.5s0.2-0.4,0.3-0.8c0.1-0.4,0.2-0.7,0.3-0.7s0.2-0.3,0.3-0.6
		c0.1-0.3,0.2-0.7,0.3-0.7c0.1-0.1,0.4-0.7,1.1-1.9c0.2-0.4,0.4-0.7,0.4-0.8s0.5-0.8,1.1-1.5c0.5-0.8,1.1-1.5,1.1-1.7
		c0.1-0.1,0.4-0.5,0.6-0.8c2.5-3,4.5-5,7.3-7.4c0.3-0.2,0.9-0.8,1.4-1.2c1.4-1.2,1.6-1.4,2.9-2.3c0.6-0.5,1.4-1.1,1.8-1.4
		s0.9-0.7,1.1-0.9c0.3-0.2,0.7-0.6,1-0.8c0.2-0.2,0.6-0.5,0.8-0.6c0.4-0.3,0.6-0.4,1.6-1.3c0.2-0.2,0.8-0.6,1.2-1
		c0.5-0.4,1-0.9,1.2-1.1c0.2-0.2,1-0.9,1.7-1.6l1.3-1.2l0.1,2.7C204.3,230.6,204.3,240,204.3,249.9 M211.3,181.4
		c0.3,0.4,0.7,0.9,0.8,1c0.5,0.6,1.2,1.9,1.4,2.3c0.1,0.3,0.2,0.5,0.3,0.5s0.2,0.4,0.3,0.8c0.1,0.4,0.2,0.8,0.3,0.8s0.2,0.6,0.3,1.4
		c0.1,0.8,0.2,1.5,0.3,1.6c0.1,0.1,0.2,1.6,0.2,3.4s-0.1,3.3-0.2,3.4c-0.1,0.1-0.2,0.8-0.3,1.6c-0.1,0.8-0.2,1.6-0.3,1.7
		c-0.1,0.1-0.2,0.6-0.3,1.1c-0.1,0.5-0.2,1.1-0.3,1.2c-0.1,0.2-0.3,0.8-0.5,1.4s-0.4,1.3-0.6,1.7c-0.1,0.3-0.3,0.7-0.3,0.9
		c0,0.2-0.1,0.4-0.2,0.4c-0.1,0.1-0.2,0.3-0.2,0.4c0,0.4-2.9,6.3-3.5,7.1c-0.8,1.1-0.8,1.4-0.6-6.8c0.1-4.7,0.2-7.9,0.3-8
		c0.1-0.1,0.2-1,0.2-2s0.1-1.8,0.2-1.9s0.2-1.4,0.3-3.1c0.1-1.6,0.2-3,0.3-3c0.1,0,0.2-1,0.3-2.3c0.1-1.2,0.2-2.4,0.3-2.5
		c0.1-0.1,0.2-0.6,0.3-1.2C210.3,180.2,210.4,180.1,211.3,181.4 M143.7,63.4c-0.6,0.4-2,1.1-3.1,1.6s-2.1,1-2.3,1.1
		c-0.2,0.1-0.6,0.2-0.9,0.3c-0.3,0.1-0.7,0.2-0.7,0.3c-0.1,0.1-0.3,0.2-0.4,0.2c-0.2,0-0.6,0.1-0.9,0.3c-0.3,0.2-0.7,0.3-0.8,0.3
		c-0.1,0-0.3,0.1-0.3,0.2s-0.3,0.2-0.7,0.3s-1,0.2-1.3,0.4c-0.3,0.2-0.7,0.3-0.9,0.3c-0.2,0-0.4,0.1-0.4,0.2
		c-0.1,0.1-0.3,0.2-0.5,0.2c-0.2,0-0.4,0.1-0.4,0.2c0,0.1-0.4,0.2-0.8,0.3c-0.4,0.1-0.9,0.2-1.1,0.3s-0.3,0.2-0.5,0.1
		c-0.2-0.1-0.1-0.1,0.1-0.2c0.2-0.1,0.4-0.2,0.5-0.3c0.1-0.1,2.8-1.5,5.8-2.9c0.7-0.3,1.4-0.6,1.5-0.6c0.1,0,0.2-0.1,0.2-0.2
		s0.1-0.2,0.2-0.2s0.5-0.1,0.8-0.3c0.3-0.2,0.8-0.3,1.1-0.4s0.6-0.2,0.6-0.3s0.2-0.2,0.4-0.2s0.4-0.1,0.5-0.2s0.4-0.2,0.9-0.3
		c0.4-0.1,0.8-0.2,0.8-0.3s0.4-0.2,0.8-0.3c0.4-0.1,0.9-0.2,1-0.3c0.1-0.1,0.4-0.2,0.7-0.2C144.7,62.6,144.7,62.7,143.7,63.4
		 M189.3,0.2c-0.1,0.1-1,0.2-2.1,0.3c-1.1,0.1-2.2,0.2-2.4,0.3S184.1,1,183.6,1c-0.4,0-0.8,0.1-0.8,0.2s-0.7,0.2-1.5,0.3
		s-1.5,0.2-1.5,0.3c0,0.1-0.6,0.2-1.4,0.3c-0.8,0.1-1.5,0.2-1.6,0.3s-0.4,0.2-0.8,0.2s-0.7,0.1-0.7,0.2c0,0.1-0.6,0.2-1.2,0.3
		s-1.3,0.2-1.3,0.3c-0.1,0.1-0.6,0.2-1.1,0.3s-1.1,0.2-1.1,0.3c-0.1,0.1-1.5,0.5-3,0.7c-0.3,0.1-0.6,0.2-0.6,0.3
		c0,0.1-0.5,0.2-1.1,0.3s-1.1,0.2-1.1,0.3c-0.1,0.1-0.5,0.2-1,0.3c-0.5,0.1-0.9,0.2-1,0.3s-0.4,0.2-0.7,0.2s-0.6,0.1-0.7,0.2
		s-0.5,0.2-1,0.3s-0.9,0.2-0.9,0.3c0,0.1-0.4,0.2-0.9,0.3s-0.9,0.2-1,0.3s-0.3,0.2-0.6,0.2s-0.5,0.1-0.5,0.2c0,0.1-0.4,0.2-0.9,0.3
		c-0.5,0.1-0.9,0.2-0.9,0.3s-0.4,0.2-0.8,0.3c-0.4,0.1-0.9,0.2-1,0.3s-0.7,0.3-1.4,0.5s-1.2,0.4-1.3,0.5c-0.1,0.1-0.5,0.2-0.9,0.3
		c-0.4,0.1-0.7,0.2-0.7,0.3c0,0.1-0.1,0.2-0.3,0.2c-0.2,0-0.6,0.1-0.9,0.3s-0.7,0.3-0.9,0.3s-0.4,0.1-0.4,0.2s-0.3,0.2-0.7,0.3
		c-0.4,0.1-0.7,0.2-0.7,0.3s-0.1,0.2-0.3,0.2c-0.2,0-0.8,0.2-1.3,0.5c-2,0.9-3.6,1.7-3.8,1.7c-0.1,0-0.2,0.1-0.2,0.2
		c0,0.1-0.1,0.2-0.2,0.2c-0.2,0-3.8,1.7-4,1.9c-0.1,0.1-0.7,0.4-1.3,0.8c-1.3,0.7-6.2,3.7-6.3,3.9c-0.1,0.1-0.5,0.4-1.1,0.8
		c-0.5,0.4-1.1,0.7-1.2,0.9c-0.1,0.1-0.4,0.3-0.6,0.5c-0.2,0.2-0.6,0.5-0.8,0.6c-0.2,0.2-0.7,0.5-0.9,0.8c-0.8,0.6-1.3,1-2.3,2
		c-0.5,0.5-1.2,1-1.4,1.3c-2.2,1.9-6.8,6.8-8.6,9.2c-0.4,0.5-0.8,1-0.8,1c-0.1,0-0.6,0.8-1.2,1.6s-1.2,1.6-1.2,1.7
		c-0.3,0.4-2.3,3.7-2.6,4.4c-0.2,0.4-0.4,0.8-0.5,0.9c-0.2,0.2-1.9,4-1.9,4.2c0,0.1-0.1,0.4-0.3,0.7c-0.2,0.3-0.3,0.8-0.3,1
		s-0.1,0.4-0.2,0.4s-0.2,0.2-0.2,0.5c0,0.3-0.1,0.5-0.2,0.5s-0.2,0.5-0.3,1.1s-0.2,1.1-0.3,1.1c-0.1,0-0.2,0.6-0.3,1.4
		c-0.1,0.7-0.2,1.4-0.3,1.5c-0.2,0.1-0.2,6.8,0,6.9c0.1,0.1,0.2,0.5,0.3,0.9s0.2,0.9,0.3,1.1c1.9,4,4.1,6,7.1,6.5
		c0.4,0.1,0.8,0.2,0.9,0.3c0.2,0.3,6.3,0.2,6.6-0.1c0.1-0.1,0.3-0.2,0.4-0.1s-0.1,0.3-0.4,0.5c-1.8,1.1-4.3,3.7-4.5,4.7
		c-0.1,0.3-0.2,0.5-0.2,0.5c-0.3,0-0.6,2.3-0.4,3.2c0.5,1.8,1.8,3,3.1,3c0.2,0,0.4,0.1,0.5,0.2c0.2,0.2,6.6,0.3,6.6,0
		c0-0.1,0.7-0.2,1.4-0.3c0.8-0.1,1.5-0.2,1.6-0.3c0.1-0.1,0.3-0.2,0.6-0.2s0.5-0.1,0.5-0.2s0.5-0.2,1.1-0.3s1.1-0.2,1.1-0.3
		c0-0.1,0.3-0.2,0.7-0.3c0.4-0.1,1-0.3,1.5-0.5c0.4-0.2,1.1-0.4,1.5-0.5s0.6-0.2,0.6-0.3c0-0.1,0.4-0.2,0.8-0.3
		c0.4-0.1,0.8-0.2,0.8-0.3s0.1-0.2,0.3-0.2c0.1,0,0.5-0.1,0.8-0.3s0.7-0.3,1-0.3c0.2,0,0.4-0.1,0.4-0.2c0-0.1,0.3-0.2,0.7-0.3
		s0.7-0.2,0.8-0.3c0.1-0.1,0.3-0.2,0.5-0.2c0.3,0,1.2-0.3,2.1-0.8c0.2-0.1,0.6-0.2,1-0.3c0.4-0.1,0.7-0.2,0.7-0.3s0.4-0.2,0.9-0.3
		s0.9-0.2,1-0.3s0.3-0.2,0.6-0.2s0.5-0.1,0.6-0.2c0.1-0.1,0.6-0.2,1.2-0.3s1.1-0.2,1.1-0.3s0.6-0.2,1.2-0.3s1.3-0.2,1.4-0.3
		c0.1-0.1,0.4-0.2,0.8-0.2s0.8-0.1,0.9-0.2c0.3-0.3,6.6-0.3,6.7,0c0,0.1,0.2,0.2,0.4,0.2s0.6,0.4,1,0.8c1.6,1.7,0.7,3.8-2.6,6.5
		c-0.7,0.6-1.4,1.2-1.4,1.2s-0.4,0.3-0.9,0.5c-0.9,0.5-1.5,0.8-1.6,1c-0.1,0.1-0.7,0.4-2.3,1.3c-0.5,0.2-1.6,0.8-2.4,1.2
		c-0.8,0.4-1.9,0.9-2.3,1.1c-0.4,0.2-1,0.4-1.3,0.5c-0.3,0.1-0.6,0.2-0.6,0.3c-0.1,0.1-0.2,0.2-0.4,0.2s-0.6,0.1-0.9,0.3
		c-0.3,0.2-0.7,0.3-0.8,0.3c-0.1,0-0.3,0.1-0.3,0.2s-0.3,0.2-0.7,0.3s-0.9,0.2-1.2,0.4c-0.3,0.2-0.7,0.3-0.9,0.3s-0.3,0.1-0.3,0.2
		c0,0.1-0.2,0.2-0.5,0.2s-0.5,0.1-0.5,0.2s-0.3,0.2-0.8,0.3c-0.4,0.1-0.8,0.2-0.8,0.3s-0.1,0.2-0.3,0.2c-0.4,0-1.5,0.5-4.6,1.9
		c-5.7,2.7-9.8,6.9-10.2,10.4c-0.2,2.3,0.4,3.7,1.9,4.2c0.4,0.1,0.8,0.3,0.9,0.4c0.3,0.2,3.7,0.2,3.8,0c0.1-0.1,0.4-0.2,0.7-0.2
		c0.6,0,2.3-0.5,2.9-0.8c0.2-0.1,0.5-0.2,0.7-0.2c0.2,0,0.6-0.1,0.9-0.3c0.3-0.2,0.8-0.3,1.1-0.4s0.6-0.2,0.7-0.3
		c0.1-0.1,0.3-0.2,0.5-0.2s0.4-0.1,0.4-0.2s0.3-0.2,0.6-0.3c0.3-0.1,1-0.3,1.5-0.6c0.5-0.3,1.1-0.5,1.2-0.5s0.2-0.1,0.2-0.2
		c0-0.1,0.1-0.2,0.2-0.2c0.2,0,3.8-1.7,4-1.9c0.1-0.1,0.6-0.3,1.1-0.7c0.6-0.3,1.8-0.9,2.7-1.4c4.5-2.4,9.3-4.7,10.2-5
		c0.3-0.1,0.6-0.2,0.6-0.3c0.1-0.1,0.2-0.2,0.4-0.2c0.3,0,1.2-0.4,2-0.8c0.2-0.1,0.6-0.2,1-0.3c0.4-0.1,0.8-0.2,0.9-0.3
		s0.6-0.2,1-0.3s0.9-0.2,0.9-0.3s0.3-0.2,0.6-0.2c0.3,0,0.6-0.1,0.7-0.2c0.1-0.1,0.9-0.2,1.7-0.3c0.8-0.1,1.5-0.2,1.6-0.3
		c0.1-0.2,1.6-0.2,1.6,0c0,0.1,0.2,0.2,0.4,0.2c0.4,0,1.2,0.8,1.2,1.2c0,0.7-1.3,2.3-3.1,3.9c-1.2,1-7.1,4.3-7.8,4.3
		c-0.1,0-0.2,0.1-0.2,0.2s-0.4,0.2-0.8,0.3c-0.4,0.1-0.8,0.2-0.8,0.3s-0.2,0.2-0.4,0.2s-0.4,0.1-0.4,0.2s-0.4,0.2-0.9,0.3
		c-0.5,0.1-0.9,0.2-0.9,0.3s-0.4,0.2-0.8,0.3s-0.9,0.2-1.1,0.3c-0.5,0.2-2.2,0.8-2.6,0.8c-0.2,0-0.3,0.1-0.3,0.2s-0.4,0.2-0.9,0.3
		s-1,0.2-1.1,0.3c-0.1,0.1-0.5,0.2-1,0.3c-0.5,0.1-0.9,0.2-1,0.3s-0.4,0.2-0.7,0.2c-0.3,0-0.6,0.1-0.7,0.2s-0.4,0.2-0.9,0.3
		c-0.4,0.1-0.8,0.2-0.9,0.3s-0.3,0.2-0.5,0.2s-0.7,0.1-1,0.3s-0.7,0.3-0.8,0.3c-0.1,0-0.3,0.1-0.3,0.2c0,0.1-0.1,0.2-0.3,0.2
		c-0.6,0-4,1.6-5.7,2.8c-4.5,3-6.6,7.1-5.1,10c0.6,1.1,2,2,3.2,2c0.3,0,0.6,0.1,0.6,0.2c0,0.1,0.7,0.2,1.8,0.2c1,0,1.8-0.1,1.8-0.2
		c0-0.1,0.8-0.2,1.8-0.3s1.8-0.2,1.9-0.3c0.1-0.1,0.5-0.2,0.9-0.3c0.4-0.1,1-0.2,1.2-0.3c0.2-0.1,0.5-0.3,0.7-0.4
		c0.2-0.1,0.6-0.2,1-0.3c0.4-0.1,0.8-0.2,0.9-0.3c1.1-0.6,4.1-1.9,4.2-1.9c0.1,0,0.2-0.1,0.2-0.2s0.4-0.3,0.8-0.5s0.8-0.4,0.9-0.5
		s0.7-0.4,1.4-0.8c0.7-0.4,1.4-0.7,1.4-0.8s0.3-0.2,0.6-0.3c0.3-0.1,0.9-0.5,1.5-0.8s1.5-0.9,2.1-1.2s1.1-0.6,1.2-0.7
		c0.5-0.4,6.6-3.6,8.2-4.2c0.5-0.2,1.2-0.5,1.5-0.7c0.3-0.1,0.9-0.4,1.2-0.5s0.8-0.3,0.9-0.4c0.1-0.1,0.6-0.2,1-0.3s0.9-0.2,0.9-0.3
		c0.1-0.1,0.6-0.2,1.3-0.3s1.4-0.2,1.6-0.3c0.3-0.2,0.5-0.2,0.7,0c0.1,0.1,0.4,0.2,0.6,0.2c0.5,0,0.4,0.2-0.1,1.2
		c-0.9,1.5-5,5.2-5.6,5.2c-0.1,0-0.2,0.1-0.2,0.2s-0.2,0.2-0.4,0.3c-0.2,0.1-0.5,0.2-0.5,0.2c-0.2,0.2-2.5,1.4-4.5,2.3
		c-0.7,0.3-1.5,0.7-1.7,0.8c-0.2,0.1-0.4,0.2-0.6,0.2c-0.1,0-0.5,0.1-0.8,0.3c-0.3,0.2-1.1,0.4-1.7,0.6s-1.1,0.4-1.1,0.5
		c-0.1,0.1-0.4,0.2-0.8,0.2c-0.4,0.1-0.9,0.2-1.1,0.3c-0.2,0.1-0.9,0.3-1.5,0.5c-0.7,0.2-1.2,0.4-1.2,0.5s-0.4,0.2-1,0.3
		c-0.5,0.1-1,0.2-1,0.3s-0.4,0.2-0.9,0.3s-1,0.2-1.1,0.3c-0.1,0.1-0.3,0.2-0.6,0.2c-0.3,0-0.5,0.1-0.5,0.2s-0.4,0.2-0.9,0.3
		c-0.5,0.1-0.9,0.2-0.9,0.3s-0.4,0.2-0.9,0.3s-0.9,0.2-1,0.3s-0.2,0.2-0.4,0.2c-0.3,0-1.3,0.4-2,0.8c-0.2,0.1-0.4,0.2-0.6,0.2
		c-0.2,0-3.8,1.7-4,1.9c-0.1,0.1-0.4,0.3-0.8,0.5c-0.4,0.2-0.8,0.5-0.9,0.6s-0.7,0.6-1.3,1.1c-0.6,0.5-1.3,1.2-1.6,1.6
		s-0.7,0.9-0.9,1.2c-0.2,0.2-0.6,0.9-0.8,1.5c-0.3,0.6-0.6,1.2-0.6,1.4c-0.2,0.4-0.2,4.3,0,4.5c0.1,0.1,0.2,0.3,0.2,0.5
		c0,0.8,2.5,2.7,3.5,2.7c0.1,0,0.4,0.1,0.5,0.2c0.3,0.3,6.6,0.3,7,0c0.1-0.1,0.8-0.3,1.4-0.4s1.1-0.2,1.2-0.3
		c0.1-0.1,0.3-0.2,0.6-0.2c0.3,0,0.5-0.1,0.5-0.2c0-0.1,0.4-0.2,0.9-0.3c0.5-0.1,0.9-0.2,0.9-0.3c0-0.1,0.4-0.2,0.8-0.3
		c0.4-0.1,0.8-0.2,0.8-0.3c0-0.1,0.1-0.2,0.3-0.2c0.2,0,0.7-0.2,1.3-0.5c0.5-0.3,1.2-0.5,1.5-0.6c0.3-0.1,0.6-0.2,0.6-0.3
		s0.1-0.2,0.3-0.2s0.7-0.2,1.2-0.5s1.5-0.8,2.2-1.1s1.4-0.7,1.4-0.8c0.1-0.1,0.3-0.2,0.6-0.3c0.3-0.1,0.5-0.2,0.6-0.3
		c0.1-0.1,0.7-0.4,1.5-0.9c0.8-0.4,2-1.1,2.8-1.5s1.6-0.9,1.8-1c0.3-0.1,0.5-0.3,0.6-0.3c0.1-0.1,0.4-0.3,0.8-0.5
		c0.8-0.4,2.5-1.4,3.1-1.7c0.2-0.1,0.5-0.3,0.5-0.3c0.2-0.2,3.8-1.9,4-1.9c0.1,0,0.2-0.1,0.2-0.2s0.1-0.2,0.2-0.2
		c0.1,0,0.5-0.1,0.8-0.3c0.3-0.1,1.1-0.4,1.7-0.6s1.1-0.4,1.2-0.5c0.1-0.1,0.6-0.2,1.1-0.3c0.5-0.1,1-0.2,1.1-0.3
		c0.5-0.4,3.2-0.2,3.7,0.2c0.4,0.4,0.6,1,0.2,1c-0.1,0-0.2,0.2-0.2,0.4c0,1.5-2.6,4.7-5.6,6.9c-0.9,0.6-1.7,1.2-1.8,1.3
		c-0.5,0.4-5.6,3-7.4,3.8c-0.6,0.3-1.5,0.7-2,0.9c-0.5,0.2-1,0.4-1.2,0.4s-0.3,0.1-0.4,0.2c-0.1,0.1-0.3,0.2-0.4,0.2
		c-0.2,0-0.5,0.1-0.8,0.2c-0.3,0.1-1,0.4-1.6,0.6c-0.6,0.2-1.2,0.4-1.2,0.5c-0.1,0.1-0.5,0.2-1,0.3s-1,0.2-1,0.3
		c-0.1,0.1-0.5,0.2-1,0.3c-0.5,0.1-0.9,0.2-1,0.3s-0.3,0.2-0.6,0.2s-0.5,0.1-0.6,0.2c-0.1,0.1-0.5,0.2-1,0.3c-0.5,0.1-0.9,0.2-1,0.3
		s-0.5,0.2-1,0.3c-0.5,0.1-0.9,0.2-1,0.3c-0.1,0.1-0.3,0.2-0.5,0.2s-0.4,0.1-0.4,0.2s-0.3,0.2-0.7,0.3c-0.7,0.1-1.5,0.4-2.4,0.9
		c-0.2,0.1-0.5,0.2-0.6,0.2c-0.2,0-0.3,0.1-0.3,0.2c0,0.1-0.1,0.2-0.2,0.2c-1.5,0-5.4,3.1-6.2,4.8c-0.2,0.5-0.5,1.1-0.6,1.3
		c-0.3,0.6-0.3,4.9,0,5.3c0.1,0.1,0.2,0.5,0.2,0.8s0.1,0.5,0.2,0.5c0.1,0,0.2,0.2,0.2,0.4c0,1.1,2.7,5.6,4.8,8.1c2,2.3,5.9,5,7.3,5
		c0.2,0,0.4,0.1,0.4,0.2c0,0.1,0.5,0.2,1.1,0.3c0.6,0.1,1.1,0.2,1.1,0.3c0,0.2,0.6,0.3,2.9,0.6c0.9,0.1,1.8,0.3,2.1,0.4
		c0.6,0.3,12.2,0.3,12.5,0c0.1-0.1,1.3-0.3,2.5-0.3c1.2-0.1,2.3-0.2,2.4-0.3s0.7-0.2,1.3-0.2s1.2-0.1,1.2-0.2s1.1-0.2,2.4-0.3
		c1.5-0.1,2.5-0.2,2.6-0.4c0.2-0.3,13.4-0.3,13.8,0c0.1,0.1,0.6,0.3,1.1,0.4c0.4,0.1,1.2,0.3,1.7,0.6c0.5,0.2,1,0.5,1.1,0.5
		c0.4,0,0.5,0.9,0.2,2.6c-0.5,2.7-0.5,2.9-0.8,5.1c-0.1,1.2-0.3,2.2-0.4,2.3c-0.1,0.1-0.2,1.5-0.3,3c-0.1,1.6-0.2,2.8-0.3,2.8
		c-0.1,0-0.2,0.8-0.2,1.8c0,1.1-0.1,1.9-0.2,2c-0.2,0.2-0.2,3.3-0.3,11.8l-0.1,11.5l-1.6,1.7c-2.7,2.8-4.6,4.5-6.6,6.2
		c-0.5,0.4-1,0.8-1.1,0.9c-0.1,0.1-0.6,0.5-1.2,1c-0.6,0.5-1.2,0.9-1.2,1c-0.1,0.1-0.7,0.5-1.3,1.1c-0.7,0.5-1.3,1-1.4,1.1
		c-5,4-5.3,4.2-8.4,7.3c-3.1,3.1-4.5,4.7-5.7,6.7c-0.2,0.3-0.4,0.6-0.5,0.7c-0.5,0.5-3.4,6.3-3.4,6.9c0,0.1-0.1,0.4-0.2,0.6
		c-0.3,0.6-0.8,2.3-0.8,2.7c0,0.2-0.1,0.5-0.2,0.6c-0.1,0.1-0.3,1-0.3,2.1c-0.1,1-0.2,1.9-0.3,1.9c-0.2,0-0.2,3.4,0,3.5
		c0.1,0.1,0.2,0.9,0.3,1.9c0.1,1,0.2,1.9,0.3,2c0.1,0.1,0.2,0.4,0.2,0.5c0,1.7,3.5,6.6,5.5,7.6c0.4,0.2,0.8,0.4,0.9,0.5
		s0.4,0.2,0.8,0.3c0.4,0.1,0.7,0.2,0.7,0.3c0,0.1,0.2,0.2,0.5,0.2s0.5,0.1,0.5,0.2c0,0.1,1,0.2,2.1,0.3c1.1,0.1,2.1,0.2,2.2,0.3
		c0.1,0.2,3,0.2,3,0c0-0.1,1.4-0.2,3.2-0.3c1.8-0.1,3.3-0.2,3.4-0.3c0.5-0.4,6.3,0.1,6.9,0.6c0.1,0.1,0.4,0.2,0.7,0.3
		c0.3,0.1,0.9,0.4,1.4,0.6l0.9,0.5l-0.1,1.4c-0.5,5.6-0.6,21.2-0.3,24.4c0.1,0.9,0.2,2.1,0.3,2.6c0.1,0.6,0.2,1,0.2,1
		s0.2,0.6,0.3,1.4s0.2,1.5,0.3,1.6s0.2,0.6,0.3,1.1c0.1,0.5,0.2,1,0.3,1c0.1,0.1,0.2,0.3,0.2,0.6c0,0.3,0.1,0.5,0.2,0.5
		s0.2,0.4,0.3,0.9c0.1,0.5,0.2,0.9,0.3,0.9c0.1,0,0.2,0.1,0.2,0.2c0,0.4,0.7,1.8,1.1,2.2c0.2,0.2,0.4,0.5,0.4,0.6
		c0,0.3,1.1,1.2,1.4,1.2c0.1,0,0.3,0.1,0.3,0.2c0,0.1,0.2,0.2,0.4,0.2s0.4,0.1,0.5,0.2c0.1,0.1,0.7,0.2,1.4,0.2c2.6,0,4.6-1.8,5-4.5
		c0.1-0.5,0.2-0.9,0.3-0.9c0.9,0,0.9-17.1,0-18.2c-0.1-0.1-0.2-0.9-0.3-1.8c-0.1-0.9-0.2-1.6-0.3-1.6s-0.2-0.5-0.3-1.2
		s-0.2-1.3-0.3-1.4c-0.1-0.1-0.2-0.4-0.2-0.7s-0.1-0.6-0.2-0.6c-0.1-0.1-0.2-0.5-0.3-1c-0.1-0.5-0.2-0.9-0.3-0.9s-0.2-0.3-0.3-0.7
		c-0.1-0.4-0.3-1-0.5-1.4s-0.4-0.8-0.4-0.9c0-0.2-1.2-2.7-1.4-2.9c-0.1,0-0.2-0.3-0.3-0.5c-0.1-0.2-0.2-0.4-0.3-0.4
		s-0.2-0.2-0.3-0.4c-0.1-0.2-0.3-0.7-0.6-1c-0.3-0.3-0.5-0.6-0.5-0.7c0-0.1-0.6-0.8-1.3-1.6l-1.3-1.4l0.1-3.9c0.1-2.1,0.2-4,0.3-4.1
		s0.2-4.3,0.3-9.3c0.1-5,0.2-9.1,0.3-9.1c0.2,0,0.2-10.4,0-10.4c-0.1,0-0.2-4.3-0.2-10.1l-0.1-10l0.6-0.8c0.3-0.4,0.6-0.8,0.7-0.9
		s0.5-0.8,1.1-1.5c0.5-0.8,1-1.5,1.1-1.5c0.3-0.3,3.2-5.9,4.1-8c0.2-0.4,0.4-0.9,0.5-1.1s0.2-0.6,0.3-1c0.1-0.4,0.2-0.8,0.3-0.9
		c0.1-0.1,0.3-0.7,0.5-1.4c0.2-0.6,0.4-1.3,0.5-1.5c0.1-0.2,0.2-0.8,0.3-1.2c0.1-0.5,0.2-1,0.3-1.1c0.1-0.1,0.2-0.9,0.3-1.7
		s0.2-1.5,0.3-1.5s0.2-0.7,0.2-1.5c0-0.9,0.1-1.5,0.2-1.5c0.1,0,0.2-0.8,0.2-2c0-1.1-0.1-2.1-0.2-2.1c-0.1-0.1-0.2-0.7-0.2-1.5
		s-0.1-1.3-0.2-1.3c-0.1,0-0.2-0.6-0.3-1.4s-0.2-1.4-0.3-1.4s-0.2-0.3-0.3-0.7c-0.1-0.4-0.3-1.1-0.5-1.5c-0.2-0.4-0.5-1.1-0.7-1.5
		c-0.8-1.7-2.6-4-4.5-5.6l-0.6-0.5l0.3-1c0.2-0.6,0.4-1.3,0.6-1.6c0.1-0.3,0.3-0.7,0.3-0.9c0-0.1,0.1-0.4,0.3-0.6
		c0.2-0.2,0.3-0.5,0.3-0.7s0.1-0.4,0.2-0.4s0.3-0.4,0.5-0.8c0.4-0.8,2.1-2.7,2.5-2.7c0.6,0,3.9,4.2,3.9,5c0,0.1,0.1,0.2,0.2,0.2
		c0.1,0,0.2,0.1,0.2,0.2c0,0.2,0.5,1.4,1.2,2.8c0.2,0.4,0.4,1,0.5,1.4c0.1,0.3,0.2,0.7,0.3,0.8c0.1,0.1,0.2,0.6,0.3,1
		c0.1,0.4,0.2,0.9,0.3,0.9c0.1,0.1,0.2,0.3,0.2,0.5c0,0.2,0.1,0.4,0.2,0.4s0.2,0.5,0.3,1.1c0.1,0.6,0.2,1.2,0.3,1.3
		c0.1,0.1,0.2,0.7,0.3,1.4c0.1,0.7,0.2,1.4,0.3,1.5c0.2,0.2,0.6,2.9,0.7,4.6c0.1,0.7,0.2,1.3,0.3,1.3s0.2,1.2,0.3,2.6
		c0.1,1.5,0.2,2.7,0.3,2.8c0.1,0.1,0.2,1.9,0.3,4.1c0.1,2.2,0.2,4.1,0.3,4.1c0.1,0.1,0.2,2.5,0.2,5.4c0,3.4,0.1,5.3,0.2,5.3
		c0.2,0,0.2,0.8,0,1.1c-0.1,0.1-0.2,2.8-0.3,6.4c-0.1,8.4-0.5,19.6-0.7,19.7c-0.1,0.1-0.2,3.1-0.3,6.9c-0.1,3.7-0.2,6.8-0.3,7
		c-0.5,0.7-0.5,37.5,0,38.2c0.1,0.1,0.2,2.8,0.3,5.9c0.1,3.1,0.2,5.7,0.3,5.8c0.1,0.1,0.5,6.6,0.7,13.7c0.1,1.6,0.2,3.1,0.3,3.2
		c0.2,0.2,0.2,10.3,0,10.3c-0.1,0-0.2,0.6-0.2,1.4c0,1.8-0.3,2.5-1.1,2.5c-0.3,0-0.6,0.1-0.6,0.2s-1.8,0.2-4,0.3
		c-2.2,0.1-4.1,0.2-4.2,0.3c-0.1,0.1-0.6,0.2-1.2,0.2c-0.6,0-1,0.1-1,0.2c0,0.1-0.8,0.2-1.7,0.3c-0.9,0.1-1.7,0.2-1.7,0.3
		c0,0.1-0.5,0.2-1.1,0.3c-0.6,0.1-1.2,0.2-1.4,0.3c-0.2,0.1-0.9,0.3-1.5,0.5c-0.7,0.2-1.2,0.4-1.3,0.5s-0.2,0.2-0.4,0.2
		c-0.3,0-1.8,0.7-3.2,1.5c-0.9,0.5-2.4,2.1-2.5,2.8c-0.1,0.3-0.2,0.6-0.3,0.6c-0.2,0-0.2,3.2,0,3.4c0.1,0.1,0.2,0.3,0.2,0.5
		c0,0.9,2.6,3.4,3.5,3.4c0.2,0,0.3,0.1,0.3,0.2c0,0.1,0.3,0.2,0.7,0.3c0.4,0.1,0.8,0.2,0.9,0.3c0.6,0.4,1.8,0.6,3.6,0.8
		c1.1,0.1,2.1,0.2,2.2,0.3c0.1,0.2,2.3,0.2,2.5,0c0.1-0.1,0.7-0.2,1.5-0.2s1.8-0.1,2.2-0.2c0.5-0.1,1.1-0.2,1.4-0.3s0.5-0.2,0.5-0.3
		c0-0.1,0.4-0.2,0.9-0.3s0.9-0.2,0.9-0.3s0.1-0.2,0.3-0.2c0.4,0,1.6-0.6,1.6-0.8c0-0.1,0.1-0.2,0.2-0.2c0.9,0,4.1-3.7,4.8-5.5
		c0.1-0.3,0.3-0.6,0.4-0.6s0.1-0.1,0.1-0.3s0.1-0.5,0.3-0.8c0.2-0.3,0.3-0.7,0.3-0.9s0.1-0.3,0.2-0.3c0.1,0,0.2-0.5,0.3-1.1l0.1-1.1
		l6,0.1c3.6,0.1,6,0.2,6.1,0.3c0.1,0.1,0.8,0.2,1.6,0.2s1.4,0.1,1.5,0.1c0.1,0.1,1.1,0.2,2.3,0.4c4.5,0.5,6,0.7,6.1,0.8
		c0.1,0.1,0.5,0.2,1,0.2c1.3,0.2,3.5,0.6,3.7,0.7c0.1,0.1,0.7,0.2,1.4,0.3c0.7,0.1,1.2,0.2,1.2,0.3c0,0.1,0.5,0.2,1.1,0.3
		s1.2,0.2,1.3,0.3s0.3,0.2,0.6,0.2s0.5,0.1,0.6,0.2c0.1,0.1,0.5,0.2,1.1,0.3c0.5,0.1,1,0.2,1,0.3s0.4,0.2,0.8,0.3
		c0.4,0.1,0.9,0.2,1,0.3c0.1,0.1,0.7,0.3,1.3,0.5c0.6,0.2,1.3,0.5,1.7,0.6c0.3,0.1,0.7,0.3,0.9,0.3s0.3,0.1,0.3,0.2s0.1,0.2,0.3,0.2
		s0.4,0.1,0.6,0.2c0.2,0.1,1.7,0.9,3.4,1.7c1.7,0.8,3.2,1.7,3.5,1.9c0.2,0.2,0.6,0.4,0.8,0.5c0.2,0.1,0.4,0.2,0.4,0.3
		s0.1,0.2,0.2,0.2c0.1,0,0.5,0.3,0.9,0.6c0.4,0.3,0.8,0.6,0.9,0.6s0.2,0.1,0.4,0.2c0.1,0.1,0.8,0.6,1.4,1.1
		c4.6,3.5,9.7,9.6,10.4,12.6c0.1,0.3,0.2,0.6,0.3,0.7c0.1,0.1,0.2,0.6,0.3,1c0.1,0.5,0.2,0.9,0.3,0.9c0.1,0.1,0.2,0.5,0.2,1
		s0.1,0.9,0.2,0.9s0.2,0.4,0.2,1s-0.1,1-0.2,1s-0.2,0.4-0.2,1c0,0.5-0.1,1-0.2,1.1c-0.1,0.1-0.2,0.3-0.2,0.5c0,0.2-0.2,0.8-0.4,1.2
		c-0.2,0.4-0.4,0.9-0.4,1c0,0.1-0.1,0.2-0.2,0.2c-0.1,0-0.2,0.1-0.3,0.3c-0.1,0.4-0.5,0.9-0.8,1.3c-0.1,0.1-0.3,0.4-0.5,0.6
		c-0.2,0.2-0.9,1-1.6,1.7c-1.8,1.8-1.8,1.8-2,1.8c-0.1,0-0.2,0.1-0.3,0.3s-0.2,0.3-0.4,0.3c-0.1,0-0.3,0.1-0.3,0.1
		c-0.3,0.8-8.9,5.1-10.2,5.1c-0.2,0-0.3,0.1-0.3,0.2c0,0.1-0.4,0.2-0.9,0.3c-0.5,0.1-0.9,0.2-0.9,0.3c0,0.1-0.5,0.2-1,0.3
		c-0.6,0.1-1.1,0.2-1.1,0.3s-0.3,0.2-0.7,0.2c-0.4,0-0.7,0.1-0.7,0.2c0,0.1-0.6,0.2-1.3,0.3c-0.7,0.1-1.3,0.2-1.3,0.3
		c0,0.1-0.7,0.2-1.5,0.3c-0.8,0.1-1.6,0.2-1.6,0.3c-0.1,0.1-0.5,0.2-1,0.2c-0.5,0-0.9,0.1-1,0.2c-0.1,0.1-1,0.2-2.2,0.3
		s-2.1,0.2-2.2,0.3c0,0.1-1.6,0.2-3.4,0.3c-2,0.1-3.3,0.2-3.4,0.4c-0.2,0.3-21.7,0.3-22.1,0c-0.1-0.1-1.8-0.3-4.1-0.4
		c-2.1-0.1-3.8-0.2-3.9-0.3c-0.1-0.1-1.3-0.2-2.7-0.3c-1.4-0.1-2.6-0.2-2.7-0.3s-0.7-0.2-1.3-0.2c-0.7,0-1.3-0.1-1.3-0.2
		c-0.1-0.1-1-0.2-2.1-0.3s-2.1-0.2-2.3-0.3s-1.1-0.2-2.1-0.3c-1-0.1-1.8-0.2-1.8-0.3s-0.4-0.2-0.9-0.2s-0.9-0.1-1-0.2
		c-0.1-0.1-0.8-0.2-1.6-0.3c-0.8-0.1-1.5-0.2-1.5-0.3c-0.1-0.1-0.7-0.2-1.5-0.3c-0.8-0.1-1.5-0.2-1.5-0.3c-0.1-0.1-0.4-0.2-0.8-0.2
		c-0.4,0-0.7-0.1-0.8-0.2c-0.1-0.1-0.6-0.2-1.3-0.3c-0.7-0.1-1.3-0.2-1.4-0.3c-0.1-0.1-0.7-0.2-1.2-0.3c-0.6-0.1-1.1-0.2-1.2-0.3
		c-0.1-0.1-0.5-0.2-0.9-0.2c-0.4-0.1-1.2-0.2-1.8-0.4s-1.6-0.4-2.3-0.5c-0.6-0.1-1.1-0.3-1.1-0.4c0-0.1-0.5-0.2-1.1-0.3
		c-0.6-0.1-1.1-0.2-1.1-0.3s-0.2-0.2-0.6-0.2s-0.6-0.1-0.7-0.2s-0.5-0.2-1-0.3s-0.9-0.2-0.9-0.3s-0.5-0.2-1.1-0.3s-1.1-0.2-1.1-0.3
		s-0.2-0.2-0.5-0.2s-0.5-0.1-0.6-0.2s-0.4-0.2-0.9-0.3c-0.4-0.1-0.8-0.2-0.9-0.3c-0.1-0.1-0.5-0.2-1-0.3c-0.5-0.1-0.9-0.2-0.9-0.3
		s-0.2-0.2-0.4-0.2s-0.6-0.1-0.9-0.3s-0.7-0.3-0.9-0.3c-0.2,0-0.3-0.1-0.3-0.2c0-0.1-0.3-0.2-0.7-0.3c-0.4-0.1-0.9-0.2-1.2-0.4
		c-0.3-0.1-0.6-0.3-0.7-0.3c-0.1,0-1-0.4-3-1.3c-0.3-0.1-0.7-0.3-0.9-0.3s-0.3-0.1-0.3-0.2c0-0.1-0.1-0.2-0.2-0.2
		c-0.3,0-5.6-2.7-7-3.5c-0.6-0.4-1.3-0.7-1.4-0.7s-0.2-0.1-0.2-0.2c0-0.1-0.2-0.2-0.5-0.3s-0.5-0.2-0.5-0.3s-0.1-0.2-0.2-0.2
		c-0.2,0-4.9-3.1-5.2-3.5c-0.1-0.1-0.3-0.2-0.5-0.4c-1.9-1.3-5.8-5.2-7-6.9c-0.2-0.2-0.4-0.5-0.5-0.6s-0.4-0.5-0.6-0.9
		c-0.2-0.4-0.4-0.7-0.5-0.8c-0.2-0.2-0.7-1.4-1.1-2.5c-0.2-0.6-0.4-1.1-0.5-1.2c-0.2-0.2-0.2-4.3,0.1-4.4c0.1,0,0.2-0.3,0.2-0.5
		s0.1-0.5,0.2-0.5c0.1,0,0.2-0.2,0.2-0.4c0-1,3.1-4.8,5.2-6.2c0.2-0.2,0.5-0.4,0.6-0.5c0.3-0.3,0.9-0.6,1.3-0.8
		c0.2-0.1,0.3-0.2,0.4-0.2c0.2-0.2,3.7-1.9,4-1.9c0.1,0,0.2-0.1,0.2-0.2s0.3-0.2,0.7-0.3s0.7-0.2,0.8-0.3c0.1-0.1,0.2-0.2,0.4-0.2
		c0.2,0,0.6-0.1,1-0.3c1.3-0.6,1.5-0.6,2.1-0.8c0.4-0.1,0.8-0.2,0.9-0.3c0.1-0.1,0.5-0.2,0.9-0.3c0.8-0.2,1.9-0.5,2.2-0.7
		c0.1-0.1,0.7-0.2,1.3-0.3c0.6-0.1,1.1-0.2,1.1-0.3c0-0.1,0.6-0.2,1.2-0.3s1.3-0.2,1.4-0.3c0.1-0.1,0.3-0.2,0.6-0.2
		c0.6,0,3.7-0.6,4.1-0.8c0.2-0.1,1.1-0.2,2.1-0.3c1-0.1,1.9-0.2,1.9-0.3c0.1-0.1,3.8-0.5,7.2-0.7c0.9-0.1,1.9-0.2,2-0.3
		c0.4-0.3,20.2-0.3,20.6,0c0.3,0.3,1.7,0.3,1.7,0.1c0-0.1,0.2-0.2,0.4-0.3c0.4-0.2,0.4-0.3,0.4-1.4c0-1-0.1-1.2-0.4-1.4
		c-0.2-0.1-0.4-0.3-0.4-0.3s-0.3-0.1-0.7-0.1s-0.8-0.1-1-0.2c-0.2-0.2-2.7-0.2-11.4-0.2s-11.2,0-11.4,0.2c-0.1,0.2-0.8,0.2-1.9,0.2
		c-0.9,0-1.7,0.1-1.7,0.2s-1.2,0.2-2.6,0.3s-2.6,0.2-2.6,0.3c0,0.1-0.8,0.2-1.8,0.3c-1,0.1-1.9,0.2-2,0.3s-0.7,0.2-1.4,0.3
		c-1.2,0.1-2.8,0.5-3.4,0.7c-0.2,0.1-0.8,0.2-1.4,0.3s-1,0.2-1,0.3c0,0.1-0.5,0.2-1.1,0.3c-0.6,0.1-1.2,0.2-1.3,0.3
		s-0.4,0.2-0.7,0.2s-0.6,0.1-0.6,0.2s-0.5,0.2-1.1,0.3s-1.1,0.2-1.1,0.3c-0.1,0.1-0.4,0.2-0.9,0.3s-0.8,0.2-0.9,0.3
		s-0.3,0.2-0.6,0.2s-0.5,0.1-0.5,0.2c0,0.1-0.3,0.2-0.7,0.3c-0.4,0.1-0.9,0.2-1.2,0.4s-0.6,0.3-0.8,0.3c-0.2,0-0.3,0.1-0.3,0.2
		c0,0.1-0.1,0.2-0.3,0.2c-0.2,0-0.4,0.1-0.6,0.2s-0.9,0.4-1.5,0.7c-2.9,1.4-5.5,3.1-7.3,4.8c-0.9,0.9-2.4,2.7-2.4,3
		c0,0.1-0.1,0.2-0.2,0.2c-0.1,0-0.2,0.1-0.2,0.2c0,0.1-0.1,0.4-0.3,0.5s-0.4,0.7-0.6,1.3s-0.4,1-0.5,1.1s-0.2,0.4-0.2,0.6
		c0,0.2-0.1,0.5-0.2,0.6c-0.6,0.6-0.2,7.5,0.4,8.4c0.1,0.1,0.2,0.5,0.3,0.9c0.1,0.4,0.2,0.7,0.3,0.7c0.1,0,0.2,0.1,0.2,0.3
		c0,0.3,0.6,1.4,0.8,1.6c0.1,0,0.2,0.3,0.2,0.5s0.2,0.4,0.3,0.4s0.2,0.1,0.3,0.3c0.1,0.4,0.5,1,0.9,1.4c0.1,0.1,0.5,0.6,0.8,1
		c0.6,0.9,3.4,3.7,4.6,4.7c0.5,0.4,1.1,0.9,1.4,1.2s0.9,0.7,1.2,0.9s0.9,0.6,1.1,0.9c0.3,0.2,0.8,0.6,1.1,0.8s0.6,0.4,0.6,0.5
		c0,0.1,0.1,0.1,0.2,0.1c0.1,0,0.6,0.3,1,0.6c0.4,0.3,0.9,0.6,1.1,0.6s0.3,0.1,0.3,0.1s0.3,0.3,0.7,0.5s0.8,0.4,0.8,0.5
		c0.1,0.1,0.5,0.3,1.1,0.6c0.5,0.3,1,0.5,1.1,0.6c0.2,0.2,2.5,1.4,2.8,1.4c0.1,0,0.3,0.1,0.3,0.2c0.1,0.1,0.7,0.5,3.5,1.8
		c1.8,0.8,2.6,1.1,2.9,1.1c0.2,0,0.3,0.1,0.3,0.2c0,0.1,0.1,0.2,0.3,0.2s0.5,0.1,0.8,0.3c0.3,0.2,0.7,0.3,0.9,0.3
		c0.2,0,0.4,0.1,0.4,0.2c0.1,0.1,0.4,0.2,0.8,0.3c0.4,0.1,0.7,0.2,0.7,0.3s0.2,0.2,0.4,0.2c0.4,0,1.4,0.4,2.6,0.9
		c0.3,0.1,0.8,0.3,1,0.3c0.2,0,0.4,0.1,0.5,0.2s0.5,0.2,0.9,0.3c0.4,0.1,1,0.2,1.1,0.3c0.2,0.1,0.5,0.2,0.7,0.4
		c0.2,0.1,0.7,0.2,1.1,0.3c0.4,0.1,0.8,0.2,0.8,0.3s0.5,0.2,1.1,0.3s1.1,0.2,1.1,0.3s0.2,0.2,0.5,0.3c1.4,0.3,2.7,0.6,2.9,0.8
		c0.1,0.1,0.7,0.2,1.2,0.3c0.5,0.1,1,0.2,1,0.3c0,0.1,0.3,0.2,0.6,0.2c1.3,0.2,2.9,0.6,3.1,0.7c0.1,0.1,0.7,0.2,1.2,0.3
		c0.6,0.1,1.1,0.2,1.2,0.3c0.1,0.1,0.7,0.2,1.4,0.3c0.7,0.1,1.2,0.2,1.3,0.3c0.1,0.1,0.4,0.2,0.8,0.2c0.4,0,0.7,0.1,0.8,0.2
		s0.8,0.2,1.6,0.3c0.8,0.1,1.4,0.2,1.4,0.3c0,0.1,0.7,0.2,1.6,0.3c0.9,0.1,1.6,0.2,1.6,0.3c0,0.1,0.3,0.2,0.8,0.2s0.8,0.1,0.9,0.2
		c0.1,0.1,0.9,0.2,1.8,0.3c0.9,0.1,1.8,0.2,1.8,0.3c0.1,0.1,1.1,0.2,2.3,0.3c1.2,0.1,2.2,0.2,2.2,0.3c0,0.1,0.5,0.2,1.2,0.3
		c4.4,0.4,6.4,0.6,6.6,0.7c0.1,0.1,1.8,0.2,3.7,0.3s3.5,0.2,3.5,0.3c0,0.2,5.7,0.4,13.9,0.4c8,0,13.1-0.2,13.1-0.4
		c0-0.1,1.4-0.2,3-0.3c1.6-0.1,3.1-0.2,3.3-0.3c0.2-0.1,1.2-0.3,2.3-0.4c3.4-0.4,3.8-0.4,3.8-0.6c0-0.1,0.6-0.2,1.4-0.3
		c0.8-0.1,1.4-0.2,1.4-0.3c0-0.1,0.6-0.2,1.3-0.3s1.3-0.2,1.3-0.3c0-0.1,0.3-0.2,0.6-0.2c0.3,0,0.6-0.1,0.6-0.2
		c0-0.1,0.5-0.2,1.1-0.3c0.6-0.1,1-0.2,1-0.3s0.4-0.2,0.9-0.3c0.5-0.1,1-0.2,1.2-0.3c0.2-0.1,0.5-0.3,0.8-0.4s0.7-0.2,1-0.3
		c0.4-0.1,0.7-0.2,0.7-0.3s0.4-0.2,0.8-0.3c0.4-0.1,0.8-0.2,0.8-0.3s0.5-0.3,1-0.5s1.1-0.4,1.1-0.5c0-0.1,0.1-0.1,0.2-0.1
		c0.3,0,2.7-1.2,2.7-1.4c0-0.1,0.1-0.1,0.2-0.1c0.2,0,2.6-1.6,3.1-2c0.1-0.1,0.6-0.5,1.1-1c1.1-0.9,2.2-2,2.9-3
		c0.3-0.4,0.6-0.8,0.7-0.9c0.1-0.1,0.4-0.5,0.6-1c0.2-0.4,0.4-0.8,0.5-0.9c0.1,0,0.3-0.4,0.4-0.9c0.2-0.4,0.4-0.9,0.5-1.1
		c0.1-0.2,0.2-0.7,0.3-1.1c0.1-0.4,0.2-0.8,0.3-0.9c0.1-0.1,0.2-0.4,0.2-0.7c0-0.3,0.1-0.7,0.2-0.8c0.4-0.4,0-7.4-0.4-7.4
		c-0.1,0-0.2-0.4-0.3-1c-0.1-0.5-0.2-1-0.3-1s-0.2-0.4-0.3-0.8c-0.1-0.4-0.2-0.8-0.3-0.8s-0.2-0.2-0.2-0.4c0-0.2-0.1-0.4-0.2-0.4
		c-0.1,0-0.2-0.2-0.3-0.5c-0.1-0.3-0.3-0.8-0.6-1.2s-0.5-0.8-0.5-1c0-0.1-0.1-0.2-0.2-0.2s-0.2-0.1-0.2-0.2c0-0.2-0.7-1.2-1-1.5
		c0,0-0.5-0.6-1-1.2c-1.3-1.7-3.9-4.3-6-5.9c-0.5-0.4-0.9-0.7-1-0.8c0-0.1-0.7-0.5-1.5-1.1s-1.5-1-1.5-1.1c0-0.1-0.4-0.3-0.8-0.5
		s-0.7-0.4-0.8-0.5c0,0-0.4-0.3-0.8-0.5c-0.4-0.2-1.1-0.6-1.5-0.9c-1.5-0.8-3-1.6-3.2-1.6c-0.1,0-0.2-0.1-0.2-0.1s-0.6-0.4-1.3-0.6
		s-1.3-0.5-1.3-0.6s-0.1-0.1-0.3-0.1s-0.5-0.1-0.8-0.3c-0.3-0.2-0.7-0.3-0.9-0.3c-0.2,0-0.4-0.1-0.4-0.2s-0.5-0.2-0.9-0.3
		c-0.4-0.1-0.8-0.2-0.8-0.3s-0.2-0.2-0.5-0.2s-0.5-0.1-0.6-0.2c-0.1-0.1-0.3-0.2-0.5-0.2s-0.7-0.1-1-0.3c-0.3-0.1-0.9-0.3-1.4-0.4
		c-0.5-0.1-0.9-0.2-1-0.3s-0.4-0.2-0.7-0.2c-0.3,0-0.6-0.1-0.7-0.2s-0.6-0.2-1.2-0.3c-0.6-0.1-1-0.2-1-0.3s-0.6-0.2-1.2-0.3
		c-0.7-0.1-1.2-0.2-1.2-0.3c0-0.1-0.4-0.2-0.8-0.3c-2.2-0.3-3.8-0.6-3.8-0.7c0-0.1-0.8-0.2-1.8-0.3c-1-0.1-1.8-0.2-1.8-0.3
		c0-0.1-1-0.2-2.3-0.3c-1.3-0.1-2.3-0.2-2.3-0.3c0-0.1-0.6-0.2-1.3-0.2c-0.7,0-1.4-0.1-1.5-0.2c-0.1-0.1-2.3-0.2-4.9-0.3
		c-2.6-0.1-4.8-0.2-4.9-0.3s-0.9-0.2-1.8-0.2h-1.7v-0.7c0-0.4,0.1-0.7,0.2-0.8c0.1-0.1,0.2-3,0.2-8c0-5.1-0.1-7.9-0.2-7.9
		s-0.2-1-0.2-2.7c0-1.5-0.1-3.1-0.2-3.6c-0.1-0.5-0.2-3-0.3-5.5c-0.1-2.5-0.2-4.6-0.3-4.7c-0.1-0.1-0.2-2.9-0.3-6.2
		c-0.1-3.6-0.2-6.1-0.3-6.2c-0.3-0.4-0.3-31,0-31.3c0.1-0.2,0.2-2.8,0.3-7c0.1-3.7,0.2-6.8,0.3-6.9c0.1-0.1,0.2-1.4,0.2-2.9
		c0-1.5,0.1-4.3,0.2-6.3c0.6-10.3,0.9-27.2,0.6-27.9c-0.1-0.2-0.2-1.9-0.3-3.9c-0.1-4.1-0.5-10.1-0.7-10.4c-0.1-0.1-0.2-1.3-0.3-2.7
		s-0.2-2.6-0.3-2.8c-0.1-0.3-0.5-2.4-0.7-4.6c-0.1-0.6-0.2-1-0.3-1c-0.1,0-0.2-0.6-0.3-1.4c-0.1-0.7-0.2-1.4-0.3-1.4
		c-0.1,0-0.2-0.4-0.3-1c-0.1-0.5-0.2-1-0.3-1.1c-0.1-0.1-0.2-0.4-0.2-0.7s-0.1-0.6-0.2-0.7c-0.1-0.1-0.2-0.5-0.3-1
		c-0.1-0.5-0.2-0.9-0.3-0.9s-0.2-0.2-0.2-0.4c0-0.2-0.1-0.7-0.3-1c-0.2-0.3-0.3-0.7-0.3-0.8s-0.1-0.3-0.2-0.3
		c-0.1,0-0.2-0.3-0.3-0.6c-0.1-0.3-0.2-0.8-0.3-0.9c-0.1-0.2-0.4-0.9-0.8-1.6c-2.2-4.4-3.8-6.1-6.6-6.9c-1.9-0.6-4.6,0.8-6.2,3.2
		c-0.7,1.1-1.7,3.1-1.7,3.5c0,0.2-0.1,0.3-0.2,0.3s-0.2,0.4-0.3,0.8c-0.1,0.4-0.2,0.9-0.3,1c-0.1,0.1-0.3,0.6-0.4,1
		c-0.2,0.8-0.8,1-1.2,0.5c-0.2-0.2-2-0.8-2.4-0.8c-0.2,0-0.5-0.1-0.6-0.2s-1.2-0.2-2.3-0.3c-1.2-0.1-2.1-0.2-2.1-0.3
		s-1.4-0.2-3.2-0.2s-3.2,0.1-3.2,0.2c0,0.1-1.4,0.2-3.2,0.3s-3.3,0.2-3.3,0.3c-0.1,0.1-1.1,0.2-2.4,0.3c-1.3,0.1-2.4,0.2-2.6,0.3
		c-0.2,0.1-0.8,0.2-1.3,0.2c-0.5,0-1,0.1-1,0.2s-1.2,0.2-2.7,0.3s-2.7,0.2-2.7,0.3s-1.9,0.2-4.2,0.2c-2.3,0-4.2-0.1-4.2-0.2
		s-0.9-0.2-1.9-0.3c-1.1-0.1-2-0.2-2-0.3c-0.1-0.1-0.4-0.2-0.8-0.2s-0.7-0.1-0.8-0.2c-0.1-0.1-0.5-0.2-1.1-0.3c-0.5-0.1-1-0.2-1-0.3
		s-0.3-0.2-0.6-0.3c-1.6-0.3-6-4.1-7.2-6.2c-0.3-0.5-0.7-1.2-1-1.5c-0.2-0.3-0.4-0.7-0.4-0.8s-0.1-0.3-0.1-0.3c-0.1,0-0.3-0.5-0.6-1
		s-0.5-1.1-0.6-1.3c-0.1-0.2-0.2-0.5-0.2-0.7s-0.1-0.4-0.2-0.5c-0.1-0.1-0.2-0.7-0.2-1.4c0-0.7,0.1-1.2,0.2-1.2s0.2-0.1,0.2-0.3
		c0-0.3,1.8-2.2,2.3-2.3c0.2-0.1,0.4-0.2,0.4-0.3s0.1-0.2,0.2-0.2s0.6-0.3,1.2-0.6c0.5-0.3,1.1-0.6,1.2-0.6s0.3-0.1,0.3-0.2
		s0.3-0.2,0.7-0.3s0.7-0.2,0.7-0.3s0.4-0.2,0.8-0.3c0.4-0.1,0.8-0.2,0.9-0.3c0.1-0.1,0.3-0.2,0.5-0.2s0.4-0.1,0.4-0.2s0.4-0.2,1-0.3
		c0.5-0.1,1-0.2,1-0.3c0-0.1,0.5-0.2,1.1-0.3c0.6-0.1,1.1-0.2,1.1-0.3s0.1-0.2,0.3-0.2c0.4,0,2.2-0.5,2.6-0.8
		c0.2-0.1,0.7-0.2,1.1-0.3c0.4-0.1,0.8-0.2,0.8-0.3s0.2-0.2,0.4-0.2c0.4,0,1.7-0.4,2.3-0.8c0.2-0.1,0.6-0.2,1-0.3
		c0.4-0.1,0.7-0.2,0.7-0.3s0.1-0.2,0.3-0.2c0.2,0,0.6-0.1,0.9-0.3c0.3-0.2,0.7-0.3,0.8-0.3c0.1,0,0.3-0.1,0.3-0.2
		c0-0.1,0.1-0.2,0.3-0.2c0.5,0,6.5-2.9,8.5-4.1c0.7-0.4,1.3-0.7,1.4-0.7c0.1,0,0.2-0.1,0.2-0.1c0-0.1,0.4-0.4,0.8-0.7
		c3.3-2.2,6-5.6,6.9-8.6c0.3-1,0.4-4.7,0.2-4.7c-0.1,0-0.2-0.2-0.3-0.5c-0.1-0.6-1.2-1.7-1.7-1.7c-0.2,0-0.4-0.1-0.4-0.2
		c-0.1-0.3-6.6-0.3-6.8,0c-0.1,0.1-0.6,0.3-1,0.3c-0.5,0.1-1,0.2-1,0.3s-0.3,0.2-0.6,0.2s-0.5,0.1-0.5,0.2c0,0.1-0.2,0.2-0.4,0.2
		c-0.2,0-0.7,0.1-1,0.3s-0.6,0.3-0.7,0.3c-0.2,0-5.8,2.7-5.9,2.9c-0.1,0.1-0.5,0.3-1.1,0.6c-0.5,0.2-1.2,0.6-1.4,0.8
		c-0.3,0.2-0.9,0.6-1.5,0.9c-2.1,1.2-2.4,1.3-2.5,1.4c-0.1,0.1-1.1,0.6-3.9,2.1c-0.9,0.5-1.8,1-1.8,1c0,0.1-0.2,0.1-0.3,0.1
		c-0.1,0-1,0.4-1.9,0.9c-0.9,0.5-1.8,0.9-2,0.9c-0.1,0-0.2,0.1-0.2,0.2c0,0.1-0.3,0.2-0.6,0.3c-0.3,0.1-0.6,0.2-0.7,0.3
		c-0.1,0.1-0.2,0.2-0.4,0.2s-0.8,0.3-1.5,0.6c-0.7,0.3-1.3,0.6-1.4,0.6c-0.1,0-0.4,0.1-0.7,0.3c-0.3,0.2-0.7,0.3-1,0.3
		s-0.5,0.1-0.5,0.2c-0.1,0.1-0.3,0.2-0.6,0.2s-0.5,0.1-0.5,0.2s-0.6,0.2-1.2,0.3c-0.7,0.1-1.2,0.2-1.2,0.3c0,0.2-3.6,0.2-3.7,0
		c-0.1-0.1-0.4-0.2-0.7-0.3c-0.7-0.1-1.7-1.1-1.7-1.6c0-0.7,1.6-3.2,2.6-4.2c0.7-0.6,2-1.7,2.3-1.9c0.2-0.1,0.4-0.2,0.4-0.3
		s0.4-0.3,0.8-0.5c0.4-0.2,0.7-0.4,0.7-0.5s0.1-0.1,0.2-0.1s0.6-0.2,1.1-0.4c1.4-0.6,1.6-0.7,2.3-1c0.4-0.1,0.9-0.4,1.2-0.5
		c0.3-0.1,1.2-0.4,2-0.7c0.8-0.2,1.6-0.5,1.8-0.6c0.2-0.1,0.5-0.2,0.7-0.2s0.4-0.1,0.4-0.2c0-0.1,0.4-0.2,1-0.3c0.5-0.1,1-0.2,1-0.3
		c0-0.1,0.2-0.2,0.4-0.2c0.4,0,1.9-0.5,2.8-0.9c0.3-0.2,0.8-0.3,1-0.3s0.4-0.1,0.4-0.2c0-0.1,0.2-0.2,0.5-0.2c0.5,0,1.4-0.3,2.7-0.9
		c0.3-0.2,0.7-0.3,0.9-0.3c0.2,0,0.3-0.1,0.4-0.2s0.4-0.2,0.8-0.3c0.4-0.1,1-0.3,1.4-0.5c0.4-0.2,1.1-0.5,1.5-0.7
		c1.2-0.5,4.4-2.1,4.5-2.2c0.1-0.1,0.4-0.3,0.8-0.5c0.4-0.2,0.7-0.4,0.7-0.5s0.1-0.2,0.3-0.2c0.1,0,0.4-0.1,0.5-0.2s0.8-0.6,1.4-1.1
		c5.7-4.3,7.6-11.2,3.2-11.9c-0.4-0.1-0.8-0.2-0.8-0.3c0-0.1-0.9-0.2-2.1-0.2s-2.1,0.1-2.1,0.2s-0.6,0.2-1.3,0.3
		c-0.7,0.1-1.3,0.2-1.3,0.3s-0.2,0.2-0.4,0.2s-0.7,0.1-1,0.3c-0.9,0.4-1.9,0.7-2.4,0.8c-0.2,0.1-0.4,0.2-0.4,0.3s-0.1,0.2-0.3,0.2
		c-0.5,0-6.1,2.7-8.5,4.1c-0.6,0.3-1.8,1-2.7,1.5c-0.9,0.5-1.7,0.9-1.7,1s-0.6,0.4-1.2,0.7c-1.9,1-2.5,1.3-2.6,1.4
		c-0.5,0.5-7.8,4.1-8.3,4.1c-0.1,0-0.3,0.1-0.4,0.2c-0.1,0.1-0.3,0.2-0.6,0.2s-0.5,0.1-0.5,0.2s-0.4,0.2-0.9,0.3
		c-0.5,0.1-1,0.2-1.1,0.3c-0.4,0.3-5.3,0.4-5.7,0.1c-0.9-0.8,2-3.8,5.4-5.8c1.4-0.8,1.6-0.9,1.9-0.9c0.1,0,0.2-0.1,0.2-0.2
		c0-0.1,0.1-0.2,0.3-0.2c0.2,0,0.6-0.1,0.9-0.3c0.3-0.2,0.7-0.3,0.8-0.3c0.1,0,0.3-0.1,0.3-0.2s0.3-0.2,0.7-0.3
		c0.4-0.1,0.8-0.2,0.9-0.3c0.1-0.1,0.5-0.2,0.9-0.3c0.4-0.1,0.9-0.2,1.1-0.3c0.2-0.1,0.5-0.3,0.7-0.4c0.2-0.1,0.8-0.2,1.2-0.3
		s0.9-0.2,1-0.3c0.1-0.1,0.5-0.2,1-0.3c0.4-0.1,0.9-0.2,1-0.3c0.1-0.1,0.6-0.2,1-0.3s0.9-0.2,0.9-0.3s0.3-0.2,0.6-0.2
		s0.5-0.1,0.6-0.2c0.1-0.1,0.5-0.2,1-0.3c0.5-0.1,0.9-0.2,0.9-0.3s0.3-0.2,0.7-0.3c0.4-0.1,0.8-0.2,1-0.3c0.7-0.3,1.7-0.8,1.9-0.8
		c0.1,0,0.4-0.1,0.6-0.2c0.8-0.4,2.9-1.4,3.1-1.4c0.1,0,0.2-0.1,0.3-0.1s0.7-0.4,1.4-0.8s1.4-0.7,1.4-0.8s0.1-0.2,0.2-0.2
		s0.5-0.2,0.9-0.5c0.4-0.3,0.7-0.5,0.8-0.5s0.3-0.1,0.3-0.3c0.1-0.2,0.2-0.3,0.3-0.3c0.7,0,3.8-3.6,3.8-4.3c0-0.2,0.1-0.3,0.2-0.4
		c0.3-0.1,0.4-3.7,0.1-4.8c-0.3-1.2-1.6-2.5-2.7-2.6c-0.4-0.1-0.8-0.2-0.8-0.3c0-0.2-4.9-0.2-5.1,0c-0.1,0.1-0.6,0.2-1.3,0.3
		c-1.1,0.1-2.4,0.5-2.6,0.7c-0.1,0.1-0.5,0.2-1.1,0.2c-0.5,0.1-1,0.2-1.1,0.3c-0.1,0.1-0.5,0.2-0.9,0.3c-0.4,0.1-0.9,0.2-0.9,0.3
		c-0.1,0.1-0.3,0.2-0.6,0.2s-0.5,0.1-0.5,0.2S156,95,155.5,95c-0.4,0.1-0.8,0.2-0.8,0.3s-0.1,0.2-0.3,0.2c-0.2,0-0.7,0.2-1.1,0.4
		c-0.4,0.2-0.8,0.4-0.9,0.4s-1.1,0.4-2.2,1s-2.1,1-2.2,1s-0.2,0.1-0.2,0.1c0,0.1-1,0.6-2.1,1.2c-2.1,1.1-3.5,1.8-3.6,2
		c-0.1,0.1-1,0.5-2,1.1c-1.1,0.5-2,1-2,1.1c-0.1,0.1-0.3,0.2-0.6,0.3s-0.5,0.2-0.5,0.3s-0.4,0.3-1,0.5c-0.5,0.2-1,0.4-1,0.5
		c0,0.1-0.1,0.2-0.2,0.2c-0.2,0-1.6,0.6-2.7,1.2c-0.4,0.2-0.8,0.4-0.9,0.4c-0.1,0-0.5,0.1-0.8,0.3c-0.3,0.2-1.2,0.5-1.9,0.7
		c-0.7,0.2-1.6,0.5-1.9,0.6c-0.6,0.2-3.2,0.2-3.2,0.1c0-1.1,5.7-6.7,6.9-6.7c0.1,0,0.2-0.1,0.2-0.2c0.1-0.2,4.5-2.4,4.8-2.4
		c0.1,0,0.5-0.1,0.9-0.3c0.4-0.2,1-0.4,1.3-0.6s0.8-0.3,0.9-0.3c0.2,0,0.3-0.1,0.3-0.2s0.4-0.2,0.8-0.3c0.4-0.1,0.8-0.2,0.8-0.3
		s0.6-0.3,1.2-0.5s1.2-0.4,1.2-0.5s0.1-0.2,0.3-0.2c0.2,0,0.6-0.1,0.9-0.3c0.3-0.2,0.8-0.3,1.1-0.4s0.6-0.2,0.7-0.3s0.3-0.2,0.5-0.2
		s0.4-0.1,0.4-0.2s0.3-0.2,0.6-0.3c0.3-0.1,0.8-0.2,1.1-0.4s0.6-0.3,0.8-0.3c0.1,0,0.2-0.1,0.2-0.2c0-0.1,0.1-0.2,0.2-0.2
		c0.4,0,4.2-2,6-3.1c3.1-2,5.6-4.4,6.3-6.3c0.1-0.4,0.4-0.9,0.4-1.1c0.7-1.7,0.7-5.3,0-5.3c-0.1,0-0.1-0.2-0.1-0.5
		c0-0.6-1.6-2.2-2.6-2.7c-0.4-0.2-0.9-0.4-1.1-0.6c-0.5-0.3-7.3-0.4-8.9-0.2c-2,0.3-2.6,0.4-2.8,0.6c-0.1,0.1-0.7,0.2-1.3,0.3
		c-0.6,0.1-1.1,0.2-1.2,0.3c-0.1,0.1-0.5,0.2-1.1,0.3c-0.5,0.1-1,0.2-1.1,0.3c-0.1,0.1-0.3,0.2-0.6,0.2s-0.5,0.1-0.6,0.2
		s-0.5,0.2-1,0.3s-0.9,0.2-0.9,0.3c0,0.1-0.4,0.2-1,0.3c-0.5,0.1-1,0.2-1,0.3s-0.6,0.3-1.2,0.5c-0.7,0.2-1.2,0.4-1.2,0.5
		c0,0.1-0.4,0.2-0.9,0.3c-0.5,0.1-0.9,0.2-0.9,0.3c0,0.1-0.3,0.2-0.6,0.3s-0.8,0.2-0.9,0.3c-0.8,0.4-1.7,0.8-2,0.8
		c-0.2,0-0.3,0.1-0.4,0.2s-0.4,0.2-0.7,0.3c-0.3,0.1-0.9,0.3-1.2,0.5c-0.3,0.2-0.9,0.4-1.3,0.5s-0.8,0.2-0.9,0.3s-0.6,0.2-1,0.3
		c-0.4,0.1-0.9,0.2-0.9,0.3s-0.3,0.2-0.7,0.2c-0.3,0-0.6,0.1-0.6,0.2c0,0.1-0.7,0.2-1.6,0.3s-1.5,0.2-1.5,0.3c0,0.1-0.8,0.2-1.7,0.2
		c-1,0-1.7-0.1-1.7-0.2s-0.2-0.2-0.3-0.2c-2.1,0,1.5-4,5.3-5.8c2.1-1,3.2-1.5,3.5-1.5c0.2,0,0.3-0.1,0.3-0.2c0-0.1,0.2-0.2,0.4-0.2
		c0.2,0,0.6-0.1,0.9-0.2c1.2-0.5,2.5-0.9,2.8-0.9c0.2,0,0.3-0.1,0.3-0.2c0-0.1,0.4-0.2,0.9-0.3c0.5-0.1,0.9-0.2,0.9-0.3
		c0-0.1,0.2-0.2,0.4-0.2c0.4,0,1.2-0.3,2.1-0.8c0.2-0.1,0.6-0.2,1-0.3c0.4-0.1,0.8-0.2,0.9-0.3c0.1-0.1,0.7-0.3,1.3-0.5
		c0.6-0.2,1.1-0.4,1.1-0.5s0.2-0.2,0.4-0.2c0.2,0,0.6-0.1,0.9-0.3c0.3-0.1,0.7-0.3,1.1-0.4c0.3-0.1,1-0.3,1.5-0.6
		c1.7-0.8,2.4-1.1,2.6-1.1c0.1,0,0.2-0.1,0.3-0.2s0.8-0.5,1.7-1c4.3-2.2,6.1-5.2,4.6-7.7c-0.6-0.9-4.8-1.4-6.6-0.7
		c-0.4,0.2-1,0.3-1.3,0.3c-0.3,0-0.5,0.1-0.5,0.2s-0.4,0.2-0.9,0.3c-0.5,0.1-0.9,0.2-0.9,0.3s-0.2,0.2-0.4,0.2s-0.7,0.1-1.1,0.3
		c-0.4,0.2-1,0.4-1.3,0.6s-0.7,0.3-0.9,0.3s-0.3,0.1-0.3,0.2c0,0.1-0.1,0.2-0.3,0.2c-0.4,0-1.7,0.6-1.8,0.8c0,0.1-0.2,0.2-0.3,0.2
		c-0.3,0-2.9,1.2-2.9,1.4c0,0.1-0.2,0.2-0.3,0.2s-1,0.4-1.9,0.8s-2.6,1.3-3.8,2c-1.2,0.6-2.2,1.2-2.3,1.3c0,0.1-0.1,0.2-0.2,0.2
		c-0.1,0-0.9,0.3-1.8,0.8c-0.9,0.4-1.8,0.8-2.1,0.9s-0.7,0.2-0.9,0.3c-0.7,0.3-2.5,0.8-3,0.8c-0.3,0-0.6,0.1-0.7,0.2
		c-0.1,0.1-0.8,0.2-1.6,0.2c-0.8,0-1.4-0.1-1.4-0.2s-0.2-0.2-0.5-0.2c-2.3,0-5.6-3.1-5.9-5.8c-0.1-0.4-0.2-0.9-0.3-0.9
		c-0.2-0.1-0.2-3.1,0-3.2c0.1-0.1,0.2-0.8,0.3-1.7c0.1-0.8,0.2-1.6,0.3-1.6c0.1,0,0.2-0.5,0.3-1c0.1-0.5,0.2-1.1,0.3-1.3
		c0.4-0.9,0.5-1.1,0.5-1.3c0-0.4,2.8-6.3,3.2-6.7c0.1-0.1,0.3-0.5,0.5-0.8c0.1-0.3,0.3-0.6,0.4-0.6s0.2-0.1,0.2-0.3s0.2-0.5,0.5-0.8
		c0.3-0.3,0.5-0.6,0.5-0.7c0-0.1,0.5-0.8,1.1-1.5c0.6-0.8,1.3-1.7,1.5-2c2.8-3.7,7.1-8.2,10.8-11.3c0.3-0.2,0.9-0.8,1.2-1.1
		s0.7-0.6,0.8-0.6c0.1,0,0.3-0.2,0.6-0.4c0.3-0.2,1.2-0.9,2-1.5c0.8-0.6,1.6-1.2,1.7-1.2c1.5-1.1,5.3-3.5,5.6-3.5
		c0.1,0,0.2-0.1,0.3-0.1c0.1-0.3,6.4-3.5,9.3-4.7c0.2-0.1,0.8-0.3,1.3-0.6c0.5-0.2,0.9-0.4,1-0.4c0.1,0,0.6-0.2,1.1-0.5
		c0.6-0.3,1.2-0.5,1.3-0.5s0.3-0.1,0.4-0.2c0.1-0.1,0.2-0.2,0.4-0.2s0.6-0.1,0.9-0.3c0.9-0.4,1.9-0.7,2.4-0.9
		c0.2-0.1,0.4-0.2,0.4-0.2s0.4-0.2,0.9-0.3s0.9-0.2,1-0.3c0.1-0.1,0.5-0.2,1-0.3c0.5-0.1,0.9-0.2,0.9-0.3s0.2-0.2,0.5-0.2
		s0.5-0.1,0.5-0.2s0.4-0.2,0.9-0.3c0.5-0.1,1-0.2,1.1-0.3c0.1-0.1,0.5-0.2,1-0.3c0.5-0.1,0.9-0.2,1-0.3s0.3-0.2,0.5-0.2
		s0.4-0.1,0.4-0.2c0-0.1,0.4-0.2,1-0.3c0.5-0.1,1.1-0.2,1.2-0.3c0.1-0.1,0.6-0.2,1.1-0.3c0.5-0.1,0.9-0.2,1.1-0.3
		c0.2-0.2,2-0.6,3-0.8c0.4-0.1,0.7-0.2,0.7-0.3c0-0.1,0.5-0.2,1.1-0.3c0.6-0.1,1.1-0.2,1.1-0.3c0-0.1,0.5-0.2,1.1-0.3
		c0.6-0.1,1.2-0.2,1.3-0.3c0.1-0.1,0.5-0.2,0.9-0.2s0.7-0.1,0.7-0.2s0.6-0.2,1.4-0.3c0.8-0.1,1.5-0.2,1.5-0.3s0.8-0.2,1.6-0.3
		c0.9-0.1,1.6-0.2,1.6-0.3c0.1-0.1,0.5-0.2,0.9-0.2c0.5,0,0.9-0.1,0.9-0.2s1.1-0.2,2.4-0.3c1.3-0.1,2.3-0.2,2.3-0.3
		c0-0.1,1.4-0.2,3.1-0.2s3.1,0.1,3.1,0.2c0,0.1,0.6,0.2,1.3,0.3s1.4,0.2,1.5,0.3c0.1,0.1,0.7,0.3,1.3,0.5c0.6,0.2,1.1,0.4,1.1,0.5
		c0,0.1,0.1,0.2,0.3,0.2c0.8,0,3,2.8,3,3.8c0,0.2,0.1,0.4,0.2,0.5c0.2,0.1,0.3,4.9,0,5.2c-0.1,0.1-0.2,0.6-0.3,1
		c-0.1,0.5-0.2,0.8-0.3,0.8c-0.1,0-0.2,0.1-0.2,0.3c0,0.4-1.1,2.7-1.5,3.1c-0.1,0.1-0.2,0.3-0.2,0.4c0,0.2-1.5,2.7-1.7,2.9
		c-0.1,0-0.3,0.4-0.6,0.9c-1.7,2.5-4.3,5.3-10.8,11.7c-2.7,2.6-4.1,4.1-4.6,5c-0.2,0.3-0.4,0.6-0.4,0.6c-0.7,0.7-1.9,3.3-1.9,4.1
		c0,0.4-0.1,0.7-0.2,0.7c-0.1,0-0.2,0.4-0.2,0.9s0.1,0.9,0.2,0.9s0.2,0.2,0.2,0.4c0,0.8,0.6,1.7,1.5,2.1c1,0.5,4.7,0.7,5.6,0.2
		c0.2-0.1,0.9-0.4,1.5-0.6c0.6-0.2,1-0.4,1-0.5c0-0.1,0.3-0.2,0.7-0.3s0.7-0.2,0.7-0.3s0.4-0.3,0.9-0.5s0.9-0.5,0.9-0.5
		c0-0.1,0.1-0.2,0.3-0.2s0.6-0.3,1.1-0.6c0.4-0.3,0.9-0.6,1-0.6s0.2-0.1,0.2-0.1c0-0.1,0.5-0.5,1.1-0.8s1-0.7,1-0.8
		c0-0.1,0.1-0.2,0.3-0.2c0.1,0,0.4-0.1,0.5-0.2s0.7-0.5,1.2-0.9c0.5-0.4,1-0.7,1.1-0.8s0.7-0.5,1.5-1.1c0.8-0.5,1.5-1,1.5-1.1
		c0.2-0.2,0.9-0.6,1.2-0.7c0.2-0.1,0.3-0.2,0.3-0.3s0.1-0.2,0.3-0.2c0.1,0,0.4-0.1,0.5-0.2s0.9-0.5,1.6-0.9s1.4-0.7,1.4-0.8
		c0.1-0.1,0.4-0.2,0.8-0.3c0.4-0.1,0.7-0.2,0.7-0.3c0-0.1,0.5-0.2,1.1-0.3s1.1-0.2,1.2-0.3c0.7-1.1,4.2,0.7,3.8,2
		c-0.2,0.6-0.7,1.7-1,2c-0.1,0.1-0.2,0.3-0.2,0.4c0,0.1-1,1.2-2.8,2.8c-0.4,0.4-3.4,2.4-3.6,2.4c-0.1,0-0.2,0.1-0.2,0.2
		s-0.2,0.2-0.4,0.3c-0.2,0.1-0.5,0.2-0.5,0.2c-0.2,0.2-5.4,2.9-5.7,2.9c-0.1,0-0.2,0.1-0.2,0.2c0,0.1-0.1,0.2-0.2,0.2
		c-0.1,0-1,0.4-2,0.9s-1.9,0.9-2,0.9s-0.2,0.1-0.2,0.2c0,0.1-0.1,0.2-0.2,0.2c-0.3,0-2.5,1.1-2.6,1.3c-0.1,0.1-0.3,0.2-0.5,0.3
		c-0.6,0.2-3.3,2-3.9,2.6c-0.3,0.3-0.6,0.6-0.8,0.7c-0.8,0.7-1.4,1.5-2.1,3c-0.2,0.5-0.2,3,0,3c0.1,0,0.2,0.2,0.2,0.4
		c0.1,1,0.9,1.2,3.9,1.2c2.1,0,2.8-0.1,2.9-0.2c0.1-0.1,0.3-0.2,0.6-0.2c0.3,0,0.8-0.1,1.2-0.3c0.4-0.2,1-0.4,1.3-0.6
		c0.3-0.2,0.7-0.3,0.9-0.3s0.3-0.1,0.3-0.2c0-0.1,0.3-0.2,0.7-0.3s0.7-0.2,0.7-0.3c0-0.1,0.1-0.2,0.2-0.2c0.2,0,5.7-2.7,5.9-2.9
		c0.1-0.1,0.4-0.3,0.9-0.5c0.4-0.2,0.8-0.4,0.9-0.5s0.4-0.3,0.8-0.5c1.3-0.7,1.8-1,2.1-1.2c0.1-0.1,0.4-0.2,0.5-0.2s0.3-0.1,0.3-0.2
		c0-0.1,0.1-0.2,0.2-0.2s1.2-0.6,2.4-1.3c1.2-0.7,2.3-1.3,2.4-1.3c0.1,0,0.2-0.1,0.2-0.1c0.1-0.2,4.4-2.4,4.6-2.4
		c0.1,0,0.4-0.1,0.7-0.3c1.4-0.7,3.8-0.8,4.2-0.1c0.4,0.6-0.1,2.1-1,3.1c-0.2,0.2-0.4,0.5-0.4,0.6c0,0.2-4.3,4.5-4.9,5
		c-0.2,0.2-1.1,0.8-1.8,1.4c-0.8,0.6-1.8,1.3-2.2,1.6c-0.4,0.3-0.9,0.6-1,0.8c-0.1,0.2-0.4,0.3-0.5,0.3c-0.1,0-0.3,0.1-0.3,0.1
		c0,0.1-0.5,0.4-1.1,0.8c-0.6,0.4-1.1,0.7-1.1,0.8s-0.1,0.2-0.3,0.2c-0.1,0-0.4,0.1-0.5,0.2c-0.1,0.1-0.4,0.3-0.6,0.5
		c-2.6,1.6-4.2,2.7-4.3,2.8c0,0.1-0.2,0.2-0.3,0.2c-0.2,0-1.8,1-2.4,1.4c-0.1,0.1-0.9,0.6-1.8,1.2c-0.9,0.6-1.8,1.3-2.1,1.5
		c-1.3,1.1-3.2,3.2-3.5,3.8c-0.2,0.4-0.4,0.9-0.6,1.2c-0.9,1.9,0,5.3,1.5,5.6c0.3,0.1,0.7,0.2,0.7,0.3c0.1,0.2,4.3,0.2,4.3,0
		c0-0.1,0.5-0.2,1.1-0.3s1.1-0.2,1.2-0.3s0.2-0.2,0.4-0.2c0.3,0,0.6-0.1,2.8-1.1c2.4-1.1,5.9-3,7.3-3.9c0.6-0.4,1.1-0.8,1.2-0.8
		c0.1,0,3.2-2,3.5-2.3c0.1-0.1,0.3-0.2,0.3-0.2c0.1,0,1.9-1.2,2-1.4c0.1-0.1,0.4-0.3,0.8-0.5c0.4-0.2,0.9-0.6,1.1-0.8
		c0.2-0.2,1-0.8,1.8-1.3c0.8-0.5,1.6-1.1,1.7-1.2c0.1-0.1,0.3-0.2,0.4-0.2c0.1,0,0.3-0.2,0.5-0.3c0.2-0.2,0.7-0.6,1.1-0.8
		c0.4-0.3,0.8-0.5,0.9-0.6s0.4-0.3,0.8-0.5c0.4-0.2,0.7-0.4,0.8-0.5c0.1-0.1,0.4-0.3,0.8-0.5c1.3-0.7,1.8-1,1.9-1.1
		c0.1-0.1,0.4-0.2,0.7-0.3s0.6-0.2,0.6-0.3s0.4-0.2,0.9-0.3c0.5-0.1,0.9-0.2,1-0.3c0.2-0.4,1.6-0.2,2.2,0.4c0.6,0.5,0.8,1,0.4,1
		c-0.1,0-0.2,0.3-0.3,0.6c-0.2,1.2-2,3.2-4.5,5.2c-1.3,1.1-4.9,3.5-5.1,3.5c-0.1,0-0.4,0.2-0.8,0.5c-0.4,0.3-0.7,0.5-0.8,0.5
		c-0.1,0-0.3,0.1-0.5,0.2c-0.1,0.1-0.6,0.4-1,0.6s-0.8,0.4-0.9,0.5s-0.5,0.3-1.1,0.6c-0.5,0.3-1,0.5-1.1,0.6
		c-0.1,0.1-2.8,1.5-6.6,3.4c-1.2,0.6-2.1,1.1-2.2,1.2c0,0.1-0.1,0.2-0.3,0.2c-0.3,0-1.4,0.6-2.8,1.3c-0.6,0.4-1.5,0.9-1.9,1.1
		s-0.7,0.4-0.7,0.5s-0.1,0.2-0.3,0.2s-0.5,0.2-0.7,0.4c-0.2,0.2-0.5,0.4-0.6,0.4c-0.1,0-0.4,0.2-0.7,0.5c-0.3,0.3-0.6,0.5-0.7,0.5
		c-0.7,0-3.5,3.6-3.5,4.5c0,0.2-0.1,0.4-0.2,0.4c-0.4,0.2-0.2,2.4,0.3,3.3c0.4,0.8,1.6,1.6,2.3,1.6c0.2,0,0.5,0.1,0.6,0.2
		c0.3,0.3,4.9-0.1,4.9-0.4c0-0.1,0.5-0.2,1.1-0.3c0.6-0.1,1.1-0.2,1.1-0.3c0-0.1,0.4-0.2,1-0.3c0.5-0.1,1-0.2,1-0.3s0.2-0.2,0.5-0.2
		s0.5-0.1,0.5-0.2s0.3-0.2,0.7-0.3s0.9-0.2,1.2-0.4s0.6-0.3,0.7-0.3c0.3,0,1.2-0.5,1.2-0.6c0-0.1,0.2-0.1,0.4-0.1
		c0.2,0,0.7-0.2,1.1-0.4c0.4-0.2,0.9-0.4,1.1-0.4c0.2,0,0.3-0.1,0.3-0.2c0-0.1,0.1-0.2,0.2-0.2c0.3,0,7.7-3.7,7.8-3.9
		c0-0.1,0.1-0.2,0.3-0.2c0.2,0,1.9-0.8,2.1-1c0.1-0.2,4.6-2.3,4.8-2.3c0.1,0,0.2-0.1,0.2-0.2s0.1-0.2,0.3-0.2c0.2,0,0.6-0.1,0.9-0.3
		c0.3-0.2,0.9-0.3,1.3-0.4l0.8-0.1l-0.4,0.4c-0.6,0.8-2.5,2.6-2.9,2.9c-0.2,0.2-0.8,0.6-1.2,0.9s-1,0.7-1.2,0.9
		c-0.2,0.2-0.5,0.4-0.6,0.5c-0.1,0.1-0.5,0.4-0.9,0.6s-0.8,0.5-0.9,0.6s-0.4,0.2-0.5,0.2s-0.3,0.1-0.3,0.2c0,0.1-0.1,0.2-0.2,0.2
		c-0.1,0-0.5,0.2-0.9,0.5c-1,0.7-3.4,1.9-6.9,3.8c-0.7,0.4-1.3,0.7-1.3,0.8s-0.5,0.3-1,0.5c-5.8,2.9-11.5,7.4-13.1,10.4
		c-0.2,0.4-0.4,0.7-0.5,0.8c-0.1,0-0.1,0.2-0.1,0.4s-0.1,0.6-0.3,0.9c-0.3,0.6-0.4,4.4-0.1,4.4c0.1,0,0.2,0.2,0.3,0.5
		c0.1,0.7,1,1.5,2.2,2.1c1.2,0.6,9.2,0.8,9.8,0.3c0.1-0.1,0.8-0.3,1.4-0.3c0.6-0.1,1.1-0.2,1.2-0.3c0.1-0.1,0.4-0.2,0.7-0.2
		s0.6-0.1,0.7-0.2c0.1-0.1,0.5-0.2,1.1-0.3c0.5-0.1,1-0.2,1.1-0.3c0.1-0.1,0.5-0.2,1-0.3c0.5-0.1,0.9-0.2,0.9-0.3
		c0-0.1,0.2-0.2,0.5-0.2c0.3,0,0.5-0.1,0.5-0.2s0.2-0.2,0.4-0.2c0.2,0,0.6-0.1,0.9-0.3s0.8-0.3,1.1-0.4c0.8-0.2,1.7-0.6,1.7-0.7
		c0-0.1,0.4-0.2,1-0.3c0.5-0.1,1-0.2,1-0.3c0-0.1,0.4-0.2,0.9-0.3c0.5-0.1,1-0.2,1.2-0.3c0.4-0.2,1.9-0.6,2.8-0.7
		c0.4-0.1,0.9-0.2,0.9-0.3c0.3-0.2,5.5-0.2,5.5,0c0,0.1,0.2,0.2,0.4,0.2c1.1,0,3.8,1.8,4.5,3.1c0.2,0.3,0.4,0.5,0.4,0.5
		c0.1,0,0.2,0.3,0.3,0.6c0.1,0.3,0.2,0.6,0.3,0.6s0.2,0.5,0.3,1.1s0.2,1.3,0.3,1.5c0.4,0.8-0.2,7.6-0.6,7.6c-0.1,0-0.2,0.2-0.2,0.5
		s-0.1,0.8-0.3,1.2c-0.2,0.4-0.4,0.9-0.4,1.1c-0.2,0.6-1,2.3-1.2,2.7c-0.1,0.2-0.5,0.9-0.8,1.4c-1.5,2.8-5.6,7.7-8.2,9.6
		c-0.5,0.4-1,0.8-1.1,0.9s-0.5,0.4-0.9,0.6s-0.7,0.4-0.7,0.5s-0.1,0.1-0.2,0.1s-0.5,0.2-0.9,0.5s-1,0.5-1.2,0.6s-0.5,0.2-0.5,0.3
		c0,0.1-0.1,0.2-0.3,0.2c-0.2,0-0.6,0.1-0.9,0.3c-0.3,0.2-0.7,0.3-0.8,0.3c-0.1,0-0.3,0.1-0.3,0.2c0,0.1-0.7,0.2-1.6,0.3
		c-0.9,0.1-1.7,0.2-1.7,0.3c-0.1,0.2-3.1,0.2-3.1,0c0-0.1-0.6-0.2-1.3-0.3c-0.7-0.1-1.3-0.2-1.3-0.3s-0.2-0.2-0.4-0.2
		s-0.6-0.1-0.9-0.3c-0.3-0.1-0.9-0.4-1.3-0.6c-0.4-0.2-0.8-0.4-0.8-0.5c0-0.1-0.2-0.1-0.3-0.1s-0.6-0.3-1.2-0.6
		c-1.1-0.7-1-0.6-2.5-1.8c-0.6-0.5-1.3-1.1-1.5-1.2c-0.5-0.4-4.9-4.8-5.4-5.4c-0.2-0.3-0.7-0.9-1-1.4c-0.4-0.5-0.7-1-0.8-1.1
		c-0.2-0.2-2.3-3.5-2.3-3.6c0-0.1-0.1-0.3-0.2-0.4s-0.8-1.3-1.4-2.5c-0.6-1.2-1.2-2.3-1.3-2.3c-0.1,0-0.1-0.1-0.1-0.2
		s-0.4-1-0.9-1.9c-0.5-0.9-0.9-1.8-0.9-2s-0.1-0.3-0.2-0.3c-0.1,0-0.2-0.1-0.2-0.2c0-0.3-1.2-2.8-1.4-2.8c-0.1,0-0.1-0.2-0.1-0.3
		s-0.3-0.8-0.6-1.4s-0.6-1.3-0.6-1.4s-0.1-0.2-0.2-0.2c-0.1,0-0.2-0.1-0.2-0.2s-0.1-0.5-0.3-0.9c-1.3-2.9-1.6-3.7-2.2-4.9
		c-0.2-0.5-0.5-1.1-0.6-1.3c-0.1-0.2-0.2-0.5-0.2-0.6s-0.1-0.3-0.2-0.3c-0.1,0-0.2-0.3-0.3-0.6s-0.2-0.6-0.3-0.7
		c-0.1-0.1-0.2-0.2-0.2-0.4c0-0.2-0.9-2.4-1.3-3.2c-0.1-0.2-0.2-0.6-0.3-0.9c-0.1-0.3-0.2-0.6-0.3-0.6c-0.1,0-0.2-0.2-0.2-0.4
		c0-0.2-0.1-0.4-0.2-0.4c-0.1,0-0.2-0.2-0.2-0.3c0-0.2-0.1-0.6-0.3-0.8c-0.1-0.3-0.3-0.8-0.4-1.1c-0.1-0.3-0.2-0.6-0.3-0.6
		c-0.1,0-0.5-1-0.7-1.9c-0.1-0.2-0.2-0.4-0.3-0.4c-0.1,0-0.2-0.1-0.2-0.3c0-0.3-0.6-1.7-1-2.4c-0.1-0.2-0.2-0.5-0.2-0.6
		c0-0.2-0.1-0.3-0.2-0.3s-0.2-0.3-0.3-0.7c-0.1-0.4-0.2-0.7-0.3-0.7c-0.1,0-0.2-0.2-0.2-0.3c0-0.2-0.1-0.6-0.3-0.9
		c-0.2-0.3-0.3-0.7-0.3-0.8s-0.1-0.3-0.2-0.3c-0.1,0-0.2-0.1-0.2-0.2c0-0.3-0.4-1.2-2.4-5.4c-0.5-1-0.9-2-0.9-2.1S186.1,79,186,79
		c-0.1,0-0.2-0.3-0.3-0.6s-0.2-0.6-0.3-0.6c-0.1,0-0.3-0.4-0.5-1c-0.2-0.5-0.4-1-0.5-1s-0.2-0.2-0.3-0.5c-0.1-0.3-0.2-0.6-0.3-0.6
		c-0.1-0.1-0.4-0.7-0.8-1.4c-0.4-0.7-0.7-1.4-0.8-1.4c-0.1-0.1-0.3-0.4-0.5-0.9c-0.2-0.4-0.4-0.8-0.5-0.9s-0.3-0.5-0.6-1.1
		c-0.3-0.5-0.5-1-0.6-1.1c-0.1-0.1-0.5-0.8-1.1-1.9c-0.2-0.4-0.4-0.7-0.4-0.8c-0.1-0.1-0.3-0.4-0.5-0.8c-0.2-0.4-0.4-0.7-0.5-0.7
		c-0.1,0-0.1-0.1-0.1-0.3c0-0.2-0.1-0.4-0.2-0.5s-0.4-0.6-0.6-0.9s-0.5-0.8-0.6-0.9c-0.1-0.1-0.2-0.4-0.2-0.5c0-0.2-0.1-0.3-0.2-0.3
		s-0.2-0.2-0.3-0.3s-0.7-1.2-1.4-2.2c-0.7-1-1.4-2-1.5-2.2c-0.1-0.2-0.5-0.7-0.8-1.1c-0.3-0.4-0.5-0.8-0.5-0.9s-0.1-0.2-0.1-0.2
		c-0.1,0-0.6-0.7-1.1-1.5c-0.5-0.8-1.1-1.6-1.2-1.7c-0.1-0.1-0.2-0.3-0.2-0.4s-0.1-0.3-0.3-0.5c-0.2-0.2-0.4-0.5-0.5-0.7
		c-1.1-1.6-2.1-3.1-2.2-3.3c-0.1-0.1-0.3-0.4-0.5-0.6s-0.8-1.2-1.4-2.2c-1.4-2.2-2.3-4-2.3-4.5c0-0.2-0.1-0.4-0.2-0.4
		c-0.3-0.2-0.2-2.6,0.1-3.2c0.3-0.6,3-3.4,3.3-3.4c0.1,0,0.4-0.3,0.8-0.6c0.9-0.8,0.9-0.8,2.1-1.5c0.6-0.4,1.1-0.7,1.1-0.8
		c0.1-0.1,0.3-0.2,0.5-0.3c0.2-0.1,1.4-0.9,2.7-1.7c1.3-0.8,2.4-1.5,2.5-1.5c0.1,0,0.2-0.1,0.2-0.1c0-0.1,0.4-0.3,0.7-0.5
		c0.4-0.2,1.3-0.7,2.1-1.1c2.3-1.2,6.7-3.4,7-3.4c0.1,0,0.4-0.2,0.8-0.4c0.8-0.5,1.1-3.2,0.3-3.2c-0.2,0-0.4-0.1-0.5-0.2
		c-0.1-0.1-0.5-0.2-1-0.2s-0.9,0.1-0.9,0.2s-0.1,0.2-0.3,0.2c-0.6,0-8.6,3.9-9.1,4.4c-0.1,0-0.7,0.4-1.4,0.8s-1.3,0.7-1.3,0.8
		c0,0.1-0.1,0.1-0.2,0.1c-0.3,0-5.6,3.3-5.7,3.5c0,0.1-0.1,0.2-0.2,0.2c-0.1,0-1.9,1.1-2.1,1.4c-0.1,0.1-0.5,0.4-1,0.8
		c-2.2,1.7-3.6,3.2-3.6,3.8c0,0.1-0.1,0.2-0.2,0.2c-0.1,0-0.2,0.3-0.3,0.7c-0.1,0.4-0.2,0.7-0.3,0.8c-0.1,0.1-0.2,0.4-0.2,0.7
		c0,0.3-0.1,0.6-0.2,0.6c-0.1,0-0.2,0.7-0.2,1.6c0,1,0.1,1.6,0.2,1.6s0.2,0.3,0.2,0.8c0,0.4,0.1,0.8,0.2,0.8s0.2,0.3,0.3,0.7
		c0.1,0.8,2,4.5,2.7,5.4c0.3,0.3,0.5,0.7,0.5,0.8s0.1,0.2,0.2,0.4c0.3,0.3,0.6,0.7,0.8,1.1c0.4,0.6,2.1,3.1,2.2,3.2
		c0.1,0,0.5,0.8,1.1,1.5c0.5,0.8,1,1.5,1.1,1.5c0.1,0,0.5,0.8,1.1,1.5c0.5,0.8,1,1.5,1.1,1.5c0.1,0,0.1,0.1,0.1,0.2
		c0,0.2,2.1,3.3,2.3,3.5c0.1,0,0.2,0.3,0.3,0.5c0.1,0.2,0.2,0.4,0.3,0.4c0.1,0,0.2,0.1,0.2,0.2c0,0.1,1.4,2.4,1.9,3
		c0.3,0.4,0.6,0.9,0.8,1.2c0.1,0.2,0.2,0.4,0.4,0.5s0.2,0.4,0.2,0.5s0.1,0.3,0.2,0.3s0.2,0.2,0.3,0.4c0.1,0.2,0.3,0.6,0.4,0.8
		s0.6,0.9,0.9,1.5c0.7,1.4,1.5,2.9,2.4,4.3c0.3,0.6,0.9,1.7,1.3,2.5c0.4,0.8,0.8,1.5,0.9,1.5c0.1,0,0.1,0.2,0.1,0.3s0.7,1.7,1.6,3.5
		c0.9,1.8,1.6,3.4,1.6,3.6s0.1,0.2,0.2,0.2c0.1,0,0.2,0.2,0.2,0.3c0,0.2,0.2,0.8,0.6,1.5c0.3,0.6,0.7,1.5,0.9,1.9
		c0.5,1.2,0.6,1.5,1.3,2.9c0.3,0.7,0.7,1.5,0.8,1.7c0.1,0.2,0.2,0.4,0.2,0.6s0.1,0.5,0.3,0.9c0.3,0.8,0.4,1,1,2.4
		c0.2,0.5,0.5,1.1,0.6,1.3s0.2,0.6,0.3,0.9c0.1,0.3,0.2,0.7,0.3,0.7c0.1,0.1,0.2,0.3,0.2,0.5s0.1,0.4,0.2,0.4c0.1,0,0.2,0.3,0.3,0.6
		c0.1,0.3,0.2,0.8,0.3,0.9c0.1,0.2,0.4,0.9,0.8,1.7c0.3,0.7,0.7,1.5,0.8,1.7c0.1,0.2,0.2,0.6,0.3,0.9c0.1,0.3,0.2,0.6,0.3,0.6
		c0.1,0,0.2,0.2,0.2,0.4c0,0.2,0.1,0.4,0.2,0.5c0.1,0.1,0.2,0.4,0.3,0.7s0.2,0.6,0.3,0.6c0.1,0,0.2,0.1,0.2,0.3
		c0,0.2,0.2,0.8,0.5,1.4c0.3,0.6,0.7,1.6,1,2.2c0.8,1.7,1.5,3.3,2.4,5.2c0.5,1,0.9,2,0.9,2.1c0,0.1,0.1,0.2,0.2,0.2
		c0.1,0,0.2,0.1,0.2,0.2c0,0.2,4.2,8.8,4.4,9c0.1,0.1,0.4,0.7,0.8,1.4c0.4,0.7,0.7,1.3,0.8,1.3c0.1,0,0.1,0.1,0.1,0.3
		c0,0.2,1.9,3.4,2.6,4.2c1.8,2.3,2.5,3.1,4.2,4.7c4.1,4.1,8.9,7.5,11.3,7.9c0.4,0.1,0.7,0.2,0.7,0.3s0.2,0.2,0.4,0.2
		s0.5,0.1,0.6,0.2s0.7,0.2,1.3,0.3c0.6,0.1,1.1,0.2,1.1,0.3s1.6,0.2,3.4,0.2s3.4-0.1,3.4-0.2c0-0.1,0.5-0.2,1.2-0.3
		c0.6-0.1,1.3-0.2,1.4-0.3s0.4-0.2,0.6-0.2s0.4-0.1,0.4-0.2c0-0.1,0.2-0.2,0.4-0.2s0.7-0.1,1.1-0.3c1.9-0.8,2.1-1,2.1-1.1
		c0-0.1,0.3-0.2,0.6-0.3c0.3-0.1,0.6-0.2,0.6-0.3c0-0.1,0.2-0.2,0.5-0.3c0.3-0.1,0.5-0.2,0.5-0.3c0-0.1,0.1-0.2,0.2-0.2
		c0.7,0,7.8-6.5,7.8-7.1c0-0.1,0.1-0.3,0.2-0.4c0.6-0.6,1.5-1.9,1.5-2.1c0-0.1,0.1-0.2,0.2-0.2s0.2-0.2,0.3-0.5
		c0.1-0.3,0.2-0.5,0.3-0.5s0.3-0.3,0.5-0.7c0.2-0.4,0.4-0.8,0.5-0.8c0.1-0.1,0.9-1.6,1.6-3.3c0.2-0.4,0.3-0.8,0.3-1s0.1-0.3,0.1-0.3
		c0.1,0,0.3-0.5,0.5-1.2c0.2-0.7,0.4-1.4,0.5-1.6s0.2-0.9,0.3-1.5c0.1-0.6,0.2-1.2,0.3-1.3c0.2-0.1,0.2-8.4,0-8.4
		c-0.1,0-0.2-0.4-0.3-0.9c-0.1-0.8-1-3.2-1.3-3.5c-0.1-0.1-0.2-0.3-0.4-0.6c-0.5-1-3.1-3.2-3.8-3.2c-0.1,0-0.2-0.1-0.2-0.2
		c0-0.2-1.1-0.6-2-0.8c-0.3-0.1-0.6-0.2-0.7-0.3c-0.2-0.3-8-0.3-8.6,0c-0.4,0.2-1.8,0.5-3.2,0.8c-0.3,0.1-0.6,0.2-0.6,0.3
		s-0.4,0.2-1,0.3c-0.5,0.1-1,0.2-1,0.3s-0.2,0.2-0.4,0.2c-0.2,0-0.7,0.1-1,0.3s-0.7,0.3-0.9,0.3s-0.4,0.1-0.4,0.2s-0.3,0.2-0.7,0.3
		s-1,0.2-1.3,0.4c-0.3,0.2-0.7,0.3-0.8,0.3c-0.1,0-0.4,0.1-0.6,0.2c-0.2,0.1-0.5,0.3-0.7,0.4c-0.2,0.1-0.8,0.2-1.2,0.3
		s-0.9,0.2-0.9,0.3c0,0.1-0.4,0.2-1,0.3c-0.5,0.1-1,0.2-1,0.3c0,0.1-0.3,0.2-0.6,0.2c-1.3,0.2-2.9,0.6-3.4,0.8
		c-0.6,0.3-5.9,0.3-6.1,0c-0.1-0.1-0.3-0.2-0.4-0.3c-2.1-0.8,1.7-5.9,6.8-9.1c0.3-0.2,0.6-0.4,0.7-0.5c0.1-0.1,0.4-0.3,0.8-0.5
		c0.4-0.2,0.7-0.4,0.8-0.5c0.1-0.1,0.4-0.3,0.8-0.5c1.1-0.6,1.8-1,1.9-1.1c0.1-0.1,0.6-0.4,4.1-2.2c0.8-0.4,1.9-1,2.4-1.3
		c0.9-0.5,1.9-1.1,3.7-2.1c0.6-0.3,1.2-0.7,1.2-0.8c0.1-0.1,0.4-0.3,0.8-0.5c0.4-0.2,0.7-0.4,0.7-0.5s0.1-0.2,0.2-0.2
		c0.1,0,0.5-0.2,0.9-0.5s0.9-0.7,1.2-0.8c0.2-0.2,0.5-0.4,0.6-0.5s0.6-0.4,1-0.8c1.2-0.9,3.6-3.4,4-4.3c0.2-0.4,0.4-0.8,0.5-0.8
		c0.1,0,0.1-0.2,0.1-0.4s0.1-0.4,0.2-0.5c0.1-0.1,0.2-0.7,0.2-1.4c0-0.7-0.1-1.2-0.2-1.2s-0.2-0.2-0.2-0.3c0-0.5-0.7-1.2-1.2-1.2
		c-0.2,0-0.4-0.1-0.4-0.2c0-0.2-3.8-0.3-3.9,0c-0.1,0.1-0.5,0.2-1.1,0.3s-1,0.2-1.1,0.3c-0.1,0.1-0.2,0.2-0.4,0.2s-0.8,0.2-1.4,0.5
		c-3.3,1.6-4.7,2.3-4.8,2.4c0,0.1-0.2,0.2-0.3,0.2c-0.2,0-2.6,1.1-2.8,1.4c-0.2,0.2-6.8,3.5-7.1,3.5c-0.1,0-0.2,0.1-0.2,0.2
		c0,0.1-0.1,0.2-0.3,0.2c-0.2,0-0.9,0.3-1.5,0.6s-1.3,0.6-1.4,0.6c-0.1,0-0.2,0.1-0.2,0.2c0,0.1-0.4,0.2-0.8,0.3s-0.8,0.2-0.8,0.3
		c0,0.1-0.4,0.2-0.8,0.3s-0.8,0.2-0.8,0.3s-0.2,0.2-0.5,0.2s-0.5,0.1-0.5,0.2s-0.4,0.2-0.9,0.3s-0.9,0.2-1,0.3
		c-0.1,0.1-0.6,0.2-1.2,0.3s-1.1,0.2-1.1,0.3c0,0.1-0.6,0.2-1.3,0.2c-0.8,0-1.3-0.1-1.3-0.2c0-0.2,2.9-3.3,3.1-3.3
		c0.2,0,1.9-1.2,2-1.4c0-0.1,0.1-0.2,0.3-0.2c0.1,0,0.6-0.3,1.2-0.6c1-0.6,3.6-2,6.5-3.5c0.8-0.4,1.6-0.8,1.6-0.9
		c0-0.1,0.2-0.2,0.3-0.2c0.2,0,2.6-1.2,2.8-1.3c0.1-0.1,0.6-0.4,1.3-0.7c0.7-0.3,1.7-0.9,2.4-1.2c0.7-0.3,1.2-0.7,1.3-0.7
		c0.1-0.1,0.4-0.3,0.8-0.5c0.4-0.2,0.7-0.4,0.8-0.5c0.1-0.1,0.5-0.3,1-0.6c0.5-0.2,1.5-0.9,2.3-1.4c0.8-0.5,1.5-0.9,1.6-0.9
		s0.2-0.1,0.2-0.1c0-0.1,0.4-0.4,0.9-0.7c0.5-0.3,0.9-0.7,0.9-0.8c0.1-0.1,0.2-0.2,0.3-0.2c0.2,0,3.2-2.9,3.2-3.1
		c0-0.1,0.1-0.3,0.3-0.4c0.4-0.5,1.4-2.5,1.4-3c0-0.2,0.1-0.4,0.2-0.4c0.1,0,0.2-0.7,0.2-1.8c0-1-0.1-1.9-0.2-1.9s-0.2-0.3-0.2-0.5
		c0-0.6-1.3-1.9-2-2c-0.4-0.1-0.6-0.2-0.6-0.3c0-0.1-1.1-0.2-2.4-0.2c-1.3,0-2.4,0.1-2.4,0.2s-0.4,0.2-0.9,0.3s-1,0.2-1.2,0.3
		s-1.1,0.5-2.1,1c-1.9,0.9-4.6,2.5-4.7,2.7c0,0.1-0.2,0.2-0.3,0.2s-0.3,0.1-0.3,0.2s-0.3,0.3-0.7,0.5s-1,0.6-1.3,0.9
		c-0.3,0.3-0.8,0.6-1,0.7c-0.5,0.3-4.9,3.5-5.1,3.7c-0.1,0.1-0.7,0.5-1.2,0.8s-1.1,0.7-1.1,0.8s-0.1,0.2-0.2,0.2
		c-0.2,0-2,1.2-2.1,1.4c0,0.1-0.2,0.2-0.3,0.2s-0.6,0.3-1,0.6c-0.4,0.3-0.9,0.6-1,0.6s-0.2,0.1-0.2,0.2s-0.2,0.2-0.5,0.4
		s-1,0.5-1.6,0.8c-2.1,1.2-5.6,2.9-6,2.9c-0.2,0-0.4,0.1-0.4,0.2c-0.1,0.1-0.5,0.2-1.1,0.3c-0.5,0.1-1,0.2-1.1,0.3
		c-0.2,0.3-1.2,0.2-1.4-0.1c-0.2-0.2-0.1-0.5,0.5-1.3c1.5-2.1,4.1-4,13.2-9.6c1.8-1.1,3.4-2.2,3.6-2.3s0.5-0.4,0.8-0.4
		c0.2-0.1,0.4-0.2,0.4-0.3c0-0.1,0.3-0.3,0.6-0.5c0.7-0.4,3.4-2.4,3.6-2.6c0.1-0.1,0.2-0.2,0.4-0.3c2.7-1.5,7.5-7.4,7.8-9.7
		c0.1-0.5,0.2-0.8,0.3-0.8s0.2-0.6,0.2-1.2c0-0.7-0.1-1.2-0.2-1.2s-0.2-0.3-0.3-0.8c-0.1-0.9-1.3-2.1-2.3-2.5
		c-1.7-0.6-6.5-0.3-6.9,0.4c-0.1,0.1-0.2,0.2-0.4,0.2s-0.6,0.1-0.9,0.3c-0.3,0.2-1,0.4-1.5,0.6s-0.9,0.4-1,0.5s-0.3,0.2-0.6,0.3
		c-0.3,0.1-0.5,0.2-0.6,0.3c-0.1,0.1-0.4,0.3-0.9,0.5s-1.3,0.7-2,1.1S215,52,214.9,52s-0.2,0.1-0.2,0.2s-0.2,0.2-0.4,0.3
		c-0.2,0.1-0.9,0.4-1.4,0.8c-1.3,0.8-4.9,2.9-6.1,3.6c-0.5,0.3-1,0.5-1.1,0.6c-0.1,0.1-0.3,0.2-0.6,0.3c-0.3,0.1-0.5,0.2-0.6,0.3
		c-0.2,0.2-2.6,1.4-2.8,1.4c-0.1,0-0.2,0.1-0.2,0.2c0,0.1-0.1,0.2-0.2,0.2s-0.5,0.1-0.7,0.2s-0.9,0.4-1.4,0.6
		c-0.5,0.2-1.1,0.4-1.1,0.5c-0.1,0.1-0.5,0.2-0.9,0.3c-0.4,0.1-0.7,0.2-0.7,0.3c0,0.1-0.4,0.2-0.9,0.2l-0.9,0.1l1.2-1.2
		c1.1-1.1,4.3-3.2,5.1-3.5c0.2-0.1,0.4-0.2,0.4-0.3c0-0.1,0.1-0.2,0.2-0.2c0.3,0,2.7-1.2,2.8-1.4c0-0.1,0.2-0.2,0.3-0.2
		c0.1,0,0.6-0.2,1-0.4c0.4-0.2,0.9-0.4,1-0.4c0.1,0,0.2-0.1,0.2-0.2s0.2-0.2,0.4-0.2s0.4-0.1,0.4-0.2c0-0.1,0.1-0.2,0.2-0.2
		c0.3,0,2.7-1.2,2.8-1.4c0-0.1,0.2-0.2,0.3-0.2c0.2,0,0.5-0.1,2.3-1.2c1.2-0.7,4.1-2.6,4.8-3.1c2.4-2,4.7-4.6,4.7-5.3
		c0-0.1,0.1-0.4,0.3-0.7c1.6-3.7,0-8.2-2.9-8.2c-0.2,0-0.4-0.1-0.4-0.2c0-0.2-5.3-0.3-5.4,0c-0.1,0.1-0.5,0.2-1.1,0.3
		s-1,0.2-1.1,0.3c-0.1,0.1-0.2,0.2-0.4,0.2s-0.6,0.1-1,0.3c-1.2,0.5-3.2,1.5-3.3,1.6c-0.1,0-0.4,0.2-0.7,0.4
		c-0.6,0.3-7.5,4.9-7.8,5.2c-0.3,0.3-5,3.5-5.2,3.5c-0.1,0-0.2,0.1-0.2,0.2c-0.1,0.2-3.3,1.8-4,1.9c-0.3,0.1-0.6,0.2-0.6,0.3
		s-0.4,0.2-1,0.2h-1l0.1-0.6c0.3-1.3,2.2-3.8,5.3-6.8c4.8-4.6,9.2-9.2,10.1-10.4c0.5-0.7,1-1.3,1.1-1.3c0.1,0,0.1-0.1,0.1-0.2
		c0-0.1,0.1-0.3,0.2-0.4c0.1-0.1,0.4-0.5,0.5-0.7c0.2-0.2,0.5-0.8,0.8-1.2c0.3-0.4,0.5-0.8,0.5-0.8s0.3-0.6,0.7-1.3
		c0.9-1.5,2.3-4.5,2.3-4.9c0-0.2,0.1-0.3,0.2-0.3s0.2-0.4,0.3-1c0.1-0.5,0.2-1,0.3-1c0.1,0,0.2-0.4,0.2-0.8s0.1-0.9,0.2-1
		c0.3-0.4-0.1-6.6-0.4-6.6c-0.1,0-0.2-0.2-0.2-0.5c0-0.4-0.2-0.9-0.8-2.4c-0.7-1.5-4.2-4.1-5.5-4.1c-0.2,0-0.4-0.1-0.4-0.1
		c0-0.2-1.5-0.6-2.6-0.8c-0.6-0.1-1-0.2-1-0.3C199.1-0.1,189.4-0.1,189.3,0.2"/>
</g>
</svg>
