<?xml version="1.0" encoding="utf-8"?>
<!-- Generator: Adobe Illustrator 26.3.1, SVG Export Plug-In . SVG Version: 6.00 Build 0)  -->
<svg version="1.1" id="Calque_1" xmlns="http://www.w3.org/2000/svg" xmlns:xlink="http://www.w3.org/1999/xlink" x="0px" y="0px"
	 viewBox="0 0 400 400" style="enable-background:new 0 0 400 400;" xml:space="preserve">
<style type="text/css">
	.st0{display:none;}
	.st1{display:inline;fill:#FEE7F0;}
	.st2{display:inline;fill-rule:evenodd;clip-rule:evenodd;fill:#FEE7F0;}
	.st3{display:inline;}
	.st4{fill:#FEE7F0;}
</style>
<g class="st0">
	<path class="st1" d="M185.8,178.1l5.4-118.8l-5.3-0.3l-8.1,115.7c-20.5,6.6-32.3,17.2-40.1,28.2c-5.4,7.2-13.4,23.8-9.3,43.5
		c5.9,28.2,18.9,37.3,14.8,52.8c-4,15-45,33.4-23.4,78.5c8.8,15.7,23.6,22.4,23.6,22.4c-13.4-9.3-38.8-47-5.9-83.1
		c31.2-34.3-4.6-40.1-2.1-83.9C137.8,189.2,185.8,178.1,185.8,178.1"/>
	<path class="st1" d="M186.9,64.9l-7.1-0.1c0,0,8.4-34.2-2.2-60.5c0,0,19.8-10.4,40.3,0.9c0,0-16.3-6.3-31.2,0.7
		C186.8,5.9,192,27.5,186.9,64.9"/>
	<path class="st1" d="M198.1,50.6c0,1.3-1.1,2.3-2.4,2.3c-1.3,0-2.3-1.1-2.3-2.4l0.4-34.8c0-1.3,1.1-2.3,2.4-2.3s2.3,1.1,2.3,2.4
		L198.1,50.6"/>
	<path class="st1" d="M207.2,50.7c0,1.3-1.1,2.3-2.4,2.3c-1.3,0-2.3-1.1-2.3-2.4l0.4-34.8c0-1.3,1.1-2.3,2.4-2.3
		c1.3,0,2.3,1.1,2.3,2.4L207.2,50.7"/>
	<path class="st1" d="M185.9,47.3l-9-0.1c-0.5-2-2.3-3.6-4.5-3.6c-2.6,0-4.7,2-4.7,4.6c0,2.6,2,4.7,4.6,4.7c2.2,0,4-1.5,4.5-3.5
		l9,0.1L185.9,47.3"/>
	<path class="st1" d="M186,33.6l-9-0.1c-0.5-2-2.3-3.6-4.5-3.6c-2.6,0-4.6,2-4.7,4.6c0,2.6,2,4.7,4.6,4.7c2.2,0,4-1.5,4.5-3.5l9,0.1
		L186,33.6"/>
	<path class="st1" d="M186.1,20l-9-0.1c-0.5-2-2.3-3.6-4.5-3.6c-2.6,0-4.7,2-4.7,4.6c0,2.6,2,4.6,4.6,4.7c2.2,0,4-1.5,4.5-3.5l9,0.1
		L186.1,20"/>
	<path class="st1" d="M224.2,16.9c-2.2,0-4,1.5-4.5,3.5l-5.2,0c-0.1,0.7-0.2,1.4-0.3,2.1l5.5,0.1c0.5,2,2.3,3.6,4.5,3.6
		c2.6,0,4.6-2,4.7-4.6C228.8,19,226.8,16.9,224.2,16.9"/>
	<path class="st1" d="M224.1,30.5c-2.2,0-4,1.5-4.5,3.5L213,34c-0.1,0.7-0.1,1.4-0.1,2.2l6.7,0.1c0.5,2,2.3,3.6,4.5,3.6
		c2.6,0,4.6-2,4.7-4.6C228.7,32.7,226.6,30.6,224.1,30.5"/>
	<path class="st1" d="M223.9,44.2c-2.2,0-4,1.5-4.5,3.5l-6.8-0.1c0,0.7,0.1,1.4,0.1,2.2l6.7,0.1c0.5,2,2.3,3.6,4.5,3.6
		c2.6,0,4.6-2,4.7-4.6C228.5,46.3,226.5,44.2,223.9,44.2"/>
	<path class="st1" d="M157.7,354c0,0,32.8-18.7,68.9-15.7c0,0-37.7,1.6-69,23.4L157.7,354"/>
	<path class="st1" d="M208.4,59.8l-2.4-0.1l-3.1,280.8c0.8-0.4,1.6-0.8,2.4-1.1L208.4,59.8"/>
	<path class="st1" d="M213.6,60.1l-2.4-0.1l1.1,279.6c0.8-0.4,1.6,0.4,2.4,0L213.6,60.1"/>
	<path class="st1" d="M200.7,59.5L193,344.3c0.8-0.4,1.6-0.8,2.5-1.2l7.7-283.5L200.7,59.5"/>
	<path class="st1" d="M195.3,59.2l-12.2,287.6c0.8-0.4,1.6-0.8,2.5-1.3l12.2-286.2L195.3,59.2"/>
	<path class="st1" d="M177.4,275.6c0.6-13.2,11.8-23.4,25-22.8c12.7,0.6,22.6,11,22.8,23.6c0-0.1,0-0.2,0-0.3
		c0.6-14-10.2-25.9-24.2-26.5c-14-0.6-25.9,10.2-26.5,24.2c-0.6,13,8.7,24.1,21.2,26.2C184.8,297.2,176.9,287.2,177.4,275.6"/>
	<path class="st1" d="M281.2,329.5c-6.9-12.9-17.2-22-18.6-33.9c-1.4-11.9,14.2-28.8,15.1-50.9c0.8-21.5-10.8-35.7-11.7-36.4h0
		c4.3,6.9,7.2,15.2,7.8,25.3c2.5,43.8-37.3,49.5-6.4,84.1c15.2,17,18.4,27.8,18,40.2l0,0h0C285.9,352.4,289.2,344.3,281.2,329.5"/>
</g>
<g class="st0">
	<path class="st2" d="M33,141.2c120.8-24.2,370.7-18.6,359.6-2.8c-7.2,10.2-80.6,5.3-75.7,21.2c-57.8,4-116.3,9.4-175.1,11.2
		c55.2-3.8,111.5-12.7,166.6-16.5c-4.7-17.6,68.4-6.6,76-15.5C396.6,124.7,148.7,122.1,33,141.2z"/>
	<path class="st2" d="M296,125.3c57.4-18.4,91-34.5,91.6-47.1c0.6-11.9-24.7-15.7-46.3-14.5c-27.2,1.5-29.5-7.4-35.2-26.3
		c-4.7-15.6-13.3-31.8-61.1-25.4c-35.1,31.7-70.3,63.5-105.4,95.3c35.9-29.3,74.2-61.8,106.8-91.2c44.4-6,51.7,10.7,56,25.2
		c5.2,17.5,9,28.2,34.2,26.8c20-1.1,42.7,1.6,42.1,12.6C378.1,92.5,349.3,108.3,296,125.3z"/>
	<path class="st2" d="M255.2,42.1c3.4,40.5,8.3,80.4,21.5,117.1c3.7-0.3,7.4-0.6,11.1-0.9C274.5,123.7,264.5,83.4,255.2,42.1z"/>
	<path class="st2" d="M254.7,40.6c2.2,0,3.9,0.6,3.9,1.4c0,0.1,0,0.2-0.1,0.3c-0.3-0.4-1.3-0.7-2.5-0.7c-1.4,0-2.6,0.4-2.6,0.9
		c0,0.4,0.9,0.8,2,0.9c-0.2,0-0.5,0-0.7,0c-2.2,0-3.9-0.6-3.9-1.4C250.8,41.3,252.5,40.6,254.7,40.6z"/>
	<path class="st2" d="M309.1,234.3L108,265.8c69.9-8.5,139.9-17.1,209.8-25.6c-3.6-23.4-4.7-49-0.3-73.6
		C310,188.1,307.1,211.5,309.1,234.3z"/>
	<path class="st2" d="M384.1,201.7c-32.6,3.1-51.8,10.4-62.1,20.5c20.6-9.4,43.4-14.1,67.1-16.5c3.4-0.4,5.9-2.8,5.8-5.7
		c-0.7-19.3-1-38.7-1.1-58c-3.1,17.8-4.1,35.9-3.8,54C390,199,387.5,201.4,384.1,201.7z"/>
	<path class="st2" d="M339.1,227.4c2,26.5,5.1,57.3,8.3,82.2c0.6,4.7,7.8,2,8.7-2.2c7.2-32.9,0.2-94.7,20.5-98.9
		c-28.3,5.6-17.6,63.9-22.8,95.4c-0.7,4-4.1,5.6-4.5,1.1C347.4,281.2,344.5,245.4,339.1,227.4z"/>
	<path class="st2" d="M88.1,250.2c-2.8,22.8-6.8,49.1-10.7,70.4c-0.7,4-7.9,1.7-8.7-1.9c-6.3-28.2,0.8-76.8-18.1-84.2
		c28.2,4.8,16.2,54.3,20.5,81.2c0.5,3.4,4,4.8,4.5,1C78.3,296.3,82.2,265.6,88.1,250.2z"/>
	<path class="st2" d="M36.8,175c-1.3-10.9-2.5-21.9-3.8-32.8c-0.2,9.7-0.4,19.4-0.7,29c-0.1,3.7-3,6.7-7.2,7.6
		c-6.4,1.2-12.8,2.4-19.1,3.7c-0.6,0.1-1,0.5-0.9,1c0.3,10.1,0.7,20.2,1,30.3c0.7-9.1,1.4-18.2,2.1-27.3c0-0.5,0.5-0.9,1.1-1
		c6.5-0.6,12.9-1.2,19.4-1.9C33.7,183.1,37.3,179.3,36.8,175z"/>
	<path class="st2" d="M105.7,225.6c-0.3,0.9-0.7,1.7-1,2.6c-29.1-13.3-58.4-26.6-89.8-38.1C44,197.3,74.7,211.2,105.7,225.6z"/>
	<path class="st2" d="M106,263.8c-28.6-16-65.6-34.9-96.5-49.5c28.2,9.9,64.6,27.9,94.6,44.9l-1.1-33.1c0-0.6,0.5-1.2,1.2-1.3
		c8-1.5,16-3.1,23.9-4.6c5.3-1,8.9-4.9,9.1-9.5c0.3-12.1,0.6-24.2,0.8-36.3c1.6,13.7,3.1,27.4,4.7,41.1c0.6,5.4-3.9,10.2-10.2,10.8
		c-8.1,0.8-16.2,1.6-24.2,2.3c-0.7,0.1-1.3,0.6-1.3,1.2C106.7,233,110.1,258.3,106,263.8z"/>
	<polygon class="st2" points="150.4,163.2 151.6,161.1 165.8,113 98.4,106 87.4,139 96.9,102.3 175.1,111 159.9,163 	"/>
	<path class="st2" d="M174.5,287.1c1.8,32.7,4.5,70.5,7.4,101.1c0.5,5.8,7.6,2.4,8.5-2.7c4.9-27.5,4.7-69,8.1-94.6
		c2.5-19,30.1-25.5,41.8-25.5c0.7,0,1.3-0.2,1.8-0.6s0.7-0.9,0.7-1.5c-0.1-3.6-0.4-8.8-0.4-11.3c-1.7,0.2-3.4,0.4-5,0.7
		c0,1.7,0,3.3,0,5c0,1-0.9,1.9-2.1,2c-21.8,3-36.4,12.2-41,30.8c-6.1,24.6-2.4,64.2-6,90.7c-0.7,4.9-4.1,6.9-4.4,1.4
		C182.1,353.5,179.6,309.3,174.5,287.1z"/>
	<path class="st2" d="M135.2,172c-22.7-6.9-86.9-24.9-98.6-28.4C65.7,148.7,107.5,158,135.2,172z"/>
	<path class="st2" d="M131.7,215.7c-17.1-8.2-72.5-26.9-84.3-29.8C72.5,191.7,108.4,202,131.7,215.7z"/>
</g>
<g class="st0">
	<path class="st2" d="M225.8,341.6c0,0-0.1,0.2-0.2,0.4s-0.5,1-0.9,1.8c-1,2-1,2.1-2.4,3.5c-1.3,1.4-2.9,2.4-3.9,2.6
		c-0.3,0.1-0.6,0.2-0.7,0.3s-0.4,0.2-0.6,0.2c-0.3,0-0.6,0.1-0.6,0.2c-0.1,0.2-1.1,0.2-4.3,0.2c-3.2,0-4.2-0.1-4.3-0.2
		c0-0.1-0.2-0.2-0.4-0.2s-0.5-0.1-0.7-0.2s-0.7-0.4-1.2-0.6c-2.3-1.1-2.7-2.2-1.2-3.4c0.4-0.3,0.8-0.6,0.8-0.6
		c0.1,0,0.5-0.3,1.1-0.5c0.5-0.2,1.1-0.5,1.3-0.6s0.6-0.2,1-0.3c0.4-0.1,0.7-0.2,0.8-0.3s0.3-0.2,0.6-0.2c0.3,0,0.5-0.1,0.5-0.2
		s0.6-0.2,1.2-0.3s1.3-0.2,1.3-0.3c0.1-0.1,0.8-0.2,1.7-0.3c0.9-0.1,1.7-0.2,1.7-0.3c0.1-0.1,0.6-0.2,1.2-0.2s1.2-0.1,1.3-0.2
		s0.9-0.2,1.8-0.2C224,341.5,225.8,341.5,225.8,341.6 M208.1,286.9c0.2,0.4,0.4,0.7,0.5,0.7c0.1,0,0.2,0.1,0.2,0.2s0.3,0.9,0.8,1.8
		s0.8,1.9,0.9,2.2c0.1,0.3,0.2,0.7,0.3,0.8c0.1,0.1,0.2,0.6,0.3,1c0.1,0.5,0.2,0.8,0.3,0.8c0.1,0,0.2,0.3,0.2,0.7
		c0,0.4,0.1,0.7,0.2,0.7c0.1,0,0.2,0.6,0.3,1.4c0.1,0.7,0.2,1.4,0.3,1.4s0.2,0.8,0.3,1.7c0.1,0.9,0.2,1.8,0.4,2
		c0.3,0.4,0.3,14.4,0,14.7c-0.1,0.1-0.2,0.4-0.2,0.6c0,0.5-0.8,2-1.1,2.2c-0.4,0.1-1.9-1.4-2.1-2.1c-0.1-0.2-0.2-0.5-0.3-0.5
		c-0.1,0-0.2-0.1-0.2-0.3s-0.1-0.6-0.3-0.9c-0.2-0.3-0.3-0.7-0.3-0.9c0-0.2-0.1-0.4-0.2-0.4s-0.2-0.5-0.3-1.1s-0.2-1.1-0.3-1.2
		c-0.1-0.1-0.2-0.8-0.3-1.6s-0.2-1.6-0.3-1.6s-0.2-0.6-0.2-1.1c0-0.7-0.1-1.1-0.2-1.1c-0.3-0.1-0.3-19.5,0-19.9
		c0.1-0.1,0.2-0.6,0.2-1l0-0.8l0.5,0.6C207.6,285.9,207.9,286.5,208.1,286.9 M204.3,249.9c-0.1,13.7-0.1,18.1-0.3,18.2
		c-0.1,0-0.2,0.7-0.2,2c0,1.1-0.1,3-0.1,4.3l-0.1,2.3l-0.6-0.2c-0.3-0.1-0.8-0.3-1-0.4c-0.2-0.1-0.8-0.2-1.4-0.3
		c-0.6-0.1-1.1-0.2-1.1-0.3c-0.2-0.3-8.1-0.2-8.2,0.1c-0.1,0.3-10.1,0.4-10.3,0c0-0.1-0.2-0.2-0.4-0.2c-0.7,0-2.6-1.2-3.8-2.4
		c-1.1-1.1-2.6-3.7-2.6-4.5c0-0.2-0.1-0.4-0.2-0.5c-0.2-0.1-0.2-1-0.2-4c0-2.9,0.1-4,0.2-4.1c0.1-0.1,0.2-0.5,0.2-0.8
		c0-0.3,0.1-0.8,0.3-1.1c0.2-0.3,0.3-0.7,0.3-1c0-0.2,0.1-0.5,0.2-0.5s0.2-0.4,0.3-0.8c0.1-0.4,0.2-0.7,0.3-0.7s0.2-0.3,0.3-0.6
		c0.1-0.3,0.2-0.7,0.3-0.7c0.1-0.1,0.4-0.7,1.1-1.9c0.2-0.4,0.4-0.7,0.4-0.8s0.5-0.8,1.1-1.5c0.5-0.8,1.1-1.5,1.1-1.7
		c0.1-0.1,0.4-0.5,0.6-0.8c2.5-3,4.5-5,7.3-7.4c0.3-0.2,0.9-0.8,1.4-1.2c1.4-1.2,1.6-1.4,2.9-2.3c0.6-0.5,1.4-1.1,1.8-1.4
		s0.9-0.7,1.1-0.9c0.3-0.2,0.7-0.6,1-0.8c0.2-0.2,0.6-0.5,0.8-0.6c0.4-0.3,0.6-0.4,1.6-1.3c0.2-0.2,0.8-0.6,1.2-1
		c0.5-0.4,1-0.9,1.2-1.1c0.2-0.2,1-0.9,1.7-1.6l1.3-1.2l0.1,2.7C204.3,230.6,204.3,240,204.3,249.9 M211.3,181.4
		c0.3,0.4,0.7,0.9,0.8,1c0.5,0.6,1.2,1.9,1.4,2.3c0.1,0.3,0.2,0.5,0.3,0.5s0.2,0.4,0.3,0.8c0.1,0.4,0.2,0.8,0.3,0.8s0.2,0.6,0.3,1.4
		c0.1,0.8,0.2,1.5,0.3,1.6c0.1,0.1,0.2,1.6,0.2,3.4s-0.1,3.3-0.2,3.4c-0.1,0.1-0.2,0.8-0.3,1.6c-0.1,0.8-0.2,1.6-0.3,1.7
		c-0.1,0.1-0.2,0.6-0.3,1.1c-0.1,0.5-0.2,1.1-0.3,1.2c-0.1,0.2-0.3,0.8-0.5,1.4s-0.4,1.3-0.6,1.7c-0.1,0.3-0.3,0.7-0.3,0.9
		c0,0.2-0.1,0.4-0.2,0.4c-0.1,0.1-0.2,0.3-0.2,0.4c0,0.4-2.9,6.3-3.5,7.1c-0.8,1.1-0.8,1.4-0.6-6.8c0.1-4.7,0.2-7.9,0.3-8
		c0.1-0.1,0.2-1,0.2-2s0.1-1.8,0.2-1.9s0.2-1.4,0.3-3.1c0.1-1.6,0.2-3,0.3-3c0.1,0,0.2-1,0.3-2.3c0.1-1.2,0.2-2.4,0.3-2.5
		c0.1-0.1,0.2-0.6,0.3-1.2C210.3,180.2,210.4,180.1,211.3,181.4 M143.7,63.4c-0.6,0.4-2,1.1-3.1,1.6s-2.1,1-2.3,1.1
		c-0.2,0.1-0.6,0.2-0.9,0.3c-0.3,0.1-0.7,0.2-0.7,0.3c-0.1,0.1-0.3,0.2-0.4,0.2c-0.2,0-0.6,0.1-0.9,0.3c-0.3,0.2-0.7,0.3-0.8,0.3
		c-0.1,0-0.3,0.1-0.3,0.2s-0.3,0.2-0.7,0.3s-1,0.2-1.3,0.4c-0.3,0.2-0.7,0.3-0.9,0.3c-0.2,0-0.4,0.1-0.4,0.2
		c-0.1,0.1-0.3,0.2-0.5,0.2c-0.2,0-0.4,0.1-0.4,0.2c0,0.1-0.4,0.2-0.8,0.3c-0.4,0.1-0.9,0.2-1.1,0.3s-0.3,0.2-0.5,0.1
		c-0.2-0.1-0.1-0.1,0.1-0.2c0.2-0.1,0.4-0.2,0.5-0.3c0.1-0.1,2.8-1.5,5.8-2.9c0.7-0.3,1.4-0.6,1.5-0.6c0.1,0,0.2-0.1,0.2-0.2
		s0.1-0.2,0.2-0.2s0.5-0.1,0.8-0.3c0.3-0.2,0.8-0.3,1.1-0.4s0.6-0.2,0.6-0.3s0.2-0.2,0.4-0.2s0.4-0.1,0.5-0.2s0.4-0.2,0.9-0.3
		c0.4-0.1,0.8-0.2,0.8-0.3s0.4-0.2,0.8-0.3c0.4-0.1,0.9-0.2,1-0.3c0.1-0.1,0.4-0.2,0.7-0.2C144.7,62.6,144.7,62.7,143.7,63.4
		 M189.3,0.2c-0.1,0.1-1,0.2-2.1,0.3c-1.1,0.1-2.2,0.2-2.4,0.3S184.1,1,183.6,1c-0.4,0-0.8,0.1-0.8,0.2s-0.7,0.2-1.5,0.3
		s-1.5,0.2-1.5,0.3c0,0.1-0.6,0.2-1.4,0.3c-0.8,0.1-1.5,0.2-1.6,0.3s-0.4,0.2-0.8,0.2s-0.7,0.1-0.7,0.2c0,0.1-0.6,0.2-1.2,0.3
		s-1.3,0.2-1.3,0.3c-0.1,0.1-0.6,0.2-1.1,0.3s-1.1,0.2-1.1,0.3c-0.1,0.1-1.5,0.5-3,0.7c-0.3,0.1-0.6,0.2-0.6,0.3
		c0,0.1-0.5,0.2-1.1,0.3s-1.1,0.2-1.1,0.3c-0.1,0.1-0.5,0.2-1,0.3c-0.5,0.1-0.9,0.2-1,0.3s-0.4,0.2-0.7,0.2s-0.6,0.1-0.7,0.2
		s-0.5,0.2-1,0.3s-0.9,0.2-0.9,0.3c0,0.1-0.4,0.2-0.9,0.3s-0.9,0.2-1,0.3s-0.3,0.2-0.6,0.2s-0.5,0.1-0.5,0.2c0,0.1-0.4,0.2-0.9,0.3
		c-0.5,0.1-0.9,0.2-0.9,0.3s-0.4,0.2-0.8,0.3c-0.4,0.1-0.9,0.2-1,0.3s-0.7,0.3-1.4,0.5s-1.2,0.4-1.3,0.5c-0.1,0.1-0.5,0.2-0.9,0.3
		c-0.4,0.1-0.7,0.2-0.7,0.3c0,0.1-0.1,0.2-0.3,0.2c-0.2,0-0.6,0.1-0.9,0.3s-0.7,0.3-0.9,0.3s-0.4,0.1-0.4,0.2s-0.3,0.2-0.7,0.3
		c-0.4,0.1-0.7,0.2-0.7,0.3s-0.1,0.2-0.3,0.2c-0.2,0-0.8,0.2-1.3,0.5c-2,0.9-3.6,1.7-3.8,1.7c-0.1,0-0.2,0.1-0.2,0.2
		c0,0.1-0.1,0.2-0.2,0.2c-0.2,0-3.8,1.7-4,1.9c-0.1,0.1-0.7,0.4-1.3,0.8c-1.3,0.7-6.2,3.7-6.3,3.9c-0.1,0.1-0.5,0.4-1.1,0.8
		c-0.5,0.4-1.1,0.7-1.2,0.9c-0.1,0.1-0.4,0.3-0.6,0.5c-0.2,0.2-0.6,0.5-0.8,0.6c-0.2,0.2-0.7,0.5-0.9,0.8c-0.8,0.6-1.3,1-2.3,2
		c-0.5,0.5-1.2,1-1.4,1.3c-2.2,1.9-6.8,6.8-8.6,9.2c-0.4,0.5-0.8,1-0.8,1c-0.1,0-0.6,0.8-1.2,1.6s-1.2,1.6-1.2,1.7
		c-0.3,0.4-2.3,3.7-2.6,4.4c-0.2,0.4-0.4,0.8-0.5,0.9c-0.2,0.2-1.9,4-1.9,4.2c0,0.1-0.1,0.4-0.3,0.7c-0.2,0.3-0.3,0.8-0.3,1
		s-0.1,0.4-0.2,0.4s-0.2,0.2-0.2,0.5c0,0.3-0.1,0.5-0.2,0.5s-0.2,0.5-0.3,1.1s-0.2,1.1-0.3,1.1c-0.1,0-0.2,0.6-0.3,1.4
		c-0.1,0.7-0.2,1.4-0.3,1.5c-0.2,0.1-0.2,6.8,0,6.9c0.1,0.1,0.2,0.5,0.3,0.9s0.2,0.9,0.3,1.1c1.9,4,4.1,6,7.1,6.5
		c0.4,0.1,0.8,0.2,0.9,0.3c0.2,0.3,6.3,0.2,6.6-0.1c0.1-0.1,0.3-0.2,0.4-0.1s-0.1,0.3-0.4,0.5c-1.8,1.1-4.3,3.7-4.5,4.7
		c-0.1,0.3-0.2,0.5-0.2,0.5c-0.3,0-0.6,2.3-0.4,3.2c0.5,1.8,1.8,3,3.1,3c0.2,0,0.4,0.1,0.5,0.2c0.2,0.2,6.6,0.3,6.6,0
		c0-0.1,0.7-0.2,1.4-0.3c0.8-0.1,1.5-0.2,1.6-0.3c0.1-0.1,0.3-0.2,0.6-0.2s0.5-0.1,0.5-0.2s0.5-0.2,1.1-0.3s1.1-0.2,1.1-0.3
		c0-0.1,0.3-0.2,0.7-0.3c0.4-0.1,1-0.3,1.5-0.5c0.4-0.2,1.1-0.4,1.5-0.5s0.6-0.2,0.6-0.3c0-0.1,0.4-0.2,0.8-0.3
		c0.4-0.1,0.8-0.2,0.8-0.3s0.1-0.2,0.3-0.2c0.1,0,0.5-0.1,0.8-0.3s0.7-0.3,1-0.3c0.2,0,0.4-0.1,0.4-0.2c0-0.1,0.3-0.2,0.7-0.3
		s0.7-0.2,0.8-0.3c0.1-0.1,0.3-0.2,0.5-0.2c0.3,0,1.2-0.3,2.1-0.8c0.2-0.1,0.6-0.2,1-0.3c0.4-0.1,0.7-0.2,0.7-0.3s0.4-0.2,0.9-0.3
		s0.9-0.2,1-0.3s0.3-0.2,0.6-0.2s0.5-0.1,0.6-0.2c0.1-0.1,0.6-0.2,1.2-0.3s1.1-0.2,1.1-0.3s0.6-0.2,1.2-0.3s1.3-0.2,1.4-0.3
		c0.1-0.1,0.4-0.2,0.8-0.2s0.8-0.1,0.9-0.2c0.3-0.3,6.6-0.3,6.7,0c0,0.1,0.2,0.2,0.4,0.2s0.6,0.4,1,0.8c1.6,1.7,0.7,3.8-2.6,6.5
		c-0.7,0.6-1.4,1.2-1.4,1.2s-0.4,0.3-0.9,0.5c-0.9,0.5-1.5,0.8-1.6,1c-0.1,0.1-0.7,0.4-2.3,1.3c-0.5,0.2-1.6,0.8-2.4,1.2
		c-0.8,0.4-1.9,0.9-2.3,1.1c-0.4,0.2-1,0.4-1.3,0.5c-0.3,0.1-0.6,0.2-0.6,0.3c-0.1,0.1-0.2,0.2-0.4,0.2s-0.6,0.1-0.9,0.3
		c-0.3,0.2-0.7,0.3-0.8,0.3c-0.1,0-0.3,0.1-0.3,0.2s-0.3,0.2-0.7,0.3s-0.9,0.2-1.2,0.4c-0.3,0.2-0.7,0.3-0.9,0.3s-0.3,0.1-0.3,0.2
		c0,0.1-0.2,0.2-0.5,0.2s-0.5,0.1-0.5,0.2s-0.3,0.2-0.8,0.3c-0.4,0.1-0.8,0.2-0.8,0.3s-0.1,0.2-0.3,0.2c-0.4,0-1.5,0.5-4.6,1.9
		c-5.7,2.7-9.8,6.9-10.2,10.4c-0.2,2.3,0.4,3.7,1.9,4.2c0.4,0.1,0.8,0.3,0.9,0.4c0.3,0.2,3.7,0.2,3.8,0c0.1-0.1,0.4-0.2,0.7-0.2
		c0.6,0,2.3-0.5,2.9-0.8c0.2-0.1,0.5-0.2,0.7-0.2c0.2,0,0.6-0.1,0.9-0.3c0.3-0.2,0.8-0.3,1.1-0.4s0.6-0.2,0.7-0.3
		c0.1-0.1,0.3-0.2,0.5-0.2s0.4-0.1,0.4-0.2s0.3-0.2,0.6-0.3c0.3-0.1,1-0.3,1.5-0.6c0.5-0.3,1.1-0.5,1.2-0.5s0.2-0.1,0.2-0.2
		c0-0.1,0.1-0.2,0.2-0.2c0.2,0,3.8-1.7,4-1.9c0.1-0.1,0.6-0.3,1.1-0.7c0.6-0.3,1.8-0.9,2.7-1.4c4.5-2.4,9.3-4.7,10.2-5
		c0.3-0.1,0.6-0.2,0.6-0.3c0.1-0.1,0.2-0.2,0.4-0.2c0.3,0,1.2-0.4,2-0.8c0.2-0.1,0.6-0.2,1-0.3c0.4-0.1,0.8-0.2,0.9-0.3
		s0.6-0.2,1-0.3s0.9-0.2,0.9-0.3s0.3-0.2,0.6-0.2c0.3,0,0.6-0.1,0.7-0.2c0.1-0.1,0.9-0.2,1.7-0.3c0.8-0.1,1.5-0.2,1.6-0.3
		c0.1-0.2,1.6-0.2,1.6,0c0,0.1,0.2,0.2,0.4,0.2c0.4,0,1.2,0.8,1.2,1.2c0,0.7-1.3,2.3-3.1,3.9c-1.2,1-7.1,4.3-7.8,4.3
		c-0.1,0-0.2,0.1-0.2,0.2s-0.4,0.2-0.8,0.3c-0.4,0.1-0.8,0.2-0.8,0.3s-0.2,0.2-0.4,0.2s-0.4,0.1-0.4,0.2s-0.4,0.2-0.9,0.3
		c-0.5,0.1-0.9,0.2-0.9,0.3s-0.4,0.2-0.8,0.3s-0.9,0.2-1.1,0.3c-0.5,0.2-2.2,0.8-2.6,0.8c-0.2,0-0.3,0.1-0.3,0.2s-0.4,0.2-0.9,0.3
		s-1,0.2-1.1,0.3c-0.1,0.1-0.5,0.2-1,0.3c-0.5,0.1-0.9,0.2-1,0.3s-0.4,0.2-0.7,0.2c-0.3,0-0.6,0.1-0.7,0.2s-0.4,0.2-0.9,0.3
		c-0.4,0.1-0.8,0.2-0.9,0.3s-0.3,0.2-0.5,0.2s-0.7,0.1-1,0.3s-0.7,0.3-0.8,0.3c-0.1,0-0.3,0.1-0.3,0.2c0,0.1-0.1,0.2-0.3,0.2
		c-0.6,0-4,1.6-5.7,2.8c-4.5,3-6.6,7.1-5.1,10c0.6,1.1,2,2,3.2,2c0.3,0,0.6,0.1,0.6,0.2c0,0.1,0.7,0.2,1.8,0.2c1,0,1.8-0.1,1.8-0.2
		c0-0.1,0.8-0.2,1.8-0.3s1.8-0.2,1.9-0.3c0.1-0.1,0.5-0.2,0.9-0.3c0.4-0.1,1-0.2,1.2-0.3c0.2-0.1,0.5-0.3,0.7-0.4
		c0.2-0.1,0.6-0.2,1-0.3c0.4-0.1,0.8-0.2,0.9-0.3c1.1-0.6,4.1-1.9,4.2-1.9c0.1,0,0.2-0.1,0.2-0.2s0.4-0.3,0.8-0.5s0.8-0.4,0.9-0.5
		s0.7-0.4,1.4-0.8c0.7-0.4,1.4-0.7,1.4-0.8s0.3-0.2,0.6-0.3c0.3-0.1,0.9-0.5,1.5-0.8s1.5-0.9,2.1-1.2s1.1-0.6,1.2-0.7
		c0.5-0.4,6.6-3.6,8.2-4.2c0.5-0.2,1.2-0.5,1.5-0.7c0.3-0.1,0.9-0.4,1.2-0.5s0.8-0.3,0.9-0.4c0.1-0.1,0.6-0.2,1-0.3s0.9-0.2,0.9-0.3
		c0.1-0.1,0.6-0.2,1.3-0.3s1.4-0.2,1.6-0.3c0.3-0.2,0.5-0.2,0.7,0c0.1,0.1,0.4,0.2,0.6,0.2c0.5,0,0.4,0.2-0.1,1.2
		c-0.9,1.5-5,5.2-5.6,5.2c-0.1,0-0.2,0.1-0.2,0.2s-0.2,0.2-0.4,0.3c-0.2,0.1-0.5,0.2-0.5,0.2c-0.2,0.2-2.5,1.4-4.5,2.3
		c-0.7,0.3-1.5,0.7-1.7,0.8c-0.2,0.1-0.4,0.2-0.6,0.2c-0.1,0-0.5,0.1-0.8,0.3c-0.3,0.2-1.1,0.4-1.7,0.6s-1.1,0.4-1.1,0.5
		c-0.1,0.1-0.4,0.2-0.8,0.2c-0.4,0.1-0.9,0.2-1.1,0.3c-0.2,0.1-0.9,0.3-1.5,0.5c-0.7,0.2-1.2,0.4-1.2,0.5s-0.4,0.2-1,0.3
		c-0.5,0.1-1,0.2-1,0.3s-0.4,0.2-0.9,0.3s-1,0.2-1.1,0.3c-0.1,0.1-0.3,0.2-0.6,0.2c-0.3,0-0.5,0.1-0.5,0.2s-0.4,0.2-0.9,0.3
		c-0.5,0.1-0.9,0.2-0.9,0.3s-0.4,0.2-0.9,0.3s-0.9,0.2-1,0.3s-0.2,0.2-0.4,0.2c-0.3,0-1.3,0.4-2,0.8c-0.2,0.1-0.4,0.2-0.6,0.2
		c-0.2,0-3.8,1.7-4,1.9c-0.1,0.1-0.4,0.3-0.8,0.5c-0.4,0.2-0.8,0.5-0.9,0.6s-0.7,0.6-1.3,1.1c-0.6,0.5-1.3,1.2-1.6,1.6
		s-0.7,0.9-0.9,1.2c-0.2,0.2-0.6,0.9-0.8,1.5c-0.3,0.6-0.6,1.2-0.6,1.4c-0.2,0.4-0.2,4.3,0,4.5c0.1,0.1,0.2,0.3,0.2,0.5
		c0,0.8,2.5,2.7,3.5,2.7c0.1,0,0.4,0.1,0.5,0.2c0.3,0.3,6.6,0.3,7,0c0.1-0.1,0.8-0.3,1.4-0.4s1.1-0.2,1.2-0.3
		c0.1-0.1,0.3-0.2,0.6-0.2c0.3,0,0.5-0.1,0.5-0.2c0-0.1,0.4-0.2,0.9-0.3c0.5-0.1,0.9-0.2,0.9-0.3c0-0.1,0.4-0.2,0.8-0.3
		c0.4-0.1,0.8-0.2,0.8-0.3c0-0.1,0.1-0.2,0.3-0.2c0.2,0,0.7-0.2,1.3-0.5c0.5-0.3,1.2-0.5,1.5-0.6c0.3-0.1,0.6-0.2,0.6-0.3
		s0.1-0.2,0.3-0.2s0.7-0.2,1.2-0.5s1.5-0.8,2.2-1.1s1.4-0.7,1.4-0.8c0.1-0.1,0.3-0.2,0.6-0.3c0.3-0.1,0.5-0.2,0.6-0.3
		c0.1-0.1,0.7-0.4,1.5-0.9c0.8-0.4,2-1.1,2.8-1.5s1.6-0.9,1.8-1c0.3-0.1,0.5-0.3,0.6-0.3c0.1-0.1,0.4-0.3,0.8-0.5
		c0.8-0.4,2.5-1.4,3.1-1.7c0.2-0.1,0.5-0.3,0.5-0.3c0.2-0.2,3.8-1.9,4-1.9c0.1,0,0.2-0.1,0.2-0.2s0.1-0.2,0.2-0.2
		c0.1,0,0.5-0.1,0.8-0.3c0.3-0.1,1.1-0.4,1.7-0.6s1.1-0.4,1.2-0.5c0.1-0.1,0.6-0.2,1.1-0.3c0.5-0.1,1-0.2,1.1-0.3
		c0.5-0.4,3.2-0.2,3.7,0.2c0.4,0.4,0.6,1,0.2,1c-0.1,0-0.2,0.2-0.2,0.4c0,1.5-2.6,4.7-5.6,6.9c-0.9,0.6-1.7,1.2-1.8,1.3
		c-0.5,0.4-5.6,3-7.4,3.8c-0.6,0.3-1.5,0.7-2,0.9c-0.5,0.2-1,0.4-1.2,0.4s-0.3,0.1-0.4,0.2c-0.1,0.1-0.3,0.2-0.4,0.2
		c-0.2,0-0.5,0.1-0.8,0.2c-0.3,0.1-1,0.4-1.6,0.6c-0.6,0.2-1.2,0.4-1.2,0.5c-0.1,0.1-0.5,0.2-1,0.3s-1,0.2-1,0.3
		c-0.1,0.1-0.5,0.2-1,0.3c-0.5,0.1-0.9,0.2-1,0.3s-0.3,0.2-0.6,0.2s-0.5,0.1-0.6,0.2c-0.1,0.1-0.5,0.2-1,0.3c-0.5,0.1-0.9,0.2-1,0.3
		s-0.5,0.2-1,0.3c-0.5,0.1-0.9,0.2-1,0.3c-0.1,0.1-0.3,0.2-0.5,0.2s-0.4,0.1-0.4,0.2s-0.3,0.2-0.7,0.3c-0.7,0.1-1.5,0.4-2.4,0.9
		c-0.2,0.1-0.5,0.2-0.6,0.2c-0.2,0-0.3,0.1-0.3,0.2c0,0.1-0.1,0.2-0.2,0.2c-1.5,0-5.4,3.1-6.2,4.8c-0.2,0.5-0.5,1.1-0.6,1.3
		c-0.3,0.6-0.3,4.9,0,5.3c0.1,0.1,0.2,0.5,0.2,0.8s0.1,0.5,0.2,0.5c0.1,0,0.2,0.2,0.2,0.4c0,1.1,2.7,5.6,4.8,8.1c2,2.3,5.9,5,7.3,5
		c0.2,0,0.4,0.1,0.4,0.2c0,0.1,0.5,0.2,1.1,0.3c0.6,0.1,1.1,0.2,1.1,0.3c0,0.2,0.6,0.3,2.9,0.6c0.9,0.1,1.8,0.3,2.1,0.4
		c0.6,0.3,12.2,0.3,12.5,0c0.1-0.1,1.3-0.3,2.5-0.3c1.2-0.1,2.3-0.2,2.4-0.3s0.7-0.2,1.3-0.2s1.2-0.1,1.2-0.2s1.1-0.2,2.4-0.3
		c1.5-0.1,2.5-0.2,2.6-0.4c0.2-0.3,13.4-0.3,13.8,0c0.1,0.1,0.6,0.3,1.1,0.4c0.4,0.1,1.2,0.3,1.7,0.6c0.5,0.2,1,0.5,1.1,0.5
		c0.4,0,0.5,0.9,0.2,2.6c-0.5,2.7-0.5,2.9-0.8,5.1c-0.1,1.2-0.3,2.2-0.4,2.3c-0.1,0.1-0.2,1.5-0.3,3c-0.1,1.6-0.2,2.8-0.3,2.8
		c-0.1,0-0.2,0.8-0.2,1.8c0,1.1-0.1,1.9-0.2,2c-0.2,0.2-0.2,3.3-0.3,11.8l-0.1,11.5l-1.6,1.7c-2.7,2.8-4.6,4.5-6.6,6.2
		c-0.5,0.4-1,0.8-1.1,0.9c-0.1,0.1-0.6,0.5-1.2,1c-0.6,0.5-1.2,0.9-1.2,1c-0.1,0.1-0.7,0.5-1.3,1.1c-0.7,0.5-1.3,1-1.4,1.1
		c-5,4-5.3,4.2-8.4,7.3c-3.1,3.1-4.5,4.7-5.7,6.7c-0.2,0.3-0.4,0.6-0.5,0.7c-0.5,0.5-3.4,6.3-3.4,6.9c0,0.1-0.1,0.4-0.2,0.6
		c-0.3,0.6-0.8,2.3-0.8,2.7c0,0.2-0.1,0.5-0.2,0.6c-0.1,0.1-0.3,1-0.3,2.1c-0.1,1-0.2,1.9-0.3,1.9c-0.2,0-0.2,3.4,0,3.5
		c0.1,0.1,0.2,0.9,0.3,1.9c0.1,1,0.2,1.9,0.3,2c0.1,0.1,0.2,0.4,0.2,0.5c0,1.7,3.5,6.6,5.5,7.6c0.4,0.2,0.8,0.4,0.9,0.5
		s0.4,0.2,0.8,0.3c0.4,0.1,0.7,0.2,0.7,0.3c0,0.1,0.2,0.2,0.5,0.2s0.5,0.1,0.5,0.2c0,0.1,1,0.2,2.1,0.3c1.1,0.1,2.1,0.2,2.2,0.3
		c0.1,0.2,3,0.2,3,0c0-0.1,1.4-0.2,3.2-0.3c1.8-0.1,3.3-0.2,3.4-0.3c0.5-0.4,6.3,0.1,6.9,0.6c0.1,0.1,0.4,0.2,0.7,0.3
		c0.3,0.1,0.9,0.4,1.4,0.6l0.9,0.5l-0.1,1.4c-0.5,5.6-0.6,21.2-0.3,24.4c0.1,0.9,0.2,2.1,0.3,2.6c0.1,0.6,0.2,1,0.2,1
		s0.2,0.6,0.3,1.4s0.2,1.5,0.3,1.6s0.2,0.6,0.3,1.1c0.1,0.5,0.2,1,0.3,1c0.1,0.1,0.2,0.3,0.2,0.6c0,0.3,0.1,0.5,0.2,0.5
		s0.2,0.4,0.3,0.9c0.1,0.5,0.2,0.9,0.3,0.9c0.1,0,0.2,0.1,0.2,0.2c0,0.4,0.7,1.8,1.1,2.2c0.2,0.2,0.4,0.5,0.4,0.6
		c0,0.3,1.1,1.2,1.4,1.2c0.1,0,0.3,0.1,0.3,0.2c0,0.1,0.2,0.2,0.4,0.2s0.4,0.1,0.5,0.2c0.1,0.1,0.7,0.2,1.4,0.2c2.6,0,4.6-1.8,5-4.5
		c0.1-0.5,0.2-0.9,0.3-0.9c0.9,0,0.9-17.1,0-18.2c-0.1-0.1-0.2-0.9-0.3-1.8c-0.1-0.9-0.2-1.6-0.3-1.6s-0.2-0.5-0.3-1.2
		s-0.2-1.3-0.3-1.4c-0.1-0.1-0.2-0.4-0.2-0.7s-0.1-0.6-0.2-0.6c-0.1-0.1-0.2-0.5-0.3-1c-0.1-0.5-0.2-0.9-0.3-0.9s-0.2-0.3-0.3-0.7
		c-0.1-0.4-0.3-1-0.5-1.4s-0.4-0.8-0.4-0.9c0-0.2-1.2-2.7-1.4-2.9c-0.1,0-0.2-0.3-0.3-0.5c-0.1-0.2-0.2-0.4-0.3-0.4
		s-0.2-0.2-0.3-0.4c-0.1-0.2-0.3-0.7-0.6-1c-0.3-0.3-0.5-0.6-0.5-0.7c0-0.1-0.6-0.8-1.3-1.6l-1.3-1.4l0.1-3.9c0.1-2.1,0.2-4,0.3-4.1
		s0.2-4.3,0.3-9.3c0.1-5,0.2-9.1,0.3-9.1c0.2,0,0.2-10.4,0-10.4c-0.1,0-0.2-4.3-0.2-10.1l-0.1-10l0.6-0.8c0.3-0.4,0.6-0.8,0.7-0.9
		s0.5-0.8,1.1-1.5c0.5-0.8,1-1.5,1.1-1.5c0.3-0.3,3.2-5.9,4.1-8c0.2-0.4,0.4-0.9,0.5-1.1s0.2-0.6,0.3-1c0.1-0.4,0.2-0.8,0.3-0.9
		c0.1-0.1,0.3-0.7,0.5-1.4c0.2-0.6,0.4-1.3,0.5-1.5c0.1-0.2,0.2-0.8,0.3-1.2c0.1-0.5,0.2-1,0.3-1.1c0.1-0.1,0.2-0.9,0.3-1.7
		s0.2-1.5,0.3-1.5s0.2-0.7,0.2-1.5c0-0.9,0.1-1.5,0.2-1.5c0.1,0,0.2-0.8,0.2-2c0-1.1-0.1-2.1-0.2-2.1c-0.1-0.1-0.2-0.7-0.2-1.5
		s-0.1-1.3-0.2-1.3c-0.1,0-0.2-0.6-0.3-1.4s-0.2-1.4-0.3-1.4s-0.2-0.3-0.3-0.7c-0.1-0.4-0.3-1.1-0.5-1.5c-0.2-0.4-0.5-1.1-0.7-1.5
		c-0.8-1.7-2.6-4-4.5-5.6l-0.6-0.5l0.3-1c0.2-0.6,0.4-1.3,0.6-1.6c0.1-0.3,0.3-0.7,0.3-0.9c0-0.1,0.1-0.4,0.3-0.6
		c0.2-0.2,0.3-0.5,0.3-0.7s0.1-0.4,0.2-0.4s0.3-0.4,0.5-0.8c0.4-0.8,2.1-2.7,2.5-2.7c0.6,0,3.9,4.2,3.9,5c0,0.1,0.1,0.2,0.2,0.2
		c0.1,0,0.2,0.1,0.2,0.2c0,0.2,0.5,1.4,1.2,2.8c0.2,0.4,0.4,1,0.5,1.4c0.1,0.3,0.2,0.7,0.3,0.8c0.1,0.1,0.2,0.6,0.3,1
		c0.1,0.4,0.2,0.9,0.3,0.9c0.1,0.1,0.2,0.3,0.2,0.5c0,0.2,0.1,0.4,0.2,0.4s0.2,0.5,0.3,1.1c0.1,0.6,0.2,1.2,0.3,1.3
		c0.1,0.1,0.2,0.7,0.3,1.4c0.1,0.7,0.2,1.4,0.3,1.5c0.2,0.2,0.6,2.9,0.7,4.6c0.1,0.7,0.2,1.3,0.3,1.3s0.2,1.2,0.3,2.6
		c0.1,1.5,0.2,2.7,0.3,2.8c0.1,0.1,0.2,1.9,0.3,4.1c0.1,2.2,0.2,4.1,0.3,4.1c0.1,0.1,0.2,2.5,0.2,5.4c0,3.4,0.1,5.3,0.2,5.3
		c0.2,0,0.2,0.8,0,1.1c-0.1,0.1-0.2,2.8-0.3,6.4c-0.1,8.4-0.5,19.6-0.7,19.7c-0.1,0.1-0.2,3.1-0.3,6.9c-0.1,3.7-0.2,6.8-0.3,7
		c-0.5,0.7-0.5,37.5,0,38.2c0.1,0.1,0.2,2.8,0.3,5.9c0.1,3.1,0.2,5.7,0.3,5.8c0.1,0.1,0.5,6.6,0.7,13.7c0.1,1.6,0.2,3.1,0.3,3.2
		c0.2,0.2,0.2,10.3,0,10.3c-0.1,0-0.2,0.6-0.2,1.4c0,1.8-0.3,2.5-1.1,2.5c-0.3,0-0.6,0.1-0.6,0.2s-1.8,0.2-4,0.3
		c-2.2,0.1-4.1,0.2-4.2,0.3c-0.1,0.1-0.6,0.2-1.2,0.2c-0.6,0-1,0.1-1,0.2c0,0.1-0.8,0.2-1.7,0.3c-0.9,0.1-1.7,0.2-1.7,0.3
		c0,0.1-0.5,0.2-1.1,0.3c-0.6,0.1-1.2,0.2-1.4,0.3c-0.2,0.1-0.9,0.3-1.5,0.5c-0.7,0.2-1.2,0.4-1.3,0.5s-0.2,0.2-0.4,0.2
		c-0.3,0-1.8,0.7-3.2,1.5c-0.9,0.5-2.4,2.1-2.5,2.8c-0.1,0.3-0.2,0.6-0.3,0.6c-0.2,0-0.2,3.2,0,3.4c0.1,0.1,0.2,0.3,0.2,0.5
		c0,0.9,2.6,3.4,3.5,3.4c0.2,0,0.3,0.1,0.3,0.2c0,0.1,0.3,0.2,0.7,0.3c0.4,0.1,0.8,0.2,0.9,0.3c0.6,0.4,1.8,0.6,3.6,0.8
		c1.1,0.1,2.1,0.2,2.2,0.3c0.1,0.2,2.3,0.2,2.5,0c0.1-0.1,0.7-0.2,1.5-0.2s1.8-0.1,2.2-0.2c0.5-0.1,1.1-0.2,1.4-0.3s0.5-0.2,0.5-0.3
		c0-0.1,0.4-0.2,0.9-0.3s0.9-0.2,0.9-0.3s0.1-0.2,0.3-0.2c0.4,0,1.6-0.6,1.6-0.8c0-0.1,0.1-0.2,0.2-0.2c0.9,0,4.1-3.7,4.8-5.5
		c0.1-0.3,0.3-0.6,0.4-0.6s0.1-0.1,0.1-0.3s0.1-0.5,0.3-0.8c0.2-0.3,0.3-0.7,0.3-0.9s0.1-0.3,0.2-0.3c0.1,0,0.2-0.5,0.3-1.1l0.1-1.1
		l6,0.1c3.6,0.1,6,0.2,6.1,0.3c0.1,0.1,0.8,0.2,1.6,0.2s1.4,0.1,1.5,0.1c0.1,0.1,1.1,0.2,2.3,0.4c4.5,0.5,6,0.7,6.1,0.8
		c0.1,0.1,0.5,0.2,1,0.2c1.3,0.2,3.5,0.6,3.7,0.7c0.1,0.1,0.7,0.2,1.4,0.3c0.7,0.1,1.2,0.2,1.2,0.3c0,0.1,0.5,0.2,1.1,0.3
		s1.2,0.2,1.3,0.3s0.3,0.2,0.6,0.2s0.5,0.1,0.6,0.2c0.1,0.1,0.5,0.2,1.1,0.3c0.5,0.1,1,0.2,1,0.3s0.4,0.2,0.8,0.3
		c0.4,0.1,0.9,0.2,1,0.3c0.1,0.1,0.7,0.3,1.3,0.5c0.6,0.2,1.3,0.5,1.7,0.6c0.3,0.1,0.7,0.3,0.9,0.3s0.3,0.1,0.3,0.2s0.1,0.2,0.3,0.2
		s0.4,0.1,0.6,0.2c0.2,0.1,1.7,0.9,3.4,1.7c1.7,0.8,3.2,1.7,3.5,1.9c0.2,0.2,0.6,0.4,0.8,0.5c0.2,0.1,0.4,0.2,0.4,0.3
		s0.1,0.2,0.2,0.2c0.1,0,0.5,0.3,0.9,0.6c0.4,0.3,0.8,0.6,0.9,0.6s0.2,0.1,0.4,0.2c0.1,0.1,0.8,0.6,1.4,1.1
		c4.6,3.5,9.7,9.6,10.4,12.6c0.1,0.3,0.2,0.6,0.3,0.7c0.1,0.1,0.2,0.6,0.3,1c0.1,0.5,0.2,0.9,0.3,0.9c0.1,0.1,0.2,0.5,0.2,1
		s0.1,0.9,0.2,0.9s0.2,0.4,0.2,1s-0.1,1-0.2,1s-0.2,0.4-0.2,1c0,0.5-0.1,1-0.2,1.1c-0.1,0.1-0.2,0.3-0.2,0.5c0,0.2-0.2,0.8-0.4,1.2
		c-0.2,0.4-0.4,0.9-0.4,1c0,0.1-0.1,0.2-0.2,0.2c-0.1,0-0.2,0.1-0.3,0.3c-0.1,0.4-0.5,0.9-0.8,1.3c-0.1,0.1-0.3,0.4-0.5,0.6
		c-0.2,0.2-0.9,1-1.6,1.7c-1.8,1.8-1.8,1.8-2,1.8c-0.1,0-0.2,0.1-0.3,0.3s-0.2,0.3-0.4,0.3c-0.1,0-0.3,0.1-0.3,0.1
		c-0.3,0.8-8.9,5.1-10.2,5.1c-0.2,0-0.3,0.1-0.3,0.2c0,0.1-0.4,0.2-0.9,0.3c-0.5,0.1-0.9,0.2-0.9,0.3c0,0.1-0.5,0.2-1,0.3
		c-0.6,0.1-1.1,0.2-1.1,0.3s-0.3,0.2-0.7,0.2c-0.4,0-0.7,0.1-0.7,0.2c0,0.1-0.6,0.2-1.3,0.3c-0.7,0.1-1.3,0.2-1.3,0.3
		c0,0.1-0.7,0.2-1.5,0.3c-0.8,0.1-1.6,0.2-1.6,0.3c-0.1,0.1-0.5,0.2-1,0.2c-0.5,0-0.9,0.1-1,0.2c-0.1,0.1-1,0.2-2.2,0.3
		s-2.1,0.2-2.2,0.3c0,0.1-1.6,0.2-3.4,0.3c-2,0.1-3.3,0.2-3.4,0.4c-0.2,0.3-21.7,0.3-22.1,0c-0.1-0.1-1.8-0.3-4.1-0.4
		c-2.1-0.1-3.8-0.2-3.9-0.3c-0.1-0.1-1.3-0.2-2.7-0.3c-1.4-0.1-2.6-0.2-2.7-0.3s-0.7-0.2-1.3-0.2c-0.7,0-1.3-0.1-1.3-0.2
		c-0.1-0.1-1-0.2-2.1-0.3s-2.1-0.2-2.3-0.3s-1.1-0.2-2.1-0.3c-1-0.1-1.8-0.2-1.8-0.3s-0.4-0.2-0.9-0.2s-0.9-0.1-1-0.2
		c-0.1-0.1-0.8-0.2-1.6-0.3c-0.8-0.1-1.5-0.2-1.5-0.3c-0.1-0.1-0.7-0.2-1.5-0.3c-0.8-0.1-1.5-0.2-1.5-0.3c-0.1-0.1-0.4-0.2-0.8-0.2
		c-0.4,0-0.7-0.1-0.8-0.2c-0.1-0.1-0.6-0.2-1.3-0.3c-0.7-0.1-1.3-0.2-1.4-0.3c-0.1-0.1-0.7-0.2-1.2-0.3c-0.6-0.1-1.1-0.2-1.2-0.3
		c-0.1-0.1-0.5-0.2-0.9-0.2c-0.4-0.1-1.2-0.2-1.8-0.4s-1.6-0.4-2.3-0.5c-0.6-0.1-1.1-0.3-1.1-0.4c0-0.1-0.5-0.2-1.1-0.3
		c-0.6-0.1-1.1-0.2-1.1-0.3s-0.2-0.2-0.6-0.2s-0.6-0.1-0.7-0.2s-0.5-0.2-1-0.3s-0.9-0.2-0.9-0.3s-0.5-0.2-1.1-0.3s-1.1-0.2-1.1-0.3
		s-0.2-0.2-0.5-0.2s-0.5-0.1-0.6-0.2s-0.4-0.2-0.9-0.3c-0.4-0.1-0.8-0.2-0.9-0.3c-0.1-0.1-0.5-0.2-1-0.3c-0.5-0.1-0.9-0.2-0.9-0.3
		s-0.2-0.2-0.4-0.2s-0.6-0.1-0.9-0.3s-0.7-0.3-0.9-0.3c-0.2,0-0.3-0.1-0.3-0.2c0-0.1-0.3-0.2-0.7-0.3c-0.4-0.1-0.9-0.2-1.2-0.4
		c-0.3-0.1-0.6-0.3-0.7-0.3c-0.1,0-1-0.4-3-1.3c-0.3-0.1-0.7-0.3-0.9-0.3s-0.3-0.1-0.3-0.2c0-0.1-0.1-0.2-0.2-0.2
		c-0.3,0-5.6-2.7-7-3.5c-0.6-0.4-1.3-0.7-1.4-0.7s-0.2-0.1-0.2-0.2c0-0.1-0.2-0.2-0.5-0.3s-0.5-0.2-0.5-0.3s-0.1-0.2-0.2-0.2
		c-0.2,0-4.9-3.1-5.2-3.5c-0.1-0.1-0.3-0.2-0.5-0.4c-1.9-1.3-5.8-5.2-7-6.9c-0.2-0.2-0.4-0.5-0.5-0.6s-0.4-0.5-0.6-0.9
		c-0.2-0.4-0.4-0.7-0.5-0.8c-0.2-0.2-0.7-1.4-1.1-2.5c-0.2-0.6-0.4-1.1-0.5-1.2c-0.2-0.2-0.2-4.3,0.1-4.4c0.1,0,0.2-0.3,0.2-0.5
		s0.1-0.5,0.2-0.5c0.1,0,0.2-0.2,0.2-0.4c0-1,3.1-4.8,5.2-6.2c0.2-0.2,0.5-0.4,0.6-0.5c0.3-0.3,0.9-0.6,1.3-0.8
		c0.2-0.1,0.3-0.2,0.4-0.2c0.2-0.2,3.7-1.9,4-1.9c0.1,0,0.2-0.1,0.2-0.2s0.3-0.2,0.7-0.3s0.7-0.2,0.8-0.3c0.1-0.1,0.2-0.2,0.4-0.2
		c0.2,0,0.6-0.1,1-0.3c1.3-0.6,1.5-0.6,2.1-0.8c0.4-0.1,0.8-0.2,0.9-0.3c0.1-0.1,0.5-0.2,0.9-0.3c0.8-0.2,1.9-0.5,2.2-0.7
		c0.1-0.1,0.7-0.2,1.3-0.3c0.6-0.1,1.1-0.2,1.1-0.3c0-0.1,0.6-0.2,1.2-0.3s1.3-0.2,1.4-0.3c0.1-0.1,0.3-0.2,0.6-0.2
		c0.6,0,3.7-0.6,4.1-0.8c0.2-0.1,1.1-0.2,2.1-0.3c1-0.1,1.9-0.2,1.9-0.3c0.1-0.1,3.8-0.5,7.2-0.7c0.9-0.1,1.9-0.2,2-0.3
		c0.4-0.3,20.2-0.3,20.6,0c0.3,0.3,1.7,0.3,1.7,0.1c0-0.1,0.2-0.2,0.4-0.3c0.4-0.2,0.4-0.3,0.4-1.4c0-1-0.1-1.2-0.4-1.4
		c-0.2-0.1-0.4-0.3-0.4-0.3s-0.3-0.1-0.7-0.1s-0.8-0.1-1-0.2c-0.2-0.2-2.7-0.2-11.4-0.2s-11.2,0-11.4,0.2c-0.1,0.2-0.8,0.2-1.9,0.2
		c-0.9,0-1.7,0.1-1.7,0.2s-1.2,0.2-2.6,0.3s-2.6,0.2-2.6,0.3c0,0.1-0.8,0.2-1.8,0.3c-1,0.1-1.9,0.2-2,0.3s-0.7,0.2-1.4,0.3
		c-1.2,0.1-2.8,0.5-3.4,0.7c-0.2,0.1-0.8,0.2-1.4,0.3s-1,0.2-1,0.3c0,0.1-0.5,0.2-1.1,0.3c-0.6,0.1-1.2,0.2-1.3,0.3
		s-0.4,0.2-0.7,0.2s-0.6,0.1-0.6,0.2s-0.5,0.2-1.1,0.3s-1.1,0.2-1.1,0.3c-0.1,0.1-0.4,0.2-0.9,0.3s-0.8,0.2-0.9,0.3
		s-0.3,0.2-0.6,0.2s-0.5,0.1-0.5,0.2c0,0.1-0.3,0.2-0.7,0.3c-0.4,0.1-0.9,0.2-1.2,0.4s-0.6,0.3-0.8,0.3c-0.2,0-0.3,0.1-0.3,0.2
		c0,0.1-0.1,0.2-0.3,0.2c-0.2,0-0.4,0.1-0.6,0.2s-0.9,0.4-1.5,0.7c-2.9,1.4-5.5,3.1-7.3,4.8c-0.9,0.9-2.4,2.7-2.4,3
		c0,0.1-0.1,0.2-0.2,0.2c-0.1,0-0.2,0.1-0.2,0.2c0,0.1-0.1,0.4-0.3,0.5s-0.4,0.7-0.6,1.3s-0.4,1-0.5,1.1s-0.2,0.4-0.2,0.6
		c0,0.2-0.1,0.5-0.2,0.6c-0.6,0.6-0.2,7.5,0.4,8.4c0.1,0.1,0.2,0.5,0.3,0.9c0.1,0.4,0.2,0.7,0.3,0.7c0.1,0,0.2,0.1,0.2,0.3
		c0,0.3,0.6,1.4,0.8,1.6c0.1,0,0.2,0.3,0.2,0.5s0.2,0.4,0.3,0.4s0.2,0.1,0.3,0.3c0.1,0.4,0.5,1,0.9,1.4c0.1,0.1,0.5,0.6,0.8,1
		c0.6,0.9,3.4,3.7,4.6,4.7c0.5,0.4,1.1,0.9,1.4,1.2s0.9,0.7,1.2,0.9s0.9,0.6,1.1,0.9c0.3,0.2,0.8,0.6,1.1,0.8s0.6,0.4,0.6,0.5
		c0,0.1,0.1,0.1,0.2,0.1c0.1,0,0.6,0.3,1,0.6c0.4,0.3,0.9,0.6,1.1,0.6s0.3,0.1,0.3,0.1s0.3,0.3,0.7,0.5s0.8,0.4,0.8,0.5
		c0.1,0.1,0.5,0.3,1.1,0.6c0.5,0.3,1,0.5,1.1,0.6c0.2,0.2,2.5,1.4,2.8,1.4c0.1,0,0.3,0.1,0.3,0.2c0.1,0.1,0.7,0.5,3.5,1.8
		c1.8,0.8,2.6,1.1,2.9,1.1c0.2,0,0.3,0.1,0.3,0.2c0,0.1,0.1,0.2,0.3,0.2s0.5,0.1,0.8,0.3c0.3,0.2,0.7,0.3,0.9,0.3
		c0.2,0,0.4,0.1,0.4,0.2c0.1,0.1,0.4,0.2,0.8,0.3c0.4,0.1,0.7,0.2,0.7,0.3s0.2,0.2,0.4,0.2c0.4,0,1.4,0.4,2.6,0.9
		c0.3,0.1,0.8,0.3,1,0.3c0.2,0,0.4,0.1,0.5,0.2s0.5,0.2,0.9,0.3c0.4,0.1,1,0.2,1.1,0.3c0.2,0.1,0.5,0.2,0.7,0.4
		c0.2,0.1,0.7,0.2,1.1,0.3c0.4,0.1,0.8,0.2,0.8,0.3s0.5,0.2,1.1,0.3s1.1,0.2,1.1,0.3s0.2,0.2,0.5,0.3c1.4,0.3,2.7,0.6,2.9,0.8
		c0.1,0.1,0.7,0.2,1.2,0.3c0.5,0.1,1,0.2,1,0.3c0,0.1,0.3,0.2,0.6,0.2c1.3,0.2,2.9,0.6,3.1,0.7c0.1,0.1,0.7,0.2,1.2,0.3
		c0.6,0.1,1.1,0.2,1.2,0.3c0.1,0.1,0.7,0.2,1.4,0.3c0.7,0.1,1.2,0.2,1.3,0.3c0.1,0.1,0.4,0.2,0.8,0.2c0.4,0,0.7,0.1,0.8,0.2
		s0.8,0.2,1.6,0.3c0.8,0.1,1.4,0.2,1.4,0.3c0,0.1,0.7,0.2,1.6,0.3c0.9,0.1,1.6,0.2,1.6,0.3c0,0.1,0.3,0.2,0.8,0.2s0.8,0.1,0.9,0.2
		c0.1,0.1,0.9,0.2,1.8,0.3c0.9,0.1,1.8,0.2,1.8,0.3c0.1,0.1,1.1,0.2,2.3,0.3c1.2,0.1,2.2,0.2,2.2,0.3c0,0.1,0.5,0.2,1.2,0.3
		c4.4,0.4,6.4,0.6,6.6,0.7c0.1,0.1,1.8,0.2,3.7,0.3s3.5,0.2,3.5,0.3c0,0.2,5.7,0.4,13.9,0.4c8,0,13.1-0.2,13.1-0.4
		c0-0.1,1.4-0.2,3-0.3c1.6-0.1,3.1-0.2,3.3-0.3c0.2-0.1,1.2-0.3,2.3-0.4c3.4-0.4,3.8-0.4,3.8-0.6c0-0.1,0.6-0.2,1.4-0.3
		c0.8-0.1,1.4-0.2,1.4-0.3c0-0.1,0.6-0.2,1.3-0.3s1.3-0.2,1.3-0.3c0-0.1,0.3-0.2,0.6-0.2c0.3,0,0.6-0.1,0.6-0.2
		c0-0.1,0.5-0.2,1.1-0.3c0.6-0.1,1-0.2,1-0.3s0.4-0.2,0.9-0.3c0.5-0.1,1-0.2,1.2-0.3c0.2-0.1,0.5-0.3,0.8-0.4s0.7-0.2,1-0.3
		c0.4-0.1,0.7-0.2,0.7-0.3s0.4-0.2,0.8-0.3c0.4-0.1,0.8-0.2,0.8-0.3s0.5-0.3,1-0.5s1.1-0.4,1.1-0.5c0-0.1,0.1-0.1,0.2-0.1
		c0.3,0,2.7-1.2,2.7-1.4c0-0.1,0.1-0.1,0.2-0.1c0.2,0,2.6-1.6,3.1-2c0.1-0.1,0.6-0.5,1.1-1c1.1-0.9,2.2-2,2.9-3
		c0.3-0.4,0.6-0.8,0.7-0.9c0.1-0.1,0.4-0.5,0.6-1c0.2-0.4,0.4-0.8,0.5-0.9c0.1,0,0.3-0.4,0.4-0.9c0.2-0.4,0.4-0.9,0.5-1.1
		c0.1-0.2,0.2-0.7,0.3-1.1c0.1-0.4,0.2-0.8,0.3-0.9c0.1-0.1,0.2-0.4,0.2-0.7c0-0.3,0.1-0.7,0.2-0.8c0.4-0.4,0-7.4-0.4-7.4
		c-0.1,0-0.2-0.4-0.3-1c-0.1-0.5-0.2-1-0.3-1s-0.2-0.4-0.3-0.8c-0.1-0.4-0.2-0.8-0.3-0.8s-0.2-0.2-0.2-0.4c0-0.2-0.1-0.4-0.2-0.4
		c-0.1,0-0.2-0.2-0.3-0.5c-0.1-0.3-0.3-0.8-0.6-1.2s-0.5-0.8-0.5-1c0-0.1-0.1-0.2-0.2-0.2s-0.2-0.1-0.2-0.2c0-0.2-0.7-1.2-1-1.5
		c0,0-0.5-0.6-1-1.2c-1.3-1.7-3.9-4.3-6-5.9c-0.5-0.4-0.9-0.7-1-0.8c0-0.1-0.7-0.5-1.5-1.1s-1.5-1-1.5-1.1c0-0.1-0.4-0.3-0.8-0.5
		s-0.7-0.4-0.8-0.5c0,0-0.4-0.3-0.8-0.5c-0.4-0.2-1.1-0.6-1.5-0.9c-1.5-0.8-3-1.6-3.2-1.6c-0.1,0-0.2-0.1-0.2-0.1s-0.6-0.4-1.3-0.6
		s-1.3-0.5-1.3-0.6s-0.1-0.1-0.3-0.1s-0.5-0.1-0.8-0.3c-0.3-0.2-0.7-0.3-0.9-0.3c-0.2,0-0.4-0.1-0.4-0.2s-0.5-0.2-0.9-0.3
		c-0.4-0.1-0.8-0.2-0.8-0.3s-0.2-0.2-0.5-0.2s-0.5-0.1-0.6-0.2c-0.1-0.1-0.3-0.2-0.5-0.2s-0.7-0.1-1-0.3c-0.3-0.1-0.9-0.3-1.4-0.4
		c-0.5-0.1-0.9-0.2-1-0.3s-0.4-0.2-0.7-0.2c-0.3,0-0.6-0.1-0.7-0.2s-0.6-0.2-1.2-0.3c-0.6-0.1-1-0.2-1-0.3s-0.6-0.2-1.2-0.3
		c-0.7-0.1-1.2-0.2-1.2-0.3c0-0.1-0.4-0.2-0.8-0.3c-2.2-0.3-3.8-0.6-3.8-0.7c0-0.1-0.8-0.2-1.8-0.3c-1-0.1-1.8-0.2-1.8-0.3
		c0-0.1-1-0.2-2.3-0.3c-1.3-0.1-2.3-0.2-2.3-0.3c0-0.1-0.6-0.2-1.3-0.2c-0.7,0-1.4-0.1-1.5-0.2c-0.1-0.1-2.3-0.2-4.9-0.3
		c-2.6-0.1-4.8-0.2-4.9-0.3s-0.9-0.2-1.8-0.2h-1.7v-0.7c0-0.4,0.1-0.7,0.2-0.8c0.1-0.1,0.2-3,0.2-8c0-5.1-0.1-7.9-0.2-7.9
		s-0.2-1-0.2-2.7c0-1.5-0.1-3.1-0.2-3.6c-0.1-0.5-0.2-3-0.3-5.5c-0.1-2.5-0.2-4.6-0.3-4.7c-0.1-0.1-0.2-2.9-0.3-6.2
		c-0.1-3.6-0.2-6.1-0.3-6.2c-0.3-0.4-0.3-31,0-31.3c0.1-0.2,0.2-2.8,0.3-7c0.1-3.7,0.2-6.8,0.3-6.9c0.1-0.1,0.2-1.4,0.2-2.9
		c0-1.5,0.1-4.3,0.2-6.3c0.6-10.3,0.9-27.2,0.6-27.9c-0.1-0.2-0.2-1.9-0.3-3.9c-0.1-4.1-0.5-10.1-0.7-10.4c-0.1-0.1-0.2-1.3-0.3-2.7
		s-0.2-2.6-0.3-2.8c-0.1-0.3-0.5-2.4-0.7-4.6c-0.1-0.6-0.2-1-0.3-1c-0.1,0-0.2-0.6-0.3-1.4c-0.1-0.7-0.2-1.4-0.3-1.4
		c-0.1,0-0.2-0.4-0.3-1c-0.1-0.5-0.2-1-0.3-1.1c-0.1-0.1-0.2-0.4-0.2-0.7s-0.1-0.6-0.2-0.7c-0.1-0.1-0.2-0.5-0.3-1
		c-0.1-0.5-0.2-0.9-0.3-0.9s-0.2-0.2-0.2-0.4c0-0.2-0.1-0.7-0.3-1c-0.2-0.3-0.3-0.7-0.3-0.8s-0.1-0.3-0.2-0.3
		c-0.1,0-0.2-0.3-0.3-0.6c-0.1-0.3-0.2-0.8-0.3-0.9c-0.1-0.2-0.4-0.9-0.8-1.6c-2.2-4.4-3.8-6.1-6.6-6.9c-1.9-0.6-4.6,0.8-6.2,3.2
		c-0.7,1.1-1.7,3.1-1.7,3.5c0,0.2-0.1,0.3-0.2,0.3s-0.2,0.4-0.3,0.8c-0.1,0.4-0.2,0.9-0.3,1c-0.1,0.1-0.3,0.6-0.4,1
		c-0.2,0.8-0.8,1-1.2,0.5c-0.2-0.2-2-0.8-2.4-0.8c-0.2,0-0.5-0.1-0.6-0.2s-1.2-0.2-2.3-0.3c-1.2-0.1-2.1-0.2-2.1-0.3
		s-1.4-0.2-3.2-0.2s-3.2,0.1-3.2,0.2c0,0.1-1.4,0.2-3.2,0.3s-3.3,0.2-3.3,0.3c-0.1,0.1-1.1,0.2-2.4,0.3c-1.3,0.1-2.4,0.2-2.6,0.3
		c-0.2,0.1-0.8,0.2-1.3,0.2c-0.5,0-1,0.1-1,0.2s-1.2,0.2-2.7,0.3s-2.7,0.2-2.7,0.3s-1.9,0.2-4.2,0.2c-2.3,0-4.2-0.1-4.2-0.2
		s-0.9-0.2-1.9-0.3c-1.1-0.1-2-0.2-2-0.3c-0.1-0.1-0.4-0.2-0.8-0.2s-0.7-0.1-0.8-0.2c-0.1-0.1-0.5-0.2-1.1-0.3c-0.5-0.1-1-0.2-1-0.3
		s-0.3-0.2-0.6-0.3c-1.6-0.3-6-4.1-7.2-6.2c-0.3-0.5-0.7-1.2-1-1.5c-0.2-0.3-0.4-0.7-0.4-0.8s-0.1-0.3-0.1-0.3c-0.1,0-0.3-0.5-0.6-1
		s-0.5-1.1-0.6-1.3c-0.1-0.2-0.2-0.5-0.2-0.7s-0.1-0.4-0.2-0.5c-0.1-0.1-0.2-0.7-0.2-1.4c0-0.7,0.1-1.2,0.2-1.2s0.2-0.1,0.2-0.3
		c0-0.3,1.8-2.2,2.3-2.3c0.2-0.1,0.4-0.2,0.4-0.3s0.1-0.2,0.2-0.2s0.6-0.3,1.2-0.6c0.5-0.3,1.1-0.6,1.2-0.6s0.3-0.1,0.3-0.2
		s0.3-0.2,0.7-0.3s0.7-0.2,0.7-0.3s0.4-0.2,0.8-0.3c0.4-0.1,0.8-0.2,0.9-0.3c0.1-0.1,0.3-0.2,0.5-0.2s0.4-0.1,0.4-0.2s0.4-0.2,1-0.3
		c0.5-0.1,1-0.2,1-0.3c0-0.1,0.5-0.2,1.1-0.3c0.6-0.1,1.1-0.2,1.1-0.3s0.1-0.2,0.3-0.2c0.4,0,2.2-0.5,2.6-0.8
		c0.2-0.1,0.7-0.2,1.1-0.3c0.4-0.1,0.8-0.2,0.8-0.3s0.2-0.2,0.4-0.2c0.4,0,1.7-0.4,2.3-0.8c0.2-0.1,0.6-0.2,1-0.3
		c0.4-0.1,0.7-0.2,0.7-0.3s0.1-0.2,0.3-0.2c0.2,0,0.6-0.1,0.9-0.3c0.3-0.2,0.7-0.3,0.8-0.3c0.1,0,0.3-0.1,0.3-0.2
		c0-0.1,0.1-0.2,0.3-0.2c0.5,0,6.5-2.9,8.5-4.1c0.7-0.4,1.3-0.7,1.4-0.7c0.1,0,0.2-0.1,0.2-0.1c0-0.1,0.4-0.4,0.8-0.7
		c3.3-2.2,6-5.6,6.9-8.6c0.3-1,0.4-4.7,0.2-4.7c-0.1,0-0.2-0.2-0.3-0.5c-0.1-0.6-1.2-1.7-1.7-1.7c-0.2,0-0.4-0.1-0.4-0.2
		c-0.1-0.3-6.6-0.3-6.8,0c-0.1,0.1-0.6,0.3-1,0.3c-0.5,0.1-1,0.2-1,0.3s-0.3,0.2-0.6,0.2s-0.5,0.1-0.5,0.2c0,0.1-0.2,0.2-0.4,0.2
		c-0.2,0-0.7,0.1-1,0.3s-0.6,0.3-0.7,0.3c-0.2,0-5.8,2.7-5.9,2.9c-0.1,0.1-0.5,0.3-1.1,0.6c-0.5,0.2-1.2,0.6-1.4,0.8
		c-0.3,0.2-0.9,0.6-1.5,0.9c-2.1,1.2-2.4,1.3-2.5,1.4c-0.1,0.1-1.1,0.6-3.9,2.1c-0.9,0.5-1.8,1-1.8,1c0,0.1-0.2,0.1-0.3,0.1
		c-0.1,0-1,0.4-1.9,0.9c-0.9,0.5-1.8,0.9-2,0.9c-0.1,0-0.2,0.1-0.2,0.2c0,0.1-0.3,0.2-0.6,0.3c-0.3,0.1-0.6,0.2-0.7,0.3
		c-0.1,0.1-0.2,0.2-0.4,0.2s-0.8,0.3-1.5,0.6c-0.7,0.3-1.3,0.6-1.4,0.6c-0.1,0-0.4,0.1-0.7,0.3c-0.3,0.2-0.7,0.3-1,0.3
		s-0.5,0.1-0.5,0.2c-0.1,0.1-0.3,0.2-0.6,0.2s-0.5,0.1-0.5,0.2s-0.6,0.2-1.2,0.3c-0.7,0.1-1.2,0.2-1.2,0.3c0,0.2-3.6,0.2-3.7,0
		c-0.1-0.1-0.4-0.2-0.7-0.3c-0.7-0.1-1.7-1.1-1.7-1.6c0-0.7,1.6-3.2,2.6-4.2c0.7-0.6,2-1.7,2.3-1.9c0.2-0.1,0.4-0.2,0.4-0.3
		s0.4-0.3,0.8-0.5c0.4-0.2,0.7-0.4,0.7-0.5s0.1-0.1,0.2-0.1s0.6-0.2,1.1-0.4c1.4-0.6,1.6-0.7,2.3-1c0.4-0.1,0.9-0.4,1.2-0.5
		c0.3-0.1,1.2-0.4,2-0.7c0.8-0.2,1.6-0.5,1.8-0.6c0.2-0.1,0.5-0.2,0.7-0.2s0.4-0.1,0.4-0.2c0-0.1,0.4-0.2,1-0.3c0.5-0.1,1-0.2,1-0.3
		c0-0.1,0.2-0.2,0.4-0.2c0.4,0,1.9-0.5,2.8-0.9c0.3-0.2,0.8-0.3,1-0.3s0.4-0.1,0.4-0.2c0-0.1,0.2-0.2,0.5-0.2c0.5,0,1.4-0.3,2.7-0.9
		c0.3-0.2,0.7-0.3,0.9-0.3c0.2,0,0.3-0.1,0.4-0.2s0.4-0.2,0.8-0.3c0.4-0.1,1-0.3,1.4-0.5c0.4-0.2,1.1-0.5,1.5-0.7
		c1.2-0.5,4.4-2.1,4.5-2.2c0.1-0.1,0.4-0.3,0.8-0.5c0.4-0.2,0.7-0.4,0.7-0.5s0.1-0.2,0.3-0.2c0.1,0,0.4-0.1,0.5-0.2s0.8-0.6,1.4-1.1
		c5.7-4.3,7.6-11.2,3.2-11.9c-0.4-0.1-0.8-0.2-0.8-0.3c0-0.1-0.9-0.2-2.1-0.2s-2.1,0.1-2.1,0.2s-0.6,0.2-1.3,0.3
		c-0.7,0.1-1.3,0.2-1.3,0.3s-0.2,0.2-0.4,0.2s-0.7,0.1-1,0.3c-0.9,0.4-1.9,0.7-2.4,0.8c-0.2,0.1-0.4,0.2-0.4,0.3s-0.1,0.2-0.3,0.2
		c-0.5,0-6.1,2.7-8.5,4.1c-0.6,0.3-1.8,1-2.7,1.5c-0.9,0.5-1.7,0.9-1.7,1s-0.6,0.4-1.2,0.7c-1.9,1-2.5,1.3-2.6,1.4
		c-0.5,0.5-7.8,4.1-8.3,4.1c-0.1,0-0.3,0.1-0.4,0.2c-0.1,0.1-0.3,0.2-0.6,0.2s-0.5,0.1-0.5,0.2s-0.4,0.2-0.9,0.3
		c-0.5,0.1-1,0.2-1.1,0.3c-0.4,0.3-5.3,0.4-5.7,0.1c-0.9-0.8,2-3.8,5.4-5.8c1.4-0.8,1.6-0.9,1.9-0.9c0.1,0,0.2-0.1,0.2-0.2
		c0-0.1,0.1-0.2,0.3-0.2c0.2,0,0.6-0.1,0.9-0.3c0.3-0.2,0.7-0.3,0.8-0.3c0.1,0,0.3-0.1,0.3-0.2s0.3-0.2,0.7-0.3
		c0.4-0.1,0.8-0.2,0.9-0.3c0.1-0.1,0.5-0.2,0.9-0.3c0.4-0.1,0.9-0.2,1.1-0.3c0.2-0.1,0.5-0.3,0.7-0.4c0.2-0.1,0.8-0.2,1.2-0.3
		s0.9-0.2,1-0.3c0.1-0.1,0.5-0.2,1-0.3c0.4-0.1,0.9-0.2,1-0.3c0.1-0.1,0.6-0.2,1-0.3s0.9-0.2,0.9-0.3s0.3-0.2,0.6-0.2
		s0.5-0.1,0.6-0.2c0.1-0.1,0.5-0.2,1-0.3c0.5-0.1,0.9-0.2,0.9-0.3s0.3-0.2,0.7-0.3c0.4-0.1,0.8-0.2,1-0.3c0.7-0.3,1.7-0.8,1.9-0.8
		c0.1,0,0.4-0.1,0.6-0.2c0.8-0.4,2.9-1.4,3.1-1.4c0.1,0,0.2-0.1,0.3-0.1s0.7-0.4,1.4-0.8s1.4-0.7,1.4-0.8s0.1-0.2,0.2-0.2
		s0.5-0.2,0.9-0.5c0.4-0.3,0.7-0.5,0.8-0.5s0.3-0.1,0.3-0.3c0.1-0.2,0.2-0.3,0.3-0.3c0.7,0,3.8-3.6,3.8-4.3c0-0.2,0.1-0.3,0.2-0.4
		c0.3-0.1,0.4-3.7,0.1-4.8c-0.3-1.2-1.6-2.5-2.7-2.6c-0.4-0.1-0.8-0.2-0.8-0.3c0-0.2-4.9-0.2-5.1,0c-0.1,0.1-0.6,0.2-1.3,0.3
		c-1.1,0.1-2.4,0.5-2.6,0.7c-0.1,0.1-0.5,0.2-1.1,0.2c-0.5,0.1-1,0.2-1.1,0.3c-0.1,0.1-0.5,0.2-0.9,0.3c-0.4,0.1-0.9,0.2-0.9,0.3
		c-0.1,0.1-0.3,0.2-0.6,0.2s-0.5,0.1-0.5,0.2S156,95,155.5,95c-0.4,0.1-0.8,0.2-0.8,0.3s-0.1,0.2-0.3,0.2c-0.2,0-0.7,0.2-1.1,0.4
		c-0.4,0.2-0.8,0.4-0.9,0.4s-1.1,0.4-2.2,1s-2.1,1-2.2,1s-0.2,0.1-0.2,0.1c0,0.1-1,0.6-2.1,1.2c-2.1,1.1-3.5,1.8-3.6,2
		c-0.1,0.1-1,0.5-2,1.1c-1.1,0.5-2,1-2,1.1c-0.1,0.1-0.3,0.2-0.6,0.3s-0.5,0.2-0.5,0.3s-0.4,0.3-1,0.5c-0.5,0.2-1,0.4-1,0.5
		c0,0.1-0.1,0.2-0.2,0.2c-0.2,0-1.6,0.6-2.7,1.2c-0.4,0.2-0.8,0.4-0.9,0.4c-0.1,0-0.5,0.1-0.8,0.3c-0.3,0.2-1.2,0.5-1.9,0.7
		c-0.7,0.2-1.6,0.5-1.9,0.6c-0.6,0.2-3.2,0.2-3.2,0.1c0-1.1,5.7-6.7,6.9-6.7c0.1,0,0.2-0.1,0.2-0.2c0.1-0.2,4.5-2.4,4.8-2.4
		c0.1,0,0.5-0.1,0.9-0.3c0.4-0.2,1-0.4,1.3-0.6s0.8-0.3,0.9-0.3c0.2,0,0.3-0.1,0.3-0.2s0.4-0.2,0.8-0.3c0.4-0.1,0.8-0.2,0.8-0.3
		s0.6-0.3,1.2-0.5s1.2-0.4,1.2-0.5s0.1-0.2,0.3-0.2c0.2,0,0.6-0.1,0.9-0.3c0.3-0.2,0.8-0.3,1.1-0.4s0.6-0.2,0.7-0.3s0.3-0.2,0.5-0.2
		s0.4-0.1,0.4-0.2s0.3-0.2,0.6-0.3c0.3-0.1,0.8-0.2,1.1-0.4s0.6-0.3,0.8-0.3c0.1,0,0.2-0.1,0.2-0.2c0-0.1,0.1-0.2,0.2-0.2
		c0.4,0,4.2-2,6-3.1c3.1-2,5.6-4.4,6.3-6.3c0.1-0.4,0.4-0.9,0.4-1.1c0.7-1.7,0.7-5.3,0-5.3c-0.1,0-0.1-0.2-0.1-0.5
		c0-0.6-1.6-2.2-2.6-2.7c-0.4-0.2-0.9-0.4-1.1-0.6c-0.5-0.3-7.3-0.4-8.9-0.2c-2,0.3-2.6,0.4-2.8,0.6c-0.1,0.1-0.7,0.2-1.3,0.3
		c-0.6,0.1-1.1,0.2-1.2,0.3c-0.1,0.1-0.5,0.2-1.1,0.3c-0.5,0.1-1,0.2-1.1,0.3c-0.1,0.1-0.3,0.2-0.6,0.2s-0.5,0.1-0.6,0.2
		s-0.5,0.2-1,0.3s-0.9,0.2-0.9,0.3c0,0.1-0.4,0.2-1,0.3c-0.5,0.1-1,0.2-1,0.3s-0.6,0.3-1.2,0.5c-0.7,0.2-1.2,0.4-1.2,0.5
		c0,0.1-0.4,0.2-0.9,0.3c-0.5,0.1-0.9,0.2-0.9,0.3c0,0.1-0.3,0.2-0.6,0.3s-0.8,0.2-0.9,0.3c-0.8,0.4-1.7,0.8-2,0.8
		c-0.2,0-0.3,0.1-0.4,0.2s-0.4,0.2-0.7,0.3c-0.3,0.1-0.9,0.3-1.2,0.5c-0.3,0.2-0.9,0.4-1.3,0.5s-0.8,0.2-0.9,0.3s-0.6,0.2-1,0.3
		c-0.4,0.1-0.9,0.2-0.9,0.3s-0.3,0.2-0.7,0.2c-0.3,0-0.6,0.1-0.6,0.2c0,0.1-0.7,0.2-1.6,0.3s-1.5,0.2-1.5,0.3c0,0.1-0.8,0.2-1.7,0.2
		c-1,0-1.7-0.1-1.7-0.2s-0.2-0.2-0.3-0.2c-2.1,0,1.5-4,5.3-5.8c2.1-1,3.2-1.5,3.5-1.5c0.2,0,0.3-0.1,0.3-0.2c0-0.1,0.2-0.2,0.4-0.2
		c0.2,0,0.6-0.1,0.9-0.2c1.2-0.5,2.5-0.9,2.8-0.9c0.2,0,0.3-0.1,0.3-0.2c0-0.1,0.4-0.2,0.9-0.3c0.5-0.1,0.9-0.2,0.9-0.3
		c0-0.1,0.2-0.2,0.4-0.2c0.4,0,1.2-0.3,2.1-0.8c0.2-0.1,0.6-0.2,1-0.3c0.4-0.1,0.8-0.2,0.9-0.3c0.1-0.1,0.7-0.3,1.3-0.5
		c0.6-0.2,1.1-0.4,1.1-0.5s0.2-0.2,0.4-0.2c0.2,0,0.6-0.1,0.9-0.3c0.3-0.1,0.7-0.3,1.1-0.4c0.3-0.1,1-0.3,1.5-0.6
		c1.7-0.8,2.4-1.1,2.6-1.1c0.1,0,0.2-0.1,0.3-0.2s0.8-0.5,1.7-1c4.3-2.2,6.1-5.2,4.6-7.7c-0.6-0.9-4.8-1.4-6.6-0.7
		c-0.4,0.2-1,0.3-1.3,0.3c-0.3,0-0.5,0.1-0.5,0.2s-0.4,0.2-0.9,0.3c-0.5,0.1-0.9,0.2-0.9,0.3s-0.2,0.2-0.4,0.2s-0.7,0.1-1.1,0.3
		c-0.4,0.2-1,0.4-1.3,0.6s-0.7,0.3-0.9,0.3s-0.3,0.1-0.3,0.2c0,0.1-0.1,0.2-0.3,0.2c-0.4,0-1.7,0.6-1.8,0.8c0,0.1-0.2,0.2-0.3,0.2
		c-0.3,0-2.9,1.2-2.9,1.4c0,0.1-0.2,0.2-0.3,0.2s-1,0.4-1.9,0.8s-2.6,1.3-3.8,2c-1.2,0.6-2.2,1.2-2.3,1.3c0,0.1-0.1,0.2-0.2,0.2
		c-0.1,0-0.9,0.3-1.8,0.8c-0.9,0.4-1.8,0.8-2.1,0.9s-0.7,0.2-0.9,0.3c-0.7,0.3-2.5,0.8-3,0.8c-0.3,0-0.6,0.1-0.7,0.2
		c-0.1,0.1-0.8,0.2-1.6,0.2c-0.8,0-1.4-0.1-1.4-0.2s-0.2-0.2-0.5-0.2c-2.3,0-5.6-3.1-5.9-5.8c-0.1-0.4-0.2-0.9-0.3-0.9
		c-0.2-0.1-0.2-3.1,0-3.2c0.1-0.1,0.2-0.8,0.3-1.7c0.1-0.8,0.2-1.6,0.3-1.6c0.1,0,0.2-0.5,0.3-1c0.1-0.5,0.2-1.1,0.3-1.3
		c0.4-0.9,0.5-1.1,0.5-1.3c0-0.4,2.8-6.3,3.2-6.7c0.1-0.1,0.3-0.5,0.5-0.8c0.1-0.3,0.3-0.6,0.4-0.6s0.2-0.1,0.2-0.3s0.2-0.5,0.5-0.8
		c0.3-0.3,0.5-0.6,0.5-0.7c0-0.1,0.5-0.8,1.1-1.5c0.6-0.8,1.3-1.7,1.5-2c2.8-3.7,7.1-8.2,10.8-11.3c0.3-0.2,0.9-0.8,1.2-1.1
		s0.7-0.6,0.8-0.6c0.1,0,0.3-0.2,0.6-0.4c0.3-0.2,1.2-0.9,2-1.5c0.8-0.6,1.6-1.2,1.7-1.2c1.5-1.1,5.3-3.5,5.6-3.5
		c0.1,0,0.2-0.1,0.3-0.1c0.1-0.3,6.4-3.5,9.3-4.7c0.2-0.1,0.8-0.3,1.3-0.6c0.5-0.2,0.9-0.4,1-0.4c0.1,0,0.6-0.2,1.1-0.5
		c0.6-0.3,1.2-0.5,1.3-0.5s0.3-0.1,0.4-0.2c0.1-0.1,0.2-0.2,0.4-0.2s0.6-0.1,0.9-0.3c0.9-0.4,1.9-0.7,2.4-0.9
		c0.2-0.1,0.4-0.2,0.4-0.2s0.4-0.2,0.9-0.3s0.9-0.2,1-0.3c0.1-0.1,0.5-0.2,1-0.3c0.5-0.1,0.9-0.2,0.9-0.3s0.2-0.2,0.5-0.2
		s0.5-0.1,0.5-0.2s0.4-0.2,0.9-0.3c0.5-0.1,1-0.2,1.1-0.3c0.1-0.1,0.5-0.2,1-0.3c0.5-0.1,0.9-0.2,1-0.3s0.3-0.2,0.5-0.2
		s0.4-0.1,0.4-0.2c0-0.1,0.4-0.2,1-0.3c0.5-0.1,1.1-0.2,1.2-0.3c0.1-0.1,0.6-0.2,1.1-0.3c0.5-0.1,0.9-0.2,1.1-0.3
		c0.2-0.2,2-0.6,3-0.8c0.4-0.1,0.7-0.2,0.7-0.3c0-0.1,0.5-0.2,1.1-0.3c0.6-0.1,1.1-0.2,1.1-0.3c0-0.1,0.5-0.2,1.1-0.3
		c0.6-0.1,1.2-0.2,1.3-0.3c0.1-0.1,0.5-0.2,0.9-0.2s0.7-0.1,0.7-0.2s0.6-0.2,1.4-0.3c0.8-0.1,1.5-0.2,1.5-0.3s0.8-0.2,1.6-0.3
		c0.9-0.1,1.6-0.2,1.6-0.3c0.1-0.1,0.5-0.2,0.9-0.2c0.5,0,0.9-0.1,0.9-0.2s1.1-0.2,2.4-0.3c1.3-0.1,2.3-0.2,2.3-0.3
		c0-0.1,1.4-0.2,3.1-0.2s3.1,0.1,3.1,0.2c0,0.1,0.6,0.2,1.3,0.3s1.4,0.2,1.5,0.3c0.1,0.1,0.7,0.3,1.3,0.5c0.6,0.2,1.1,0.4,1.1,0.5
		c0,0.1,0.1,0.2,0.3,0.2c0.8,0,3,2.8,3,3.8c0,0.2,0.1,0.4,0.2,0.5c0.2,0.1,0.3,4.9,0,5.2c-0.1,0.1-0.2,0.6-0.3,1
		c-0.1,0.5-0.2,0.8-0.3,0.8c-0.1,0-0.2,0.1-0.2,0.3c0,0.4-1.1,2.7-1.5,3.1c-0.1,0.1-0.2,0.3-0.2,0.4c0,0.2-1.5,2.7-1.7,2.9
		c-0.1,0-0.3,0.4-0.6,0.9c-1.7,2.5-4.3,5.3-10.8,11.7c-2.7,2.6-4.1,4.1-4.6,5c-0.2,0.3-0.4,0.6-0.4,0.6c-0.7,0.7-1.9,3.3-1.9,4.1
		c0,0.4-0.1,0.7-0.2,0.7c-0.1,0-0.2,0.4-0.2,0.9s0.1,0.9,0.2,0.9s0.2,0.2,0.2,0.4c0,0.8,0.6,1.7,1.5,2.1c1,0.5,4.7,0.7,5.6,0.2
		c0.2-0.1,0.9-0.4,1.5-0.6c0.6-0.2,1-0.4,1-0.5c0-0.1,0.3-0.2,0.7-0.3s0.7-0.2,0.7-0.3s0.4-0.3,0.9-0.5s0.9-0.5,0.9-0.5
		c0-0.1,0.1-0.2,0.3-0.2s0.6-0.3,1.1-0.6c0.4-0.3,0.9-0.6,1-0.6s0.2-0.1,0.2-0.1c0-0.1,0.5-0.5,1.1-0.8s1-0.7,1-0.8
		c0-0.1,0.1-0.2,0.3-0.2c0.1,0,0.4-0.1,0.5-0.2s0.7-0.5,1.2-0.9c0.5-0.4,1-0.7,1.1-0.8s0.7-0.5,1.5-1.1c0.8-0.5,1.5-1,1.5-1.1
		c0.2-0.2,0.9-0.6,1.2-0.7c0.2-0.1,0.3-0.2,0.3-0.3s0.1-0.2,0.3-0.2c0.1,0,0.4-0.1,0.5-0.2s0.9-0.5,1.6-0.9s1.4-0.7,1.4-0.8
		c0.1-0.1,0.4-0.2,0.8-0.3c0.4-0.1,0.7-0.2,0.7-0.3c0-0.1,0.5-0.2,1.1-0.3s1.1-0.2,1.2-0.3c0.7-1.1,4.2,0.7,3.8,2
		c-0.2,0.6-0.7,1.7-1,2c-0.1,0.1-0.2,0.3-0.2,0.4c0,0.1-1,1.2-2.8,2.8c-0.4,0.4-3.4,2.4-3.6,2.4c-0.1,0-0.2,0.1-0.2,0.2
		s-0.2,0.2-0.4,0.3c-0.2,0.1-0.5,0.2-0.5,0.2c-0.2,0.2-5.4,2.9-5.7,2.9c-0.1,0-0.2,0.1-0.2,0.2c0,0.1-0.1,0.2-0.2,0.2
		c-0.1,0-1,0.4-2,0.9s-1.9,0.9-2,0.9s-0.2,0.1-0.2,0.2c0,0.1-0.1,0.2-0.2,0.2c-0.3,0-2.5,1.1-2.6,1.3c-0.1,0.1-0.3,0.2-0.5,0.3
		c-0.6,0.2-3.3,2-3.9,2.6c-0.3,0.3-0.6,0.6-0.8,0.7c-0.8,0.7-1.4,1.5-2.1,3c-0.2,0.5-0.2,3,0,3c0.1,0,0.2,0.2,0.2,0.4
		c0.1,1,0.9,1.2,3.9,1.2c2.1,0,2.8-0.1,2.9-0.2c0.1-0.1,0.3-0.2,0.6-0.2c0.3,0,0.8-0.1,1.2-0.3c0.4-0.2,1-0.4,1.3-0.6
		c0.3-0.2,0.7-0.3,0.9-0.3s0.3-0.1,0.3-0.2c0-0.1,0.3-0.2,0.7-0.3s0.7-0.2,0.7-0.3c0-0.1,0.1-0.2,0.2-0.2c0.2,0,5.7-2.7,5.9-2.9
		c0.1-0.1,0.4-0.3,0.9-0.5c0.4-0.2,0.8-0.4,0.9-0.5s0.4-0.3,0.8-0.5c1.3-0.7,1.8-1,2.1-1.2c0.1-0.1,0.4-0.2,0.5-0.2s0.3-0.1,0.3-0.2
		c0-0.1,0.1-0.2,0.2-0.2s1.2-0.6,2.4-1.3c1.2-0.7,2.3-1.3,2.4-1.3c0.1,0,0.2-0.1,0.2-0.1c0.1-0.2,4.4-2.4,4.6-2.4
		c0.1,0,0.4-0.1,0.7-0.3c1.4-0.7,3.8-0.8,4.2-0.1c0.4,0.6-0.1,2.1-1,3.1c-0.2,0.2-0.4,0.5-0.4,0.6c0,0.2-4.3,4.5-4.9,5
		c-0.2,0.2-1.1,0.8-1.8,1.4c-0.8,0.6-1.8,1.3-2.2,1.6c-0.4,0.3-0.9,0.6-1,0.8c-0.1,0.2-0.4,0.3-0.5,0.3c-0.1,0-0.3,0.1-0.3,0.1
		c0,0.1-0.5,0.4-1.1,0.8c-0.6,0.4-1.1,0.7-1.1,0.8s-0.1,0.2-0.3,0.2c-0.1,0-0.4,0.1-0.5,0.2c-0.1,0.1-0.4,0.3-0.6,0.5
		c-2.6,1.6-4.2,2.7-4.3,2.8c0,0.1-0.2,0.2-0.3,0.2c-0.2,0-1.8,1-2.4,1.4c-0.1,0.1-0.9,0.6-1.8,1.2c-0.9,0.6-1.8,1.3-2.1,1.5
		c-1.3,1.1-3.2,3.2-3.5,3.8c-0.2,0.4-0.4,0.9-0.6,1.2c-0.9,1.9,0,5.3,1.5,5.6c0.3,0.1,0.7,0.2,0.7,0.3c0.1,0.2,4.3,0.2,4.3,0
		c0-0.1,0.5-0.2,1.1-0.3s1.1-0.2,1.2-0.3s0.2-0.2,0.4-0.2c0.3,0,0.6-0.1,2.8-1.1c2.4-1.1,5.9-3,7.3-3.9c0.6-0.4,1.1-0.8,1.2-0.8
		c0.1,0,3.2-2,3.5-2.3c0.1-0.1,0.3-0.2,0.3-0.2c0.1,0,1.9-1.2,2-1.4c0.1-0.1,0.4-0.3,0.8-0.5c0.4-0.2,0.9-0.6,1.1-0.8
		c0.2-0.2,1-0.8,1.8-1.3c0.8-0.5,1.6-1.1,1.7-1.2c0.1-0.1,0.3-0.2,0.4-0.2c0.1,0,0.3-0.2,0.5-0.3c0.2-0.2,0.7-0.6,1.1-0.8
		c0.4-0.3,0.8-0.5,0.9-0.6s0.4-0.3,0.8-0.5c0.4-0.2,0.7-0.4,0.8-0.5c0.1-0.1,0.4-0.3,0.8-0.5c1.3-0.7,1.8-1,1.9-1.1
		c0.1-0.1,0.4-0.2,0.7-0.3s0.6-0.2,0.6-0.3s0.4-0.2,0.9-0.3c0.5-0.1,0.9-0.2,1-0.3c0.2-0.4,1.6-0.2,2.2,0.4c0.6,0.5,0.8,1,0.4,1
		c-0.1,0-0.2,0.3-0.3,0.6c-0.2,1.2-2,3.2-4.5,5.2c-1.3,1.1-4.9,3.5-5.1,3.5c-0.1,0-0.4,0.2-0.8,0.5c-0.4,0.3-0.7,0.5-0.8,0.5
		c-0.1,0-0.3,0.1-0.5,0.2c-0.1,0.1-0.6,0.4-1,0.6s-0.8,0.4-0.9,0.5s-0.5,0.3-1.1,0.6c-0.5,0.3-1,0.5-1.1,0.6
		c-0.1,0.1-2.8,1.5-6.6,3.4c-1.2,0.6-2.1,1.1-2.2,1.2c0,0.1-0.1,0.2-0.3,0.2c-0.3,0-1.4,0.6-2.8,1.3c-0.6,0.4-1.5,0.9-1.9,1.1
		s-0.7,0.4-0.7,0.5s-0.1,0.2-0.3,0.2s-0.5,0.2-0.7,0.4c-0.2,0.2-0.5,0.4-0.6,0.4c-0.1,0-0.4,0.2-0.7,0.5c-0.3,0.3-0.6,0.5-0.7,0.5
		c-0.7,0-3.5,3.6-3.5,4.5c0,0.2-0.1,0.4-0.2,0.4c-0.4,0.2-0.2,2.4,0.3,3.3c0.4,0.8,1.6,1.6,2.3,1.6c0.2,0,0.5,0.1,0.6,0.2
		c0.3,0.3,4.9-0.1,4.9-0.4c0-0.1,0.5-0.2,1.1-0.3c0.6-0.1,1.1-0.2,1.1-0.3c0-0.1,0.4-0.2,1-0.3c0.5-0.1,1-0.2,1-0.3s0.2-0.2,0.5-0.2
		s0.5-0.1,0.5-0.2s0.3-0.2,0.7-0.3s0.9-0.2,1.2-0.4s0.6-0.3,0.7-0.3c0.3,0,1.2-0.5,1.2-0.6c0-0.1,0.2-0.1,0.4-0.1
		c0.2,0,0.7-0.2,1.1-0.4c0.4-0.2,0.9-0.4,1.1-0.4c0.2,0,0.3-0.1,0.3-0.2c0-0.1,0.1-0.2,0.2-0.2c0.3,0,7.7-3.7,7.8-3.9
		c0-0.1,0.1-0.2,0.3-0.2c0.2,0,1.9-0.8,2.1-1c0.1-0.2,4.6-2.3,4.8-2.3c0.1,0,0.2-0.1,0.2-0.2s0.1-0.2,0.3-0.2c0.2,0,0.6-0.1,0.9-0.3
		c0.3-0.2,0.9-0.3,1.3-0.4l0.8-0.1l-0.4,0.4c-0.6,0.8-2.5,2.6-2.9,2.9c-0.2,0.2-0.8,0.6-1.2,0.9s-1,0.7-1.2,0.9
		c-0.2,0.2-0.5,0.4-0.6,0.5c-0.1,0.1-0.5,0.4-0.9,0.6s-0.8,0.5-0.9,0.6s-0.4,0.2-0.5,0.2s-0.3,0.1-0.3,0.2c0,0.1-0.1,0.2-0.2,0.2
		c-0.1,0-0.5,0.2-0.9,0.5c-1,0.7-3.4,1.9-6.9,3.8c-0.7,0.4-1.3,0.7-1.3,0.8s-0.5,0.3-1,0.5c-5.8,2.9-11.5,7.4-13.1,10.4
		c-0.2,0.4-0.4,0.7-0.5,0.8c-0.1,0-0.1,0.2-0.1,0.4s-0.1,0.6-0.3,0.9c-0.3,0.6-0.4,4.4-0.1,4.4c0.1,0,0.2,0.2,0.3,0.5
		c0.1,0.7,1,1.5,2.2,2.1c1.2,0.6,9.2,0.8,9.8,0.3c0.1-0.1,0.8-0.3,1.4-0.3c0.6-0.1,1.1-0.2,1.2-0.3c0.1-0.1,0.4-0.2,0.7-0.2
		s0.6-0.1,0.7-0.2c0.1-0.1,0.5-0.2,1.1-0.3c0.5-0.1,1-0.2,1.1-0.3c0.1-0.1,0.5-0.2,1-0.3c0.5-0.1,0.9-0.2,0.9-0.3
		c0-0.1,0.2-0.2,0.5-0.2c0.3,0,0.5-0.1,0.5-0.2s0.2-0.2,0.4-0.2c0.2,0,0.6-0.1,0.9-0.3s0.8-0.3,1.1-0.4c0.8-0.2,1.7-0.6,1.7-0.7
		c0-0.1,0.4-0.2,1-0.3c0.5-0.1,1-0.2,1-0.3c0-0.1,0.4-0.2,0.9-0.3c0.5-0.1,1-0.2,1.2-0.3c0.4-0.2,1.9-0.6,2.8-0.7
		c0.4-0.1,0.9-0.2,0.9-0.3c0.3-0.2,5.5-0.2,5.5,0c0,0.1,0.2,0.2,0.4,0.2c1.1,0,3.8,1.8,4.5,3.1c0.2,0.3,0.4,0.5,0.4,0.5
		c0.1,0,0.2,0.3,0.3,0.6c0.1,0.3,0.2,0.6,0.3,0.6s0.2,0.5,0.3,1.1s0.2,1.3,0.3,1.5c0.4,0.8-0.2,7.6-0.6,7.6c-0.1,0-0.2,0.2-0.2,0.5
		s-0.1,0.8-0.3,1.2c-0.2,0.4-0.4,0.9-0.4,1.1c-0.2,0.6-1,2.3-1.2,2.7c-0.1,0.2-0.5,0.9-0.8,1.4c-1.5,2.8-5.6,7.7-8.2,9.6
		c-0.5,0.4-1,0.8-1.1,0.9s-0.5,0.4-0.9,0.6s-0.7,0.4-0.7,0.5s-0.1,0.1-0.2,0.1s-0.5,0.2-0.9,0.5s-1,0.5-1.2,0.6s-0.5,0.2-0.5,0.3
		c0,0.1-0.1,0.2-0.3,0.2c-0.2,0-0.6,0.1-0.9,0.3c-0.3,0.2-0.7,0.3-0.8,0.3c-0.1,0-0.3,0.1-0.3,0.2c0,0.1-0.7,0.2-1.6,0.3
		c-0.9,0.1-1.7,0.2-1.7,0.3c-0.1,0.2-3.1,0.2-3.1,0c0-0.1-0.6-0.2-1.3-0.3c-0.7-0.1-1.3-0.2-1.3-0.3s-0.2-0.2-0.4-0.2
		s-0.6-0.1-0.9-0.3c-0.3-0.1-0.9-0.4-1.3-0.6c-0.4-0.2-0.8-0.4-0.8-0.5c0-0.1-0.2-0.1-0.3-0.1s-0.6-0.3-1.2-0.6
		c-1.1-0.7-1-0.6-2.5-1.8c-0.6-0.5-1.3-1.1-1.5-1.2c-0.5-0.4-4.9-4.8-5.4-5.4c-0.2-0.3-0.7-0.9-1-1.4c-0.4-0.5-0.7-1-0.8-1.1
		c-0.2-0.2-2.3-3.5-2.3-3.6c0-0.1-0.1-0.3-0.2-0.4s-0.8-1.3-1.4-2.5c-0.6-1.2-1.2-2.3-1.3-2.3c-0.1,0-0.1-0.1-0.1-0.2
		s-0.4-1-0.9-1.9c-0.5-0.9-0.9-1.8-0.9-2s-0.1-0.3-0.2-0.3c-0.1,0-0.2-0.1-0.2-0.2c0-0.3-1.2-2.8-1.4-2.8c-0.1,0-0.1-0.2-0.1-0.3
		s-0.3-0.8-0.6-1.4s-0.6-1.3-0.6-1.4s-0.1-0.2-0.2-0.2c-0.1,0-0.2-0.1-0.2-0.2s-0.1-0.5-0.3-0.9c-1.3-2.9-1.6-3.7-2.2-4.9
		c-0.2-0.5-0.5-1.1-0.6-1.3c-0.1-0.2-0.2-0.5-0.2-0.6s-0.1-0.3-0.2-0.3c-0.1,0-0.2-0.3-0.3-0.6s-0.2-0.6-0.3-0.7
		c-0.1-0.1-0.2-0.2-0.2-0.4c0-0.2-0.9-2.4-1.3-3.2c-0.1-0.2-0.2-0.6-0.3-0.9c-0.1-0.3-0.2-0.6-0.3-0.6c-0.1,0-0.2-0.2-0.2-0.4
		c0-0.2-0.1-0.4-0.2-0.4c-0.1,0-0.2-0.2-0.2-0.3c0-0.2-0.1-0.6-0.3-0.8c-0.1-0.3-0.3-0.8-0.4-1.1c-0.1-0.3-0.2-0.6-0.3-0.6
		c-0.1,0-0.5-1-0.7-1.9c-0.1-0.2-0.2-0.4-0.3-0.4c-0.1,0-0.2-0.1-0.2-0.3c0-0.3-0.6-1.7-1-2.4c-0.1-0.2-0.2-0.5-0.2-0.6
		c0-0.2-0.1-0.3-0.2-0.3s-0.2-0.3-0.3-0.7c-0.1-0.4-0.2-0.7-0.3-0.7c-0.1,0-0.2-0.2-0.2-0.3c0-0.2-0.1-0.6-0.3-0.9
		c-0.2-0.3-0.3-0.7-0.3-0.8s-0.1-0.3-0.2-0.3c-0.1,0-0.2-0.1-0.2-0.2c0-0.3-0.4-1.2-2.4-5.4c-0.5-1-0.9-2-0.9-2.1S186.1,79,186,79
		c-0.1,0-0.2-0.3-0.3-0.6s-0.2-0.6-0.3-0.6c-0.1,0-0.3-0.4-0.5-1c-0.2-0.5-0.4-1-0.5-1s-0.2-0.2-0.3-0.5c-0.1-0.3-0.2-0.6-0.3-0.6
		c-0.1-0.1-0.4-0.7-0.8-1.4c-0.4-0.7-0.7-1.4-0.8-1.4c-0.1-0.1-0.3-0.4-0.5-0.9c-0.2-0.4-0.4-0.8-0.5-0.9s-0.3-0.5-0.6-1.1
		c-0.3-0.5-0.5-1-0.6-1.1c-0.1-0.1-0.5-0.8-1.1-1.9c-0.2-0.4-0.4-0.7-0.4-0.8c-0.1-0.1-0.3-0.4-0.5-0.8c-0.2-0.4-0.4-0.7-0.5-0.7
		c-0.1,0-0.1-0.1-0.1-0.3c0-0.2-0.1-0.4-0.2-0.5s-0.4-0.6-0.6-0.9s-0.5-0.8-0.6-0.9c-0.1-0.1-0.2-0.4-0.2-0.5c0-0.2-0.1-0.3-0.2-0.3
		s-0.2-0.2-0.3-0.3s-0.7-1.2-1.4-2.2c-0.7-1-1.4-2-1.5-2.2c-0.1-0.2-0.5-0.7-0.8-1.1c-0.3-0.4-0.5-0.8-0.5-0.9s-0.1-0.2-0.1-0.2
		c-0.1,0-0.6-0.7-1.1-1.5c-0.5-0.8-1.1-1.6-1.2-1.7c-0.1-0.1-0.2-0.3-0.2-0.4s-0.1-0.3-0.3-0.5c-0.2-0.2-0.4-0.5-0.5-0.7
		c-1.1-1.6-2.1-3.1-2.2-3.3c-0.1-0.1-0.3-0.4-0.5-0.6s-0.8-1.2-1.4-2.2c-1.4-2.2-2.3-4-2.3-4.5c0-0.2-0.1-0.4-0.2-0.4
		c-0.3-0.2-0.2-2.6,0.1-3.2c0.3-0.6,3-3.4,3.3-3.4c0.1,0,0.4-0.3,0.8-0.6c0.9-0.8,0.9-0.8,2.1-1.5c0.6-0.4,1.1-0.7,1.1-0.8
		c0.1-0.1,0.3-0.2,0.5-0.3c0.2-0.1,1.4-0.9,2.7-1.7c1.3-0.8,2.4-1.5,2.5-1.5c0.1,0,0.2-0.1,0.2-0.1c0-0.1,0.4-0.3,0.7-0.5
		c0.4-0.2,1.3-0.7,2.1-1.1c2.3-1.2,6.7-3.4,7-3.4c0.1,0,0.4-0.2,0.8-0.4c0.8-0.5,1.1-3.2,0.3-3.2c-0.2,0-0.4-0.1-0.5-0.2
		c-0.1-0.1-0.5-0.2-1-0.2s-0.9,0.1-0.9,0.2s-0.1,0.2-0.3,0.2c-0.6,0-8.6,3.9-9.1,4.4c-0.1,0-0.7,0.4-1.4,0.8s-1.3,0.7-1.3,0.8
		c0,0.1-0.1,0.1-0.2,0.1c-0.3,0-5.6,3.3-5.7,3.5c0,0.1-0.1,0.2-0.2,0.2c-0.1,0-1.9,1.1-2.1,1.4c-0.1,0.1-0.5,0.4-1,0.8
		c-2.2,1.7-3.6,3.2-3.6,3.8c0,0.1-0.1,0.2-0.2,0.2c-0.1,0-0.2,0.3-0.3,0.7c-0.1,0.4-0.2,0.7-0.3,0.8c-0.1,0.1-0.2,0.4-0.2,0.7
		c0,0.3-0.1,0.6-0.2,0.6c-0.1,0-0.2,0.7-0.2,1.6c0,1,0.1,1.6,0.2,1.6s0.2,0.3,0.2,0.8c0,0.4,0.1,0.8,0.2,0.8s0.2,0.3,0.3,0.7
		c0.1,0.8,2,4.5,2.7,5.4c0.3,0.3,0.5,0.7,0.5,0.8s0.1,0.2,0.2,0.4c0.3,0.3,0.6,0.7,0.8,1.1c0.4,0.6,2.1,3.1,2.2,3.2
		c0.1,0,0.5,0.8,1.1,1.5c0.5,0.8,1,1.5,1.1,1.5c0.1,0,0.5,0.8,1.1,1.5c0.5,0.8,1,1.5,1.1,1.5c0.1,0,0.1,0.1,0.1,0.2
		c0,0.2,2.1,3.3,2.3,3.5c0.1,0,0.2,0.3,0.3,0.5c0.1,0.2,0.2,0.4,0.3,0.4c0.1,0,0.2,0.1,0.2,0.2c0,0.1,1.4,2.4,1.9,3
		c0.3,0.4,0.6,0.9,0.8,1.2c0.1,0.2,0.2,0.4,0.4,0.5s0.2,0.4,0.2,0.5s0.1,0.3,0.2,0.3s0.2,0.2,0.3,0.4c0.1,0.2,0.3,0.6,0.4,0.8
		s0.6,0.9,0.9,1.5c0.7,1.4,1.5,2.9,2.4,4.3c0.3,0.6,0.9,1.7,1.3,2.5c0.4,0.8,0.8,1.5,0.9,1.5c0.1,0,0.1,0.2,0.1,0.3s0.7,1.7,1.6,3.5
		c0.9,1.8,1.6,3.4,1.6,3.6s0.1,0.2,0.2,0.2c0.1,0,0.2,0.2,0.2,0.3c0,0.2,0.2,0.8,0.6,1.5c0.3,0.6,0.7,1.5,0.9,1.9
		c0.5,1.2,0.6,1.5,1.3,2.9c0.3,0.7,0.7,1.5,0.8,1.7c0.1,0.2,0.2,0.4,0.2,0.6s0.1,0.5,0.3,0.9c0.3,0.8,0.4,1,1,2.4
		c0.2,0.5,0.5,1.1,0.6,1.3s0.2,0.6,0.3,0.9c0.1,0.3,0.2,0.7,0.3,0.7c0.1,0.1,0.2,0.3,0.2,0.5s0.1,0.4,0.2,0.4c0.1,0,0.2,0.3,0.3,0.6
		c0.1,0.3,0.2,0.8,0.3,0.9c0.1,0.2,0.4,0.9,0.8,1.7c0.3,0.7,0.7,1.5,0.8,1.7c0.1,0.2,0.2,0.6,0.3,0.9c0.1,0.3,0.2,0.6,0.3,0.6
		c0.1,0,0.2,0.2,0.2,0.4c0,0.2,0.1,0.4,0.2,0.5c0.1,0.1,0.2,0.4,0.3,0.7s0.2,0.6,0.3,0.6c0.1,0,0.2,0.1,0.2,0.3
		c0,0.2,0.2,0.8,0.5,1.4c0.3,0.6,0.7,1.6,1,2.2c0.8,1.7,1.5,3.3,2.4,5.2c0.5,1,0.9,2,0.9,2.1c0,0.1,0.1,0.2,0.2,0.2
		c0.1,0,0.2,0.1,0.2,0.2c0,0.2,4.2,8.8,4.4,9c0.1,0.1,0.4,0.7,0.8,1.4c0.4,0.7,0.7,1.3,0.8,1.3c0.1,0,0.1,0.1,0.1,0.3
		c0,0.2,1.9,3.4,2.6,4.2c1.8,2.3,2.5,3.1,4.2,4.7c4.1,4.1,8.9,7.5,11.3,7.9c0.4,0.1,0.7,0.2,0.7,0.3s0.2,0.2,0.4,0.2
		s0.5,0.1,0.6,0.2s0.7,0.2,1.3,0.3c0.6,0.1,1.1,0.2,1.1,0.3s1.6,0.2,3.4,0.2s3.4-0.1,3.4-0.2c0-0.1,0.5-0.2,1.2-0.3
		c0.6-0.1,1.3-0.2,1.4-0.3s0.4-0.2,0.6-0.2s0.4-0.1,0.4-0.2c0-0.1,0.2-0.2,0.4-0.2s0.7-0.1,1.1-0.3c1.9-0.8,2.1-1,2.1-1.1
		c0-0.1,0.3-0.2,0.6-0.3c0.3-0.1,0.6-0.2,0.6-0.3c0-0.1,0.2-0.2,0.5-0.3c0.3-0.1,0.5-0.2,0.5-0.3c0-0.1,0.1-0.2,0.2-0.2
		c0.7,0,7.8-6.5,7.8-7.1c0-0.1,0.1-0.3,0.2-0.4c0.6-0.6,1.5-1.9,1.5-2.1c0-0.1,0.1-0.2,0.2-0.2s0.2-0.2,0.3-0.5
		c0.1-0.3,0.2-0.5,0.3-0.5s0.3-0.3,0.5-0.7c0.2-0.4,0.4-0.8,0.5-0.8c0.1-0.1,0.9-1.6,1.6-3.3c0.2-0.4,0.3-0.8,0.3-1s0.1-0.3,0.1-0.3
		c0.1,0,0.3-0.5,0.5-1.2c0.2-0.7,0.4-1.4,0.5-1.6s0.2-0.9,0.3-1.5c0.1-0.6,0.2-1.2,0.3-1.3c0.2-0.1,0.2-8.4,0-8.4
		c-0.1,0-0.2-0.4-0.3-0.9c-0.1-0.8-1-3.2-1.3-3.5c-0.1-0.1-0.2-0.3-0.4-0.6c-0.5-1-3.1-3.2-3.8-3.2c-0.1,0-0.2-0.1-0.2-0.2
		c0-0.2-1.1-0.6-2-0.8c-0.3-0.1-0.6-0.2-0.7-0.3c-0.2-0.3-8-0.3-8.6,0c-0.4,0.2-1.8,0.5-3.2,0.8c-0.3,0.1-0.6,0.2-0.6,0.3
		s-0.4,0.2-1,0.3c-0.5,0.1-1,0.2-1,0.3s-0.2,0.2-0.4,0.2c-0.2,0-0.7,0.1-1,0.3s-0.7,0.3-0.9,0.3s-0.4,0.1-0.4,0.2s-0.3,0.2-0.7,0.3
		s-1,0.2-1.3,0.4c-0.3,0.2-0.7,0.3-0.8,0.3c-0.1,0-0.4,0.1-0.6,0.2c-0.2,0.1-0.5,0.3-0.7,0.4c-0.2,0.1-0.8,0.2-1.2,0.3
		s-0.9,0.2-0.9,0.3c0,0.1-0.4,0.2-1,0.3c-0.5,0.1-1,0.2-1,0.3c0,0.1-0.3,0.2-0.6,0.2c-1.3,0.2-2.9,0.6-3.4,0.8
		c-0.6,0.3-5.9,0.3-6.1,0c-0.1-0.1-0.3-0.2-0.4-0.3c-2.1-0.8,1.7-5.9,6.8-9.1c0.3-0.2,0.6-0.4,0.7-0.5c0.1-0.1,0.4-0.3,0.8-0.5
		c0.4-0.2,0.7-0.4,0.8-0.5c0.1-0.1,0.4-0.3,0.8-0.5c1.1-0.6,1.8-1,1.9-1.1c0.1-0.1,0.6-0.4,4.1-2.2c0.8-0.4,1.9-1,2.4-1.3
		c0.9-0.5,1.9-1.1,3.7-2.1c0.6-0.3,1.2-0.7,1.2-0.8c0.1-0.1,0.4-0.3,0.8-0.5c0.4-0.2,0.7-0.4,0.7-0.5s0.1-0.2,0.2-0.2
		c0.1,0,0.5-0.2,0.9-0.5s0.9-0.7,1.2-0.8c0.2-0.2,0.5-0.4,0.6-0.5s0.6-0.4,1-0.8c1.2-0.9,3.6-3.4,4-4.3c0.2-0.4,0.4-0.8,0.5-0.8
		c0.1,0,0.1-0.2,0.1-0.4s0.1-0.4,0.2-0.5c0.1-0.1,0.2-0.7,0.2-1.4c0-0.7-0.1-1.2-0.2-1.2s-0.2-0.2-0.2-0.3c0-0.5-0.7-1.2-1.2-1.2
		c-0.2,0-0.4-0.1-0.4-0.2c0-0.2-3.8-0.3-3.9,0c-0.1,0.1-0.5,0.2-1.1,0.3s-1,0.2-1.1,0.3c-0.1,0.1-0.2,0.2-0.4,0.2s-0.8,0.2-1.4,0.5
		c-3.3,1.6-4.7,2.3-4.8,2.4c0,0.1-0.2,0.2-0.3,0.2c-0.2,0-2.6,1.1-2.8,1.4c-0.2,0.2-6.8,3.5-7.1,3.5c-0.1,0-0.2,0.1-0.2,0.2
		c0,0.1-0.1,0.2-0.3,0.2c-0.2,0-0.9,0.3-1.5,0.6s-1.3,0.6-1.4,0.6c-0.1,0-0.2,0.1-0.2,0.2c0,0.1-0.4,0.2-0.8,0.3s-0.8,0.2-0.8,0.3
		c0,0.1-0.4,0.2-0.8,0.3s-0.8,0.2-0.8,0.3s-0.2,0.2-0.5,0.2s-0.5,0.1-0.5,0.2s-0.4,0.2-0.9,0.3s-0.9,0.2-1,0.3
		c-0.1,0.1-0.6,0.2-1.2,0.3s-1.1,0.2-1.1,0.3c0,0.1-0.6,0.2-1.3,0.2c-0.8,0-1.3-0.1-1.3-0.2c0-0.2,2.9-3.3,3.1-3.3
		c0.2,0,1.9-1.2,2-1.4c0-0.1,0.1-0.2,0.3-0.2c0.1,0,0.6-0.3,1.2-0.6c1-0.6,3.6-2,6.5-3.5c0.8-0.4,1.6-0.8,1.6-0.9
		c0-0.1,0.2-0.2,0.3-0.2c0.2,0,2.6-1.2,2.8-1.3c0.1-0.1,0.6-0.4,1.3-0.7c0.7-0.3,1.7-0.9,2.4-1.2c0.7-0.3,1.2-0.7,1.3-0.7
		c0.1-0.1,0.4-0.3,0.8-0.5c0.4-0.2,0.7-0.4,0.8-0.5c0.1-0.1,0.5-0.3,1-0.6c0.5-0.2,1.5-0.9,2.3-1.4c0.8-0.5,1.5-0.9,1.6-0.9
		s0.2-0.1,0.2-0.1c0-0.1,0.4-0.4,0.9-0.7c0.5-0.3,0.9-0.7,0.9-0.8c0.1-0.1,0.2-0.2,0.3-0.2c0.2,0,3.2-2.9,3.2-3.1
		c0-0.1,0.1-0.3,0.3-0.4c0.4-0.5,1.4-2.5,1.4-3c0-0.2,0.1-0.4,0.2-0.4c0.1,0,0.2-0.7,0.2-1.8c0-1-0.1-1.9-0.2-1.9s-0.2-0.3-0.2-0.5
		c0-0.6-1.3-1.9-2-2c-0.4-0.1-0.6-0.2-0.6-0.3c0-0.1-1.1-0.2-2.4-0.2c-1.3,0-2.4,0.1-2.4,0.2s-0.4,0.2-0.9,0.3s-1,0.2-1.2,0.3
		s-1.1,0.5-2.1,1c-1.9,0.9-4.6,2.5-4.7,2.7c0,0.1-0.2,0.2-0.3,0.2s-0.3,0.1-0.3,0.2s-0.3,0.3-0.7,0.5s-1,0.6-1.3,0.9
		c-0.3,0.3-0.8,0.6-1,0.7c-0.5,0.3-4.9,3.5-5.1,3.7c-0.1,0.1-0.7,0.5-1.2,0.8s-1.1,0.7-1.1,0.8s-0.1,0.2-0.2,0.2
		c-0.2,0-2,1.2-2.1,1.4c0,0.1-0.2,0.2-0.3,0.2s-0.6,0.3-1,0.6c-0.4,0.3-0.9,0.6-1,0.6s-0.2,0.1-0.2,0.2s-0.2,0.2-0.5,0.4
		s-1,0.5-1.6,0.8c-2.1,1.2-5.6,2.9-6,2.9c-0.2,0-0.4,0.1-0.4,0.2c-0.1,0.1-0.5,0.2-1.1,0.3c-0.5,0.1-1,0.2-1.1,0.3
		c-0.2,0.3-1.2,0.2-1.4-0.1c-0.2-0.2-0.1-0.5,0.5-1.3c1.5-2.1,4.1-4,13.2-9.6c1.8-1.1,3.4-2.2,3.6-2.3s0.5-0.4,0.8-0.4
		c0.2-0.1,0.4-0.2,0.4-0.3c0-0.1,0.3-0.3,0.6-0.5c0.7-0.4,3.4-2.4,3.6-2.6c0.1-0.1,0.2-0.2,0.4-0.3c2.7-1.5,7.5-7.4,7.8-9.7
		c0.1-0.5,0.2-0.8,0.3-0.8s0.2-0.6,0.2-1.2c0-0.7-0.1-1.2-0.2-1.2s-0.2-0.3-0.3-0.8c-0.1-0.9-1.3-2.1-2.3-2.5
		c-1.7-0.6-6.5-0.3-6.9,0.4c-0.1,0.1-0.2,0.2-0.4,0.2s-0.6,0.1-0.9,0.3c-0.3,0.2-1,0.4-1.5,0.6s-0.9,0.4-1,0.5s-0.3,0.2-0.6,0.3
		c-0.3,0.1-0.5,0.2-0.6,0.3c-0.1,0.1-0.4,0.3-0.9,0.5s-1.3,0.7-2,1.1S215,52,214.9,52s-0.2,0.1-0.2,0.2s-0.2,0.2-0.4,0.3
		c-0.2,0.1-0.9,0.4-1.4,0.8c-1.3,0.8-4.9,2.9-6.1,3.6c-0.5,0.3-1,0.5-1.1,0.6c-0.1,0.1-0.3,0.2-0.6,0.3c-0.3,0.1-0.5,0.2-0.6,0.3
		c-0.2,0.2-2.6,1.4-2.8,1.4c-0.1,0-0.2,0.1-0.2,0.2c0,0.1-0.1,0.2-0.2,0.2s-0.5,0.1-0.7,0.2s-0.9,0.4-1.4,0.6
		c-0.5,0.2-1.1,0.4-1.1,0.5c-0.1,0.1-0.5,0.2-0.9,0.3c-0.4,0.1-0.7,0.2-0.7,0.3c0,0.1-0.4,0.2-0.9,0.2l-0.9,0.1l1.2-1.2
		c1.1-1.1,4.3-3.2,5.1-3.5c0.2-0.1,0.4-0.2,0.4-0.3c0-0.1,0.1-0.2,0.2-0.2c0.3,0,2.7-1.2,2.8-1.4c0-0.1,0.2-0.2,0.3-0.2
		c0.1,0,0.6-0.2,1-0.4c0.4-0.2,0.9-0.4,1-0.4c0.1,0,0.2-0.1,0.2-0.2s0.2-0.2,0.4-0.2s0.4-0.1,0.4-0.2c0-0.1,0.1-0.2,0.2-0.2
		c0.3,0,2.7-1.2,2.8-1.4c0-0.1,0.2-0.2,0.3-0.2c0.2,0,0.5-0.1,2.3-1.2c1.2-0.7,4.1-2.6,4.8-3.1c2.4-2,4.7-4.6,4.7-5.3
		c0-0.1,0.1-0.4,0.3-0.7c1.6-3.7,0-8.2-2.9-8.2c-0.2,0-0.4-0.1-0.4-0.2c0-0.2-5.3-0.3-5.4,0c-0.1,0.1-0.5,0.2-1.1,0.3
		s-1,0.2-1.1,0.3c-0.1,0.1-0.2,0.2-0.4,0.2s-0.6,0.1-1,0.3c-1.2,0.5-3.2,1.5-3.3,1.6c-0.1,0-0.4,0.2-0.7,0.4
		c-0.6,0.3-7.5,4.9-7.8,5.2c-0.3,0.3-5,3.5-5.2,3.5c-0.1,0-0.2,0.1-0.2,0.2c-0.1,0.2-3.3,1.8-4,1.9c-0.3,0.1-0.6,0.2-0.6,0.3
		s-0.4,0.2-1,0.2h-1l0.1-0.6c0.3-1.3,2.2-3.8,5.3-6.8c4.8-4.6,9.2-9.2,10.1-10.4c0.5-0.7,1-1.3,1.1-1.3c0.1,0,0.1-0.1,0.1-0.2
		c0-0.1,0.1-0.3,0.2-0.4c0.1-0.1,0.4-0.5,0.5-0.7c0.2-0.2,0.5-0.8,0.8-1.2c0.3-0.4,0.5-0.8,0.5-0.8s0.3-0.6,0.7-1.3
		c0.9-1.5,2.3-4.5,2.3-4.9c0-0.2,0.1-0.3,0.2-0.3s0.2-0.4,0.3-1c0.1-0.5,0.2-1,0.3-1c0.1,0,0.2-0.4,0.2-0.8s0.1-0.9,0.2-1
		c0.3-0.4-0.1-6.6-0.4-6.6c-0.1,0-0.2-0.2-0.2-0.5c0-0.4-0.2-0.9-0.8-2.4c-0.7-1.5-4.2-4.1-5.5-4.1c-0.2,0-0.4-0.1-0.4-0.1
		c0-0.2-1.5-0.6-2.6-0.8c-0.6-0.1-1-0.2-1-0.3C199.1-0.1,189.4-0.1,189.3,0.2"/>
</g>
<g class="st0">
	<g class="st3">
		<path class="st4" d="M394.9,168.1c-2.7-7-4.6-14.5-8.3-20.9c-2.9-5-8-8.8-12.6-13.5c-14.1,6.9-27.7,9.4-41.2,0.9l0.5-0.5
			c-3.3,3.3-6.6,6.5-9.9,9.8l0.4-0.6c10.7,17.1,25.3,5.9,39.9,4.4c1.5,8.7,2.9,16.9,4.2,24c-12.4,10.3-19.9,1.6-28.7-4
			c0,3.4,0,6.4,0,9.4c0.3,0.5,0.6,0.9,0.6,0.9c0-0.1-0.1-0.6-0.2-1.2c-13.6-3.5-14.1-4.2-13.9-18.6c-2.9-0.8-5.7-1.6-8.4-2.3
			l0.5-0.5c-1.2,2.3-2.3,4.6-3.5,6.9l0.4-0.6c-2.9,12.8,4.3,20,14.7,24.5c0.8,9.3,1.4,17.8,2.1,26.7c-7,1.4-12.5,2.5-19,3.8
			c-1.7-15.5-3.2-30.1-4.9-45.6c-3.8,1-6.6,2.3-9.5,2.4c-2.7,0-5.4-1.4-8.4-2.2c0,3.3,0,6.4,0,9.4l-0.3-0.6c2.9,1.9,5.7,3.8,7.6,5.1
			c-0.5,9.2-0.8,17.7-1.6,26.2c-0.2,2.2-2,4.2-3,6.2l0.4-0.7c-5.3,8.7-8.7,17.9-6.3,28.3l-0.3-0.6c14.8,28.2,13.8,58.9,15.3,89.3
			c8.7-1.8,9.1-9,9.1-16.4c0-19,0-38,0-57c1,0,1.9,0,2.9,0c1.4,26.1,2.8,52.1,4.3,80.5c12.9-18.6,5.1-39.6,13.5-59
			c4.4,16.7,8.3,31.4,12,45.5c-3.7,4.2-6.6,7.3-11.5,12.8c9.5-2.4,15.8-3.9,22.2-5.5c2-27.9-10.9-53.9-4.5-80.9
			c1.8,8,3.6,16,3.9,24.1c0.8,22.7,10.3,44.9,1.8,69.8c6.5-3.6,11.3-6.2,16.4-9c0-10.5,0.1-20.2,0-29.8c-0.2-18.9-0.7-37.8-0.6-56.7
			c0-4.4,0.1-10.8,2.7-12.7c6.6-4.9,4.6-10.7,4.2-16.6c-0.4-6.5-1.2-13.1-1.9-20.2c10-3.5,15.6-10.4,18.7-19.4
			C394.9,178.3,394.9,173.2,394.9,168.1z"/>
		<path class="st4" d="M147.1,128.6c0.4-10.6,2-21.4-4.5-31.6c-8.3,0.4-17.1,0.8-21.7,8.7c-10.1,17.5-24.9,18.8-42.2,14.1
			c-1-0.3-2-0.3-3.3-0.4c-6.4,6.7-11.8,16.2-19.7,19.6c-7.4,3.2-17.7,0-26.7-1.4c-10.8,2.4-16.2,10.8-19.7,20.7
			c-1.5,4.3-2.8,8.6-4.2,13c0,6.1,0,12.3,0,18.4c5.6,5.6,11.2,11.2,16.8,16.9c-0.6,10-1.1,20.1-1.8,31.2c8.4,2,9.5,8.1,9.3,15.2
			c-0.4,20.4-0.4,40.9-0.6,61.3c-0.1,8.1,0,16.2,0,24.5c7,2.5,12.5,4.5,21.4,7.7c-5-6.7-7.6-10.3-10.2-13.8
			c4-28.7,7.9-56.9,12.3-88.5c7.8,32.8-0.1,62-0.8,92.2c7,1.5,13.2,2.9,19.4,4.2c0.6-1.1,1.3-2.1,1.9-3.2c-3.6-2-7.2-4.1-10.6-6
			c4.3-17.6,8.1-33.3,11.5-47.5c-2-6.5-12.3-6.9-6.7-14.8l-0.2,0.7c2.2-7.4,4.4-14.8,6.5-22.1l-0.3,0.7c1.1-4.3,2.3-8.7,3.4-13
			c0,0-0.3,0.6-0.3,0.6c-1.1-3.2-2.2-6.5-3.3-9.7l0.6,0.4c-1.2-1.2-2.4-2.4-3.6-3.6l0.6,0.6c-1.2-1.2-2.4-2.4-3.7-3.6l0.4,0.6
			c-4.4-4.3-3.4-8.7,0-13l-0.3,0.6c0-4.1,0.1-8.3,0.1-12.4l0.4,0.4c-1.1-4.3-2.2-8.6-3.2-12.9c-1.3-1.6-3.6-3-3.8-4.7
			c-0.5-3.4,0.2-6.9,0.3-10.4l0.4,0.4c-5.4,3.4-10.9,6.8-16.8,10.5c-3.3-1.1-7.1-2.4-12.3-4.1c1.9-8.7,3.6-16.8,5.7-26.2
			c9.8,2.9,18,5.2,27.7,8c6.6-5.3,13.6-10.9,20.5-16.5l-0.5,0.6c1-4.8,2.1-9.6,3.2-14.8c14,1.6,26.7,10.5,41.5-3.5
			c-2.2,7.3-2.7,10.7-4.2,13.7c-4.8,10.2-6.9,20.8-6.3,32c0.3,6,2.7,9.8,9.6,8.8l-0.6,0.6c0.3-2,0.1-4.2,0.8-6
			c3.9-9.5,8.1-19,12.1-28.4l-0.5,0.6c1.2-2.3,2.4-4.5,3.5-6.8l-0.4,0.7c1.2-3.3,2.3-6.6,3.5-9.9L147.1,128.6z"/>
		<path class="st4" d="M246.6,121.8c-5.2,11.4-10.3,22.8-15.5,34.1l-0.3-0.4c2.7,2.2,5.3,4.4,7.8,6.5c15.9-9.3,21.7-9,28.5,1.5
			c-7.7,8.1-17.7,9.3-28.1,10.2c-5.9,0.5-11.7,2.5-17.5,3.8l0.4-0.7c0,11.6-2.7,23.4,3.2,34.5l-0.6-0.5c5,0.6,9.9,1.3,12.6,1.6
			c-1.7,3.5-4.2,7.8-6.1,12.4c-1.5,3.6-2.2,7.4-3.2,11.2l0.3-0.7c0,20.7,0,41.5,0,62.6c7.8,1.8,14.6,3.3,20.9,4.7
			c7.8,23.8,8.2,30.5,3,45.9c10.6-5.2,10.6-5.2,11-15c0.4-8.2-0.6-16.5,1.6-24.6c3.3,17.9,2.7,26.2-2.8,46.4c1,0,2.1,0,3.1,0
			c7.5-5.4,8.7-13.8,10-21.6c4.7-2.5,8.7-4.7,13.4-7.2c0-7.4,0-14.8,0-22.3c-3.2-0.5-5.7-1-8.2-1.4c-1.1,5-2.2,10.1-3.3,15.1
			c0,1.4,0,2.8,0,1c-1,1.6-0.3,0.5,0.4-0.7c1.1-5.1,2.1-10.1,3.2-15.2c2.9-1.8,5.7-3.7,9.7-6.2c-1.2-17.2-2.5-34.8-3.7-52.5
			c0,0,0.3,0.6,0.3,0.6c-1.7-6.7-3.5-13.4-5.2-20.1c4.1-2.9,7.8-5.6,11.5-8.2l-0.4,0.7c0-2.5,0-5,0-8.8c-8,3.5-15.3,6.4-20.2-2.5
			c-1,3.4-1.9,6.7-3.1,10.9c-6-3.2-11.3-6-16.7-8.9c2.4-3.6,3.9-6,5.9-9c-9.6-1.1-12.2-6.4-11.3-15.9c7.6,3.1,14,6.1,20.6,8.4
			c10.2,3.6,17.9-0.7,21.8-11.8l0.3,0.6c-11.3-14.7-21.3-29.9-18.9-49.8l0.4,0.5c-1.2-1.2-2.4-2.3-3.6-3.5l0.5,0.5
			c-2.2-2.2-4.4-4.5-6.6-6.7l0.6,0.4c-5.4,0-10.8,0-16.2,0.1L246.6,121.8z M237.7,197.2c-0.9,0.1-1.7,0.3-2.6,0.4
			C236,197.4,236.9,197.3,237.7,197.2z"/>
		<path class="st4" d="M101,355.5c-9-9.3-7-21.3-6.7-32.2c0.4-13.2,2.8-26.3,7-39.8c3.7,21.3,7.4,42.6,11.1,64.1
			c4.8,0.7,7.7,1.1,10.6,1.5c0,0-0.3,0.3-0.3,0.3c-0.6-6.1-1.4-12.1-1.9-18.2c-0.6-6.9-1.2-13.9-1.3-20.8
			c-0.2-9.6-0.1-19.2-0.1-29.2c7.7-3.8,10.3-9.7,9.9-17.5c-0.2-3.2,1.9-6.4,3-9.7l-0.4,0.5c-3.2-9.4-6.3-18.8-9.4-28
			c3.2-4.6,11.6-4.8,9.2-12.5c0,0,0.5,0.5,0.5,0.5c-1.2-1.2-2.4-2.4-3.6-3.6c0,0,0.5,0.6,0.5,0.6c-2.4-3-4.8-6-6-7.5
			c1.2-8.6,2.1-15.4,2.9-21.5c-8-6-13.5-1.8-19,1.3c2.3,0.2,4.5,0.4,6.7,0.6c0.3,17.4-5.6,29.5-15.8,31.9c-4.6,1.1-10.4,1.8-14.3,0
			c-4.2-1.9-6.9-7.1-10.5-11.1c-1.9,1-4.1,2-6.2,3.1l0.3-0.6c0,4.3,0,8.7,0,13c0,0-0.4-0.6-0.4-0.6c1.2,1.2,2.4,2.4,3.7,3.6
			c0,0-0.6-0.6-0.6-0.6c1.2,1.2,2.4,2.4,3.6,3.6l-0.6-0.4c7.9,1.3,8.4,2.8,3.3,9.7l0.3-0.6c-1.1,4.3-2.3,8.7-3.4,13l0.3-0.7
			c-2.2,7.4-4.4,14.8-6.5,22.1l0.2-0.7c3.6,3.9,7.2,7.8,12,12.9c0,9.5,0.7,20.7-0.2,31.8c-1.4,16.7,8.1,28.7,16,41.7
			C96.9,355.5,98.9,355.5,101,355.5z"/>
		<path class="st4" d="M286.6,48.3c-7.5,4.6-4.8,12.9-8.6,18.9c1,0.3,2.1,0.7,3.1,1c1-4.3,2.1-8.6,3.9-16.3c1.6,3.6,2.4,5.4,4,8.8
			c0.3-5.4,0.5-8.9,0.7-12.3C288.7,48.3,287.7,48.3,286.6,48.3z"/>
		<path class="st4" d="M132.2,254c-3.5,24.9,1.2,49.5,3.1,75.2c3.3,1.3,6.8,2.6,12,4.6c-4.5-14.6-2.4-27.1,2.4-41.9
			c12.6,19.7,0.1,42.8,11.3,58.8c6.8-1.3,11.5-2.2,16.6-3.2c-0.9-4.9-2-11.3-3.3-18.7c6.7,2.6,11.4,4.5,15.7,6.2
			c-1.2-8.3-3.6-16.2-3.1-24c0.4-6.7-3.9-17,8.1-19.7c5.3,12.1,8.4,37.6,6.9,57.6c8-2.6,9.1-8.3,9-15.5c-0.3-14.8,0-29.6,0.2-44.4
			c0.1-3.9,0.9-7.8,2.4-11.6c3.6,22.9,3,46.2,9.3,68.8c1-15.9,4.8-31.1,3.1-47.4c-2.2-21-4.6-42.5,2.1-63.5l-0.3,0.7
			c-1-8.4,3.6-17.5-3.3-25.2l0.6,0.5c-10.8-10.6-7.3-22.5-3.2-34.5l-0.4,0.7c3.1-7.3,6.2-14.7,9.4-22l0.3,0.4
			c-19.3-7.6-19.3-7.6-27.8-26.6c-4.6,3.9-9.6,8.1-16.1,13.5c4.6,6.9,9.4,14.3,14.7,22.1c-4.5,2.5-8.3,4.5-12.9,7.1
			c1,6.5,2,12.8,3,19c12,6.3,14.3-7.7,23.1-9.2c-3.2,12.7-6.5,24.6-16.3,34.2c-1.1-1.6-2-2.8-3.4-4.7c-0.8,2.2-1.5,4.2-2.4,6.9
			c-3.5,0-7.2,0-11.8,0c0,13.2,0,25.8,0,38.4c-0.9,0-1.8,0-2.7,0c0-8.4,0.3-16.9-0.1-25.3c-0.3-6.3,2.4-13.5-4.6-18.4
			c-0.4-0.3,1.8-4,3-6.6c-2.1-1.2-4.5-2.6-7.1-4.2c0.9-7.6,1.8-15,2.7-22.2c-13.9-2.3-26.3-4.3-39.3-6.5c-1,0.9-2.8,2.6-4.6,4.2
			l0.6-0.6c0,11.5,0,22.9,0,34.4c0,0-0.5-0.6-0.5-0.6c1.2,1.2,2.4,2.4,3.6,3.6l-0.5-0.5c8.7,1.7,17.4,3.3,27.3,5.3
			c0.3-5.6,0.4-8.9,0.6-11.8c-3.2-2.4-5.8-4.2-8.4-6.1c-6.2-0.3-6.2-0.3-4.8-5.5c1.5,2,2.9,4,4.4,6c3.8,0.6,7.6,1.3,12.1,2
			c-0.4,6-0.7,10.8-1,15.8c-8.6,0.5-16,0.9-22.9,1.4c-2.5,12-4.8,22.8-7.1,33.6L132.2,254z M213.4,241.7c0.3,0,0.7,0,1,0
			c0,8.9,0,17.9,0,26.8c-0.3,0-0.7,0-1,0C213.4,259.5,213.4,250.6,213.4,241.7z M166.8,296.8c0.4,0,0.8,0,1.2,0c0,7.9,0,15.9,0,23.8
			c-0.4,0-0.8,0-1.2,0C166.8,312.7,166.8,304.8,166.8,296.8z M183.3,281.6c-0.3,0-0.7,0-1,0.1c0-3.9,0-7.9,0-11.8c0.3,0,0.7,0,1,0
			C183.3,273.7,183.3,277.7,183.3,281.6z M164.2,331.2c0.3,0,0.5,0,0.8,0c0,2.2,0,4.4,0,6.6c-0.3,0-0.5,0-0.8,0
			C164.2,335.6,164.2,333.4,164.2,331.2z"/>
		<path class="st4" d="M332.8,134.6c0.9-11.7-5.7-19.8-14-27.2c2.4-2.6,5.3-4.9,7.2-7.8c4.7-7.1,4-14.3-1.3-19.5
			c-6-5.8-16.6-7.2-22.6-2.3c-2.5,2-4.8,5.8-4.9,8.8c-0.2,7,1,14.1,1.7,21.8c-3.7,5.3-7.9,11.2-13,18.3
			c-6.1-11.4-7.9-24.2-22.7-28.4c-11.4,5.8-24.7,12-39,1c-6.8,6.1-17.2,7.6-20.6,17.7c9.3,11.4,19.8,14.3,32.8,7.5
			c3.1-1.6,6.8-1.9,10.3-2.8l-0.5,0.4c5.4-5.3,10.8-3.8,16.2-0.1l-0.6-0.4c2.2,2.2,4.4,4.5,6.6,6.7c0,0-0.5-0.5-0.5-0.5
			c1.2,1.2,2.4,2.3,3.6,3.5c0,0-0.4-0.5-0.4-0.5c4.5,5.9,9.1,11.8,13.6,17.7c10.6-3.1,19.6-5.7,29.1-8.5c1.5,9.6-2.1,15.3-8.7,18.8
			c2.3,7.2,6.2,3.7,9.6,2.7c0,0-0.4,0.6-0.4,0.6c1.2-2.3,2.3-4.6,3.5-6.9l-0.5,0.5c0.1-2.4,0.6-4.8,0.4-7.2
			c-0.4-4.8,2.2-5.8,6.2-5.4l-0.4,0.6c3.3-3.3,6.6-6.5,9.9-9.8L332.8,134.6z"/>
		<path class="st4" d="M178.2,109.4c3.4,2.2,6.7,4.3,10.5,6.7c5.1-3.7,10-7.2,16.7-12c-4.7-3.2-8.5-5.2-11.6-8.1
			c-2.9-2.7-4.9-6.3-6.9-9c1.4-10.9,2.6-21.3,3.9-31.6c-13.2-6.9-22.7-6.6-29.2,0.9c-6.5,7.4-5.8,13,4.1,26.4
			c-2.2,2.8-4.6,5.7-6.7,8.4c-1.7,10.9,7.4,12,13.4,15.8l-0.4-0.4c2.3,1.2,4.5,2.3,6.8,3.5L178.2,109.4z"/>
		<path class="st4" d="M184.6,128.6c-2.1-6.4-4.3-12.8-6.4-19.2c0,0,0.5,0.5,0.5,0.5c-2.3-1.2-4.5-2.3-6.8-3.5l0.4,0.4
			c-14.8,1-17.5,2.9-21.9,15.4c-0.8,2.2-2.2,4.2-3.3,6.3l0.5-0.7c-1.2,3.3-2.3,6.6-3.5,9.9c0,0,0.4-0.7,0.4-0.7
			c-1.2,2.3-2.4,4.5-3.5,6.8l0.5-0.6c0,2.5,0,4.9,0,9.1c3.4-1,6-1.7,8.6-2.6c2.4-0.8,4.7-1.9,7.6-3.2c9.1,5.6,17.9,3.5,26.7-3.5
			c0-4.6,0-9.6,0-14.7L184.6,128.6z"/>
		<path class="st4" d="M109.7,75.1c-4-2.1-7.7-4.7-11.8-6.2c-6.7-2.5-16.8,0.7-20.7,6c-3.7,4.9-3.1,13.6,1.7,19.9
			c1.5,2,4,3.3,5.4,5.3c1.1,1.5,1.4,3.6,2,5.5c16.8,2.8,20,0.3,21.1-16C107.8,85.6,108.7,81.7,109.7,75.1z"/>
		<path class="st4" d="M226.8,59.2c8.1,9.2-0.8,23.5,11.6,31.6c12.4,1,19.4-6.3,23.7-16.7c2.6-6.3,0.8-12.5-4.6-16.4
			C247.8,50.7,237.7,52,226.8,59.2z"/>
		<path class="st4" d="M59.8,90.6c-10.2-1.3-19.7-8.4-28.5,2.5c-10.9,13.5,3.3,20.8,6.5,30.5c16.6,3,20.9-0.5,21.3-16.2
			C59.2,102.4,59.5,97.5,59.8,90.6z"/>
		<path class="st4" d="M338.8,93.8c1.4,7.2,2.5,12.1,3.2,17.1c2.1,13.2,4.9,15.1,19.4,13.2c2.6-3.9,5.2-7.6,7.7-11.3
			c4-5.8,5.9-11.5,1.5-18.4c-4.4-6.9-10.6-7.9-17.4-6.5C348.3,89,343.9,91.7,338.8,93.8z"/>
		<path class="st4" d="M135.4,82.4c1.2,0.7,2.4,1.3,4.5,2.5c0-4.1,0-7.3,0-10.8c-1.6-0.3-3.2-1.2-4.3-0.8c-4.6,1.9-5.4,4.8-1.2,8.2
			c0.6-1.7,1.2-3.4,1.9-5.2c0.7,0.3,1.5,0.7,2.2,1C137.5,79.1,136.4,80.8,135.4,82.4z"/>
		<path class="st4" d="M125,93.2c0-2.9,0-5.8,0-8.6c-0.4,0-0.8-0.1-1.2-0.1c-0.6,3-1.2,6-1.7,9.1C123,93.4,124,93.3,125,93.2z"/>
		<path class="st4" d="M152.9,166.9c2.3,0,4.5,0,6.8,0c0-0.5,0-1-0.1-1.4c-2.3,0.1-4.5,0.2-6.8,0.4
			C152.9,166.2,152.9,166.6,152.9,166.9z"/>
		<path class="st4" d="M223.8,146.5c0-1.9,0-3.8,0-5.7c-0.3,0-0.6,0-0.9,0c0,1.9,0,3.8,0,5.7C223.2,146.5,223.5,146.5,223.8,146.5z"
			/>
		<path class="st4" d="M199,204.3c-0.3-2.9-0.4-4-0.5-5.2c-0.3,0.7-0.6,1.4-0.7,2.2C197.8,201.7,198.2,202.2,199,204.3z"/>
		<path class="st4" d="M344.1,133.2c1.7,0,3.5,0,5.2,0c0-0.3,0-0.7,0-1c-1.7-0.1-3.5-0.2-5.2-0.2
			C344.1,132.4,344.1,132.8,344.1,133.2z"/>
		<path class="st4" d="M212.2,75.8c1-2.2,2.1-4.3,3.1-6.5c-0.7-0.2-1.4-0.5-2.1-0.7c-0.2,2.5-0.5,5-0.7,7.4L212.2,75.8z"/>
		<path class="st4" d="M155.1,160.7C153.6,160.7,154.4,160.7,155.1,160.7C154.4,160.6,153.7,160.4,155.1,160.7z"/>
		<path class="st4" d="M182,161.1c0.4-0.1,0.7-0.2,1.1-0.4c-0.5-0.3-1-0.6-1.5-0.9c-0.1,0-0.4,0.4-0.7,0.7
			C181.3,160.7,181.6,160.9,182,161.1z"/>
		<path class="st4" d="M212.5,76.1c-0.8,0.3-1.7,0.6-2.5,0.9c0.5,0.4,1,0.8,1.5,1.3c0.2-0.8,0.5-1.6,0.7-2.4L212.5,76.1z"/>
		<polygon class="st4" points="184.4,128.4 185,127.8 184.6,128.6 		"/>
		<path class="st4" d="M231.7,354.4c13.7-16,8.9-33.2,12.1-49.6c-4.5-0.7-7.7-1.1-12.1-1.8c0,8.7,0,16.6,0,24.5
			C231.7,335.2,231.7,343,231.7,354.4z"/>
		<polygon class="st4" points="122.9,348.9 123.2,350.1 122.6,349.2 		"/>
		<path class="st4" d="M287.8,158c-0.1,1.4-0.2,2.8-0.2,4.2c0.3,0,0.6,0,0.9,0c0-1.4,0-2.8,0-4.2C288.3,158,288,158,287.8,158z"/>
		<polygon class="st4" points="338,159 337.6,157.9 337.4,159.1 		"/>
		<path class="st4" d="M85.7,140.3c-1.1,8.4-2,16.9-3.4,25.3c-0.3,2.1-2.1,4-3.2,6l0.5-0.5c1.6,1.1,4.4,3.5,4.7,3.3
			c9.2-8.9,20.4-5.9,33.2-5.2c-1.4-7.7-2.3-15-4.2-22c-3.6-12.8-11.4-15.8-23-9.4c-1.7,0.9-3.4,2.1-5.1,3.2L85.7,140.3z"/>
		<path class="st4" d="M76,183.3c1.2,8.5,6.2,11.2,13.9,8.3c6-2.3,11.7-5.5,17.5-8.2c-7-1.5-13.9-3-21.8-4.7
			C83.1,179.8,79.6,181.6,76,183.3z"/>
		<path class="st4" d="M63.6,183.6c4.3,0,8.5,0,12.8,0c0-1.9,0-3.8,0-6.3C69.8,176.2,66.3,178.9,63.6,183.6z"/>
		<path class="st4" d="M79.1,171.6c0-1.4,0.5-3,0-4.2c-0.4-0.9-1.9-1.4-2.9-2.1c-0.2,1.4-1,3.2-0.4,4.2c0.5,0.9,2.5,1.1,3.8,1.6
			C79.6,171.1,79.1,171.6,79.1,171.6z"/>
		<path class="st4" d="M60.6,168.2c0.9-1.8,1.8-3.7,2.8-5.5c-0.5-0.2-1-0.3-1.5-0.5c-0.3,2.1-0.6,4.2-0.9,6.4L60.6,168.2z"/>
		<path class="st4" d="M87.5,209c0-1.7,0-3.4,0-5.1c-0.3,0-0.6,0-0.9,0c0,1.7,0,3.4,0,5.1C86.9,209,87.2,209,87.5,209z"/>
		<path class="st4" d="M66.9,195.8c0.1,0.1,0.3,0.2,0.4,0.4L66.9,195.8z"/>
	</g>
</g>
<g>
	<path class="st4" d="M209.8,29c-6,0-12,0-18,0c-1.2,0.2-2.4,0.5-3.6,0.7c-8.5,1.3-17.1,2-25.4,4c-34.3,8.3-63,25.7-84,54.5
		c-12.3,16.8-19.6,35.6-21.5,56.4c-0.5,5.2,0,10.5-4.8,14.2c-1,0.8-1.7,2.2-2,3.5c-1.5,5.4-3.4,10.7-4,16.2
		c-1.1,9.8,0.4,19.4,5.7,28c3,4.9,7.3,7.7,13.3,7.4c3-0.2,6-0.1,9,0c0.9,0,2.2,0.3,2.6,1c1.4,2.3,2.5,4.8,4,7.7
		c-5.5,0-10.5,0.2-15.4-0.1c-3.5-0.2-5.4,1.1-6.9,4.3c-11.9,25.6-23.9,51.1-35.9,76.6c-3.4,7.3-7,14.5-10.5,21.8c0,14.7,0,29.3,0,44
		c125.7,0,251.3,0,377,0c0-14.7,0-29.3,0-44c-0.6-1.1-1.2-2.2-1.7-3.3c-14.9-31.7-29.8-63.4-44.6-95.1c-1.5-3.2-3.4-4.5-6.9-4.3
		c-4.9,0.2-9.9,0.1-15,0.1c2.4-8.3,3-8.7,10.6-8.7c1.6,0,3.2-0.1,4.9,0c5.2,0.3,9.2-1.9,12-6.1c1.6-2.5,3.1-5.1,4.1-7.9
		c3.2-9,3.6-18.2,1.7-27.5c-1.1-5.7-2.8-11.2-6.9-15.5c-2.1-2.2-2.8-4.4-2.9-7.3c-1-23.3-8.8-44.3-22.9-62.7
		c-25.2-33.1-59.3-50.6-100.1-56.2C217.6,30,213.7,29.5,209.8,29z M90.7,131.2c0.3-1,0.7-2.3,1.1-3.5c5.7-16,15.4-29.2,28.3-40
		c19.6-16.4,42.4-25.2,67.7-27.6c28.2-2.7,54.8,2.6,79.2,17.3c19.8,11.9,34.6,28.2,42.6,50.1c0.5,1.3,0.8,2.7,1.5,4.8
		c-1.8-0.9-2.9-1.5-3.9-2.1c-5.1-2.8-10.6-3.6-16.3-2.3c-11.3,2.6-18.8,11.9-18.9,23.7c-0.1,14-0.1,28.1,0,42.1
		c0,9.4,0.2,18.8,0.3,28.4c-47.5,0-95.6,0-143.8,0c0.4-2.6,1-5,1-7.3c0.1-21.4,0.3-42.8,0-64.1c-0.2-13.7-11.3-23.9-24.9-23.1
		C99.9,127.9,95.5,129.9,90.7,131.2z M381.5,322.8c-120.7,0-240.9,0-361.4,0c0.4-1,0.6-1.7,1-2.4c14-29.8,28-59.6,41.9-89.4
		c1.2-2.7,2.9-2.8,5.3-2.8c88.4,0,176.8,0,265.2,0c3,0,4.4,0.9,5.6,3.6c13.6,29.3,27.4,58.5,41.1,87.7
		C380.5,320.4,380.9,321.4,381.5,322.8z M200.5,328.8c35.6,0,71.3,0,106.9,0c23.9,0,47.9,0,71.8,0c4.2,0,4.2,0,4.2,4.3
		c0,8.5,0,16.9,0,25.4c0,5.6,0.7,4.9-5,4.9c-112.5,0-225.1,0-337.6,0c-6.5,0-13-0.1-19.4,0.1c-2.7,0.1-3.3-0.8-3.3-3.4
		c0.1-8.9,0-17.9,0.1-26.8c0-4.9-0.4-4.4,4.4-4.4C81.9,328.8,141.2,328.8,200.5,328.8z M200.7,34.8c16,0.1,30.2,1.9,46,6.9
		c32.5,10.2,58.9,28.7,76.9,58.1c9.2,15,14.2,31.4,15.4,48.9c0.2,2.7-0.6,3.6-3.2,3.4c-2.9-0.2-5.7,0-8.6-0.1c-0.9,0-2.2-0.4-2.6-1
		c-2.1-4-5-8-5.9-12.3c-4.8-22.4-16.2-40.7-33.7-55.3c-21.1-17.7-45.7-26.9-73-29.1c-29-2.3-56.3,3.5-81.2,18.8
		c-25.1,15.4-42,36.9-48.2,66.2c-0.9,4.3-4,8.2-6,12.2c-3.9,0.2-7.9,0.3-11.8,0.5c-1.8,0.1-2.5-0.7-2.3-2.5c0.3-3,0.4-6,0.9-8.9
		c4.4-29.8,19.1-53.8,42.2-72.8C133.2,45.3,165.3,35.3,200.7,34.8z M102.7,133.6c0,1.7,0,3.1,0,4.6c0,26.1,0,52.1,0,78.2
		c0,7,0.8,6.1-6.1,6.2c-9.7,0-9.8,0.1-13.7-8.9c-7.3-16.8-8.2-34.1-3.5-51.7c2.4-9,6.3-17.3,13.4-23.6
		C95.4,135.9,98.4,134,102.7,133.6z M298.8,134c0.3-0.3,0.6-0.6,0.9-0.9c2.6,1.3,5.6,2.2,7.6,4.1c3.4,3.2,6.7,6.7,9.1,10.7
		c5.3,8.5,7.5,18.1,8.3,27.9c1.1,14.2-1,27.9-7.5,40.8c-2.1,4.2-4.7,6.8-9.7,5.8c-1.3-0.2-2.7,0-4.1,0c-4.5,0-4.6,0-4.6-4.4
		c0-26.8,0-53.6,0-80.4C298.8,136.4,298.8,135.2,298.8,134z M108.3,133.4c9.8,2.1,15.5,9,15.6,18.2c0.1,20.8,0,41.5,0,62.3
		c0,2-0.5,3.9-0.8,5.9c-0.4,2-1.4,3-3.6,2.8c-2.1-0.2-4.2,0-6.4,0c-4.7,0-4.7,0-4.7-4.6c0-26.7,0-53.4,0-80.2
		C108.3,136.4,108.3,135.1,108.3,133.4z M293.1,133.7c0.1,1.5,0.2,2.9,0.2,4.3c0,26.5,0,53,0,79.4c0,0.7-0.1,1.5,0,2.2
		c0.1,2-0.6,3-2.8,2.9c-2.5-0.1-5-0.2-7.5,0c-3,0.3-4.4-1.1-4.7-3.8c-0.2-1.5-0.6-2.9-0.6-4.4c0-21-0.1-42,0-63
		C277.8,142.2,284.3,134.7,293.1,133.7z M74.6,157.7c-5,17.1-4.8,33.6-0.1,50.4c-2.9,0-5.3-0.2-7.6,0c-6,0.7-9.3-2.4-11.5-7.4
		c-3.4-7.7-4.1-15.8-3.2-24.1c0.6-5.2,1.7-10.4,4.9-14.7c1.4-1.8,3.6-3.7,5.8-4.2C66.4,157.2,70.3,157.7,74.6,157.7z M327,157.6
		c3,0,5.4,0.2,7.7,0c6-0.7,9.3,2.4,11.5,7.4c3.4,7.7,4.4,15.8,3,24.1c-0.8,4.8-2.5,9.6-4.5,14.1c-0.9,2-3.3,4.3-5.4,4.7
		c-3.9,0.7-8,0.2-12.4,0.2C331.9,191,331.8,174.6,327,157.6z"/>
	<path class="st4" d="M278.4,242.7c-15.1,0.2-29.9,2.4-43.3,9.8c-4.9,2.7-9.7,6.2-13.6,10.3c-9.3,10-8.9,22.8,0.2,33
		c5.6,6.1,12.5,10.3,20.2,13.1c27,9.6,53.7,9.2,79.8-3.2c5.4-2.6,10.2-6.2,14-10.9c8.2-10,8-22.1-0.5-31.9
		c-6.6-7.5-15.3-11.8-24.5-15C300.3,244.1,289.4,242.9,278.4,242.7z M220.9,276c1.2-5.3,3.6-9.2,7.4-12c4.6-3.4,9.3-6.8,14.5-8.9
		c21.9-8.8,44.1-9,66.5-1.9c8.4,2.7,16.1,6.7,22,13.5c6.6,7.7,6.7,16.6,0.1,24.3c-4.6,5.5-10.5,9.1-17,11.8
		c-18.3,7.5-37.2,8.5-56.5,4.7c-5.3-1-10.4-2.9-16.3-4.6c1.2-1,1.5-1.3,1.9-1.6c7.8-4.3,15.6-8.7,23.6-12.9c1.1-0.6,2.9-0.5,4.2-0.2
		c6,1.4,11.9,1.3,17.5-1.4c3.3-1.6,5.9-4.1,5.9-8c0-3.9-2.5-6.4-5.8-8c-4.9-2.3-10-2.8-15.3-1.8c-3.6,0.7-7.1,1.8-9.4,4.9
		c-1.3,1.8-2.8,2.1-4.8,2.1c-11.6,0-23.2,0-34.8,0C223.5,276.2,222.4,276,220.9,276z M220.4,282c1.9-0.1,2.9-0.2,3.9-0.2
		c12.2,0,24.3,0,36.5,0.1c0.8,0,1.6,0.9,2.3,1.3c-0.6,0.7-1.1,1.5-1.8,1.9c-7.1,4-14.5,7.7-21.4,12c-3.6,2.3-6.3,2-9.1-0.8
		c-2.4-2.4-5-4.8-7.1-7.5C222.3,287,221.7,284.7,220.4,282z M278.3,284.2c-3-1-6-1.6-8.6-2.8c-2.6-1.3-2.4-3.1,0-4.8
		c4.3-2.9,13.4-2.9,17.5,0.1c2.2,1.6,2.4,3.3-0.1,4.6C284.4,282.6,281.3,283.2,278.3,284.2z"/>
	<path class="st4" d="M123.7,242.7c-15.9,0.3-30.4,2.7-43.9,9.7c-5.2,2.7-10,6.1-13.8,10.6c-8.4,9.8-8.5,21.6-0.4,31.6
		c5.7,6.9,13.2,11.4,21.5,14.3c26.6,9.4,53,9.1,78.8-3.1c4.6-2.2,9-5.5,12.7-9.1c11-10.7,10.8-24.8,0-35.7
		c-7-7.1-15.8-11.1-25.2-14.1C143.5,243.9,133.2,242.8,123.7,242.7z M66.2,281.8c1.5,0,2.8,0,4.2,0c9.7,0,19.4,0,29.1,0
		c4.2,0,8.5-0.7,11.2,3.8c0.6,0.9,2,1.4,3.2,1.9c6.4,2.5,12.9,2.5,19.2-0.3c3.5-1.5,6.2-3.8,6.3-8c0.1-4.4-2.7-6.8-6.3-8.4
		c-5.4-2.4-11.1-2.7-16.8-1.1c-2,0.6-3.5,0.4-5.3-0.6c-7-4-14.1-7.8-21.2-11.8c-0.9-0.5-1.8-1.2-3-2c1.5-0.6,2.5-1.2,3.5-1.5
		c22.6-7.7,45.2-7.7,67.6,0.8c6.7,2.5,12.8,6.1,17.6,11.5c7.4,8.2,7.5,17.8-0.1,25.7c-3.4,3.5-7.5,6.8-11.9,8.8
		c-26,12.2-52.4,12.1-78.8,1.1c-6.1-2.6-11.6-6.4-15.5-11.9C67.6,287.6,65.9,285.3,66.2,281.8z M65.4,276.1c1.1-2.5,1.4-4.6,2.7-6
		c3.2-3.6,6.8-6.8,10.2-10.2c1.4-1.3,2.7-1.1,4.3-0.1c7.7,4.4,15.5,8.6,23.2,12.9c0.9,0.5,1.5,1.4,2.3,2.1c-1,0.4-2.1,1.2-3.1,1.3
		c-8.9,0.1-17.7,0.1-26.6,0.1C74.4,276.1,70.4,276.1,65.4,276.1z M123.3,273.7c3.1,1.1,6.1,1.8,8.8,3.1c2.2,1.1,2,2.9,0.1,4.4
		c-3.9,3-13.7,3.1-17.8,0.1c-2.2-1.7-2.4-3.4,0-4.6C117.1,275.4,120.2,274.8,123.3,273.7z"/>
	<path class="st4" d="M200.8,241.6c6,0,11.9,0,17.9,0c0.9,0,1.9,0.2,2.6-0.1c1-0.5,2.4-1.6,2.3-2.3c-0.1-1.1-1.2-2.2-2.2-2.9
		c-0.7-0.5-1.9-0.2-2.9-0.2c-11.8,0-23.6,0-35.5,0c-0.5,0-1,0-1.5,0c-1.9,0-3.7,0.6-3.7,2.8c0,2.4,1.8,2.9,3.9,2.9
		C188.1,241.6,194.4,241.6,200.8,241.6z"/>
	<path class="st4" d="M201,255c3,0,6,0,9,0c2,0,3.6-0.5,3.6-2.8c0-2.1-1.4-2.8-3.2-2.8c-6.3-0.1-12.7-0.1-19,0
		c-1.8,0-3.2,0.8-3.2,2.9c0,2.1,1.4,2.7,3.2,2.7C194.5,255,197.7,255,201,255z"/>
</g>
</svg>
